G04 #@! TF.GenerationSoftware,KiCad,Pcbnew,(5.1.4)-1*
G04 #@! TF.CreationDate,2022-03-07T10:14:24+01:00*
G04 #@! TF.ProjectId,UP1-Breadboardadapter,5550312d-4272-4656-9164-626f61726461,V00.01*
G04 #@! TF.SameCoordinates,Original*
G04 #@! TF.FileFunction,Copper,L2,Bot*
G04 #@! TF.FilePolarity,Positive*
%FSLAX46Y46*%
G04 Gerber Fmt 4.6, Leading zero omitted, Abs format (unit mm)*
G04 Created by KiCad (PCBNEW (5.1.4)-1) date 2022-03-07 10:14:24*
%MOMM*%
%LPD*%
G04 APERTURE LIST*
%ADD10O,1.000000X1.000000*%
%ADD11R,1.000000X1.000000*%
%ADD12O,1.700000X1.700000*%
%ADD13R,1.700000X1.700000*%
%ADD14C,0.250000*%
G04 APERTURE END LIST*
D10*
X76200000Y-102235000D03*
X77470000Y-102235000D03*
X78740000Y-102235000D03*
X80010000Y-102235000D03*
X81280000Y-102235000D03*
X82550000Y-102235000D03*
X83820000Y-102235000D03*
X85090000Y-102235000D03*
X86360000Y-102235000D03*
X87630000Y-102235000D03*
X88900000Y-102235000D03*
X90170000Y-102235000D03*
X91440000Y-102235000D03*
X92710000Y-102235000D03*
X93980000Y-102235000D03*
X95250000Y-102235000D03*
X96520000Y-102235000D03*
X97790000Y-102235000D03*
X99060000Y-102235000D03*
D11*
X100330000Y-102235000D03*
D12*
X76835000Y-110490000D03*
X79375000Y-110490000D03*
X81915000Y-110490000D03*
X84455000Y-110490000D03*
X86995000Y-110490000D03*
X89535000Y-110490000D03*
X92075000Y-110490000D03*
X94615000Y-110490000D03*
X97155000Y-110490000D03*
D13*
X99695000Y-110490000D03*
D12*
X76835000Y-95250000D03*
X79375000Y-95250000D03*
X81915000Y-95250000D03*
X84455000Y-95250000D03*
X86995000Y-95250000D03*
X89535000Y-95250000D03*
X92075000Y-95250000D03*
X94615000Y-95250000D03*
X97155000Y-95250000D03*
D13*
X99695000Y-95250000D03*
D14*
X93980000Y-109855000D02*
X94615000Y-110490000D01*
X93980000Y-102235000D02*
X93980000Y-109855000D01*
X96520000Y-109855000D02*
X97155000Y-110490000D01*
X96520000Y-102235000D02*
X96520000Y-109855000D01*
X77470000Y-95885000D02*
X76835000Y-95250000D01*
X77470000Y-102235000D02*
X77470000Y-95885000D01*
X80010000Y-95885000D02*
X79375000Y-95250000D01*
X80010000Y-99695000D02*
X80010000Y-95885000D01*
X80010000Y-99695000D02*
X80010000Y-102235000D01*
X82550000Y-95885000D02*
X81915000Y-95250000D01*
X82550000Y-99695000D02*
X82550000Y-95885000D01*
X82550000Y-99695000D02*
X82550000Y-102235000D01*
X85090000Y-95885000D02*
X84455000Y-95250000D01*
X85090000Y-99695000D02*
X85090000Y-95885000D01*
X85090000Y-99695000D02*
X85090000Y-102235000D01*
X87630000Y-95885000D02*
X86995000Y-95250000D01*
X87630000Y-99695000D02*
X87630000Y-95885000D01*
X87630000Y-99695000D02*
X87630000Y-102235000D01*
X90170000Y-95885000D02*
X89535000Y-95250000D01*
X90170000Y-99695000D02*
X90170000Y-95885000D01*
X90170000Y-99695000D02*
X90170000Y-102235000D01*
X92710000Y-95885000D02*
X92075000Y-95250000D01*
X92710000Y-99695000D02*
X92710000Y-95885000D01*
X92710000Y-99695000D02*
X92710000Y-102235000D01*
X95250000Y-95885000D02*
X94615000Y-95250000D01*
X95250000Y-99695000D02*
X95250000Y-95885000D01*
X95250000Y-99695000D02*
X95250000Y-102235000D01*
X97790000Y-95885000D02*
X97155000Y-95250000D01*
X97790000Y-99695000D02*
X97790000Y-95885000D01*
X97790000Y-99695000D02*
X97790000Y-102235000D01*
X100330000Y-95885000D02*
X99695000Y-95250000D01*
X100330000Y-99695000D02*
X100330000Y-95885000D01*
X100330000Y-99695000D02*
X100330000Y-102235000D01*
X76200000Y-109855000D02*
X76835000Y-110490000D01*
X76200000Y-102235000D02*
X76200000Y-109855000D01*
X78740000Y-109855000D02*
X79375000Y-110490000D01*
X78740000Y-102235000D02*
X78740000Y-109855000D01*
X81280000Y-109855000D02*
X81915000Y-110490000D01*
X81280000Y-102235000D02*
X81280000Y-109855000D01*
X83820000Y-109855000D02*
X84455000Y-110490000D01*
X83820000Y-102235000D02*
X83820000Y-109855000D01*
X86360000Y-109855000D02*
X86995000Y-110490000D01*
X86360000Y-102235000D02*
X86360000Y-109855000D01*
X88900000Y-109855000D02*
X89535000Y-110490000D01*
X88900000Y-102235000D02*
X88900000Y-109855000D01*
X91440000Y-109855000D02*
X92075000Y-110490000D01*
X91440000Y-102235000D02*
X91440000Y-109855000D01*
X99060000Y-109855000D02*
X99695000Y-110490000D01*
X99060000Y-102235000D02*
X99060000Y-109855000D01*
M02*
