M48
; DRILL file {KiCad (5.1.4)-1} date 07/03/2022 10:14:27
; FORMAT={-:-/ absolute / inch / decimal}
; #@! TF.CreationDate,2022-03-07T10:14:27+01:00
; #@! TF.GenerationSoftware,Kicad,Pcbnew,(5.1.4)-1
; #@! TF.FileFunction,Plated,1,2,PTH
FMAT,2
INCH
T1C0.0276
T2C0.0394
%
G90
G05
T1
X3.0Y-4.025
X3.05Y-4.025
X3.1Y-4.025
X3.15Y-4.025
X3.2Y-4.025
X3.25Y-4.025
X3.3Y-4.025
X3.35Y-4.025
X3.4Y-4.025
X3.45Y-4.025
X3.5Y-4.025
X3.55Y-4.025
X3.6Y-4.025
X3.65Y-4.025
X3.7Y-4.025
X3.75Y-4.025
X3.8Y-4.025
X3.85Y-4.025
X3.9Y-4.025
X3.95Y-4.025
T2
X3.025Y-4.35
X3.125Y-4.35
X3.225Y-4.35
X3.325Y-4.35
X3.425Y-4.35
X3.525Y-4.35
X3.625Y-4.35
X3.725Y-4.35
X3.825Y-4.35
X3.925Y-4.35
X3.025Y-3.75
X3.125Y-3.75
X3.225Y-3.75
X3.325Y-3.75
X3.425Y-3.75
X3.525Y-3.75
X3.625Y-3.75
X3.725Y-3.75
X3.825Y-3.75
X3.925Y-3.75
T0
M30
