G04 #@! TF.GenerationSoftware,KiCad,Pcbnew,(5.1.4)-1*
G04 #@! TF.CreationDate,2022-03-07T10:14:24+01:00*
G04 #@! TF.ProjectId,UP1-Breadboardadapter,5550312d-4272-4656-9164-626f61726461,V00.01*
G04 #@! TF.SameCoordinates,Original*
G04 #@! TF.FileFunction,Legend,Top*
G04 #@! TF.FilePolarity,Positive*
%FSLAX46Y46*%
G04 Gerber Fmt 4.6, Leading zero omitted, Abs format (unit mm)*
G04 Created by KiCad (PCBNEW (5.1.4)-1) date 2022-03-07 10:14:24*
%MOMM*%
%LPD*%
G04 APERTURE LIST*
%ADD10C,0.150000*%
%ADD11C,0.120000*%
G04 APERTURE END LIST*
D10*
X75962380Y-99147380D02*
X76152857Y-99147380D01*
X76248095Y-99195000D01*
X76343333Y-99290238D01*
X76390952Y-99480714D01*
X76390952Y-99814047D01*
X76343333Y-100004523D01*
X76248095Y-100099761D01*
X76152857Y-100147380D01*
X75962380Y-100147380D01*
X75867142Y-100099761D01*
X75771904Y-100004523D01*
X75724285Y-99814047D01*
X75724285Y-99480714D01*
X75771904Y-99290238D01*
X75867142Y-99195000D01*
X75962380Y-99147380D01*
X76819523Y-99480714D02*
X76819523Y-100480714D01*
X76819523Y-99528333D02*
X76914761Y-99480714D01*
X77105238Y-99480714D01*
X77200476Y-99528333D01*
X77248095Y-99575952D01*
X77295714Y-99671190D01*
X77295714Y-99956904D01*
X77248095Y-100052142D01*
X77200476Y-100099761D01*
X77105238Y-100147380D01*
X76914761Y-100147380D01*
X76819523Y-100099761D01*
X78105238Y-100099761D02*
X78010000Y-100147380D01*
X77819523Y-100147380D01*
X77724285Y-100099761D01*
X77676666Y-100004523D01*
X77676666Y-99623571D01*
X77724285Y-99528333D01*
X77819523Y-99480714D01*
X78010000Y-99480714D01*
X78105238Y-99528333D01*
X78152857Y-99623571D01*
X78152857Y-99718809D01*
X77676666Y-99814047D01*
X78581428Y-99480714D02*
X78581428Y-100147380D01*
X78581428Y-99575952D02*
X78629047Y-99528333D01*
X78724285Y-99480714D01*
X78867142Y-99480714D01*
X78962380Y-99528333D01*
X79010000Y-99623571D01*
X79010000Y-100147380D01*
X79486190Y-100147380D02*
X79486190Y-99147380D01*
X80057619Y-100147380D02*
X79629047Y-99575952D01*
X80057619Y-99147380D02*
X79486190Y-99718809D01*
X80486190Y-100147380D02*
X80486190Y-99147380D01*
X81057619Y-100147380D01*
X81057619Y-99147380D01*
X81438571Y-99147380D02*
X82105238Y-100147380D01*
X82105238Y-99147380D02*
X81438571Y-100147380D01*
X82486190Y-100052142D02*
X82533809Y-100099761D01*
X82486190Y-100147380D01*
X82438571Y-100099761D01*
X82486190Y-100052142D01*
X82486190Y-100147380D01*
X83390952Y-100147380D02*
X83390952Y-99147380D01*
X83390952Y-100099761D02*
X83295714Y-100147380D01*
X83105238Y-100147380D01*
X83010000Y-100099761D01*
X82962380Y-100052142D01*
X82914761Y-99956904D01*
X82914761Y-99671190D01*
X82962380Y-99575952D01*
X83010000Y-99528333D01*
X83105238Y-99480714D01*
X83295714Y-99480714D01*
X83390952Y-99528333D01*
X84248095Y-100099761D02*
X84152857Y-100147380D01*
X83962380Y-100147380D01*
X83867142Y-100099761D01*
X83819523Y-100004523D01*
X83819523Y-99623571D01*
X83867142Y-99528333D01*
X83962380Y-99480714D01*
X84152857Y-99480714D01*
X84248095Y-99528333D01*
X84295714Y-99623571D01*
X84295714Y-99718809D01*
X83819523Y-99814047D01*
X99195000Y-98903214D02*
X99147380Y-98998452D01*
X99147380Y-99141309D01*
X99195000Y-99284166D01*
X99290238Y-99379404D01*
X99385476Y-99427023D01*
X99575952Y-99474642D01*
X99718809Y-99474642D01*
X99909285Y-99427023D01*
X100004523Y-99379404D01*
X100099761Y-99284166D01*
X100147380Y-99141309D01*
X100147380Y-99046071D01*
X100099761Y-98903214D01*
X100052142Y-98855595D01*
X99718809Y-98855595D01*
X99718809Y-99046071D01*
X100147380Y-98427023D02*
X99147380Y-98427023D01*
X100147380Y-97855595D01*
X99147380Y-97855595D01*
X100147380Y-97379404D02*
X99147380Y-97379404D01*
X99147380Y-97141309D01*
X99195000Y-96998452D01*
X99290238Y-96903214D01*
X99385476Y-96855595D01*
X99575952Y-96807976D01*
X99718809Y-96807976D01*
X99909285Y-96855595D01*
X100004523Y-96903214D01*
X100099761Y-96998452D01*
X100147380Y-97141309D01*
X100147380Y-97379404D01*
X96607380Y-100331785D02*
X97607380Y-99998452D01*
X96607380Y-99665119D01*
X97512142Y-98760357D02*
X97559761Y-98807976D01*
X97607380Y-98950833D01*
X97607380Y-99046071D01*
X97559761Y-99188928D01*
X97464523Y-99284166D01*
X97369285Y-99331785D01*
X97178809Y-99379404D01*
X97035952Y-99379404D01*
X96845476Y-99331785D01*
X96750238Y-99284166D01*
X96655000Y-99188928D01*
X96607380Y-99046071D01*
X96607380Y-98950833D01*
X96655000Y-98807976D01*
X96702619Y-98760357D01*
X97512142Y-97760357D02*
X97559761Y-97807976D01*
X97607380Y-97950833D01*
X97607380Y-98046071D01*
X97559761Y-98188928D01*
X97464523Y-98284166D01*
X97369285Y-98331785D01*
X97178809Y-98379404D01*
X97035952Y-98379404D01*
X96845476Y-98331785D01*
X96750238Y-98284166D01*
X96655000Y-98188928D01*
X96607380Y-98046071D01*
X96607380Y-97950833D01*
X96655000Y-97807976D01*
X96702619Y-97760357D01*
X96702619Y-97379404D02*
X96655000Y-97331785D01*
X96607380Y-97236547D01*
X96607380Y-96998452D01*
X96655000Y-96903214D01*
X96702619Y-96855595D01*
X96797857Y-96807976D01*
X96893095Y-96807976D01*
X97035952Y-96855595D01*
X97607380Y-97427023D01*
X97607380Y-96807976D01*
X95067380Y-97760357D02*
X95067380Y-98331785D01*
X95067380Y-98046071D02*
X94067380Y-98046071D01*
X94210238Y-98141309D01*
X94305476Y-98236547D01*
X94353095Y-98331785D01*
X94400714Y-96903214D02*
X95067380Y-96903214D01*
X94019761Y-97141309D02*
X94734047Y-97379404D01*
X94734047Y-96760357D01*
X92527380Y-97760357D02*
X92527380Y-98331785D01*
X92527380Y-98046071D02*
X91527380Y-98046071D01*
X91670238Y-98141309D01*
X91765476Y-98236547D01*
X91813095Y-98331785D01*
X91527380Y-96903214D02*
X91527380Y-97093690D01*
X91575000Y-97188928D01*
X91622619Y-97236547D01*
X91765476Y-97331785D01*
X91955952Y-97379404D01*
X92336904Y-97379404D01*
X92432142Y-97331785D01*
X92479761Y-97284166D01*
X92527380Y-97188928D01*
X92527380Y-96998452D01*
X92479761Y-96903214D01*
X92432142Y-96855595D01*
X92336904Y-96807976D01*
X92098809Y-96807976D01*
X92003571Y-96855595D01*
X91955952Y-96903214D01*
X91908333Y-96998452D01*
X91908333Y-97188928D01*
X91955952Y-97284166D01*
X92003571Y-97331785D01*
X92098809Y-97379404D01*
X89987380Y-97760357D02*
X89987380Y-98331785D01*
X89987380Y-98046071D02*
X88987380Y-98046071D01*
X89130238Y-98141309D01*
X89225476Y-98236547D01*
X89273095Y-98331785D01*
X89415952Y-97188928D02*
X89368333Y-97284166D01*
X89320714Y-97331785D01*
X89225476Y-97379404D01*
X89177857Y-97379404D01*
X89082619Y-97331785D01*
X89035000Y-97284166D01*
X88987380Y-97188928D01*
X88987380Y-96998452D01*
X89035000Y-96903214D01*
X89082619Y-96855595D01*
X89177857Y-96807976D01*
X89225476Y-96807976D01*
X89320714Y-96855595D01*
X89368333Y-96903214D01*
X89415952Y-96998452D01*
X89415952Y-97188928D01*
X89463571Y-97284166D01*
X89511190Y-97331785D01*
X89606428Y-97379404D01*
X89796904Y-97379404D01*
X89892142Y-97331785D01*
X89939761Y-97284166D01*
X89987380Y-97188928D01*
X89987380Y-96998452D01*
X89939761Y-96903214D01*
X89892142Y-96855595D01*
X89796904Y-96807976D01*
X89606428Y-96807976D01*
X89511190Y-96855595D01*
X89463571Y-96903214D01*
X89415952Y-96998452D01*
X86542619Y-98331785D02*
X86495000Y-98284166D01*
X86447380Y-98188928D01*
X86447380Y-97950833D01*
X86495000Y-97855595D01*
X86542619Y-97807976D01*
X86637857Y-97760357D01*
X86733095Y-97760357D01*
X86875952Y-97807976D01*
X87447380Y-98379404D01*
X87447380Y-97760357D01*
X86447380Y-97141309D02*
X86447380Y-97046071D01*
X86495000Y-96950833D01*
X86542619Y-96903214D01*
X86637857Y-96855595D01*
X86828333Y-96807976D01*
X87066428Y-96807976D01*
X87256904Y-96855595D01*
X87352142Y-96903214D01*
X87399761Y-96950833D01*
X87447380Y-97046071D01*
X87447380Y-97141309D01*
X87399761Y-97236547D01*
X87352142Y-97284166D01*
X87256904Y-97331785D01*
X87066428Y-97379404D01*
X86828333Y-97379404D01*
X86637857Y-97331785D01*
X86542619Y-97284166D01*
X86495000Y-97236547D01*
X86447380Y-97141309D01*
X84002619Y-98331785D02*
X83955000Y-98284166D01*
X83907380Y-98188928D01*
X83907380Y-97950833D01*
X83955000Y-97855595D01*
X84002619Y-97807976D01*
X84097857Y-97760357D01*
X84193095Y-97760357D01*
X84335952Y-97807976D01*
X84907380Y-98379404D01*
X84907380Y-97760357D01*
X84002619Y-97379404D02*
X83955000Y-97331785D01*
X83907380Y-97236547D01*
X83907380Y-96998452D01*
X83955000Y-96903214D01*
X84002619Y-96855595D01*
X84097857Y-96807976D01*
X84193095Y-96807976D01*
X84335952Y-96855595D01*
X84907380Y-97427023D01*
X84907380Y-96807976D01*
X81462619Y-98331785D02*
X81415000Y-98284166D01*
X81367380Y-98188928D01*
X81367380Y-97950833D01*
X81415000Y-97855595D01*
X81462619Y-97807976D01*
X81557857Y-97760357D01*
X81653095Y-97760357D01*
X81795952Y-97807976D01*
X82367380Y-98379404D01*
X82367380Y-97760357D01*
X81700714Y-96903214D02*
X82367380Y-96903214D01*
X81319761Y-97141309D02*
X82034047Y-97379404D01*
X82034047Y-96760357D01*
X78922619Y-98331785D02*
X78875000Y-98284166D01*
X78827380Y-98188928D01*
X78827380Y-97950833D01*
X78875000Y-97855595D01*
X78922619Y-97807976D01*
X79017857Y-97760357D01*
X79113095Y-97760357D01*
X79255952Y-97807976D01*
X79827380Y-98379404D01*
X79827380Y-97760357D01*
X78827380Y-96903214D02*
X78827380Y-97093690D01*
X78875000Y-97188928D01*
X78922619Y-97236547D01*
X79065476Y-97331785D01*
X79255952Y-97379404D01*
X79636904Y-97379404D01*
X79732142Y-97331785D01*
X79779761Y-97284166D01*
X79827380Y-97188928D01*
X79827380Y-96998452D01*
X79779761Y-96903214D01*
X79732142Y-96855595D01*
X79636904Y-96807976D01*
X79398809Y-96807976D01*
X79303571Y-96855595D01*
X79255952Y-96903214D01*
X79208333Y-96998452D01*
X79208333Y-97188928D01*
X79255952Y-97284166D01*
X79303571Y-97331785D01*
X79398809Y-97379404D01*
X76382619Y-98331785D02*
X76335000Y-98284166D01*
X76287380Y-98188928D01*
X76287380Y-97950833D01*
X76335000Y-97855595D01*
X76382619Y-97807976D01*
X76477857Y-97760357D01*
X76573095Y-97760357D01*
X76715952Y-97807976D01*
X77287380Y-98379404D01*
X77287380Y-97760357D01*
X76715952Y-97188928D02*
X76668333Y-97284166D01*
X76620714Y-97331785D01*
X76525476Y-97379404D01*
X76477857Y-97379404D01*
X76382619Y-97331785D01*
X76335000Y-97284166D01*
X76287380Y-97188928D01*
X76287380Y-96998452D01*
X76335000Y-96903214D01*
X76382619Y-96855595D01*
X76477857Y-96807976D01*
X76525476Y-96807976D01*
X76620714Y-96855595D01*
X76668333Y-96903214D01*
X76715952Y-96998452D01*
X76715952Y-97188928D01*
X76763571Y-97284166D01*
X76811190Y-97331785D01*
X76906428Y-97379404D01*
X77096904Y-97379404D01*
X77192142Y-97331785D01*
X77239761Y-97284166D01*
X77287380Y-97188928D01*
X77287380Y-96998452D01*
X77239761Y-96903214D01*
X77192142Y-96855595D01*
X77096904Y-96807976D01*
X76906428Y-96807976D01*
X76811190Y-96855595D01*
X76763571Y-96903214D01*
X76715952Y-96998452D01*
X99147380Y-108979642D02*
X99147380Y-108360595D01*
X99528333Y-108693928D01*
X99528333Y-108551071D01*
X99575952Y-108455833D01*
X99623571Y-108408214D01*
X99718809Y-108360595D01*
X99956904Y-108360595D01*
X100052142Y-108408214D01*
X100099761Y-108455833D01*
X100147380Y-108551071D01*
X100147380Y-108836785D01*
X100099761Y-108932023D01*
X100052142Y-108979642D01*
X99147380Y-108074880D02*
X100147380Y-107741547D01*
X99147380Y-107408214D01*
X99147380Y-107170119D02*
X99147380Y-106551071D01*
X99528333Y-106884404D01*
X99528333Y-106741547D01*
X99575952Y-106646309D01*
X99623571Y-106598690D01*
X99718809Y-106551071D01*
X99956904Y-106551071D01*
X100052142Y-106598690D01*
X100099761Y-106646309D01*
X100147380Y-106741547D01*
X100147380Y-107027261D01*
X100099761Y-107122500D01*
X100052142Y-107170119D01*
X97607380Y-108360595D02*
X97607380Y-108932023D01*
X97607380Y-108646309D02*
X96607380Y-108646309D01*
X96750238Y-108741547D01*
X96845476Y-108836785D01*
X96893095Y-108932023D01*
X96607380Y-108027261D02*
X96607380Y-107408214D01*
X96988333Y-107741547D01*
X96988333Y-107598690D01*
X97035952Y-107503452D01*
X97083571Y-107455833D01*
X97178809Y-107408214D01*
X97416904Y-107408214D01*
X97512142Y-107455833D01*
X97559761Y-107503452D01*
X97607380Y-107598690D01*
X97607380Y-107884404D01*
X97559761Y-107979642D01*
X97512142Y-108027261D01*
X95067380Y-108360595D02*
X95067380Y-108932023D01*
X95067380Y-108646309D02*
X94067380Y-108646309D01*
X94210238Y-108741547D01*
X94305476Y-108836785D01*
X94353095Y-108932023D01*
X94067380Y-107455833D02*
X94067380Y-107932023D01*
X94543571Y-107979642D01*
X94495952Y-107932023D01*
X94448333Y-107836785D01*
X94448333Y-107598690D01*
X94495952Y-107503452D01*
X94543571Y-107455833D01*
X94638809Y-107408214D01*
X94876904Y-107408214D01*
X94972142Y-107455833D01*
X95019761Y-107503452D01*
X95067380Y-107598690D01*
X95067380Y-107836785D01*
X95019761Y-107932023D01*
X94972142Y-107979642D01*
X92527380Y-108360595D02*
X92527380Y-108932023D01*
X92527380Y-108646309D02*
X91527380Y-108646309D01*
X91670238Y-108741547D01*
X91765476Y-108836785D01*
X91813095Y-108932023D01*
X91527380Y-108027261D02*
X91527380Y-107360595D01*
X92527380Y-107789166D01*
X89987380Y-108360595D02*
X89987380Y-108932023D01*
X89987380Y-108646309D02*
X88987380Y-108646309D01*
X89130238Y-108741547D01*
X89225476Y-108836785D01*
X89273095Y-108932023D01*
X89987380Y-107884404D02*
X89987380Y-107693928D01*
X89939761Y-107598690D01*
X89892142Y-107551071D01*
X89749285Y-107455833D01*
X89558809Y-107408214D01*
X89177857Y-107408214D01*
X89082619Y-107455833D01*
X89035000Y-107503452D01*
X88987380Y-107598690D01*
X88987380Y-107789166D01*
X89035000Y-107884404D01*
X89082619Y-107932023D01*
X89177857Y-107979642D01*
X89415952Y-107979642D01*
X89511190Y-107932023D01*
X89558809Y-107884404D01*
X89606428Y-107789166D01*
X89606428Y-107598690D01*
X89558809Y-107503452D01*
X89511190Y-107455833D01*
X89415952Y-107408214D01*
X86542619Y-108932023D02*
X86495000Y-108884404D01*
X86447380Y-108789166D01*
X86447380Y-108551071D01*
X86495000Y-108455833D01*
X86542619Y-108408214D01*
X86637857Y-108360595D01*
X86733095Y-108360595D01*
X86875952Y-108408214D01*
X87447380Y-108979642D01*
X87447380Y-108360595D01*
X87447380Y-107408214D02*
X87447380Y-107979642D01*
X87447380Y-107693928D02*
X86447380Y-107693928D01*
X86590238Y-107789166D01*
X86685476Y-107884404D01*
X86733095Y-107979642D01*
X84002619Y-108932023D02*
X83955000Y-108884404D01*
X83907380Y-108789166D01*
X83907380Y-108551071D01*
X83955000Y-108455833D01*
X84002619Y-108408214D01*
X84097857Y-108360595D01*
X84193095Y-108360595D01*
X84335952Y-108408214D01*
X84907380Y-108979642D01*
X84907380Y-108360595D01*
X83907380Y-108027261D02*
X83907380Y-107408214D01*
X84288333Y-107741547D01*
X84288333Y-107598690D01*
X84335952Y-107503452D01*
X84383571Y-107455833D01*
X84478809Y-107408214D01*
X84716904Y-107408214D01*
X84812142Y-107455833D01*
X84859761Y-107503452D01*
X84907380Y-107598690D01*
X84907380Y-107884404D01*
X84859761Y-107979642D01*
X84812142Y-108027261D01*
X81462619Y-108932023D02*
X81415000Y-108884404D01*
X81367380Y-108789166D01*
X81367380Y-108551071D01*
X81415000Y-108455833D01*
X81462619Y-108408214D01*
X81557857Y-108360595D01*
X81653095Y-108360595D01*
X81795952Y-108408214D01*
X82367380Y-108979642D01*
X82367380Y-108360595D01*
X81367380Y-107455833D02*
X81367380Y-107932023D01*
X81843571Y-107979642D01*
X81795952Y-107932023D01*
X81748333Y-107836785D01*
X81748333Y-107598690D01*
X81795952Y-107503452D01*
X81843571Y-107455833D01*
X81938809Y-107408214D01*
X82176904Y-107408214D01*
X82272142Y-107455833D01*
X82319761Y-107503452D01*
X82367380Y-107598690D01*
X82367380Y-107836785D01*
X82319761Y-107932023D01*
X82272142Y-107979642D01*
X78922619Y-108932023D02*
X78875000Y-108884404D01*
X78827380Y-108789166D01*
X78827380Y-108551071D01*
X78875000Y-108455833D01*
X78922619Y-108408214D01*
X79017857Y-108360595D01*
X79113095Y-108360595D01*
X79255952Y-108408214D01*
X79827380Y-108979642D01*
X79827380Y-108360595D01*
X78827380Y-108027261D02*
X78827380Y-107360595D01*
X79827380Y-107789166D01*
X76382619Y-108932023D02*
X76335000Y-108884404D01*
X76287380Y-108789166D01*
X76287380Y-108551071D01*
X76335000Y-108455833D01*
X76382619Y-108408214D01*
X76477857Y-108360595D01*
X76573095Y-108360595D01*
X76715952Y-108408214D01*
X77287380Y-108979642D01*
X77287380Y-108360595D01*
X77287380Y-107884404D02*
X77287380Y-107693928D01*
X77239761Y-107598690D01*
X77192142Y-107551071D01*
X77049285Y-107455833D01*
X76858809Y-107408214D01*
X76477857Y-107408214D01*
X76382619Y-107455833D01*
X76335000Y-107503452D01*
X76287380Y-107598690D01*
X76287380Y-107789166D01*
X76335000Y-107884404D01*
X76382619Y-107932023D01*
X76477857Y-107979642D01*
X76715952Y-107979642D01*
X76811190Y-107932023D01*
X76858809Y-107884404D01*
X76906428Y-107789166D01*
X76906428Y-107598690D01*
X76858809Y-107503452D01*
X76811190Y-107455833D01*
X76715952Y-107408214D01*
X75701428Y-104862380D02*
X75701428Y-105671904D01*
X75749047Y-105767142D01*
X75796666Y-105814761D01*
X75891904Y-105862380D01*
X76082380Y-105862380D01*
X76177619Y-105814761D01*
X76225238Y-105767142D01*
X76272857Y-105671904D01*
X76272857Y-104862380D01*
X76749047Y-105862380D02*
X76749047Y-104862380D01*
X77130000Y-104862380D01*
X77225238Y-104910000D01*
X77272857Y-104957619D01*
X77320476Y-105052857D01*
X77320476Y-105195714D01*
X77272857Y-105290952D01*
X77225238Y-105338571D01*
X77130000Y-105386190D01*
X76749047Y-105386190D01*
X78272857Y-105862380D02*
X77701428Y-105862380D01*
X77987142Y-105862380D02*
X77987142Y-104862380D01*
X77891904Y-105005238D01*
X77796666Y-105100476D01*
X77701428Y-105148095D01*
X78701428Y-105481428D02*
X79463333Y-105481428D01*
X80272857Y-105338571D02*
X80415714Y-105386190D01*
X80463333Y-105433809D01*
X80510952Y-105529047D01*
X80510952Y-105671904D01*
X80463333Y-105767142D01*
X80415714Y-105814761D01*
X80320476Y-105862380D01*
X79939523Y-105862380D01*
X79939523Y-104862380D01*
X80272857Y-104862380D01*
X80368095Y-104910000D01*
X80415714Y-104957619D01*
X80463333Y-105052857D01*
X80463333Y-105148095D01*
X80415714Y-105243333D01*
X80368095Y-105290952D01*
X80272857Y-105338571D01*
X79939523Y-105338571D01*
X80939523Y-105862380D02*
X80939523Y-105195714D01*
X80939523Y-105386190D02*
X80987142Y-105290952D01*
X81034761Y-105243333D01*
X81130000Y-105195714D01*
X81225238Y-105195714D01*
X81939523Y-105814761D02*
X81844285Y-105862380D01*
X81653809Y-105862380D01*
X81558571Y-105814761D01*
X81510952Y-105719523D01*
X81510952Y-105338571D01*
X81558571Y-105243333D01*
X81653809Y-105195714D01*
X81844285Y-105195714D01*
X81939523Y-105243333D01*
X81987142Y-105338571D01*
X81987142Y-105433809D01*
X81510952Y-105529047D01*
X82844285Y-105862380D02*
X82844285Y-105338571D01*
X82796666Y-105243333D01*
X82701428Y-105195714D01*
X82510952Y-105195714D01*
X82415714Y-105243333D01*
X82844285Y-105814761D02*
X82749047Y-105862380D01*
X82510952Y-105862380D01*
X82415714Y-105814761D01*
X82368095Y-105719523D01*
X82368095Y-105624285D01*
X82415714Y-105529047D01*
X82510952Y-105481428D01*
X82749047Y-105481428D01*
X82844285Y-105433809D01*
X83749047Y-105862380D02*
X83749047Y-104862380D01*
X83749047Y-105814761D02*
X83653809Y-105862380D01*
X83463333Y-105862380D01*
X83368095Y-105814761D01*
X83320476Y-105767142D01*
X83272857Y-105671904D01*
X83272857Y-105386190D01*
X83320476Y-105290952D01*
X83368095Y-105243333D01*
X83463333Y-105195714D01*
X83653809Y-105195714D01*
X83749047Y-105243333D01*
X84225238Y-105862380D02*
X84225238Y-104862380D01*
X84225238Y-105243333D02*
X84320476Y-105195714D01*
X84510952Y-105195714D01*
X84606190Y-105243333D01*
X84653809Y-105290952D01*
X84701428Y-105386190D01*
X84701428Y-105671904D01*
X84653809Y-105767142D01*
X84606190Y-105814761D01*
X84510952Y-105862380D01*
X84320476Y-105862380D01*
X84225238Y-105814761D01*
X85272857Y-105862380D02*
X85177619Y-105814761D01*
X85130000Y-105767142D01*
X85082380Y-105671904D01*
X85082380Y-105386190D01*
X85130000Y-105290952D01*
X85177619Y-105243333D01*
X85272857Y-105195714D01*
X85415714Y-105195714D01*
X85510952Y-105243333D01*
X85558571Y-105290952D01*
X85606190Y-105386190D01*
X85606190Y-105671904D01*
X85558571Y-105767142D01*
X85510952Y-105814761D01*
X85415714Y-105862380D01*
X85272857Y-105862380D01*
X86463333Y-105862380D02*
X86463333Y-105338571D01*
X86415714Y-105243333D01*
X86320476Y-105195714D01*
X86130000Y-105195714D01*
X86034761Y-105243333D01*
X86463333Y-105814761D02*
X86368095Y-105862380D01*
X86130000Y-105862380D01*
X86034761Y-105814761D01*
X85987142Y-105719523D01*
X85987142Y-105624285D01*
X86034761Y-105529047D01*
X86130000Y-105481428D01*
X86368095Y-105481428D01*
X86463333Y-105433809D01*
X86939523Y-105862380D02*
X86939523Y-105195714D01*
X86939523Y-105386190D02*
X86987142Y-105290952D01*
X87034761Y-105243333D01*
X87130000Y-105195714D01*
X87225238Y-105195714D01*
X87987142Y-105862380D02*
X87987142Y-104862380D01*
X87987142Y-105814761D02*
X87891904Y-105862380D01*
X87701428Y-105862380D01*
X87606190Y-105814761D01*
X87558571Y-105767142D01*
X87510952Y-105671904D01*
X87510952Y-105386190D01*
X87558571Y-105290952D01*
X87606190Y-105243333D01*
X87701428Y-105195714D01*
X87891904Y-105195714D01*
X87987142Y-105243333D01*
X88891904Y-105862380D02*
X88891904Y-105338571D01*
X88844285Y-105243333D01*
X88749047Y-105195714D01*
X88558571Y-105195714D01*
X88463333Y-105243333D01*
X88891904Y-105814761D02*
X88796666Y-105862380D01*
X88558571Y-105862380D01*
X88463333Y-105814761D01*
X88415714Y-105719523D01*
X88415714Y-105624285D01*
X88463333Y-105529047D01*
X88558571Y-105481428D01*
X88796666Y-105481428D01*
X88891904Y-105433809D01*
X89796666Y-105862380D02*
X89796666Y-104862380D01*
X89796666Y-105814761D02*
X89701428Y-105862380D01*
X89510952Y-105862380D01*
X89415714Y-105814761D01*
X89368095Y-105767142D01*
X89320476Y-105671904D01*
X89320476Y-105386190D01*
X89368095Y-105290952D01*
X89415714Y-105243333D01*
X89510952Y-105195714D01*
X89701428Y-105195714D01*
X89796666Y-105243333D01*
X90701428Y-105862380D02*
X90701428Y-105338571D01*
X90653809Y-105243333D01*
X90558571Y-105195714D01*
X90368095Y-105195714D01*
X90272857Y-105243333D01*
X90701428Y-105814761D02*
X90606190Y-105862380D01*
X90368095Y-105862380D01*
X90272857Y-105814761D01*
X90225238Y-105719523D01*
X90225238Y-105624285D01*
X90272857Y-105529047D01*
X90368095Y-105481428D01*
X90606190Y-105481428D01*
X90701428Y-105433809D01*
X91177619Y-105195714D02*
X91177619Y-106195714D01*
X91177619Y-105243333D02*
X91272857Y-105195714D01*
X91463333Y-105195714D01*
X91558571Y-105243333D01*
X91606190Y-105290952D01*
X91653809Y-105386190D01*
X91653809Y-105671904D01*
X91606190Y-105767142D01*
X91558571Y-105814761D01*
X91463333Y-105862380D01*
X91272857Y-105862380D01*
X91177619Y-105814761D01*
X91939523Y-105195714D02*
X92320476Y-105195714D01*
X92082380Y-104862380D02*
X92082380Y-105719523D01*
X92130000Y-105814761D01*
X92225238Y-105862380D01*
X92320476Y-105862380D01*
X93034761Y-105814761D02*
X92939523Y-105862380D01*
X92749047Y-105862380D01*
X92653809Y-105814761D01*
X92606190Y-105719523D01*
X92606190Y-105338571D01*
X92653809Y-105243333D01*
X92749047Y-105195714D01*
X92939523Y-105195714D01*
X93034761Y-105243333D01*
X93082380Y-105338571D01*
X93082380Y-105433809D01*
X92606190Y-105529047D01*
X93510952Y-105862380D02*
X93510952Y-105195714D01*
X93510952Y-105386190D02*
X93558571Y-105290952D01*
X93606190Y-105243333D01*
X93701428Y-105195714D01*
X93796666Y-105195714D01*
X94749047Y-104862380D02*
X95082380Y-105862380D01*
X95415714Y-104862380D01*
X95939523Y-104862380D02*
X96034761Y-104862380D01*
X96130000Y-104910000D01*
X96177619Y-104957619D01*
X96225238Y-105052857D01*
X96272857Y-105243333D01*
X96272857Y-105481428D01*
X96225238Y-105671904D01*
X96177619Y-105767142D01*
X96130000Y-105814761D01*
X96034761Y-105862380D01*
X95939523Y-105862380D01*
X95844285Y-105814761D01*
X95796666Y-105767142D01*
X95749047Y-105671904D01*
X95701428Y-105481428D01*
X95701428Y-105243333D01*
X95749047Y-105052857D01*
X95796666Y-104957619D01*
X95844285Y-104910000D01*
X95939523Y-104862380D01*
X96891904Y-104862380D02*
X96987142Y-104862380D01*
X97082380Y-104910000D01*
X97130000Y-104957619D01*
X97177619Y-105052857D01*
X97225238Y-105243333D01*
X97225238Y-105481428D01*
X97177619Y-105671904D01*
X97130000Y-105767142D01*
X97082380Y-105814761D01*
X96987142Y-105862380D01*
X96891904Y-105862380D01*
X96796666Y-105814761D01*
X96749047Y-105767142D01*
X96701428Y-105671904D01*
X96653809Y-105481428D01*
X96653809Y-105243333D01*
X96701428Y-105052857D01*
X96749047Y-104957619D01*
X96796666Y-104910000D01*
X96891904Y-104862380D01*
X97653809Y-105767142D02*
X97701428Y-105814761D01*
X97653809Y-105862380D01*
X97606190Y-105814761D01*
X97653809Y-105767142D01*
X97653809Y-105862380D01*
X98320476Y-104862380D02*
X98415714Y-104862380D01*
X98510952Y-104910000D01*
X98558571Y-104957619D01*
X98606190Y-105052857D01*
X98653809Y-105243333D01*
X98653809Y-105481428D01*
X98606190Y-105671904D01*
X98558571Y-105767142D01*
X98510952Y-105814761D01*
X98415714Y-105862380D01*
X98320476Y-105862380D01*
X98225238Y-105814761D01*
X98177619Y-105767142D01*
X98130000Y-105671904D01*
X98082380Y-105481428D01*
X98082380Y-105243333D01*
X98130000Y-105052857D01*
X98177619Y-104957619D01*
X98225238Y-104910000D01*
X98320476Y-104862380D01*
X99606190Y-105862380D02*
X99034761Y-105862380D01*
X99320476Y-105862380D02*
X99320476Y-104862380D01*
X99225238Y-105005238D01*
X99130000Y-105100476D01*
X99034761Y-105148095D01*
D11*
X101090000Y-102235000D02*
X101090000Y-103565000D01*
X101090000Y-103565000D02*
X100330000Y-103565000D01*
X99695000Y-103565000D02*
X75505000Y-103565000D01*
X75505000Y-102542530D02*
X75505000Y-103565000D01*
X75505000Y-100905000D02*
X75505000Y-101927470D01*
X99695000Y-100905000D02*
X75505000Y-100905000D01*
X99695000Y-102995000D02*
X99695000Y-103565000D01*
X99695000Y-100905000D02*
X99695000Y-101475000D01*
D10*
X100631666Y-104227380D02*
X100631666Y-104941666D01*
X100584047Y-105084523D01*
X100488809Y-105179761D01*
X100345952Y-105227380D01*
X100250714Y-105227380D01*
X101060238Y-104322619D02*
X101107857Y-104275000D01*
X101203095Y-104227380D01*
X101441190Y-104227380D01*
X101536428Y-104275000D01*
X101584047Y-104322619D01*
X101631666Y-104417857D01*
X101631666Y-104513095D01*
X101584047Y-104655952D01*
X101012619Y-105227380D01*
X101631666Y-105227380D01*
M02*
