G04 #@! TF.GenerationSoftware,KiCad,Pcbnew,(5.1.4)-1*
G04 #@! TF.CreationDate,2022-06-06T11:17:32+02:00*
G04 #@! TF.ProjectId,UP1-Progger,5550312d-5072-46f6-9767-65722e6b6963,V00.10*
G04 #@! TF.SameCoordinates,Original*
G04 #@! TF.FileFunction,Copper,L1,Top*
G04 #@! TF.FilePolarity,Positive*
%FSLAX46Y46*%
G04 Gerber Fmt 4.6, Leading zero omitted, Abs format (unit mm)*
G04 Created by KiCad (PCBNEW (5.1.4)-1) date 2022-06-06 11:17:32*
%MOMM*%
%LPD*%
G04 APERTURE LIST*
%ADD10C,1.300000*%
%ADD11O,1.900000X1.500000*%
%ADD12R,1.600000X0.400000*%
%ADD13C,0.100000*%
%ADD14C,0.950000*%
%ADD15R,0.900000X0.800000*%
%ADD16R,1.600000X1.050000*%
%ADD17O,1.000000X1.000000*%
%ADD18R,1.000000X1.000000*%
%ADD19O,1.727200X1.727200*%
%ADD20R,1.727200X1.727200*%
%ADD21C,0.800000*%
%ADD22C,0.250000*%
%ADD23C,0.254000*%
G04 APERTURE END LIST*
D10*
X114700000Y-117995000D03*
X114700000Y-113145000D03*
D11*
X117380000Y-111945000D03*
X117380000Y-119195000D03*
D12*
X114230000Y-115570000D03*
X114230000Y-116220000D03*
X114230000Y-116870000D03*
X114230000Y-114270000D03*
X114230000Y-114920000D03*
D13*
G36*
X101860779Y-115441144D02*
G01*
X101883834Y-115444563D01*
X101906443Y-115450227D01*
X101928387Y-115458079D01*
X101949457Y-115468044D01*
X101969448Y-115480026D01*
X101988168Y-115493910D01*
X102005438Y-115509562D01*
X102021090Y-115526832D01*
X102034974Y-115545552D01*
X102046956Y-115565543D01*
X102056921Y-115586613D01*
X102064773Y-115608557D01*
X102070437Y-115631166D01*
X102073856Y-115654221D01*
X102075000Y-115677500D01*
X102075000Y-116252500D01*
X102073856Y-116275779D01*
X102070437Y-116298834D01*
X102064773Y-116321443D01*
X102056921Y-116343387D01*
X102046956Y-116364457D01*
X102034974Y-116384448D01*
X102021090Y-116403168D01*
X102005438Y-116420438D01*
X101988168Y-116436090D01*
X101969448Y-116449974D01*
X101949457Y-116461956D01*
X101928387Y-116471921D01*
X101906443Y-116479773D01*
X101883834Y-116485437D01*
X101860779Y-116488856D01*
X101837500Y-116490000D01*
X101362500Y-116490000D01*
X101339221Y-116488856D01*
X101316166Y-116485437D01*
X101293557Y-116479773D01*
X101271613Y-116471921D01*
X101250543Y-116461956D01*
X101230552Y-116449974D01*
X101211832Y-116436090D01*
X101194562Y-116420438D01*
X101178910Y-116403168D01*
X101165026Y-116384448D01*
X101153044Y-116364457D01*
X101143079Y-116343387D01*
X101135227Y-116321443D01*
X101129563Y-116298834D01*
X101126144Y-116275779D01*
X101125000Y-116252500D01*
X101125000Y-115677500D01*
X101126144Y-115654221D01*
X101129563Y-115631166D01*
X101135227Y-115608557D01*
X101143079Y-115586613D01*
X101153044Y-115565543D01*
X101165026Y-115545552D01*
X101178910Y-115526832D01*
X101194562Y-115509562D01*
X101211832Y-115493910D01*
X101230552Y-115480026D01*
X101250543Y-115468044D01*
X101271613Y-115458079D01*
X101293557Y-115450227D01*
X101316166Y-115444563D01*
X101339221Y-115441144D01*
X101362500Y-115440000D01*
X101837500Y-115440000D01*
X101860779Y-115441144D01*
X101860779Y-115441144D01*
G37*
D14*
X101600000Y-115965000D03*
D13*
G36*
X101860779Y-117191144D02*
G01*
X101883834Y-117194563D01*
X101906443Y-117200227D01*
X101928387Y-117208079D01*
X101949457Y-117218044D01*
X101969448Y-117230026D01*
X101988168Y-117243910D01*
X102005438Y-117259562D01*
X102021090Y-117276832D01*
X102034974Y-117295552D01*
X102046956Y-117315543D01*
X102056921Y-117336613D01*
X102064773Y-117358557D01*
X102070437Y-117381166D01*
X102073856Y-117404221D01*
X102075000Y-117427500D01*
X102075000Y-118002500D01*
X102073856Y-118025779D01*
X102070437Y-118048834D01*
X102064773Y-118071443D01*
X102056921Y-118093387D01*
X102046956Y-118114457D01*
X102034974Y-118134448D01*
X102021090Y-118153168D01*
X102005438Y-118170438D01*
X101988168Y-118186090D01*
X101969448Y-118199974D01*
X101949457Y-118211956D01*
X101928387Y-118221921D01*
X101906443Y-118229773D01*
X101883834Y-118235437D01*
X101860779Y-118238856D01*
X101837500Y-118240000D01*
X101362500Y-118240000D01*
X101339221Y-118238856D01*
X101316166Y-118235437D01*
X101293557Y-118229773D01*
X101271613Y-118221921D01*
X101250543Y-118211956D01*
X101230552Y-118199974D01*
X101211832Y-118186090D01*
X101194562Y-118170438D01*
X101178910Y-118153168D01*
X101165026Y-118134448D01*
X101153044Y-118114457D01*
X101143079Y-118093387D01*
X101135227Y-118071443D01*
X101129563Y-118048834D01*
X101126144Y-118025779D01*
X101125000Y-118002500D01*
X101125000Y-117427500D01*
X101126144Y-117404221D01*
X101129563Y-117381166D01*
X101135227Y-117358557D01*
X101143079Y-117336613D01*
X101153044Y-117315543D01*
X101165026Y-117295552D01*
X101178910Y-117276832D01*
X101194562Y-117259562D01*
X101211832Y-117243910D01*
X101230552Y-117230026D01*
X101250543Y-117218044D01*
X101271613Y-117208079D01*
X101293557Y-117200227D01*
X101316166Y-117194563D01*
X101339221Y-117191144D01*
X101362500Y-117190000D01*
X101837500Y-117190000D01*
X101860779Y-117191144D01*
X101860779Y-117191144D01*
G37*
D14*
X101600000Y-117715000D03*
D13*
G36*
X108210779Y-115441144D02*
G01*
X108233834Y-115444563D01*
X108256443Y-115450227D01*
X108278387Y-115458079D01*
X108299457Y-115468044D01*
X108319448Y-115480026D01*
X108338168Y-115493910D01*
X108355438Y-115509562D01*
X108371090Y-115526832D01*
X108384974Y-115545552D01*
X108396956Y-115565543D01*
X108406921Y-115586613D01*
X108414773Y-115608557D01*
X108420437Y-115631166D01*
X108423856Y-115654221D01*
X108425000Y-115677500D01*
X108425000Y-116252500D01*
X108423856Y-116275779D01*
X108420437Y-116298834D01*
X108414773Y-116321443D01*
X108406921Y-116343387D01*
X108396956Y-116364457D01*
X108384974Y-116384448D01*
X108371090Y-116403168D01*
X108355438Y-116420438D01*
X108338168Y-116436090D01*
X108319448Y-116449974D01*
X108299457Y-116461956D01*
X108278387Y-116471921D01*
X108256443Y-116479773D01*
X108233834Y-116485437D01*
X108210779Y-116488856D01*
X108187500Y-116490000D01*
X107712500Y-116490000D01*
X107689221Y-116488856D01*
X107666166Y-116485437D01*
X107643557Y-116479773D01*
X107621613Y-116471921D01*
X107600543Y-116461956D01*
X107580552Y-116449974D01*
X107561832Y-116436090D01*
X107544562Y-116420438D01*
X107528910Y-116403168D01*
X107515026Y-116384448D01*
X107503044Y-116364457D01*
X107493079Y-116343387D01*
X107485227Y-116321443D01*
X107479563Y-116298834D01*
X107476144Y-116275779D01*
X107475000Y-116252500D01*
X107475000Y-115677500D01*
X107476144Y-115654221D01*
X107479563Y-115631166D01*
X107485227Y-115608557D01*
X107493079Y-115586613D01*
X107503044Y-115565543D01*
X107515026Y-115545552D01*
X107528910Y-115526832D01*
X107544562Y-115509562D01*
X107561832Y-115493910D01*
X107580552Y-115480026D01*
X107600543Y-115468044D01*
X107621613Y-115458079D01*
X107643557Y-115450227D01*
X107666166Y-115444563D01*
X107689221Y-115441144D01*
X107712500Y-115440000D01*
X108187500Y-115440000D01*
X108210779Y-115441144D01*
X108210779Y-115441144D01*
G37*
D14*
X107950000Y-115965000D03*
D13*
G36*
X108210779Y-117191144D02*
G01*
X108233834Y-117194563D01*
X108256443Y-117200227D01*
X108278387Y-117208079D01*
X108299457Y-117218044D01*
X108319448Y-117230026D01*
X108338168Y-117243910D01*
X108355438Y-117259562D01*
X108371090Y-117276832D01*
X108384974Y-117295552D01*
X108396956Y-117315543D01*
X108406921Y-117336613D01*
X108414773Y-117358557D01*
X108420437Y-117381166D01*
X108423856Y-117404221D01*
X108425000Y-117427500D01*
X108425000Y-118002500D01*
X108423856Y-118025779D01*
X108420437Y-118048834D01*
X108414773Y-118071443D01*
X108406921Y-118093387D01*
X108396956Y-118114457D01*
X108384974Y-118134448D01*
X108371090Y-118153168D01*
X108355438Y-118170438D01*
X108338168Y-118186090D01*
X108319448Y-118199974D01*
X108299457Y-118211956D01*
X108278387Y-118221921D01*
X108256443Y-118229773D01*
X108233834Y-118235437D01*
X108210779Y-118238856D01*
X108187500Y-118240000D01*
X107712500Y-118240000D01*
X107689221Y-118238856D01*
X107666166Y-118235437D01*
X107643557Y-118229773D01*
X107621613Y-118221921D01*
X107600543Y-118211956D01*
X107580552Y-118199974D01*
X107561832Y-118186090D01*
X107544562Y-118170438D01*
X107528910Y-118153168D01*
X107515026Y-118134448D01*
X107503044Y-118114457D01*
X107493079Y-118093387D01*
X107485227Y-118071443D01*
X107479563Y-118048834D01*
X107476144Y-118025779D01*
X107475000Y-118002500D01*
X107475000Y-117427500D01*
X107476144Y-117404221D01*
X107479563Y-117381166D01*
X107485227Y-117358557D01*
X107493079Y-117336613D01*
X107503044Y-117315543D01*
X107515026Y-117295552D01*
X107528910Y-117276832D01*
X107544562Y-117259562D01*
X107561832Y-117243910D01*
X107580552Y-117230026D01*
X107600543Y-117218044D01*
X107621613Y-117208079D01*
X107643557Y-117200227D01*
X107666166Y-117194563D01*
X107689221Y-117191144D01*
X107712500Y-117190000D01*
X108187500Y-117190000D01*
X108210779Y-117191144D01*
X108210779Y-117191144D01*
G37*
D14*
X107950000Y-117715000D03*
D15*
X105775000Y-116840000D03*
X103775000Y-117790000D03*
X103775000Y-115890000D03*
D16*
X101155000Y-124900000D03*
X101155000Y-122750000D03*
X105855000Y-124900000D03*
X105855000Y-122750000D03*
D17*
X91440000Y-121920000D03*
X91440000Y-120650000D03*
X91440000Y-119380000D03*
X91440000Y-118110000D03*
X91440000Y-116840000D03*
X91440000Y-115570000D03*
X91440000Y-114300000D03*
D18*
X91440000Y-113030000D03*
D16*
X110680000Y-124900000D03*
X110680000Y-122750000D03*
X115380000Y-124900000D03*
X115380000Y-122750000D03*
D19*
X113030000Y-100330000D03*
X113030000Y-102870000D03*
X110490000Y-100330000D03*
X110490000Y-102870000D03*
X107950000Y-100330000D03*
X107950000Y-102870000D03*
X105410000Y-100330000D03*
X105410000Y-102870000D03*
X102870000Y-100330000D03*
D20*
X102870000Y-102870000D03*
D17*
X106045000Y-109220000D03*
X106045000Y-110490000D03*
X104775000Y-109220000D03*
X104775000Y-110490000D03*
X103505000Y-109220000D03*
X103505000Y-110490000D03*
X102235000Y-109220000D03*
X102235000Y-110490000D03*
X100965000Y-109220000D03*
D18*
X100965000Y-110490000D03*
D21*
X112110000Y-115570000D03*
X109595000Y-115915000D03*
X99715000Y-117715000D03*
X99850000Y-114460000D03*
X101600000Y-113665000D03*
X104140000Y-113665000D03*
X110490000Y-113665000D03*
X115570000Y-106045000D03*
X103505000Y-106680000D03*
X107950000Y-106680000D03*
X99060000Y-96520000D03*
X116840000Y-96520000D03*
X99060000Y-126365000D03*
X107950000Y-126365000D03*
X117475000Y-126365000D03*
X112395000Y-120015000D03*
X106680000Y-120015000D03*
X95885000Y-118745000D03*
X101600000Y-120650000D03*
D22*
X114330000Y-124900000D02*
X110680000Y-124900000D01*
X115380000Y-124900000D02*
X114330000Y-124900000D01*
X109630000Y-124900000D02*
X108530000Y-123800000D01*
X110680000Y-124900000D02*
X109630000Y-124900000D01*
X96960000Y-120650000D02*
X91440000Y-120650000D01*
X100110000Y-123800000D02*
X96960000Y-120650000D01*
X103510000Y-119490002D02*
X103510000Y-123800000D01*
X104790000Y-118210002D02*
X103510000Y-119490002D01*
X104790000Y-115420000D02*
X104790000Y-118210002D01*
X108530000Y-123800000D02*
X103510000Y-123800000D01*
X106045000Y-109220000D02*
X107130000Y-109220000D01*
X107130000Y-109220000D02*
X107500000Y-109590000D01*
X103510000Y-123800000D02*
X100110000Y-123800000D01*
X107500000Y-109590000D02*
X107500000Y-112710000D01*
X107500000Y-112710000D02*
X104790000Y-115420000D01*
X93226410Y-119380000D02*
X99210000Y-113396410D01*
X91440000Y-119380000D02*
X93226410Y-119380000D01*
X99210000Y-113396410D02*
X99210000Y-109860000D01*
X99850000Y-109220000D02*
X100965000Y-109220000D01*
X99210000Y-109860000D02*
X99850000Y-109220000D01*
X91440000Y-118110000D02*
X93860000Y-118110000D01*
X102235000Y-108512894D02*
X101822106Y-108100000D01*
X102235000Y-109220000D02*
X102235000Y-108512894D01*
X100333590Y-108100000D02*
X98759990Y-109673600D01*
X101822106Y-108100000D02*
X100333590Y-108100000D01*
X98759990Y-113210010D02*
X98325000Y-113645000D01*
X98759990Y-109673600D02*
X98759990Y-113210010D01*
X93860000Y-118110000D02*
X98325000Y-113645000D01*
X98325000Y-113645000D02*
X98400000Y-113570000D01*
X112110000Y-115570000D02*
X114230000Y-115570000D01*
X109994999Y-116314999D02*
X109595000Y-115915000D01*
X113209990Y-116314999D02*
X109994999Y-116314999D01*
X113304989Y-116220000D02*
X113209990Y-116314999D01*
X114230000Y-116220000D02*
X113304989Y-116220000D01*
X103700000Y-117715000D02*
X103775000Y-117790000D01*
X101600000Y-117715000D02*
X103700000Y-117715000D01*
X101600000Y-117715000D02*
X99715000Y-117715000D01*
X99715000Y-114595000D02*
X99850000Y-114460000D01*
X99715000Y-117715000D02*
X99715000Y-114595000D01*
X99850000Y-114460000D02*
X99850000Y-112370000D01*
X100965000Y-111255000D02*
X100965000Y-110490000D01*
X99850000Y-112370000D02*
X100965000Y-111255000D01*
X92190000Y-113030000D02*
X92825000Y-113665000D01*
X91440000Y-113030000D02*
X92190000Y-113030000D01*
X92825000Y-113665000D02*
X93345000Y-113665000D01*
X111095000Y-114270000D02*
X110490000Y-113665000D01*
X114230000Y-114270000D02*
X111095000Y-114270000D01*
X105775000Y-117490000D02*
X105775000Y-116840000D01*
X106000000Y-117715000D02*
X105775000Y-117490000D01*
X107950000Y-117715000D02*
X106000000Y-117715000D01*
X114230000Y-116870000D02*
X112160000Y-116870000D01*
X111315000Y-117715000D02*
X107950000Y-117715000D01*
X112160000Y-116870000D02*
X111315000Y-117715000D01*
X91440000Y-121920000D02*
X97390000Y-121920000D01*
X97390000Y-121920000D02*
X98850000Y-123380000D01*
X98850000Y-123380000D02*
X98850000Y-124450000D01*
X99300000Y-124900000D02*
X101155000Y-124900000D01*
X98850000Y-124450000D02*
X99300000Y-124900000D01*
X102205000Y-124900000D02*
X105855000Y-124900000D01*
X101155000Y-124900000D02*
X102205000Y-124900000D01*
D23*
G36*
X118720000Y-111150907D02*
G01*
X118564081Y-110960919D01*
X118353188Y-110787843D01*
X118112581Y-110659236D01*
X117851507Y-110580040D01*
X117648037Y-110560000D01*
X117111963Y-110560000D01*
X116908493Y-110580040D01*
X116647419Y-110659236D01*
X116406812Y-110787843D01*
X116195919Y-110960919D01*
X116022843Y-111171812D01*
X115894236Y-111412419D01*
X115815040Y-111673493D01*
X115788299Y-111945000D01*
X115815040Y-112216507D01*
X115894236Y-112477581D01*
X116022843Y-112718188D01*
X116195919Y-112929081D01*
X116406812Y-113102157D01*
X116647419Y-113230764D01*
X116908493Y-113309960D01*
X117111963Y-113330000D01*
X117648037Y-113330000D01*
X117851507Y-113309960D01*
X118112581Y-113230764D01*
X118353188Y-113102157D01*
X118564081Y-112929081D01*
X118720001Y-112739093D01*
X118720001Y-118400907D01*
X118564081Y-118210919D01*
X118353188Y-118037843D01*
X118112581Y-117909236D01*
X117851507Y-117830040D01*
X117648037Y-117810000D01*
X117111963Y-117810000D01*
X116908493Y-117830040D01*
X116647419Y-117909236D01*
X116406812Y-118037843D01*
X116195919Y-118210919D01*
X116022843Y-118421812D01*
X115894236Y-118662419D01*
X115815040Y-118923493D01*
X115788299Y-119195000D01*
X115815040Y-119466507D01*
X115894236Y-119727581D01*
X116022843Y-119968188D01*
X116195919Y-120179081D01*
X116406812Y-120352157D01*
X116647419Y-120480764D01*
X116908493Y-120559960D01*
X117111963Y-120580000D01*
X117648037Y-120580000D01*
X117851507Y-120559960D01*
X118112581Y-120480764D01*
X118353188Y-120352157D01*
X118564081Y-120179081D01*
X118720001Y-119989093D01*
X118720001Y-127610000D01*
X97815000Y-127610000D01*
X97815000Y-123919581D01*
X97812198Y-123891135D01*
X97812253Y-123883318D01*
X97811354Y-123874147D01*
X97785446Y-123627644D01*
X97773414Y-123569028D01*
X97762208Y-123510284D01*
X97759544Y-123501462D01*
X97698069Y-123302871D01*
X98090000Y-123694802D01*
X98090001Y-124412668D01*
X98086324Y-124450000D01*
X98090001Y-124487333D01*
X98100998Y-124598986D01*
X98114180Y-124642442D01*
X98144454Y-124742246D01*
X98215026Y-124874276D01*
X98286201Y-124961002D01*
X98310000Y-124990001D01*
X98338998Y-125013799D01*
X98736196Y-125410997D01*
X98759999Y-125440001D01*
X98833146Y-125500031D01*
X98875723Y-125534974D01*
X99007753Y-125605546D01*
X99151014Y-125649003D01*
X99262667Y-125660000D01*
X99262676Y-125660000D01*
X99299999Y-125663676D01*
X99337322Y-125660000D01*
X99762713Y-125660000D01*
X99765498Y-125669180D01*
X99824463Y-125779494D01*
X99903815Y-125876185D01*
X100000506Y-125955537D01*
X100110820Y-126014502D01*
X100230518Y-126050812D01*
X100355000Y-126063072D01*
X101955000Y-126063072D01*
X102079482Y-126050812D01*
X102199180Y-126014502D01*
X102309494Y-125955537D01*
X102406185Y-125876185D01*
X102485537Y-125779494D01*
X102544502Y-125669180D01*
X102547287Y-125660000D01*
X104462713Y-125660000D01*
X104465498Y-125669180D01*
X104524463Y-125779494D01*
X104603815Y-125876185D01*
X104700506Y-125955537D01*
X104810820Y-126014502D01*
X104930518Y-126050812D01*
X105055000Y-126063072D01*
X106655000Y-126063072D01*
X106779482Y-126050812D01*
X106899180Y-126014502D01*
X107009494Y-125955537D01*
X107106185Y-125876185D01*
X107185537Y-125779494D01*
X107244502Y-125669180D01*
X107280812Y-125549482D01*
X107293072Y-125425000D01*
X107293072Y-124560000D01*
X108215199Y-124560000D01*
X109066201Y-125411003D01*
X109089999Y-125440001D01*
X109118997Y-125463799D01*
X109205723Y-125534974D01*
X109258314Y-125563085D01*
X109290498Y-125669180D01*
X109349463Y-125779494D01*
X109428815Y-125876185D01*
X109525506Y-125955537D01*
X109635820Y-126014502D01*
X109755518Y-126050812D01*
X109880000Y-126063072D01*
X111480000Y-126063072D01*
X111604482Y-126050812D01*
X111724180Y-126014502D01*
X111834494Y-125955537D01*
X111931185Y-125876185D01*
X112010537Y-125779494D01*
X112069502Y-125669180D01*
X112072287Y-125660000D01*
X113987713Y-125660000D01*
X113990498Y-125669180D01*
X114049463Y-125779494D01*
X114128815Y-125876185D01*
X114225506Y-125955537D01*
X114335820Y-126014502D01*
X114455518Y-126050812D01*
X114580000Y-126063072D01*
X116180000Y-126063072D01*
X116304482Y-126050812D01*
X116424180Y-126014502D01*
X116534494Y-125955537D01*
X116631185Y-125876185D01*
X116710537Y-125779494D01*
X116769502Y-125669180D01*
X116805812Y-125549482D01*
X116818072Y-125425000D01*
X116818072Y-124375000D01*
X116805812Y-124250518D01*
X116769502Y-124130820D01*
X116710537Y-124020506D01*
X116631185Y-123923815D01*
X116534494Y-123844463D01*
X116498082Y-123825000D01*
X116534494Y-123805537D01*
X116631185Y-123726185D01*
X116710537Y-123629494D01*
X116769502Y-123519180D01*
X116805812Y-123399482D01*
X116818072Y-123275000D01*
X116815000Y-123035750D01*
X116656250Y-122877000D01*
X115507000Y-122877000D01*
X115507000Y-122897000D01*
X115253000Y-122897000D01*
X115253000Y-122877000D01*
X114103750Y-122877000D01*
X113945000Y-123035750D01*
X113941928Y-123275000D01*
X113954188Y-123399482D01*
X113990498Y-123519180D01*
X114049463Y-123629494D01*
X114128815Y-123726185D01*
X114225506Y-123805537D01*
X114261918Y-123825000D01*
X114225506Y-123844463D01*
X114128815Y-123923815D01*
X114049463Y-124020506D01*
X113990498Y-124130820D01*
X113987713Y-124140000D01*
X112072287Y-124140000D01*
X112069502Y-124130820D01*
X112010537Y-124020506D01*
X111931185Y-123923815D01*
X111834494Y-123844463D01*
X111798082Y-123825000D01*
X111834494Y-123805537D01*
X111931185Y-123726185D01*
X112010537Y-123629494D01*
X112069502Y-123519180D01*
X112105812Y-123399482D01*
X112118072Y-123275000D01*
X112115000Y-123035750D01*
X111956250Y-122877000D01*
X110807000Y-122877000D01*
X110807000Y-122897000D01*
X110553000Y-122897000D01*
X110553000Y-122877000D01*
X109403750Y-122877000D01*
X109245000Y-123035750D01*
X109241928Y-123275000D01*
X109254188Y-123399482D01*
X109275918Y-123471117D01*
X109093804Y-123289002D01*
X109070001Y-123259999D01*
X108954276Y-123165026D01*
X108822247Y-123094454D01*
X108678986Y-123050997D01*
X108567333Y-123040000D01*
X108567322Y-123040000D01*
X108530000Y-123036324D01*
X108492678Y-123040000D01*
X107290055Y-123040000D01*
X107290000Y-123035750D01*
X107131250Y-122877000D01*
X105982000Y-122877000D01*
X105982000Y-122897000D01*
X105728000Y-122897000D01*
X105728000Y-122877000D01*
X104578750Y-122877000D01*
X104420000Y-123035750D01*
X104419945Y-123040000D01*
X104270000Y-123040000D01*
X104270000Y-122225000D01*
X104416928Y-122225000D01*
X104420000Y-122464250D01*
X104578750Y-122623000D01*
X105728000Y-122623000D01*
X105728000Y-121748750D01*
X105982000Y-121748750D01*
X105982000Y-122623000D01*
X107131250Y-122623000D01*
X107290000Y-122464250D01*
X107293072Y-122225000D01*
X109241928Y-122225000D01*
X109245000Y-122464250D01*
X109403750Y-122623000D01*
X110553000Y-122623000D01*
X110553000Y-121748750D01*
X110807000Y-121748750D01*
X110807000Y-122623000D01*
X111956250Y-122623000D01*
X112115000Y-122464250D01*
X112118072Y-122225000D01*
X113941928Y-122225000D01*
X113945000Y-122464250D01*
X114103750Y-122623000D01*
X115253000Y-122623000D01*
X115253000Y-121748750D01*
X115507000Y-121748750D01*
X115507000Y-122623000D01*
X116656250Y-122623000D01*
X116815000Y-122464250D01*
X116818072Y-122225000D01*
X116805812Y-122100518D01*
X116769502Y-121980820D01*
X116710537Y-121870506D01*
X116631185Y-121773815D01*
X116534494Y-121694463D01*
X116424180Y-121635498D01*
X116304482Y-121599188D01*
X116180000Y-121586928D01*
X115665750Y-121590000D01*
X115507000Y-121748750D01*
X115253000Y-121748750D01*
X115094250Y-121590000D01*
X114580000Y-121586928D01*
X114455518Y-121599188D01*
X114335820Y-121635498D01*
X114225506Y-121694463D01*
X114128815Y-121773815D01*
X114049463Y-121870506D01*
X113990498Y-121980820D01*
X113954188Y-122100518D01*
X113941928Y-122225000D01*
X112118072Y-122225000D01*
X112105812Y-122100518D01*
X112069502Y-121980820D01*
X112010537Y-121870506D01*
X111931185Y-121773815D01*
X111834494Y-121694463D01*
X111724180Y-121635498D01*
X111604482Y-121599188D01*
X111480000Y-121586928D01*
X110965750Y-121590000D01*
X110807000Y-121748750D01*
X110553000Y-121748750D01*
X110394250Y-121590000D01*
X109880000Y-121586928D01*
X109755518Y-121599188D01*
X109635820Y-121635498D01*
X109525506Y-121694463D01*
X109428815Y-121773815D01*
X109349463Y-121870506D01*
X109290498Y-121980820D01*
X109254188Y-122100518D01*
X109241928Y-122225000D01*
X107293072Y-122225000D01*
X107280812Y-122100518D01*
X107244502Y-121980820D01*
X107185537Y-121870506D01*
X107106185Y-121773815D01*
X107009494Y-121694463D01*
X106899180Y-121635498D01*
X106779482Y-121599188D01*
X106655000Y-121586928D01*
X106140750Y-121590000D01*
X105982000Y-121748750D01*
X105728000Y-121748750D01*
X105569250Y-121590000D01*
X105055000Y-121586928D01*
X104930518Y-121599188D01*
X104810820Y-121635498D01*
X104700506Y-121694463D01*
X104603815Y-121773815D01*
X104524463Y-121870506D01*
X104465498Y-121980820D01*
X104429188Y-122100518D01*
X104416928Y-122225000D01*
X104270000Y-122225000D01*
X104270000Y-119804803D01*
X105301003Y-118773801D01*
X105330001Y-118750003D01*
X105424974Y-118634278D01*
X105495546Y-118502249D01*
X105539003Y-118358988D01*
X105542571Y-118322766D01*
X105575724Y-118349974D01*
X105707753Y-118420546D01*
X105851014Y-118464003D01*
X105962667Y-118475000D01*
X105962676Y-118475000D01*
X105999999Y-118478676D01*
X106037322Y-118475000D01*
X106977036Y-118475000D01*
X106984488Y-118488942D01*
X107093377Y-118621623D01*
X107226058Y-118730512D01*
X107377433Y-118811423D01*
X107541684Y-118861248D01*
X107712500Y-118878072D01*
X108187500Y-118878072D01*
X108358316Y-118861248D01*
X108522567Y-118811423D01*
X108673942Y-118730512D01*
X108806623Y-118621623D01*
X108915512Y-118488942D01*
X108922964Y-118475000D01*
X111277678Y-118475000D01*
X111315000Y-118478676D01*
X111352322Y-118475000D01*
X111352333Y-118475000D01*
X111463986Y-118464003D01*
X111607247Y-118420546D01*
X111739276Y-118349974D01*
X111855001Y-118255001D01*
X111878803Y-118225998D01*
X112474802Y-117630000D01*
X113130627Y-117630000D01*
X113185820Y-117659502D01*
X113305518Y-117695812D01*
X113430000Y-117708072D01*
X113446898Y-117708072D01*
X113415000Y-117868439D01*
X113415000Y-118121561D01*
X113464381Y-118369821D01*
X113561247Y-118603676D01*
X113701875Y-118814140D01*
X113880860Y-118993125D01*
X114091324Y-119133753D01*
X114325179Y-119230619D01*
X114573439Y-119280000D01*
X114826561Y-119280000D01*
X115074821Y-119230619D01*
X115308676Y-119133753D01*
X115519140Y-118993125D01*
X115698125Y-118814140D01*
X115838753Y-118603676D01*
X115935619Y-118369821D01*
X115985000Y-118121561D01*
X115985000Y-117868439D01*
X115935619Y-117620179D01*
X115838753Y-117386324D01*
X115698125Y-117175860D01*
X115661275Y-117139010D01*
X115668072Y-117070000D01*
X115668072Y-116670000D01*
X115655812Y-116545518D01*
X115655655Y-116545000D01*
X115655812Y-116544482D01*
X115668072Y-116420000D01*
X115668072Y-116020000D01*
X115655812Y-115895518D01*
X115655655Y-115895000D01*
X115655812Y-115894482D01*
X115668072Y-115770000D01*
X115668072Y-115370000D01*
X115655812Y-115245518D01*
X115655655Y-115245000D01*
X115655812Y-115244482D01*
X115668072Y-115120000D01*
X115668072Y-114720000D01*
X115655812Y-114595518D01*
X115655089Y-114593134D01*
X115665000Y-114501750D01*
X115597032Y-114433782D01*
X115560537Y-114365506D01*
X115481185Y-114268815D01*
X115413798Y-114213512D01*
X115438511Y-114197000D01*
X115506250Y-114197000D01*
X115665000Y-114038250D01*
X115660990Y-114001275D01*
X115698125Y-113964140D01*
X115838753Y-113753676D01*
X115935619Y-113519821D01*
X115985000Y-113271561D01*
X115985000Y-113018439D01*
X115935619Y-112770179D01*
X115838753Y-112536324D01*
X115698125Y-112325860D01*
X115519140Y-112146875D01*
X115308676Y-112006247D01*
X115074821Y-111909381D01*
X114826561Y-111860000D01*
X114573439Y-111860000D01*
X114325179Y-111909381D01*
X114091324Y-112006247D01*
X113880860Y-112146875D01*
X113701875Y-112325860D01*
X113561247Y-112536324D01*
X113464381Y-112770179D01*
X113415000Y-113018439D01*
X113415000Y-113271561D01*
X113446920Y-113432039D01*
X113439063Y-113431992D01*
X113314420Y-113442483D01*
X113194219Y-113477089D01*
X113083078Y-113534481D01*
X112985269Y-113612452D01*
X112904551Y-113708006D01*
X112844026Y-113817472D01*
X112806020Y-113936642D01*
X112795000Y-114038250D01*
X112953750Y-114197000D01*
X113066322Y-114197000D01*
X112978815Y-114268815D01*
X112899463Y-114365506D01*
X112862968Y-114433782D01*
X112795000Y-114501750D01*
X112804911Y-114593134D01*
X112804188Y-114595518D01*
X112791928Y-114720000D01*
X112791928Y-114788217D01*
X112769774Y-114766063D01*
X112600256Y-114652795D01*
X112411898Y-114574774D01*
X112211939Y-114535000D01*
X112008061Y-114535000D01*
X111808102Y-114574774D01*
X111619744Y-114652795D01*
X111450226Y-114766063D01*
X111306063Y-114910226D01*
X111192795Y-115079744D01*
X111114774Y-115268102D01*
X111075000Y-115468061D01*
X111075000Y-115554999D01*
X110566159Y-115554999D01*
X110512205Y-115424744D01*
X110398937Y-115255226D01*
X110254774Y-115111063D01*
X110085256Y-114997795D01*
X109896898Y-114919774D01*
X109696939Y-114880000D01*
X109493061Y-114880000D01*
X109293102Y-114919774D01*
X109104744Y-114997795D01*
X108960258Y-115094337D01*
X108955537Y-115085506D01*
X108876185Y-114988815D01*
X108779494Y-114909463D01*
X108669180Y-114850498D01*
X108549482Y-114814188D01*
X108425000Y-114801928D01*
X108235750Y-114805000D01*
X108077000Y-114963750D01*
X108077000Y-115838000D01*
X108097000Y-115838000D01*
X108097000Y-116092000D01*
X108077000Y-116092000D01*
X108077000Y-116112000D01*
X107823000Y-116112000D01*
X107823000Y-116092000D01*
X106998750Y-116092000D01*
X106840000Y-116250750D01*
X106839641Y-116278693D01*
X106814502Y-116195820D01*
X106755537Y-116085506D01*
X106676185Y-115988815D01*
X106579494Y-115909463D01*
X106469180Y-115850498D01*
X106349482Y-115814188D01*
X106225000Y-115801928D01*
X105550000Y-115801928D01*
X105550000Y-115734801D01*
X105844801Y-115440000D01*
X106836928Y-115440000D01*
X106840000Y-115679250D01*
X106998750Y-115838000D01*
X107823000Y-115838000D01*
X107823000Y-114963750D01*
X107664250Y-114805000D01*
X107475000Y-114801928D01*
X107350518Y-114814188D01*
X107230820Y-114850498D01*
X107120506Y-114909463D01*
X107023815Y-114988815D01*
X106944463Y-115085506D01*
X106885498Y-115195820D01*
X106849188Y-115315518D01*
X106836928Y-115440000D01*
X105844801Y-115440000D01*
X108011003Y-113273799D01*
X108040001Y-113250001D01*
X108134974Y-113134276D01*
X108205546Y-113002247D01*
X108249003Y-112858986D01*
X108260000Y-112747333D01*
X108260000Y-112747325D01*
X108263676Y-112710000D01*
X108260000Y-112672675D01*
X108260000Y-109627322D01*
X108263676Y-109589999D01*
X108260000Y-109552677D01*
X108260000Y-109552667D01*
X108254741Y-109499271D01*
X110940209Y-109499271D01*
X110940209Y-109910923D01*
X111020518Y-110314667D01*
X111178051Y-110694984D01*
X111406753Y-111037261D01*
X111697836Y-111328344D01*
X112040113Y-111557046D01*
X112420430Y-111714579D01*
X112824174Y-111794888D01*
X113235826Y-111794888D01*
X113639570Y-111714579D01*
X114019887Y-111557046D01*
X114362164Y-111328344D01*
X114653247Y-111037261D01*
X114881949Y-110694984D01*
X115039482Y-110314667D01*
X115119791Y-109910923D01*
X115119791Y-109499271D01*
X115039482Y-109095527D01*
X114881949Y-108715210D01*
X114653247Y-108372933D01*
X114362164Y-108081850D01*
X114019887Y-107853148D01*
X113639570Y-107695615D01*
X113235826Y-107615306D01*
X112824174Y-107615306D01*
X112420430Y-107695615D01*
X112040113Y-107853148D01*
X111697836Y-108081850D01*
X111406753Y-108372933D01*
X111178051Y-108715210D01*
X111020518Y-109095527D01*
X110940209Y-109499271D01*
X108254741Y-109499271D01*
X108249003Y-109441014D01*
X108205546Y-109297753D01*
X108134974Y-109165724D01*
X108040001Y-109049999D01*
X108010998Y-109026197D01*
X107693804Y-108709003D01*
X107670001Y-108679999D01*
X107554276Y-108585026D01*
X107422247Y-108514454D01*
X107278986Y-108470997D01*
X107167333Y-108460000D01*
X107167322Y-108460000D01*
X107130000Y-108456324D01*
X107092678Y-108460000D01*
X106889569Y-108460000D01*
X106851449Y-108413551D01*
X106678623Y-108271716D01*
X106481447Y-108166324D01*
X106267499Y-108101423D01*
X106100752Y-108085000D01*
X105989248Y-108085000D01*
X105822501Y-108101423D01*
X105608553Y-108166324D01*
X105411377Y-108271716D01*
X105410000Y-108272846D01*
X105408623Y-108271716D01*
X105211447Y-108166324D01*
X104997499Y-108101423D01*
X104830752Y-108085000D01*
X104719248Y-108085000D01*
X104552501Y-108101423D01*
X104338553Y-108166324D01*
X104141377Y-108271716D01*
X104140000Y-108272846D01*
X104138623Y-108271716D01*
X103941447Y-108166324D01*
X103727499Y-108101423D01*
X103560752Y-108085000D01*
X103449248Y-108085000D01*
X103282501Y-108101423D01*
X103068553Y-108166324D01*
X102944226Y-108232778D01*
X102940546Y-108220647D01*
X102869974Y-108088618D01*
X102775001Y-107972893D01*
X102745997Y-107949090D01*
X102385910Y-107589003D01*
X102362107Y-107559999D01*
X102246382Y-107465026D01*
X102114353Y-107394454D01*
X101971092Y-107350997D01*
X101859439Y-107340000D01*
X101859428Y-107340000D01*
X101822106Y-107336324D01*
X101784784Y-107340000D01*
X100370912Y-107340000D01*
X100333589Y-107336324D01*
X100296266Y-107340000D01*
X100296257Y-107340000D01*
X100184604Y-107350997D01*
X100041343Y-107394454D01*
X99909314Y-107465026D01*
X99909312Y-107465027D01*
X99909313Y-107465027D01*
X99822586Y-107536201D01*
X99822582Y-107536205D01*
X99793589Y-107559999D01*
X99769795Y-107588992D01*
X98248992Y-109109797D01*
X98219989Y-109133599D01*
X98164861Y-109200774D01*
X98125016Y-109249324D01*
X98061055Y-109368985D01*
X98054444Y-109381354D01*
X98010987Y-109524615D01*
X97999990Y-109636268D01*
X97999990Y-109636278D01*
X97996314Y-109673600D01*
X97999990Y-109710923D01*
X97999991Y-112895208D01*
X97814003Y-113081196D01*
X97813997Y-113081201D01*
X93545199Y-117350000D01*
X92454361Y-117350000D01*
X92493676Y-117276447D01*
X92558577Y-117062499D01*
X92580491Y-116840000D01*
X92558577Y-116617501D01*
X92493676Y-116403553D01*
X92388284Y-116206377D01*
X92387154Y-116205000D01*
X92388284Y-116203623D01*
X92493676Y-116006447D01*
X92558577Y-115792499D01*
X92580491Y-115570000D01*
X92558577Y-115347501D01*
X92493676Y-115133553D01*
X92388284Y-114936377D01*
X92387154Y-114935000D01*
X92388284Y-114933623D01*
X92493676Y-114736447D01*
X92558577Y-114522499D01*
X92580491Y-114300000D01*
X92558577Y-114077501D01*
X92493676Y-113863553D01*
X92487703Y-113852379D01*
X92529502Y-113774180D01*
X92565812Y-113654482D01*
X92578072Y-113530000D01*
X92575000Y-113315750D01*
X92416252Y-113157002D01*
X92575000Y-113157002D01*
X92575000Y-113055000D01*
X95917419Y-113055000D01*
X95945865Y-113052198D01*
X95953682Y-113052253D01*
X95962853Y-113051354D01*
X96209357Y-113025446D01*
X96267986Y-113013411D01*
X96326716Y-113002208D01*
X96335532Y-112999546D01*
X96335536Y-112999545D01*
X96335539Y-112999544D01*
X96572314Y-112926249D01*
X96627457Y-112903069D01*
X96682920Y-112880661D01*
X96691054Y-112876335D01*
X96691059Y-112876333D01*
X96691064Y-112876330D01*
X96909086Y-112758447D01*
X96958654Y-112725012D01*
X97008735Y-112692241D01*
X97015876Y-112686416D01*
X97206856Y-112528423D01*
X97248995Y-112485988D01*
X97291745Y-112444125D01*
X97297618Y-112437024D01*
X97454273Y-112244947D01*
X97487374Y-112195125D01*
X97521173Y-112145763D01*
X97525556Y-112137657D01*
X97641919Y-111918809D01*
X97664707Y-111863521D01*
X97688279Y-111808525D01*
X97691003Y-111799722D01*
X97762643Y-111562441D01*
X97774264Y-111503754D01*
X97786700Y-111445248D01*
X97787663Y-111436083D01*
X97811850Y-111189405D01*
X97811850Y-111189402D01*
X97815000Y-111157419D01*
X97815000Y-100330000D01*
X101364149Y-100330000D01*
X101393084Y-100623777D01*
X101478775Y-100906264D01*
X101617931Y-101166606D01*
X101805203Y-101394797D01*
X101813265Y-101401414D01*
X101762220Y-101416898D01*
X101651906Y-101475863D01*
X101555215Y-101555215D01*
X101475863Y-101651906D01*
X101416898Y-101762220D01*
X101380588Y-101881918D01*
X101368328Y-102006400D01*
X101368328Y-103733600D01*
X101380588Y-103858082D01*
X101416898Y-103977780D01*
X101475863Y-104088094D01*
X101555215Y-104184785D01*
X101651906Y-104264137D01*
X101762220Y-104323102D01*
X101881918Y-104359412D01*
X102006400Y-104371672D01*
X103733600Y-104371672D01*
X103858082Y-104359412D01*
X103977780Y-104323102D01*
X104088094Y-104264137D01*
X104184785Y-104184785D01*
X104264137Y-104088094D01*
X104323102Y-103977780D01*
X104338586Y-103926735D01*
X104345203Y-103934797D01*
X104573394Y-104122069D01*
X104833736Y-104261225D01*
X105116223Y-104346916D01*
X105336381Y-104368600D01*
X105483619Y-104368600D01*
X105703777Y-104346916D01*
X105986264Y-104261225D01*
X106246606Y-104122069D01*
X106474797Y-103934797D01*
X106662069Y-103706606D01*
X106685863Y-103662090D01*
X106743183Y-103758488D01*
X106939707Y-103976854D01*
X107175056Y-104152684D01*
X107440186Y-104279222D01*
X107590974Y-104324958D01*
X107823000Y-104203817D01*
X107823000Y-102997000D01*
X107803000Y-102997000D01*
X107803000Y-102743000D01*
X107823000Y-102743000D01*
X107823000Y-100457000D01*
X107803000Y-100457000D01*
X107803000Y-100203000D01*
X107823000Y-100203000D01*
X107823000Y-98996183D01*
X108077000Y-98996183D01*
X108077000Y-100203000D01*
X108097000Y-100203000D01*
X108097000Y-100457000D01*
X108077000Y-100457000D01*
X108077000Y-102743000D01*
X108097000Y-102743000D01*
X108097000Y-102997000D01*
X108077000Y-102997000D01*
X108077000Y-104203817D01*
X108309026Y-104324958D01*
X108459814Y-104279222D01*
X108724944Y-104152684D01*
X108960293Y-103976854D01*
X109156817Y-103758488D01*
X109214137Y-103662090D01*
X109237931Y-103706606D01*
X109425203Y-103934797D01*
X109653394Y-104122069D01*
X109913736Y-104261225D01*
X110196223Y-104346916D01*
X110416381Y-104368600D01*
X110563619Y-104368600D01*
X110783777Y-104346916D01*
X111066264Y-104261225D01*
X111326606Y-104122069D01*
X111554797Y-103934797D01*
X111742069Y-103706606D01*
X111760000Y-103673060D01*
X111777931Y-103706606D01*
X111965203Y-103934797D01*
X112193394Y-104122069D01*
X112453736Y-104261225D01*
X112736223Y-104346916D01*
X112956381Y-104368600D01*
X113103619Y-104368600D01*
X113323777Y-104346916D01*
X113606264Y-104261225D01*
X113866606Y-104122069D01*
X114094797Y-103934797D01*
X114282069Y-103706606D01*
X114421225Y-103446264D01*
X114506916Y-103163777D01*
X114535851Y-102870000D01*
X114506916Y-102576223D01*
X114421225Y-102293736D01*
X114282069Y-102033394D01*
X114094797Y-101805203D01*
X113866606Y-101617931D01*
X113833060Y-101600000D01*
X113866606Y-101582069D01*
X114094797Y-101394797D01*
X114282069Y-101166606D01*
X114421225Y-100906264D01*
X114506916Y-100623777D01*
X114535851Y-100330000D01*
X114506916Y-100036223D01*
X114421225Y-99753736D01*
X114282069Y-99493394D01*
X114094797Y-99265203D01*
X113866606Y-99077931D01*
X113606264Y-98938775D01*
X113323777Y-98853084D01*
X113103619Y-98831400D01*
X112956381Y-98831400D01*
X112736223Y-98853084D01*
X112453736Y-98938775D01*
X112193394Y-99077931D01*
X111965203Y-99265203D01*
X111777931Y-99493394D01*
X111760000Y-99526940D01*
X111742069Y-99493394D01*
X111554797Y-99265203D01*
X111326606Y-99077931D01*
X111066264Y-98938775D01*
X110783777Y-98853084D01*
X110563619Y-98831400D01*
X110416381Y-98831400D01*
X110196223Y-98853084D01*
X109913736Y-98938775D01*
X109653394Y-99077931D01*
X109425203Y-99265203D01*
X109237931Y-99493394D01*
X109214137Y-99537910D01*
X109156817Y-99441512D01*
X108960293Y-99223146D01*
X108724944Y-99047316D01*
X108459814Y-98920778D01*
X108309026Y-98875042D01*
X108077000Y-98996183D01*
X107823000Y-98996183D01*
X107590974Y-98875042D01*
X107440186Y-98920778D01*
X107175056Y-99047316D01*
X106939707Y-99223146D01*
X106743183Y-99441512D01*
X106685863Y-99537910D01*
X106662069Y-99493394D01*
X106474797Y-99265203D01*
X106246606Y-99077931D01*
X105986264Y-98938775D01*
X105703777Y-98853084D01*
X105483619Y-98831400D01*
X105336381Y-98831400D01*
X105116223Y-98853084D01*
X104833736Y-98938775D01*
X104573394Y-99077931D01*
X104345203Y-99265203D01*
X104157931Y-99493394D01*
X104140000Y-99526940D01*
X104122069Y-99493394D01*
X103934797Y-99265203D01*
X103706606Y-99077931D01*
X103446264Y-98938775D01*
X103163777Y-98853084D01*
X102943619Y-98831400D01*
X102796381Y-98831400D01*
X102576223Y-98853084D01*
X102293736Y-98938775D01*
X102033394Y-99077931D01*
X101805203Y-99265203D01*
X101617931Y-99493394D01*
X101478775Y-99753736D01*
X101393084Y-100036223D01*
X101364149Y-100330000D01*
X97815000Y-100330000D01*
X97815000Y-95275000D01*
X118720000Y-95275000D01*
X118720000Y-111150907D01*
X118720000Y-111150907D01*
G37*
X118720000Y-111150907D02*
X118564081Y-110960919D01*
X118353188Y-110787843D01*
X118112581Y-110659236D01*
X117851507Y-110580040D01*
X117648037Y-110560000D01*
X117111963Y-110560000D01*
X116908493Y-110580040D01*
X116647419Y-110659236D01*
X116406812Y-110787843D01*
X116195919Y-110960919D01*
X116022843Y-111171812D01*
X115894236Y-111412419D01*
X115815040Y-111673493D01*
X115788299Y-111945000D01*
X115815040Y-112216507D01*
X115894236Y-112477581D01*
X116022843Y-112718188D01*
X116195919Y-112929081D01*
X116406812Y-113102157D01*
X116647419Y-113230764D01*
X116908493Y-113309960D01*
X117111963Y-113330000D01*
X117648037Y-113330000D01*
X117851507Y-113309960D01*
X118112581Y-113230764D01*
X118353188Y-113102157D01*
X118564081Y-112929081D01*
X118720001Y-112739093D01*
X118720001Y-118400907D01*
X118564081Y-118210919D01*
X118353188Y-118037843D01*
X118112581Y-117909236D01*
X117851507Y-117830040D01*
X117648037Y-117810000D01*
X117111963Y-117810000D01*
X116908493Y-117830040D01*
X116647419Y-117909236D01*
X116406812Y-118037843D01*
X116195919Y-118210919D01*
X116022843Y-118421812D01*
X115894236Y-118662419D01*
X115815040Y-118923493D01*
X115788299Y-119195000D01*
X115815040Y-119466507D01*
X115894236Y-119727581D01*
X116022843Y-119968188D01*
X116195919Y-120179081D01*
X116406812Y-120352157D01*
X116647419Y-120480764D01*
X116908493Y-120559960D01*
X117111963Y-120580000D01*
X117648037Y-120580000D01*
X117851507Y-120559960D01*
X118112581Y-120480764D01*
X118353188Y-120352157D01*
X118564081Y-120179081D01*
X118720001Y-119989093D01*
X118720001Y-127610000D01*
X97815000Y-127610000D01*
X97815000Y-123919581D01*
X97812198Y-123891135D01*
X97812253Y-123883318D01*
X97811354Y-123874147D01*
X97785446Y-123627644D01*
X97773414Y-123569028D01*
X97762208Y-123510284D01*
X97759544Y-123501462D01*
X97698069Y-123302871D01*
X98090000Y-123694802D01*
X98090001Y-124412668D01*
X98086324Y-124450000D01*
X98090001Y-124487333D01*
X98100998Y-124598986D01*
X98114180Y-124642442D01*
X98144454Y-124742246D01*
X98215026Y-124874276D01*
X98286201Y-124961002D01*
X98310000Y-124990001D01*
X98338998Y-125013799D01*
X98736196Y-125410997D01*
X98759999Y-125440001D01*
X98833146Y-125500031D01*
X98875723Y-125534974D01*
X99007753Y-125605546D01*
X99151014Y-125649003D01*
X99262667Y-125660000D01*
X99262676Y-125660000D01*
X99299999Y-125663676D01*
X99337322Y-125660000D01*
X99762713Y-125660000D01*
X99765498Y-125669180D01*
X99824463Y-125779494D01*
X99903815Y-125876185D01*
X100000506Y-125955537D01*
X100110820Y-126014502D01*
X100230518Y-126050812D01*
X100355000Y-126063072D01*
X101955000Y-126063072D01*
X102079482Y-126050812D01*
X102199180Y-126014502D01*
X102309494Y-125955537D01*
X102406185Y-125876185D01*
X102485537Y-125779494D01*
X102544502Y-125669180D01*
X102547287Y-125660000D01*
X104462713Y-125660000D01*
X104465498Y-125669180D01*
X104524463Y-125779494D01*
X104603815Y-125876185D01*
X104700506Y-125955537D01*
X104810820Y-126014502D01*
X104930518Y-126050812D01*
X105055000Y-126063072D01*
X106655000Y-126063072D01*
X106779482Y-126050812D01*
X106899180Y-126014502D01*
X107009494Y-125955537D01*
X107106185Y-125876185D01*
X107185537Y-125779494D01*
X107244502Y-125669180D01*
X107280812Y-125549482D01*
X107293072Y-125425000D01*
X107293072Y-124560000D01*
X108215199Y-124560000D01*
X109066201Y-125411003D01*
X109089999Y-125440001D01*
X109118997Y-125463799D01*
X109205723Y-125534974D01*
X109258314Y-125563085D01*
X109290498Y-125669180D01*
X109349463Y-125779494D01*
X109428815Y-125876185D01*
X109525506Y-125955537D01*
X109635820Y-126014502D01*
X109755518Y-126050812D01*
X109880000Y-126063072D01*
X111480000Y-126063072D01*
X111604482Y-126050812D01*
X111724180Y-126014502D01*
X111834494Y-125955537D01*
X111931185Y-125876185D01*
X112010537Y-125779494D01*
X112069502Y-125669180D01*
X112072287Y-125660000D01*
X113987713Y-125660000D01*
X113990498Y-125669180D01*
X114049463Y-125779494D01*
X114128815Y-125876185D01*
X114225506Y-125955537D01*
X114335820Y-126014502D01*
X114455518Y-126050812D01*
X114580000Y-126063072D01*
X116180000Y-126063072D01*
X116304482Y-126050812D01*
X116424180Y-126014502D01*
X116534494Y-125955537D01*
X116631185Y-125876185D01*
X116710537Y-125779494D01*
X116769502Y-125669180D01*
X116805812Y-125549482D01*
X116818072Y-125425000D01*
X116818072Y-124375000D01*
X116805812Y-124250518D01*
X116769502Y-124130820D01*
X116710537Y-124020506D01*
X116631185Y-123923815D01*
X116534494Y-123844463D01*
X116498082Y-123825000D01*
X116534494Y-123805537D01*
X116631185Y-123726185D01*
X116710537Y-123629494D01*
X116769502Y-123519180D01*
X116805812Y-123399482D01*
X116818072Y-123275000D01*
X116815000Y-123035750D01*
X116656250Y-122877000D01*
X115507000Y-122877000D01*
X115507000Y-122897000D01*
X115253000Y-122897000D01*
X115253000Y-122877000D01*
X114103750Y-122877000D01*
X113945000Y-123035750D01*
X113941928Y-123275000D01*
X113954188Y-123399482D01*
X113990498Y-123519180D01*
X114049463Y-123629494D01*
X114128815Y-123726185D01*
X114225506Y-123805537D01*
X114261918Y-123825000D01*
X114225506Y-123844463D01*
X114128815Y-123923815D01*
X114049463Y-124020506D01*
X113990498Y-124130820D01*
X113987713Y-124140000D01*
X112072287Y-124140000D01*
X112069502Y-124130820D01*
X112010537Y-124020506D01*
X111931185Y-123923815D01*
X111834494Y-123844463D01*
X111798082Y-123825000D01*
X111834494Y-123805537D01*
X111931185Y-123726185D01*
X112010537Y-123629494D01*
X112069502Y-123519180D01*
X112105812Y-123399482D01*
X112118072Y-123275000D01*
X112115000Y-123035750D01*
X111956250Y-122877000D01*
X110807000Y-122877000D01*
X110807000Y-122897000D01*
X110553000Y-122897000D01*
X110553000Y-122877000D01*
X109403750Y-122877000D01*
X109245000Y-123035750D01*
X109241928Y-123275000D01*
X109254188Y-123399482D01*
X109275918Y-123471117D01*
X109093804Y-123289002D01*
X109070001Y-123259999D01*
X108954276Y-123165026D01*
X108822247Y-123094454D01*
X108678986Y-123050997D01*
X108567333Y-123040000D01*
X108567322Y-123040000D01*
X108530000Y-123036324D01*
X108492678Y-123040000D01*
X107290055Y-123040000D01*
X107290000Y-123035750D01*
X107131250Y-122877000D01*
X105982000Y-122877000D01*
X105982000Y-122897000D01*
X105728000Y-122897000D01*
X105728000Y-122877000D01*
X104578750Y-122877000D01*
X104420000Y-123035750D01*
X104419945Y-123040000D01*
X104270000Y-123040000D01*
X104270000Y-122225000D01*
X104416928Y-122225000D01*
X104420000Y-122464250D01*
X104578750Y-122623000D01*
X105728000Y-122623000D01*
X105728000Y-121748750D01*
X105982000Y-121748750D01*
X105982000Y-122623000D01*
X107131250Y-122623000D01*
X107290000Y-122464250D01*
X107293072Y-122225000D01*
X109241928Y-122225000D01*
X109245000Y-122464250D01*
X109403750Y-122623000D01*
X110553000Y-122623000D01*
X110553000Y-121748750D01*
X110807000Y-121748750D01*
X110807000Y-122623000D01*
X111956250Y-122623000D01*
X112115000Y-122464250D01*
X112118072Y-122225000D01*
X113941928Y-122225000D01*
X113945000Y-122464250D01*
X114103750Y-122623000D01*
X115253000Y-122623000D01*
X115253000Y-121748750D01*
X115507000Y-121748750D01*
X115507000Y-122623000D01*
X116656250Y-122623000D01*
X116815000Y-122464250D01*
X116818072Y-122225000D01*
X116805812Y-122100518D01*
X116769502Y-121980820D01*
X116710537Y-121870506D01*
X116631185Y-121773815D01*
X116534494Y-121694463D01*
X116424180Y-121635498D01*
X116304482Y-121599188D01*
X116180000Y-121586928D01*
X115665750Y-121590000D01*
X115507000Y-121748750D01*
X115253000Y-121748750D01*
X115094250Y-121590000D01*
X114580000Y-121586928D01*
X114455518Y-121599188D01*
X114335820Y-121635498D01*
X114225506Y-121694463D01*
X114128815Y-121773815D01*
X114049463Y-121870506D01*
X113990498Y-121980820D01*
X113954188Y-122100518D01*
X113941928Y-122225000D01*
X112118072Y-122225000D01*
X112105812Y-122100518D01*
X112069502Y-121980820D01*
X112010537Y-121870506D01*
X111931185Y-121773815D01*
X111834494Y-121694463D01*
X111724180Y-121635498D01*
X111604482Y-121599188D01*
X111480000Y-121586928D01*
X110965750Y-121590000D01*
X110807000Y-121748750D01*
X110553000Y-121748750D01*
X110394250Y-121590000D01*
X109880000Y-121586928D01*
X109755518Y-121599188D01*
X109635820Y-121635498D01*
X109525506Y-121694463D01*
X109428815Y-121773815D01*
X109349463Y-121870506D01*
X109290498Y-121980820D01*
X109254188Y-122100518D01*
X109241928Y-122225000D01*
X107293072Y-122225000D01*
X107280812Y-122100518D01*
X107244502Y-121980820D01*
X107185537Y-121870506D01*
X107106185Y-121773815D01*
X107009494Y-121694463D01*
X106899180Y-121635498D01*
X106779482Y-121599188D01*
X106655000Y-121586928D01*
X106140750Y-121590000D01*
X105982000Y-121748750D01*
X105728000Y-121748750D01*
X105569250Y-121590000D01*
X105055000Y-121586928D01*
X104930518Y-121599188D01*
X104810820Y-121635498D01*
X104700506Y-121694463D01*
X104603815Y-121773815D01*
X104524463Y-121870506D01*
X104465498Y-121980820D01*
X104429188Y-122100518D01*
X104416928Y-122225000D01*
X104270000Y-122225000D01*
X104270000Y-119804803D01*
X105301003Y-118773801D01*
X105330001Y-118750003D01*
X105424974Y-118634278D01*
X105495546Y-118502249D01*
X105539003Y-118358988D01*
X105542571Y-118322766D01*
X105575724Y-118349974D01*
X105707753Y-118420546D01*
X105851014Y-118464003D01*
X105962667Y-118475000D01*
X105962676Y-118475000D01*
X105999999Y-118478676D01*
X106037322Y-118475000D01*
X106977036Y-118475000D01*
X106984488Y-118488942D01*
X107093377Y-118621623D01*
X107226058Y-118730512D01*
X107377433Y-118811423D01*
X107541684Y-118861248D01*
X107712500Y-118878072D01*
X108187500Y-118878072D01*
X108358316Y-118861248D01*
X108522567Y-118811423D01*
X108673942Y-118730512D01*
X108806623Y-118621623D01*
X108915512Y-118488942D01*
X108922964Y-118475000D01*
X111277678Y-118475000D01*
X111315000Y-118478676D01*
X111352322Y-118475000D01*
X111352333Y-118475000D01*
X111463986Y-118464003D01*
X111607247Y-118420546D01*
X111739276Y-118349974D01*
X111855001Y-118255001D01*
X111878803Y-118225998D01*
X112474802Y-117630000D01*
X113130627Y-117630000D01*
X113185820Y-117659502D01*
X113305518Y-117695812D01*
X113430000Y-117708072D01*
X113446898Y-117708072D01*
X113415000Y-117868439D01*
X113415000Y-118121561D01*
X113464381Y-118369821D01*
X113561247Y-118603676D01*
X113701875Y-118814140D01*
X113880860Y-118993125D01*
X114091324Y-119133753D01*
X114325179Y-119230619D01*
X114573439Y-119280000D01*
X114826561Y-119280000D01*
X115074821Y-119230619D01*
X115308676Y-119133753D01*
X115519140Y-118993125D01*
X115698125Y-118814140D01*
X115838753Y-118603676D01*
X115935619Y-118369821D01*
X115985000Y-118121561D01*
X115985000Y-117868439D01*
X115935619Y-117620179D01*
X115838753Y-117386324D01*
X115698125Y-117175860D01*
X115661275Y-117139010D01*
X115668072Y-117070000D01*
X115668072Y-116670000D01*
X115655812Y-116545518D01*
X115655655Y-116545000D01*
X115655812Y-116544482D01*
X115668072Y-116420000D01*
X115668072Y-116020000D01*
X115655812Y-115895518D01*
X115655655Y-115895000D01*
X115655812Y-115894482D01*
X115668072Y-115770000D01*
X115668072Y-115370000D01*
X115655812Y-115245518D01*
X115655655Y-115245000D01*
X115655812Y-115244482D01*
X115668072Y-115120000D01*
X115668072Y-114720000D01*
X115655812Y-114595518D01*
X115655089Y-114593134D01*
X115665000Y-114501750D01*
X115597032Y-114433782D01*
X115560537Y-114365506D01*
X115481185Y-114268815D01*
X115413798Y-114213512D01*
X115438511Y-114197000D01*
X115506250Y-114197000D01*
X115665000Y-114038250D01*
X115660990Y-114001275D01*
X115698125Y-113964140D01*
X115838753Y-113753676D01*
X115935619Y-113519821D01*
X115985000Y-113271561D01*
X115985000Y-113018439D01*
X115935619Y-112770179D01*
X115838753Y-112536324D01*
X115698125Y-112325860D01*
X115519140Y-112146875D01*
X115308676Y-112006247D01*
X115074821Y-111909381D01*
X114826561Y-111860000D01*
X114573439Y-111860000D01*
X114325179Y-111909381D01*
X114091324Y-112006247D01*
X113880860Y-112146875D01*
X113701875Y-112325860D01*
X113561247Y-112536324D01*
X113464381Y-112770179D01*
X113415000Y-113018439D01*
X113415000Y-113271561D01*
X113446920Y-113432039D01*
X113439063Y-113431992D01*
X113314420Y-113442483D01*
X113194219Y-113477089D01*
X113083078Y-113534481D01*
X112985269Y-113612452D01*
X112904551Y-113708006D01*
X112844026Y-113817472D01*
X112806020Y-113936642D01*
X112795000Y-114038250D01*
X112953750Y-114197000D01*
X113066322Y-114197000D01*
X112978815Y-114268815D01*
X112899463Y-114365506D01*
X112862968Y-114433782D01*
X112795000Y-114501750D01*
X112804911Y-114593134D01*
X112804188Y-114595518D01*
X112791928Y-114720000D01*
X112791928Y-114788217D01*
X112769774Y-114766063D01*
X112600256Y-114652795D01*
X112411898Y-114574774D01*
X112211939Y-114535000D01*
X112008061Y-114535000D01*
X111808102Y-114574774D01*
X111619744Y-114652795D01*
X111450226Y-114766063D01*
X111306063Y-114910226D01*
X111192795Y-115079744D01*
X111114774Y-115268102D01*
X111075000Y-115468061D01*
X111075000Y-115554999D01*
X110566159Y-115554999D01*
X110512205Y-115424744D01*
X110398937Y-115255226D01*
X110254774Y-115111063D01*
X110085256Y-114997795D01*
X109896898Y-114919774D01*
X109696939Y-114880000D01*
X109493061Y-114880000D01*
X109293102Y-114919774D01*
X109104744Y-114997795D01*
X108960258Y-115094337D01*
X108955537Y-115085506D01*
X108876185Y-114988815D01*
X108779494Y-114909463D01*
X108669180Y-114850498D01*
X108549482Y-114814188D01*
X108425000Y-114801928D01*
X108235750Y-114805000D01*
X108077000Y-114963750D01*
X108077000Y-115838000D01*
X108097000Y-115838000D01*
X108097000Y-116092000D01*
X108077000Y-116092000D01*
X108077000Y-116112000D01*
X107823000Y-116112000D01*
X107823000Y-116092000D01*
X106998750Y-116092000D01*
X106840000Y-116250750D01*
X106839641Y-116278693D01*
X106814502Y-116195820D01*
X106755537Y-116085506D01*
X106676185Y-115988815D01*
X106579494Y-115909463D01*
X106469180Y-115850498D01*
X106349482Y-115814188D01*
X106225000Y-115801928D01*
X105550000Y-115801928D01*
X105550000Y-115734801D01*
X105844801Y-115440000D01*
X106836928Y-115440000D01*
X106840000Y-115679250D01*
X106998750Y-115838000D01*
X107823000Y-115838000D01*
X107823000Y-114963750D01*
X107664250Y-114805000D01*
X107475000Y-114801928D01*
X107350518Y-114814188D01*
X107230820Y-114850498D01*
X107120506Y-114909463D01*
X107023815Y-114988815D01*
X106944463Y-115085506D01*
X106885498Y-115195820D01*
X106849188Y-115315518D01*
X106836928Y-115440000D01*
X105844801Y-115440000D01*
X108011003Y-113273799D01*
X108040001Y-113250001D01*
X108134974Y-113134276D01*
X108205546Y-113002247D01*
X108249003Y-112858986D01*
X108260000Y-112747333D01*
X108260000Y-112747325D01*
X108263676Y-112710000D01*
X108260000Y-112672675D01*
X108260000Y-109627322D01*
X108263676Y-109589999D01*
X108260000Y-109552677D01*
X108260000Y-109552667D01*
X108254741Y-109499271D01*
X110940209Y-109499271D01*
X110940209Y-109910923D01*
X111020518Y-110314667D01*
X111178051Y-110694984D01*
X111406753Y-111037261D01*
X111697836Y-111328344D01*
X112040113Y-111557046D01*
X112420430Y-111714579D01*
X112824174Y-111794888D01*
X113235826Y-111794888D01*
X113639570Y-111714579D01*
X114019887Y-111557046D01*
X114362164Y-111328344D01*
X114653247Y-111037261D01*
X114881949Y-110694984D01*
X115039482Y-110314667D01*
X115119791Y-109910923D01*
X115119791Y-109499271D01*
X115039482Y-109095527D01*
X114881949Y-108715210D01*
X114653247Y-108372933D01*
X114362164Y-108081850D01*
X114019887Y-107853148D01*
X113639570Y-107695615D01*
X113235826Y-107615306D01*
X112824174Y-107615306D01*
X112420430Y-107695615D01*
X112040113Y-107853148D01*
X111697836Y-108081850D01*
X111406753Y-108372933D01*
X111178051Y-108715210D01*
X111020518Y-109095527D01*
X110940209Y-109499271D01*
X108254741Y-109499271D01*
X108249003Y-109441014D01*
X108205546Y-109297753D01*
X108134974Y-109165724D01*
X108040001Y-109049999D01*
X108010998Y-109026197D01*
X107693804Y-108709003D01*
X107670001Y-108679999D01*
X107554276Y-108585026D01*
X107422247Y-108514454D01*
X107278986Y-108470997D01*
X107167333Y-108460000D01*
X107167322Y-108460000D01*
X107130000Y-108456324D01*
X107092678Y-108460000D01*
X106889569Y-108460000D01*
X106851449Y-108413551D01*
X106678623Y-108271716D01*
X106481447Y-108166324D01*
X106267499Y-108101423D01*
X106100752Y-108085000D01*
X105989248Y-108085000D01*
X105822501Y-108101423D01*
X105608553Y-108166324D01*
X105411377Y-108271716D01*
X105410000Y-108272846D01*
X105408623Y-108271716D01*
X105211447Y-108166324D01*
X104997499Y-108101423D01*
X104830752Y-108085000D01*
X104719248Y-108085000D01*
X104552501Y-108101423D01*
X104338553Y-108166324D01*
X104141377Y-108271716D01*
X104140000Y-108272846D01*
X104138623Y-108271716D01*
X103941447Y-108166324D01*
X103727499Y-108101423D01*
X103560752Y-108085000D01*
X103449248Y-108085000D01*
X103282501Y-108101423D01*
X103068553Y-108166324D01*
X102944226Y-108232778D01*
X102940546Y-108220647D01*
X102869974Y-108088618D01*
X102775001Y-107972893D01*
X102745997Y-107949090D01*
X102385910Y-107589003D01*
X102362107Y-107559999D01*
X102246382Y-107465026D01*
X102114353Y-107394454D01*
X101971092Y-107350997D01*
X101859439Y-107340000D01*
X101859428Y-107340000D01*
X101822106Y-107336324D01*
X101784784Y-107340000D01*
X100370912Y-107340000D01*
X100333589Y-107336324D01*
X100296266Y-107340000D01*
X100296257Y-107340000D01*
X100184604Y-107350997D01*
X100041343Y-107394454D01*
X99909314Y-107465026D01*
X99909312Y-107465027D01*
X99909313Y-107465027D01*
X99822586Y-107536201D01*
X99822582Y-107536205D01*
X99793589Y-107559999D01*
X99769795Y-107588992D01*
X98248992Y-109109797D01*
X98219989Y-109133599D01*
X98164861Y-109200774D01*
X98125016Y-109249324D01*
X98061055Y-109368985D01*
X98054444Y-109381354D01*
X98010987Y-109524615D01*
X97999990Y-109636268D01*
X97999990Y-109636278D01*
X97996314Y-109673600D01*
X97999990Y-109710923D01*
X97999991Y-112895208D01*
X97814003Y-113081196D01*
X97813997Y-113081201D01*
X93545199Y-117350000D01*
X92454361Y-117350000D01*
X92493676Y-117276447D01*
X92558577Y-117062499D01*
X92580491Y-116840000D01*
X92558577Y-116617501D01*
X92493676Y-116403553D01*
X92388284Y-116206377D01*
X92387154Y-116205000D01*
X92388284Y-116203623D01*
X92493676Y-116006447D01*
X92558577Y-115792499D01*
X92580491Y-115570000D01*
X92558577Y-115347501D01*
X92493676Y-115133553D01*
X92388284Y-114936377D01*
X92387154Y-114935000D01*
X92388284Y-114933623D01*
X92493676Y-114736447D01*
X92558577Y-114522499D01*
X92580491Y-114300000D01*
X92558577Y-114077501D01*
X92493676Y-113863553D01*
X92487703Y-113852379D01*
X92529502Y-113774180D01*
X92565812Y-113654482D01*
X92578072Y-113530000D01*
X92575000Y-113315750D01*
X92416252Y-113157002D01*
X92575000Y-113157002D01*
X92575000Y-113055000D01*
X95917419Y-113055000D01*
X95945865Y-113052198D01*
X95953682Y-113052253D01*
X95962853Y-113051354D01*
X96209357Y-113025446D01*
X96267986Y-113013411D01*
X96326716Y-113002208D01*
X96335532Y-112999546D01*
X96335536Y-112999545D01*
X96335539Y-112999544D01*
X96572314Y-112926249D01*
X96627457Y-112903069D01*
X96682920Y-112880661D01*
X96691054Y-112876335D01*
X96691059Y-112876333D01*
X96691064Y-112876330D01*
X96909086Y-112758447D01*
X96958654Y-112725012D01*
X97008735Y-112692241D01*
X97015876Y-112686416D01*
X97206856Y-112528423D01*
X97248995Y-112485988D01*
X97291745Y-112444125D01*
X97297618Y-112437024D01*
X97454273Y-112244947D01*
X97487374Y-112195125D01*
X97521173Y-112145763D01*
X97525556Y-112137657D01*
X97641919Y-111918809D01*
X97664707Y-111863521D01*
X97688279Y-111808525D01*
X97691003Y-111799722D01*
X97762643Y-111562441D01*
X97774264Y-111503754D01*
X97786700Y-111445248D01*
X97787663Y-111436083D01*
X97811850Y-111189405D01*
X97811850Y-111189402D01*
X97815000Y-111157419D01*
X97815000Y-100330000D01*
X101364149Y-100330000D01*
X101393084Y-100623777D01*
X101478775Y-100906264D01*
X101617931Y-101166606D01*
X101805203Y-101394797D01*
X101813265Y-101401414D01*
X101762220Y-101416898D01*
X101651906Y-101475863D01*
X101555215Y-101555215D01*
X101475863Y-101651906D01*
X101416898Y-101762220D01*
X101380588Y-101881918D01*
X101368328Y-102006400D01*
X101368328Y-103733600D01*
X101380588Y-103858082D01*
X101416898Y-103977780D01*
X101475863Y-104088094D01*
X101555215Y-104184785D01*
X101651906Y-104264137D01*
X101762220Y-104323102D01*
X101881918Y-104359412D01*
X102006400Y-104371672D01*
X103733600Y-104371672D01*
X103858082Y-104359412D01*
X103977780Y-104323102D01*
X104088094Y-104264137D01*
X104184785Y-104184785D01*
X104264137Y-104088094D01*
X104323102Y-103977780D01*
X104338586Y-103926735D01*
X104345203Y-103934797D01*
X104573394Y-104122069D01*
X104833736Y-104261225D01*
X105116223Y-104346916D01*
X105336381Y-104368600D01*
X105483619Y-104368600D01*
X105703777Y-104346916D01*
X105986264Y-104261225D01*
X106246606Y-104122069D01*
X106474797Y-103934797D01*
X106662069Y-103706606D01*
X106685863Y-103662090D01*
X106743183Y-103758488D01*
X106939707Y-103976854D01*
X107175056Y-104152684D01*
X107440186Y-104279222D01*
X107590974Y-104324958D01*
X107823000Y-104203817D01*
X107823000Y-102997000D01*
X107803000Y-102997000D01*
X107803000Y-102743000D01*
X107823000Y-102743000D01*
X107823000Y-100457000D01*
X107803000Y-100457000D01*
X107803000Y-100203000D01*
X107823000Y-100203000D01*
X107823000Y-98996183D01*
X108077000Y-98996183D01*
X108077000Y-100203000D01*
X108097000Y-100203000D01*
X108097000Y-100457000D01*
X108077000Y-100457000D01*
X108077000Y-102743000D01*
X108097000Y-102743000D01*
X108097000Y-102997000D01*
X108077000Y-102997000D01*
X108077000Y-104203817D01*
X108309026Y-104324958D01*
X108459814Y-104279222D01*
X108724944Y-104152684D01*
X108960293Y-103976854D01*
X109156817Y-103758488D01*
X109214137Y-103662090D01*
X109237931Y-103706606D01*
X109425203Y-103934797D01*
X109653394Y-104122069D01*
X109913736Y-104261225D01*
X110196223Y-104346916D01*
X110416381Y-104368600D01*
X110563619Y-104368600D01*
X110783777Y-104346916D01*
X111066264Y-104261225D01*
X111326606Y-104122069D01*
X111554797Y-103934797D01*
X111742069Y-103706606D01*
X111760000Y-103673060D01*
X111777931Y-103706606D01*
X111965203Y-103934797D01*
X112193394Y-104122069D01*
X112453736Y-104261225D01*
X112736223Y-104346916D01*
X112956381Y-104368600D01*
X113103619Y-104368600D01*
X113323777Y-104346916D01*
X113606264Y-104261225D01*
X113866606Y-104122069D01*
X114094797Y-103934797D01*
X114282069Y-103706606D01*
X114421225Y-103446264D01*
X114506916Y-103163777D01*
X114535851Y-102870000D01*
X114506916Y-102576223D01*
X114421225Y-102293736D01*
X114282069Y-102033394D01*
X114094797Y-101805203D01*
X113866606Y-101617931D01*
X113833060Y-101600000D01*
X113866606Y-101582069D01*
X114094797Y-101394797D01*
X114282069Y-101166606D01*
X114421225Y-100906264D01*
X114506916Y-100623777D01*
X114535851Y-100330000D01*
X114506916Y-100036223D01*
X114421225Y-99753736D01*
X114282069Y-99493394D01*
X114094797Y-99265203D01*
X113866606Y-99077931D01*
X113606264Y-98938775D01*
X113323777Y-98853084D01*
X113103619Y-98831400D01*
X112956381Y-98831400D01*
X112736223Y-98853084D01*
X112453736Y-98938775D01*
X112193394Y-99077931D01*
X111965203Y-99265203D01*
X111777931Y-99493394D01*
X111760000Y-99526940D01*
X111742069Y-99493394D01*
X111554797Y-99265203D01*
X111326606Y-99077931D01*
X111066264Y-98938775D01*
X110783777Y-98853084D01*
X110563619Y-98831400D01*
X110416381Y-98831400D01*
X110196223Y-98853084D01*
X109913736Y-98938775D01*
X109653394Y-99077931D01*
X109425203Y-99265203D01*
X109237931Y-99493394D01*
X109214137Y-99537910D01*
X109156817Y-99441512D01*
X108960293Y-99223146D01*
X108724944Y-99047316D01*
X108459814Y-98920778D01*
X108309026Y-98875042D01*
X108077000Y-98996183D01*
X107823000Y-98996183D01*
X107590974Y-98875042D01*
X107440186Y-98920778D01*
X107175056Y-99047316D01*
X106939707Y-99223146D01*
X106743183Y-99441512D01*
X106685863Y-99537910D01*
X106662069Y-99493394D01*
X106474797Y-99265203D01*
X106246606Y-99077931D01*
X105986264Y-98938775D01*
X105703777Y-98853084D01*
X105483619Y-98831400D01*
X105336381Y-98831400D01*
X105116223Y-98853084D01*
X104833736Y-98938775D01*
X104573394Y-99077931D01*
X104345203Y-99265203D01*
X104157931Y-99493394D01*
X104140000Y-99526940D01*
X104122069Y-99493394D01*
X103934797Y-99265203D01*
X103706606Y-99077931D01*
X103446264Y-98938775D01*
X103163777Y-98853084D01*
X102943619Y-98831400D01*
X102796381Y-98831400D01*
X102576223Y-98853084D01*
X102293736Y-98938775D01*
X102033394Y-99077931D01*
X101805203Y-99265203D01*
X101617931Y-99493394D01*
X101478775Y-99753736D01*
X101393084Y-100036223D01*
X101364149Y-100330000D01*
X97815000Y-100330000D01*
X97815000Y-95275000D01*
X118720000Y-95275000D01*
X118720000Y-111150907D01*
G36*
X98932795Y-114950256D02*
G01*
X98955001Y-114983490D01*
X98955000Y-117011289D01*
X98911063Y-117055226D01*
X98797795Y-117224744D01*
X98719774Y-117413102D01*
X98680000Y-117613061D01*
X98680000Y-117816939D01*
X98719774Y-118016898D01*
X98797795Y-118205256D01*
X98911063Y-118374774D01*
X99055226Y-118518937D01*
X99224744Y-118632205D01*
X99413102Y-118710226D01*
X99613061Y-118750000D01*
X99816939Y-118750000D01*
X100016898Y-118710226D01*
X100205256Y-118632205D01*
X100374774Y-118518937D01*
X100418711Y-118475000D01*
X100627036Y-118475000D01*
X100634488Y-118488942D01*
X100743377Y-118621623D01*
X100876058Y-118730512D01*
X101027433Y-118811423D01*
X101191684Y-118861248D01*
X101362500Y-118878072D01*
X101837500Y-118878072D01*
X102008316Y-118861248D01*
X102172567Y-118811423D01*
X102323942Y-118730512D01*
X102456623Y-118621623D01*
X102565512Y-118488942D01*
X102572964Y-118475000D01*
X102757317Y-118475000D01*
X102794463Y-118544494D01*
X102873815Y-118641185D01*
X102970506Y-118720537D01*
X103080820Y-118779502D01*
X103130599Y-118794602D01*
X102999003Y-118926198D01*
X102969999Y-118950001D01*
X102914871Y-119017176D01*
X102875026Y-119065726D01*
X102863252Y-119087754D01*
X102804454Y-119197756D01*
X102760997Y-119341017D01*
X102750000Y-119452670D01*
X102750000Y-119452680D01*
X102746324Y-119490002D01*
X102750000Y-119527325D01*
X102750001Y-123040000D01*
X102590055Y-123040000D01*
X102590000Y-123035750D01*
X102431250Y-122877000D01*
X101282000Y-122877000D01*
X101282000Y-122897000D01*
X101028000Y-122897000D01*
X101028000Y-122877000D01*
X101008000Y-122877000D01*
X101008000Y-122623000D01*
X101028000Y-122623000D01*
X101028000Y-121748750D01*
X101282000Y-121748750D01*
X101282000Y-122623000D01*
X102431250Y-122623000D01*
X102590000Y-122464250D01*
X102593072Y-122225000D01*
X102580812Y-122100518D01*
X102544502Y-121980820D01*
X102485537Y-121870506D01*
X102406185Y-121773815D01*
X102309494Y-121694463D01*
X102199180Y-121635498D01*
X102079482Y-121599188D01*
X101955000Y-121586928D01*
X101440750Y-121590000D01*
X101282000Y-121748750D01*
X101028000Y-121748750D01*
X100869250Y-121590000D01*
X100355000Y-121586928D01*
X100230518Y-121599188D01*
X100110820Y-121635498D01*
X100000506Y-121694463D01*
X99903815Y-121773815D01*
X99824463Y-121870506D01*
X99765498Y-121980820D01*
X99729188Y-122100518D01*
X99716928Y-122225000D01*
X99718321Y-122333520D01*
X97523804Y-120139003D01*
X97500001Y-120109999D01*
X97384276Y-120015026D01*
X97252247Y-119944454D01*
X97108986Y-119900997D01*
X96997333Y-119890000D01*
X96997322Y-119890000D01*
X96960000Y-119886324D01*
X96922678Y-119890000D01*
X93791211Y-119890000D01*
X98873677Y-114807534D01*
X98932795Y-114950256D01*
X98932795Y-114950256D01*
G37*
X98932795Y-114950256D02*
X98955001Y-114983490D01*
X98955000Y-117011289D01*
X98911063Y-117055226D01*
X98797795Y-117224744D01*
X98719774Y-117413102D01*
X98680000Y-117613061D01*
X98680000Y-117816939D01*
X98719774Y-118016898D01*
X98797795Y-118205256D01*
X98911063Y-118374774D01*
X99055226Y-118518937D01*
X99224744Y-118632205D01*
X99413102Y-118710226D01*
X99613061Y-118750000D01*
X99816939Y-118750000D01*
X100016898Y-118710226D01*
X100205256Y-118632205D01*
X100374774Y-118518937D01*
X100418711Y-118475000D01*
X100627036Y-118475000D01*
X100634488Y-118488942D01*
X100743377Y-118621623D01*
X100876058Y-118730512D01*
X101027433Y-118811423D01*
X101191684Y-118861248D01*
X101362500Y-118878072D01*
X101837500Y-118878072D01*
X102008316Y-118861248D01*
X102172567Y-118811423D01*
X102323942Y-118730512D01*
X102456623Y-118621623D01*
X102565512Y-118488942D01*
X102572964Y-118475000D01*
X102757317Y-118475000D01*
X102794463Y-118544494D01*
X102873815Y-118641185D01*
X102970506Y-118720537D01*
X103080820Y-118779502D01*
X103130599Y-118794602D01*
X102999003Y-118926198D01*
X102969999Y-118950001D01*
X102914871Y-119017176D01*
X102875026Y-119065726D01*
X102863252Y-119087754D01*
X102804454Y-119197756D01*
X102760997Y-119341017D01*
X102750000Y-119452670D01*
X102750000Y-119452680D01*
X102746324Y-119490002D01*
X102750000Y-119527325D01*
X102750001Y-123040000D01*
X102590055Y-123040000D01*
X102590000Y-123035750D01*
X102431250Y-122877000D01*
X101282000Y-122877000D01*
X101282000Y-122897000D01*
X101028000Y-122897000D01*
X101028000Y-122877000D01*
X101008000Y-122877000D01*
X101008000Y-122623000D01*
X101028000Y-122623000D01*
X101028000Y-121748750D01*
X101282000Y-121748750D01*
X101282000Y-122623000D01*
X102431250Y-122623000D01*
X102590000Y-122464250D01*
X102593072Y-122225000D01*
X102580812Y-122100518D01*
X102544502Y-121980820D01*
X102485537Y-121870506D01*
X102406185Y-121773815D01*
X102309494Y-121694463D01*
X102199180Y-121635498D01*
X102079482Y-121599188D01*
X101955000Y-121586928D01*
X101440750Y-121590000D01*
X101282000Y-121748750D01*
X101028000Y-121748750D01*
X100869250Y-121590000D01*
X100355000Y-121586928D01*
X100230518Y-121599188D01*
X100110820Y-121635498D01*
X100000506Y-121694463D01*
X99903815Y-121773815D01*
X99824463Y-121870506D01*
X99765498Y-121980820D01*
X99729188Y-122100518D01*
X99716928Y-122225000D01*
X99718321Y-122333520D01*
X97523804Y-120139003D01*
X97500001Y-120109999D01*
X97384276Y-120015026D01*
X97252247Y-119944454D01*
X97108986Y-119900997D01*
X96997333Y-119890000D01*
X96997322Y-119890000D01*
X96960000Y-119886324D01*
X96922678Y-119890000D01*
X93791211Y-119890000D01*
X98873677Y-114807534D01*
X98932795Y-114950256D01*
G36*
X106172000Y-110363000D02*
G01*
X106192000Y-110363000D01*
X106192000Y-110617000D01*
X106172000Y-110617000D01*
X106172000Y-111457954D01*
X106346874Y-111584119D01*
X106401864Y-111567446D01*
X106605206Y-111477123D01*
X106740001Y-111382034D01*
X106740001Y-112395197D01*
X104279003Y-114856196D01*
X104277860Y-114857134D01*
X104225000Y-114851928D01*
X104060750Y-114855000D01*
X103902000Y-115013750D01*
X103902000Y-115763000D01*
X103922000Y-115763000D01*
X103922000Y-116017000D01*
X103902000Y-116017000D01*
X103902000Y-116037000D01*
X103648000Y-116037000D01*
X103648000Y-116017000D01*
X102848750Y-116017000D01*
X102690000Y-116175750D01*
X102688560Y-116229310D01*
X102551250Y-116092000D01*
X101727000Y-116092000D01*
X101727000Y-116112000D01*
X101473000Y-116112000D01*
X101473000Y-116092000D01*
X100648750Y-116092000D01*
X100490000Y-116250750D01*
X100486928Y-116490000D01*
X100499188Y-116614482D01*
X100535498Y-116734180D01*
X100594463Y-116844494D01*
X100654099Y-116917161D01*
X100634488Y-116941058D01*
X100627036Y-116955000D01*
X100475000Y-116955000D01*
X100475000Y-115287172D01*
X100509774Y-115263937D01*
X100517039Y-115256672D01*
X100499188Y-115315518D01*
X100486928Y-115440000D01*
X100490000Y-115679250D01*
X100648750Y-115838000D01*
X101473000Y-115838000D01*
X101473000Y-114963750D01*
X101727000Y-114963750D01*
X101727000Y-115838000D01*
X102551250Y-115838000D01*
X102710000Y-115679250D01*
X102710697Y-115624947D01*
X102848750Y-115763000D01*
X103648000Y-115763000D01*
X103648000Y-115013750D01*
X103489250Y-114855000D01*
X103325000Y-114851928D01*
X103200518Y-114864188D01*
X103080820Y-114900498D01*
X102970506Y-114959463D01*
X102873815Y-115038815D01*
X102794463Y-115135506D01*
X102735498Y-115245820D01*
X102704131Y-115349222D01*
X102700812Y-115315518D01*
X102664502Y-115195820D01*
X102605537Y-115085506D01*
X102526185Y-114988815D01*
X102429494Y-114909463D01*
X102319180Y-114850498D01*
X102199482Y-114814188D01*
X102075000Y-114801928D01*
X101885750Y-114805000D01*
X101727000Y-114963750D01*
X101473000Y-114963750D01*
X101314250Y-114805000D01*
X101125000Y-114801928D01*
X101000518Y-114814188D01*
X100880820Y-114850498D01*
X100787968Y-114900129D01*
X100845226Y-114761898D01*
X100885000Y-114561939D01*
X100885000Y-114358061D01*
X100845226Y-114158102D01*
X100767205Y-113969744D01*
X100653937Y-113800226D01*
X100610000Y-113756289D01*
X100610000Y-112684801D01*
X101476004Y-111818798D01*
X101505001Y-111795001D01*
X101551306Y-111738578D01*
X101599974Y-111679277D01*
X101642492Y-111599732D01*
X101709180Y-111579502D01*
X101798180Y-111531930D01*
X101878136Y-111567446D01*
X101933126Y-111584119D01*
X102108000Y-111457954D01*
X102108000Y-110617000D01*
X102362000Y-110617000D01*
X102362000Y-111457954D01*
X102536874Y-111584119D01*
X102591864Y-111567446D01*
X102795206Y-111477123D01*
X102870000Y-111424361D01*
X102944794Y-111477123D01*
X103148136Y-111567446D01*
X103203126Y-111584119D01*
X103378000Y-111457954D01*
X103378000Y-110617000D01*
X102362000Y-110617000D01*
X102108000Y-110617000D01*
X102103072Y-110617000D01*
X102103072Y-110363000D01*
X102108000Y-110363000D01*
X102108000Y-110347983D01*
X102179248Y-110355000D01*
X102290752Y-110355000D01*
X102362000Y-110347983D01*
X102362000Y-110363000D01*
X103378000Y-110363000D01*
X103378000Y-110347983D01*
X103449248Y-110355000D01*
X103560752Y-110355000D01*
X103632000Y-110347983D01*
X103632000Y-110363000D01*
X103647017Y-110363000D01*
X103634509Y-110490000D01*
X103647017Y-110617000D01*
X103632000Y-110617000D01*
X103632000Y-111457954D01*
X103806874Y-111584119D01*
X103861864Y-111567446D01*
X104065206Y-111477123D01*
X104131617Y-111430274D01*
X104141377Y-111438284D01*
X104338553Y-111543676D01*
X104552501Y-111608577D01*
X104719248Y-111625000D01*
X104830752Y-111625000D01*
X104997499Y-111608577D01*
X105211447Y-111543676D01*
X105408623Y-111438284D01*
X105418383Y-111430274D01*
X105484794Y-111477123D01*
X105688136Y-111567446D01*
X105743126Y-111584119D01*
X105918000Y-111457954D01*
X105918000Y-110617000D01*
X105902983Y-110617000D01*
X105915491Y-110490000D01*
X105902983Y-110363000D01*
X105918000Y-110363000D01*
X105918000Y-110347983D01*
X105989248Y-110355000D01*
X106100752Y-110355000D01*
X106172000Y-110347983D01*
X106172000Y-110363000D01*
X106172000Y-110363000D01*
G37*
X106172000Y-110363000D02*
X106192000Y-110363000D01*
X106192000Y-110617000D01*
X106172000Y-110617000D01*
X106172000Y-111457954D01*
X106346874Y-111584119D01*
X106401864Y-111567446D01*
X106605206Y-111477123D01*
X106740001Y-111382034D01*
X106740001Y-112395197D01*
X104279003Y-114856196D01*
X104277860Y-114857134D01*
X104225000Y-114851928D01*
X104060750Y-114855000D01*
X103902000Y-115013750D01*
X103902000Y-115763000D01*
X103922000Y-115763000D01*
X103922000Y-116017000D01*
X103902000Y-116017000D01*
X103902000Y-116037000D01*
X103648000Y-116037000D01*
X103648000Y-116017000D01*
X102848750Y-116017000D01*
X102690000Y-116175750D01*
X102688560Y-116229310D01*
X102551250Y-116092000D01*
X101727000Y-116092000D01*
X101727000Y-116112000D01*
X101473000Y-116112000D01*
X101473000Y-116092000D01*
X100648750Y-116092000D01*
X100490000Y-116250750D01*
X100486928Y-116490000D01*
X100499188Y-116614482D01*
X100535498Y-116734180D01*
X100594463Y-116844494D01*
X100654099Y-116917161D01*
X100634488Y-116941058D01*
X100627036Y-116955000D01*
X100475000Y-116955000D01*
X100475000Y-115287172D01*
X100509774Y-115263937D01*
X100517039Y-115256672D01*
X100499188Y-115315518D01*
X100486928Y-115440000D01*
X100490000Y-115679250D01*
X100648750Y-115838000D01*
X101473000Y-115838000D01*
X101473000Y-114963750D01*
X101727000Y-114963750D01*
X101727000Y-115838000D01*
X102551250Y-115838000D01*
X102710000Y-115679250D01*
X102710697Y-115624947D01*
X102848750Y-115763000D01*
X103648000Y-115763000D01*
X103648000Y-115013750D01*
X103489250Y-114855000D01*
X103325000Y-114851928D01*
X103200518Y-114864188D01*
X103080820Y-114900498D01*
X102970506Y-114959463D01*
X102873815Y-115038815D01*
X102794463Y-115135506D01*
X102735498Y-115245820D01*
X102704131Y-115349222D01*
X102700812Y-115315518D01*
X102664502Y-115195820D01*
X102605537Y-115085506D01*
X102526185Y-114988815D01*
X102429494Y-114909463D01*
X102319180Y-114850498D01*
X102199482Y-114814188D01*
X102075000Y-114801928D01*
X101885750Y-114805000D01*
X101727000Y-114963750D01*
X101473000Y-114963750D01*
X101314250Y-114805000D01*
X101125000Y-114801928D01*
X101000518Y-114814188D01*
X100880820Y-114850498D01*
X100787968Y-114900129D01*
X100845226Y-114761898D01*
X100885000Y-114561939D01*
X100885000Y-114358061D01*
X100845226Y-114158102D01*
X100767205Y-113969744D01*
X100653937Y-113800226D01*
X100610000Y-113756289D01*
X100610000Y-112684801D01*
X101476004Y-111818798D01*
X101505001Y-111795001D01*
X101551306Y-111738578D01*
X101599974Y-111679277D01*
X101642492Y-111599732D01*
X101709180Y-111579502D01*
X101798180Y-111531930D01*
X101878136Y-111567446D01*
X101933126Y-111584119D01*
X102108000Y-111457954D01*
X102108000Y-110617000D01*
X102362000Y-110617000D01*
X102362000Y-111457954D01*
X102536874Y-111584119D01*
X102591864Y-111567446D01*
X102795206Y-111477123D01*
X102870000Y-111424361D01*
X102944794Y-111477123D01*
X103148136Y-111567446D01*
X103203126Y-111584119D01*
X103378000Y-111457954D01*
X103378000Y-110617000D01*
X102362000Y-110617000D01*
X102108000Y-110617000D01*
X102103072Y-110617000D01*
X102103072Y-110363000D01*
X102108000Y-110363000D01*
X102108000Y-110347983D01*
X102179248Y-110355000D01*
X102290752Y-110355000D01*
X102362000Y-110347983D01*
X102362000Y-110363000D01*
X103378000Y-110363000D01*
X103378000Y-110347983D01*
X103449248Y-110355000D01*
X103560752Y-110355000D01*
X103632000Y-110347983D01*
X103632000Y-110363000D01*
X103647017Y-110363000D01*
X103634509Y-110490000D01*
X103647017Y-110617000D01*
X103632000Y-110617000D01*
X103632000Y-111457954D01*
X103806874Y-111584119D01*
X103861864Y-111567446D01*
X104065206Y-111477123D01*
X104131617Y-111430274D01*
X104141377Y-111438284D01*
X104338553Y-111543676D01*
X104552501Y-111608577D01*
X104719248Y-111625000D01*
X104830752Y-111625000D01*
X104997499Y-111608577D01*
X105211447Y-111543676D01*
X105408623Y-111438284D01*
X105418383Y-111430274D01*
X105484794Y-111477123D01*
X105688136Y-111567446D01*
X105743126Y-111584119D01*
X105918000Y-111457954D01*
X105918000Y-110617000D01*
X105902983Y-110617000D01*
X105915491Y-110490000D01*
X105902983Y-110363000D01*
X105918000Y-110363000D01*
X105918000Y-110347983D01*
X105989248Y-110355000D01*
X106100752Y-110355000D01*
X106172000Y-110347983D01*
X106172000Y-110363000D01*
G36*
X91587000Y-113157000D02*
G01*
X91567000Y-113157000D01*
X91567000Y-113172017D01*
X91495752Y-113165000D01*
X91384248Y-113165000D01*
X91313000Y-113172017D01*
X91313000Y-113157000D01*
X91293000Y-113157000D01*
X91293000Y-113055000D01*
X91587000Y-113055000D01*
X91587000Y-113157000D01*
X91587000Y-113157000D01*
G37*
X91587000Y-113157000D02*
X91567000Y-113157000D01*
X91567000Y-113172017D01*
X91495752Y-113165000D01*
X91384248Y-113165000D01*
X91313000Y-113172017D01*
X91313000Y-113157000D01*
X91293000Y-113157000D01*
X91293000Y-113055000D01*
X91587000Y-113055000D01*
X91587000Y-113157000D01*
M02*
