M48
; DRILL file {KiCad (5.1.4)-1} date 06/06/2022 11:17:35
; FORMAT={-:-/ absolute / inch / decimal}
; #@! TF.CreationDate,2022-06-06T11:17:35+02:00
; #@! TF.GenerationSoftware,Kicad,Pcbnew,(5.1.4)-1
; #@! TF.FileFunction,Plated,1,2,PTH
FMAT,2
INCH
T1C0.0157
T2C0.0256
T3C0.0276
T4C0.0400
%
G90
G05
T1
X3.775Y-4.675
X3.9Y-3.8
X3.9Y-4.975
X3.9258Y-4.6344
X3.9311Y-4.5063
X4.0Y-4.475
X4.0Y-4.75
X4.075Y-4.2
X4.1Y-4.475
X4.2Y-4.725
X4.25Y-4.2
X4.25Y-4.975
X4.3148Y-4.5636
X4.35Y-4.475
X4.4138Y-4.55
X4.425Y-4.725
X4.55Y-4.175
X4.6Y-3.8
X4.625Y-4.975
T2
X3.975Y-4.3
X3.975Y-4.35
X4.025Y-4.3
X4.025Y-4.35
X4.075Y-4.3
X4.075Y-4.35
X4.125Y-4.3
X4.125Y-4.35
X4.175Y-4.3
X4.175Y-4.35
T3
X4.5157Y-4.4545
X4.5157Y-4.6455
X3.6Y-4.45
X3.6Y-4.5
X3.6Y-4.55
X3.6Y-4.6
X3.6Y-4.65
X3.6Y-4.7
X3.6Y-4.75
X3.6Y-4.8
T4
X4.05Y-3.95
X4.05Y-4.05
X4.15Y-3.95
X4.15Y-4.05
X4.25Y-3.95
X4.25Y-4.05
X4.35Y-3.95
X4.35Y-4.05
X4.45Y-3.95
X4.45Y-4.05
T3
G00X4.6134Y-4.4073
M15
G01X4.6291Y-4.4073
M16
G05
G00X4.6134Y-4.6927
M15
G01X4.6291Y-4.6927
M16
G05
T0
M30
