G04 #@! TF.GenerationSoftware,KiCad,Pcbnew,(5.1.4)-1*
G04 #@! TF.CreationDate,2022-02-10T12:30:50+01:00*
G04 #@! TF.ProjectId,UP1-Progger,5550312d-5072-46f6-9767-65722e6b6963,V00.10*
G04 #@! TF.SameCoordinates,Original*
G04 #@! TF.FileFunction,Legend,Top*
G04 #@! TF.FilePolarity,Positive*
%FSLAX46Y46*%
G04 Gerber Fmt 4.6, Leading zero omitted, Abs format (unit mm)*
G04 Created by KiCad (PCBNEW (5.1.4)-1) date 2022-02-10 12:30:50*
%MOMM*%
%LPD*%
G04 APERTURE LIST*
%ADD10C,0.150000*%
%ADD11C,0.120000*%
G04 APERTURE END LIST*
D10*
X93378928Y-121873971D02*
X93521785Y-121921590D01*
X93569404Y-121969209D01*
X93617023Y-122064447D01*
X93617023Y-122207304D01*
X93569404Y-122302542D01*
X93521785Y-122350161D01*
X93426547Y-122397780D01*
X93045595Y-122397780D01*
X93045595Y-121397780D01*
X93378928Y-121397780D01*
X93474166Y-121445400D01*
X93521785Y-121493019D01*
X93569404Y-121588257D01*
X93569404Y-121683495D01*
X93521785Y-121778733D01*
X93474166Y-121826352D01*
X93378928Y-121873971D01*
X93045595Y-121873971D01*
X94188452Y-122397780D02*
X94093214Y-122350161D01*
X94045595Y-122302542D01*
X93997976Y-122207304D01*
X93997976Y-121921590D01*
X94045595Y-121826352D01*
X94093214Y-121778733D01*
X94188452Y-121731114D01*
X94331309Y-121731114D01*
X94426547Y-121778733D01*
X94474166Y-121826352D01*
X94521785Y-121921590D01*
X94521785Y-122207304D01*
X94474166Y-122302542D01*
X94426547Y-122350161D01*
X94331309Y-122397780D01*
X94188452Y-122397780D01*
X95093214Y-122397780D02*
X94997976Y-122350161D01*
X94950357Y-122302542D01*
X94902738Y-122207304D01*
X94902738Y-121921590D01*
X94950357Y-121826352D01*
X94997976Y-121778733D01*
X95093214Y-121731114D01*
X95236071Y-121731114D01*
X95331309Y-121778733D01*
X95378928Y-121826352D01*
X95426547Y-121921590D01*
X95426547Y-122207304D01*
X95378928Y-122302542D01*
X95331309Y-122350161D01*
X95236071Y-122397780D01*
X95093214Y-122397780D01*
X95712261Y-121731114D02*
X96093214Y-121731114D01*
X95855119Y-121397780D02*
X95855119Y-122254923D01*
X95902738Y-122350161D01*
X95997976Y-122397780D01*
X96093214Y-122397780D01*
X96378928Y-122350161D02*
X96474166Y-122397780D01*
X96664642Y-122397780D01*
X96759880Y-122350161D01*
X96807500Y-122254923D01*
X96807500Y-122207304D01*
X96759880Y-122112066D01*
X96664642Y-122064447D01*
X96521785Y-122064447D01*
X96426547Y-122016828D01*
X96378928Y-121921590D01*
X96378928Y-121873971D01*
X96426547Y-121778733D01*
X96521785Y-121731114D01*
X96664642Y-121731114D01*
X96759880Y-121778733D01*
X97617023Y-122350161D02*
X97521785Y-122397780D01*
X97331309Y-122397780D01*
X97236071Y-122350161D01*
X97188452Y-122254923D01*
X97188452Y-121873971D01*
X97236071Y-121778733D01*
X97331309Y-121731114D01*
X97521785Y-121731114D01*
X97617023Y-121778733D01*
X97664642Y-121873971D01*
X97664642Y-121969209D01*
X97188452Y-122064447D01*
X98236071Y-122397780D02*
X98140833Y-122350161D01*
X98093214Y-122254923D01*
X98093214Y-121397780D01*
X112365404Y-97290000D02*
X112270166Y-97242380D01*
X112127309Y-97242380D01*
X111984452Y-97290000D01*
X111889214Y-97385238D01*
X111841595Y-97480476D01*
X111793976Y-97670952D01*
X111793976Y-97813809D01*
X111841595Y-98004285D01*
X111889214Y-98099523D01*
X111984452Y-98194761D01*
X112127309Y-98242380D01*
X112222547Y-98242380D01*
X112365404Y-98194761D01*
X112413023Y-98147142D01*
X112413023Y-97813809D01*
X112222547Y-97813809D01*
X112841595Y-98242380D02*
X112841595Y-97242380D01*
X113413023Y-98242380D01*
X113413023Y-97242380D01*
X113889214Y-98242380D02*
X113889214Y-97242380D01*
X114127309Y-97242380D01*
X114270166Y-97290000D01*
X114365404Y-97385238D01*
X114413023Y-97480476D01*
X114460642Y-97670952D01*
X114460642Y-97813809D01*
X114413023Y-98004285D01*
X114365404Y-98099523D01*
X114270166Y-98194761D01*
X114127309Y-98242380D01*
X113889214Y-98242380D01*
X97776357Y-122642380D02*
X98395404Y-122642380D01*
X98062071Y-123023333D01*
X98204928Y-123023333D01*
X98300166Y-123070952D01*
X98347785Y-123118571D01*
X98395404Y-123213809D01*
X98395404Y-123451904D01*
X98347785Y-123547142D01*
X98300166Y-123594761D01*
X98204928Y-123642380D01*
X97919214Y-123642380D01*
X97823976Y-123594761D01*
X97776357Y-123547142D01*
X98681119Y-122642380D02*
X99014452Y-123642380D01*
X99347785Y-122642380D01*
X99585880Y-122642380D02*
X100204928Y-122642380D01*
X99871595Y-123023333D01*
X100014452Y-123023333D01*
X100109690Y-123070952D01*
X100157309Y-123118571D01*
X100204928Y-123213809D01*
X100204928Y-123451904D01*
X100157309Y-123547142D01*
X100109690Y-123594761D01*
X100014452Y-123642380D01*
X99728738Y-123642380D01*
X99633500Y-123594761D01*
X99585880Y-123547142D01*
X111698738Y-107656380D02*
X112032071Y-108656380D01*
X112365404Y-107656380D01*
X113032071Y-108132571D02*
X113174928Y-108180190D01*
X113222547Y-108227809D01*
X113270166Y-108323047D01*
X113270166Y-108465904D01*
X113222547Y-108561142D01*
X113174928Y-108608761D01*
X113079690Y-108656380D01*
X112698738Y-108656380D01*
X112698738Y-107656380D01*
X113032071Y-107656380D01*
X113127309Y-107704000D01*
X113174928Y-107751619D01*
X113222547Y-107846857D01*
X113222547Y-107942095D01*
X113174928Y-108037333D01*
X113127309Y-108084952D01*
X113032071Y-108132571D01*
X112698738Y-108132571D01*
X113698738Y-107656380D02*
X113698738Y-108465904D01*
X113746357Y-108561142D01*
X113793976Y-108608761D01*
X113889214Y-108656380D01*
X114079690Y-108656380D01*
X114174928Y-108608761D01*
X114222547Y-108561142D01*
X114270166Y-108465904D01*
X114270166Y-107656380D01*
X114698738Y-108608761D02*
X114841595Y-108656380D01*
X115079690Y-108656380D01*
X115174928Y-108608761D01*
X115222547Y-108561142D01*
X115270166Y-108465904D01*
X115270166Y-108370666D01*
X115222547Y-108275428D01*
X115174928Y-108227809D01*
X115079690Y-108180190D01*
X114889214Y-108132571D01*
X114793976Y-108084952D01*
X114746357Y-108037333D01*
X114698738Y-107942095D01*
X114698738Y-107846857D01*
X114746357Y-107751619D01*
X114793976Y-107704000D01*
X114889214Y-107656380D01*
X115127309Y-107656380D01*
X115270166Y-107704000D01*
X93617023Y-121102380D02*
X93283690Y-120626190D01*
X93045595Y-121102380D02*
X93045595Y-120102380D01*
X93426547Y-120102380D01*
X93521785Y-120150000D01*
X93569404Y-120197619D01*
X93617023Y-120292857D01*
X93617023Y-120435714D01*
X93569404Y-120530952D01*
X93521785Y-120578571D01*
X93426547Y-120626190D01*
X93045595Y-120626190D01*
X94426547Y-121054761D02*
X94331309Y-121102380D01*
X94140833Y-121102380D01*
X94045595Y-121054761D01*
X93997976Y-120959523D01*
X93997976Y-120578571D01*
X94045595Y-120483333D01*
X94140833Y-120435714D01*
X94331309Y-120435714D01*
X94426547Y-120483333D01*
X94474166Y-120578571D01*
X94474166Y-120673809D01*
X93997976Y-120769047D01*
X94855119Y-121054761D02*
X94950357Y-121102380D01*
X95140833Y-121102380D01*
X95236071Y-121054761D01*
X95283690Y-120959523D01*
X95283690Y-120911904D01*
X95236071Y-120816666D01*
X95140833Y-120769047D01*
X94997976Y-120769047D01*
X94902738Y-120721428D01*
X94855119Y-120626190D01*
X94855119Y-120578571D01*
X94902738Y-120483333D01*
X94997976Y-120435714D01*
X95140833Y-120435714D01*
X95236071Y-120483333D01*
X96093214Y-121054761D02*
X95997976Y-121102380D01*
X95807500Y-121102380D01*
X95712261Y-121054761D01*
X95664642Y-120959523D01*
X95664642Y-120578571D01*
X95712261Y-120483333D01*
X95807500Y-120435714D01*
X95997976Y-120435714D01*
X96093214Y-120483333D01*
X96140833Y-120578571D01*
X96140833Y-120673809D01*
X95664642Y-120769047D01*
X96426547Y-120435714D02*
X96807500Y-120435714D01*
X96569404Y-120102380D02*
X96569404Y-120959523D01*
X96617023Y-121054761D01*
X96712261Y-121102380D01*
X96807500Y-121102380D01*
X92997976Y-119784761D02*
X93140833Y-119832380D01*
X93378928Y-119832380D01*
X93474166Y-119784761D01*
X93521785Y-119737142D01*
X93569404Y-119641904D01*
X93569404Y-119546666D01*
X93521785Y-119451428D01*
X93474166Y-119403809D01*
X93378928Y-119356190D01*
X93188452Y-119308571D01*
X93093214Y-119260952D01*
X93045595Y-119213333D01*
X92997976Y-119118095D01*
X92997976Y-119022857D01*
X93045595Y-118927619D01*
X93093214Y-118880000D01*
X93188452Y-118832380D01*
X93426547Y-118832380D01*
X93569404Y-118880000D01*
X93902738Y-118832380D02*
X94140833Y-119832380D01*
X94331309Y-119118095D01*
X94521785Y-119832380D01*
X94759880Y-118832380D01*
X95140833Y-119832380D02*
X95140833Y-118832380D01*
X95378928Y-118832380D01*
X95521785Y-118880000D01*
X95617023Y-118975238D01*
X95664642Y-119070476D01*
X95712261Y-119260952D01*
X95712261Y-119403809D01*
X95664642Y-119594285D01*
X95617023Y-119689523D01*
X95521785Y-119784761D01*
X95378928Y-119832380D01*
X95140833Y-119832380D01*
X96140833Y-119832380D02*
X96140833Y-118832380D01*
X96807500Y-118832380D02*
X96997976Y-118832380D01*
X97093214Y-118880000D01*
X97188452Y-118975238D01*
X97236071Y-119165714D01*
X97236071Y-119499047D01*
X97188452Y-119689523D01*
X97093214Y-119784761D01*
X96997976Y-119832380D01*
X96807500Y-119832380D01*
X96712261Y-119784761D01*
X96617023Y-119689523D01*
X96569404Y-119499047D01*
X96569404Y-119165714D01*
X96617023Y-118975238D01*
X96712261Y-118880000D01*
X96807500Y-118832380D01*
X92997976Y-118514761D02*
X93140833Y-118562380D01*
X93378928Y-118562380D01*
X93474166Y-118514761D01*
X93521785Y-118467142D01*
X93569404Y-118371904D01*
X93569404Y-118276666D01*
X93521785Y-118181428D01*
X93474166Y-118133809D01*
X93378928Y-118086190D01*
X93188452Y-118038571D01*
X93093214Y-117990952D01*
X93045595Y-117943333D01*
X92997976Y-117848095D01*
X92997976Y-117752857D01*
X93045595Y-117657619D01*
X93093214Y-117610000D01*
X93188452Y-117562380D01*
X93426547Y-117562380D01*
X93569404Y-117610000D01*
X93902738Y-117562380D02*
X94140833Y-118562380D01*
X94331309Y-117848095D01*
X94521785Y-118562380D01*
X94759880Y-117562380D01*
X95712261Y-118467142D02*
X95664642Y-118514761D01*
X95521785Y-118562380D01*
X95426547Y-118562380D01*
X95283690Y-118514761D01*
X95188452Y-118419523D01*
X95140833Y-118324285D01*
X95093214Y-118133809D01*
X95093214Y-117990952D01*
X95140833Y-117800476D01*
X95188452Y-117705238D01*
X95283690Y-117610000D01*
X95426547Y-117562380D01*
X95521785Y-117562380D01*
X95664642Y-117610000D01*
X95712261Y-117657619D01*
X96617023Y-118562380D02*
X96140833Y-118562380D01*
X96140833Y-117562380D01*
X96950357Y-118562380D02*
X96950357Y-117562380D01*
X97521785Y-118562380D02*
X97093214Y-117990952D01*
X97521785Y-117562380D02*
X96950357Y-118133809D01*
X93045595Y-117292380D02*
X93045595Y-116292380D01*
X93283690Y-116292380D01*
X93426547Y-116340000D01*
X93521785Y-116435238D01*
X93569404Y-116530476D01*
X93617023Y-116720952D01*
X93617023Y-116863809D01*
X93569404Y-117054285D01*
X93521785Y-117149523D01*
X93426547Y-117244761D01*
X93283690Y-117292380D01*
X93045595Y-117292380D01*
X94045595Y-116911428D02*
X94807500Y-116911428D01*
X94426547Y-117292380D02*
X94426547Y-116530476D01*
X93045595Y-116022380D02*
X93045595Y-115022380D01*
X93283690Y-115022380D01*
X93426547Y-115070000D01*
X93521785Y-115165238D01*
X93569404Y-115260476D01*
X93617023Y-115450952D01*
X93617023Y-115593809D01*
X93569404Y-115784285D01*
X93521785Y-115879523D01*
X93426547Y-115974761D01*
X93283690Y-116022380D01*
X93045595Y-116022380D01*
X94045595Y-115641428D02*
X94807500Y-115641428D01*
X92950357Y-113752380D02*
X93569404Y-113752380D01*
X93236071Y-114133333D01*
X93378928Y-114133333D01*
X93474166Y-114180952D01*
X93521785Y-114228571D01*
X93569404Y-114323809D01*
X93569404Y-114561904D01*
X93521785Y-114657142D01*
X93474166Y-114704761D01*
X93378928Y-114752380D01*
X93093214Y-114752380D01*
X92997976Y-114704761D01*
X92950357Y-114657142D01*
X93855119Y-113752380D02*
X94188452Y-114752380D01*
X94521785Y-113752380D01*
X94759880Y-113752380D02*
X95378928Y-113752380D01*
X95045595Y-114133333D01*
X95188452Y-114133333D01*
X95283690Y-114180952D01*
X95331309Y-114228571D01*
X95378928Y-114323809D01*
X95378928Y-114561904D01*
X95331309Y-114657142D01*
X95283690Y-114704761D01*
X95188452Y-114752380D01*
X94902738Y-114752380D01*
X94807500Y-114704761D01*
X94759880Y-114657142D01*
X93569404Y-112530000D02*
X93474166Y-112482380D01*
X93331309Y-112482380D01*
X93188452Y-112530000D01*
X93093214Y-112625238D01*
X93045595Y-112720476D01*
X92997976Y-112910952D01*
X92997976Y-113053809D01*
X93045595Y-113244285D01*
X93093214Y-113339523D01*
X93188452Y-113434761D01*
X93331309Y-113482380D01*
X93426547Y-113482380D01*
X93569404Y-113434761D01*
X93617023Y-113387142D01*
X93617023Y-113053809D01*
X93426547Y-113053809D01*
X94045595Y-113482380D02*
X94045595Y-112482380D01*
X94617023Y-113482380D01*
X94617023Y-112482380D01*
X95093214Y-113482380D02*
X95093214Y-112482380D01*
X95331309Y-112482380D01*
X95474166Y-112530000D01*
X95569404Y-112625238D01*
X95617023Y-112720476D01*
X95664642Y-112910952D01*
X95664642Y-113053809D01*
X95617023Y-113244285D01*
X95569404Y-113339523D01*
X95474166Y-113434761D01*
X95331309Y-113482380D01*
X95093214Y-113482380D01*
D11*
X99171400Y-126506200D02*
X99171400Y-125106200D01*
X103571400Y-126506200D02*
X103571400Y-125106200D01*
X103371400Y-124106200D02*
X99371400Y-124106200D01*
X103371400Y-127506200D02*
X99371400Y-127506200D01*
X111190000Y-126660000D02*
X109790000Y-126660000D01*
X111190000Y-122260000D02*
X109790000Y-122260000D01*
X108790000Y-122460000D02*
X108790000Y-126460000D01*
X112190000Y-122460000D02*
X112190000Y-126460000D01*
X111185000Y-109280000D02*
X109855000Y-109280000D01*
X111185000Y-107950000D02*
X111185000Y-109280000D01*
X111185000Y-106680000D02*
X108525000Y-106680000D01*
X108525000Y-106680000D02*
X108525000Y-96460000D01*
X111185000Y-106680000D02*
X111185000Y-96460000D01*
X111185000Y-96460000D02*
X108525000Y-96460000D01*
X107795000Y-117995000D02*
X105255000Y-117995000D01*
X107795000Y-117995000D02*
X107795000Y-115455000D01*
X107545000Y-117745000D02*
X98195000Y-117745000D01*
X107545000Y-96885000D02*
X107545000Y-117745000D01*
X98195000Y-96885000D02*
X107545000Y-96885000D01*
X98195000Y-117745000D02*
X98195000Y-96885000D01*
X99570000Y-122415000D02*
X99570000Y-121285000D01*
X100330000Y-122415000D02*
X99570000Y-122415000D01*
X99635000Y-119707470D02*
X99635000Y-118885000D01*
X99635000Y-120525000D02*
X99635000Y-120322530D01*
X99766529Y-120525000D02*
X99635000Y-120525000D01*
X101036529Y-120525000D02*
X100893471Y-120525000D01*
X101090000Y-120721529D02*
X101090000Y-120578471D01*
X101090000Y-122415000D02*
X101090000Y-121848471D01*
X99635000Y-118885000D02*
X106105000Y-118885000D01*
X101090000Y-122415000D02*
X106105000Y-122415000D01*
X106105000Y-120977470D02*
X106105000Y-120322530D01*
X106105000Y-119707470D02*
X106105000Y-118885000D01*
X106105000Y-122415000D02*
X106105000Y-121592530D01*
X112910000Y-97600000D02*
X112910000Y-98100000D01*
X113310000Y-97600000D02*
X112910000Y-97600000D01*
X112910000Y-105600000D02*
X112910000Y-105000000D01*
X113510000Y-105600000D02*
X112910000Y-105600000D01*
X118010000Y-105500000D02*
X117210000Y-105500000D01*
X118010000Y-97700000D02*
X117210000Y-97700000D01*
D10*
X105033771Y-127614085D02*
X105081390Y-127471228D01*
X105129009Y-127423609D01*
X105224247Y-127375990D01*
X105367104Y-127375990D01*
X105462342Y-127423609D01*
X105509961Y-127471228D01*
X105557580Y-127566466D01*
X105557580Y-127947419D01*
X104557580Y-127947419D01*
X104557580Y-127614085D01*
X104605200Y-127518847D01*
X104652819Y-127471228D01*
X104748057Y-127423609D01*
X104843295Y-127423609D01*
X104938533Y-127471228D01*
X104986152Y-127518847D01*
X105033771Y-127614085D01*
X105033771Y-127947419D01*
X105557580Y-126804561D02*
X105509961Y-126899800D01*
X105462342Y-126947419D01*
X105367104Y-126995038D01*
X105081390Y-126995038D01*
X104986152Y-126947419D01*
X104938533Y-126899800D01*
X104890914Y-126804561D01*
X104890914Y-126661704D01*
X104938533Y-126566466D01*
X104986152Y-126518847D01*
X105081390Y-126471228D01*
X105367104Y-126471228D01*
X105462342Y-126518847D01*
X105509961Y-126566466D01*
X105557580Y-126661704D01*
X105557580Y-126804561D01*
X105557580Y-125899800D02*
X105509961Y-125995038D01*
X105462342Y-126042657D01*
X105367104Y-126090276D01*
X105081390Y-126090276D01*
X104986152Y-126042657D01*
X104938533Y-125995038D01*
X104890914Y-125899800D01*
X104890914Y-125756942D01*
X104938533Y-125661704D01*
X104986152Y-125614085D01*
X105081390Y-125566466D01*
X105367104Y-125566466D01*
X105462342Y-125614085D01*
X105509961Y-125661704D01*
X105557580Y-125756942D01*
X105557580Y-125899800D01*
X104890914Y-125280752D02*
X104890914Y-124899800D01*
X104557580Y-125137895D02*
X105414723Y-125137895D01*
X105509961Y-125090276D01*
X105557580Y-124995038D01*
X105557580Y-124899800D01*
X105509961Y-124614085D02*
X105557580Y-124518847D01*
X105557580Y-124328371D01*
X105509961Y-124233133D01*
X105414723Y-124185514D01*
X105367104Y-124185514D01*
X105271866Y-124233133D01*
X105224247Y-124328371D01*
X105224247Y-124471228D01*
X105176628Y-124566466D01*
X105081390Y-124614085D01*
X105033771Y-124614085D01*
X104938533Y-124566466D01*
X104890914Y-124471228D01*
X104890914Y-124328371D01*
X104938533Y-124233133D01*
X105509961Y-123375990D02*
X105557580Y-123471228D01*
X105557580Y-123661704D01*
X105509961Y-123756942D01*
X105414723Y-123804561D01*
X105033771Y-123804561D01*
X104938533Y-123756942D01*
X104890914Y-123661704D01*
X104890914Y-123471228D01*
X104938533Y-123375990D01*
X105033771Y-123328371D01*
X105129009Y-123328371D01*
X105224247Y-123804561D01*
X105557580Y-122756942D02*
X105509961Y-122852180D01*
X105414723Y-122899800D01*
X104557580Y-122899800D01*
X110894761Y-125793333D02*
X110942380Y-125650476D01*
X110942380Y-125412380D01*
X110894761Y-125317142D01*
X110847142Y-125269523D01*
X110751904Y-125221904D01*
X110656666Y-125221904D01*
X110561428Y-125269523D01*
X110513809Y-125317142D01*
X110466190Y-125412380D01*
X110418571Y-125602857D01*
X110370952Y-125698095D01*
X110323333Y-125745714D01*
X110228095Y-125793333D01*
X110132857Y-125793333D01*
X110037619Y-125745714D01*
X109990000Y-125698095D01*
X109942380Y-125602857D01*
X109942380Y-125364761D01*
X109990000Y-125221904D01*
X109942380Y-124888571D02*
X110942380Y-124650476D01*
X110228095Y-124460000D01*
X110942380Y-124269523D01*
X109942380Y-124031428D01*
X110942380Y-123126666D02*
X110942380Y-123698095D01*
X110942380Y-123412380D02*
X109942380Y-123412380D01*
X110085238Y-123507619D01*
X110180476Y-123602857D01*
X110228095Y-123698095D01*
X113696904Y-127452380D02*
X113363571Y-126976190D01*
X113125476Y-127452380D02*
X113125476Y-126452380D01*
X113506428Y-126452380D01*
X113601666Y-126500000D01*
X113649285Y-126547619D01*
X113696904Y-126642857D01*
X113696904Y-126785714D01*
X113649285Y-126880952D01*
X113601666Y-126928571D01*
X113506428Y-126976190D01*
X113125476Y-126976190D01*
X114506428Y-127404761D02*
X114411190Y-127452380D01*
X114220714Y-127452380D01*
X114125476Y-127404761D01*
X114077857Y-127309523D01*
X114077857Y-126928571D01*
X114125476Y-126833333D01*
X114220714Y-126785714D01*
X114411190Y-126785714D01*
X114506428Y-126833333D01*
X114554047Y-126928571D01*
X114554047Y-127023809D01*
X114077857Y-127119047D01*
X114935000Y-127404761D02*
X115030238Y-127452380D01*
X115220714Y-127452380D01*
X115315952Y-127404761D01*
X115363571Y-127309523D01*
X115363571Y-127261904D01*
X115315952Y-127166666D01*
X115220714Y-127119047D01*
X115077857Y-127119047D01*
X114982619Y-127071428D01*
X114935000Y-126976190D01*
X114935000Y-126928571D01*
X114982619Y-126833333D01*
X115077857Y-126785714D01*
X115220714Y-126785714D01*
X115315952Y-126833333D01*
X116173095Y-127404761D02*
X116077857Y-127452380D01*
X115887380Y-127452380D01*
X115792142Y-127404761D01*
X115744523Y-127309523D01*
X115744523Y-126928571D01*
X115792142Y-126833333D01*
X115887380Y-126785714D01*
X116077857Y-126785714D01*
X116173095Y-126833333D01*
X116220714Y-126928571D01*
X116220714Y-127023809D01*
X115744523Y-127119047D01*
X116506428Y-126785714D02*
X116887380Y-126785714D01*
X116649285Y-126452380D02*
X116649285Y-127309523D01*
X116696904Y-127404761D01*
X116792142Y-127452380D01*
X116887380Y-127452380D01*
X109521666Y-109732380D02*
X109521666Y-110446666D01*
X109474047Y-110589523D01*
X109378809Y-110684761D01*
X109235952Y-110732380D01*
X109140714Y-110732380D01*
X110426428Y-109732380D02*
X110235952Y-109732380D01*
X110140714Y-109780000D01*
X110093095Y-109827619D01*
X109997857Y-109970476D01*
X109950238Y-110160952D01*
X109950238Y-110541904D01*
X109997857Y-110637142D01*
X110045476Y-110684761D01*
X110140714Y-110732380D01*
X110331190Y-110732380D01*
X110426428Y-110684761D01*
X110474047Y-110637142D01*
X110521666Y-110541904D01*
X110521666Y-110303809D01*
X110474047Y-110208571D01*
X110426428Y-110160952D01*
X110331190Y-110113333D01*
X110140714Y-110113333D01*
X110045476Y-110160952D01*
X109997857Y-110208571D01*
X109950238Y-110303809D01*
X102536666Y-99147380D02*
X102536666Y-99861666D01*
X102489047Y-100004523D01*
X102393809Y-100099761D01*
X102250952Y-100147380D01*
X102155714Y-100147380D01*
X103489047Y-99147380D02*
X103012857Y-99147380D01*
X102965238Y-99623571D01*
X103012857Y-99575952D01*
X103108095Y-99528333D01*
X103346190Y-99528333D01*
X103441428Y-99575952D01*
X103489047Y-99623571D01*
X103536666Y-99718809D01*
X103536666Y-99956904D01*
X103489047Y-100052142D01*
X103441428Y-100099761D01*
X103346190Y-100147380D01*
X103108095Y-100147380D01*
X103012857Y-100099761D01*
X102965238Y-100052142D01*
X98087380Y-120983333D02*
X98801666Y-120983333D01*
X98944523Y-121030952D01*
X99039761Y-121126190D01*
X99087380Y-121269047D01*
X99087380Y-121364285D01*
X98420714Y-120078571D02*
X99087380Y-120078571D01*
X98039761Y-120316666D02*
X98754047Y-120554761D01*
X98754047Y-119935714D01*
X115530380Y-101933333D02*
X116244666Y-101933333D01*
X116387523Y-101980952D01*
X116482761Y-102076190D01*
X116530380Y-102219047D01*
X116530380Y-102314285D01*
X115625619Y-101504761D02*
X115578000Y-101457142D01*
X115530380Y-101361904D01*
X115530380Y-101123809D01*
X115578000Y-101028571D01*
X115625619Y-100980952D01*
X115720857Y-100933333D01*
X115816095Y-100933333D01*
X115958952Y-100980952D01*
X116530380Y-101552380D01*
X116530380Y-100933333D01*
M02*
