G04 #@! TF.GenerationSoftware,KiCad,Pcbnew,(5.1.4)-1*
G04 #@! TF.CreationDate,2022-03-06T11:46:22+01:00*
G04 #@! TF.ProjectId,UP1-Progger,5550312d-5072-46f6-9767-65722e6b6963,V00.10*
G04 #@! TF.SameCoordinates,Original*
G04 #@! TF.FileFunction,Copper,L1,Top*
G04 #@! TF.FilePolarity,Positive*
%FSLAX46Y46*%
G04 Gerber Fmt 4.6, Leading zero omitted, Abs format (unit mm)*
G04 Created by KiCad (PCBNEW (5.1.4)-1) date 2022-03-06 11:46:22*
%MOMM*%
%LPD*%
G04 APERTURE LIST*
%ADD10R,0.900000X0.800000*%
%ADD11R,1.600000X1.050000*%
%ADD12O,1.000000X1.000000*%
%ADD13R,1.000000X1.000000*%
%ADD14C,0.100000*%
%ADD15C,1.425000*%
%ADD16O,1.727200X1.727200*%
%ADD17R,1.727200X1.727200*%
%ADD18C,1.300000*%
%ADD19O,1.900000X1.500000*%
%ADD20R,1.600000X0.400000*%
G04 APERTURE END LIST*
D10*
X105775000Y-116840000D03*
X103775000Y-117790000D03*
X103775000Y-115890000D03*
D11*
X101155000Y-124900000D03*
X101155000Y-122750000D03*
X105855000Y-124900000D03*
X105855000Y-122750000D03*
D12*
X91440000Y-121920000D03*
X91440000Y-120650000D03*
X91440000Y-119380000D03*
X91440000Y-118110000D03*
X91440000Y-116840000D03*
X91440000Y-115570000D03*
X91440000Y-114300000D03*
D13*
X91440000Y-113030000D03*
D11*
X110680000Y-124900000D03*
X110680000Y-122750000D03*
X115380000Y-124900000D03*
X115380000Y-122750000D03*
D14*
G36*
X102249504Y-114641204D02*
G01*
X102273773Y-114644804D01*
X102297571Y-114650765D01*
X102320671Y-114659030D01*
X102342849Y-114669520D01*
X102363893Y-114682133D01*
X102383598Y-114696747D01*
X102401777Y-114713223D01*
X102418253Y-114731402D01*
X102432867Y-114751107D01*
X102445480Y-114772151D01*
X102455970Y-114794329D01*
X102464235Y-114817429D01*
X102470196Y-114841227D01*
X102473796Y-114865496D01*
X102475000Y-114890000D01*
X102475000Y-115815000D01*
X102473796Y-115839504D01*
X102470196Y-115863773D01*
X102464235Y-115887571D01*
X102455970Y-115910671D01*
X102445480Y-115932849D01*
X102432867Y-115953893D01*
X102418253Y-115973598D01*
X102401777Y-115991777D01*
X102383598Y-116008253D01*
X102363893Y-116022867D01*
X102342849Y-116035480D01*
X102320671Y-116045970D01*
X102297571Y-116054235D01*
X102273773Y-116060196D01*
X102249504Y-116063796D01*
X102225000Y-116065000D01*
X100975000Y-116065000D01*
X100950496Y-116063796D01*
X100926227Y-116060196D01*
X100902429Y-116054235D01*
X100879329Y-116045970D01*
X100857151Y-116035480D01*
X100836107Y-116022867D01*
X100816402Y-116008253D01*
X100798223Y-115991777D01*
X100781747Y-115973598D01*
X100767133Y-115953893D01*
X100754520Y-115932849D01*
X100744030Y-115910671D01*
X100735765Y-115887571D01*
X100729804Y-115863773D01*
X100726204Y-115839504D01*
X100725000Y-115815000D01*
X100725000Y-114890000D01*
X100726204Y-114865496D01*
X100729804Y-114841227D01*
X100735765Y-114817429D01*
X100744030Y-114794329D01*
X100754520Y-114772151D01*
X100767133Y-114751107D01*
X100781747Y-114731402D01*
X100798223Y-114713223D01*
X100816402Y-114696747D01*
X100836107Y-114682133D01*
X100857151Y-114669520D01*
X100879329Y-114659030D01*
X100902429Y-114650765D01*
X100926227Y-114644804D01*
X100950496Y-114641204D01*
X100975000Y-114640000D01*
X102225000Y-114640000D01*
X102249504Y-114641204D01*
X102249504Y-114641204D01*
G37*
D15*
X101600000Y-115352500D03*
D14*
G36*
X102249504Y-117616204D02*
G01*
X102273773Y-117619804D01*
X102297571Y-117625765D01*
X102320671Y-117634030D01*
X102342849Y-117644520D01*
X102363893Y-117657133D01*
X102383598Y-117671747D01*
X102401777Y-117688223D01*
X102418253Y-117706402D01*
X102432867Y-117726107D01*
X102445480Y-117747151D01*
X102455970Y-117769329D01*
X102464235Y-117792429D01*
X102470196Y-117816227D01*
X102473796Y-117840496D01*
X102475000Y-117865000D01*
X102475000Y-118790000D01*
X102473796Y-118814504D01*
X102470196Y-118838773D01*
X102464235Y-118862571D01*
X102455970Y-118885671D01*
X102445480Y-118907849D01*
X102432867Y-118928893D01*
X102418253Y-118948598D01*
X102401777Y-118966777D01*
X102383598Y-118983253D01*
X102363893Y-118997867D01*
X102342849Y-119010480D01*
X102320671Y-119020970D01*
X102297571Y-119029235D01*
X102273773Y-119035196D01*
X102249504Y-119038796D01*
X102225000Y-119040000D01*
X100975000Y-119040000D01*
X100950496Y-119038796D01*
X100926227Y-119035196D01*
X100902429Y-119029235D01*
X100879329Y-119020970D01*
X100857151Y-119010480D01*
X100836107Y-118997867D01*
X100816402Y-118983253D01*
X100798223Y-118966777D01*
X100781747Y-118948598D01*
X100767133Y-118928893D01*
X100754520Y-118907849D01*
X100744030Y-118885671D01*
X100735765Y-118862571D01*
X100729804Y-118838773D01*
X100726204Y-118814504D01*
X100725000Y-118790000D01*
X100725000Y-117865000D01*
X100726204Y-117840496D01*
X100729804Y-117816227D01*
X100735765Y-117792429D01*
X100744030Y-117769329D01*
X100754520Y-117747151D01*
X100767133Y-117726107D01*
X100781747Y-117706402D01*
X100798223Y-117688223D01*
X100816402Y-117671747D01*
X100836107Y-117657133D01*
X100857151Y-117644520D01*
X100879329Y-117634030D01*
X100902429Y-117625765D01*
X100926227Y-117619804D01*
X100950496Y-117616204D01*
X100975000Y-117615000D01*
X102225000Y-117615000D01*
X102249504Y-117616204D01*
X102249504Y-117616204D01*
G37*
D15*
X101600000Y-118327500D03*
D14*
G36*
X108599504Y-114641204D02*
G01*
X108623773Y-114644804D01*
X108647571Y-114650765D01*
X108670671Y-114659030D01*
X108692849Y-114669520D01*
X108713893Y-114682133D01*
X108733598Y-114696747D01*
X108751777Y-114713223D01*
X108768253Y-114731402D01*
X108782867Y-114751107D01*
X108795480Y-114772151D01*
X108805970Y-114794329D01*
X108814235Y-114817429D01*
X108820196Y-114841227D01*
X108823796Y-114865496D01*
X108825000Y-114890000D01*
X108825000Y-115815000D01*
X108823796Y-115839504D01*
X108820196Y-115863773D01*
X108814235Y-115887571D01*
X108805970Y-115910671D01*
X108795480Y-115932849D01*
X108782867Y-115953893D01*
X108768253Y-115973598D01*
X108751777Y-115991777D01*
X108733598Y-116008253D01*
X108713893Y-116022867D01*
X108692849Y-116035480D01*
X108670671Y-116045970D01*
X108647571Y-116054235D01*
X108623773Y-116060196D01*
X108599504Y-116063796D01*
X108575000Y-116065000D01*
X107325000Y-116065000D01*
X107300496Y-116063796D01*
X107276227Y-116060196D01*
X107252429Y-116054235D01*
X107229329Y-116045970D01*
X107207151Y-116035480D01*
X107186107Y-116022867D01*
X107166402Y-116008253D01*
X107148223Y-115991777D01*
X107131747Y-115973598D01*
X107117133Y-115953893D01*
X107104520Y-115932849D01*
X107094030Y-115910671D01*
X107085765Y-115887571D01*
X107079804Y-115863773D01*
X107076204Y-115839504D01*
X107075000Y-115815000D01*
X107075000Y-114890000D01*
X107076204Y-114865496D01*
X107079804Y-114841227D01*
X107085765Y-114817429D01*
X107094030Y-114794329D01*
X107104520Y-114772151D01*
X107117133Y-114751107D01*
X107131747Y-114731402D01*
X107148223Y-114713223D01*
X107166402Y-114696747D01*
X107186107Y-114682133D01*
X107207151Y-114669520D01*
X107229329Y-114659030D01*
X107252429Y-114650765D01*
X107276227Y-114644804D01*
X107300496Y-114641204D01*
X107325000Y-114640000D01*
X108575000Y-114640000D01*
X108599504Y-114641204D01*
X108599504Y-114641204D01*
G37*
D15*
X107950000Y-115352500D03*
D14*
G36*
X108599504Y-117616204D02*
G01*
X108623773Y-117619804D01*
X108647571Y-117625765D01*
X108670671Y-117634030D01*
X108692849Y-117644520D01*
X108713893Y-117657133D01*
X108733598Y-117671747D01*
X108751777Y-117688223D01*
X108768253Y-117706402D01*
X108782867Y-117726107D01*
X108795480Y-117747151D01*
X108805970Y-117769329D01*
X108814235Y-117792429D01*
X108820196Y-117816227D01*
X108823796Y-117840496D01*
X108825000Y-117865000D01*
X108825000Y-118790000D01*
X108823796Y-118814504D01*
X108820196Y-118838773D01*
X108814235Y-118862571D01*
X108805970Y-118885671D01*
X108795480Y-118907849D01*
X108782867Y-118928893D01*
X108768253Y-118948598D01*
X108751777Y-118966777D01*
X108733598Y-118983253D01*
X108713893Y-118997867D01*
X108692849Y-119010480D01*
X108670671Y-119020970D01*
X108647571Y-119029235D01*
X108623773Y-119035196D01*
X108599504Y-119038796D01*
X108575000Y-119040000D01*
X107325000Y-119040000D01*
X107300496Y-119038796D01*
X107276227Y-119035196D01*
X107252429Y-119029235D01*
X107229329Y-119020970D01*
X107207151Y-119010480D01*
X107186107Y-118997867D01*
X107166402Y-118983253D01*
X107148223Y-118966777D01*
X107131747Y-118948598D01*
X107117133Y-118928893D01*
X107104520Y-118907849D01*
X107094030Y-118885671D01*
X107085765Y-118862571D01*
X107079804Y-118838773D01*
X107076204Y-118814504D01*
X107075000Y-118790000D01*
X107075000Y-117865000D01*
X107076204Y-117840496D01*
X107079804Y-117816227D01*
X107085765Y-117792429D01*
X107094030Y-117769329D01*
X107104520Y-117747151D01*
X107117133Y-117726107D01*
X107131747Y-117706402D01*
X107148223Y-117688223D01*
X107166402Y-117671747D01*
X107186107Y-117657133D01*
X107207151Y-117644520D01*
X107229329Y-117634030D01*
X107252429Y-117625765D01*
X107276227Y-117619804D01*
X107300496Y-117616204D01*
X107325000Y-117615000D01*
X108575000Y-117615000D01*
X108599504Y-117616204D01*
X108599504Y-117616204D01*
G37*
D15*
X107950000Y-118327500D03*
D16*
X113030000Y-100330000D03*
X113030000Y-102870000D03*
X110490000Y-100330000D03*
X110490000Y-102870000D03*
X107950000Y-100330000D03*
X107950000Y-102870000D03*
X105410000Y-100330000D03*
X105410000Y-102870000D03*
X102870000Y-100330000D03*
D17*
X102870000Y-102870000D03*
D12*
X106045000Y-109220000D03*
X106045000Y-110490000D03*
X104775000Y-109220000D03*
X104775000Y-110490000D03*
X103505000Y-109220000D03*
X103505000Y-110490000D03*
X102235000Y-109220000D03*
X102235000Y-110490000D03*
X100965000Y-109220000D03*
D13*
X100965000Y-110490000D03*
D18*
X114700000Y-117995000D03*
X114700000Y-113145000D03*
D19*
X117380000Y-111945000D03*
X117380000Y-119195000D03*
D20*
X114230000Y-115570000D03*
X114230000Y-116220000D03*
X114230000Y-116870000D03*
X114230000Y-114270000D03*
X114230000Y-114920000D03*
M02*
