G04 #@! TF.GenerationSoftware,KiCad,Pcbnew,(5.1.4)-1*
G04 #@! TF.CreationDate,2022-02-10T12:30:50+01:00*
G04 #@! TF.ProjectId,UP1-Progger,5550312d-5072-46f6-9767-65722e6b6963,V00.10*
G04 #@! TF.SameCoordinates,Original*
G04 #@! TF.FileFunction,Legend,Bot*
G04 #@! TF.FilePolarity,Positive*
%FSLAX46Y46*%
G04 Gerber Fmt 4.6, Leading zero omitted, Abs format (unit mm)*
G04 Created by KiCad (PCBNEW (5.1.4)-1) date 2022-02-10 12:30:50*
%MOMM*%
%LPD*%
G04 APERTURE LIST*
%ADD10C,0.150000*%
%ADD11C,0.120000*%
G04 APERTURE END LIST*
D10*
X99404761Y-98714285D02*
X99452380Y-98857142D01*
X99452380Y-99095238D01*
X99404761Y-99190476D01*
X99357142Y-99238095D01*
X99261904Y-99285714D01*
X99166666Y-99285714D01*
X99071428Y-99238095D01*
X99023809Y-99190476D01*
X98976190Y-99095238D01*
X98928571Y-98904761D01*
X98880952Y-98809523D01*
X98833333Y-98761904D01*
X98738095Y-98714285D01*
X98642857Y-98714285D01*
X98547619Y-98761904D01*
X98500000Y-98809523D01*
X98452380Y-98904761D01*
X98452380Y-99142857D01*
X98500000Y-99285714D01*
X99452380Y-99714285D02*
X98785714Y-99714285D01*
X98452380Y-99714285D02*
X98500000Y-99666666D01*
X98547619Y-99714285D01*
X98500000Y-99761904D01*
X98452380Y-99714285D01*
X98547619Y-99714285D01*
X99452380Y-100190476D02*
X98785714Y-100190476D01*
X98976190Y-100190476D02*
X98880952Y-100238095D01*
X98833333Y-100285714D01*
X98785714Y-100380952D01*
X98785714Y-100476190D01*
X99404761Y-100761904D02*
X99452380Y-100904761D01*
X99452380Y-101142857D01*
X99404761Y-101238095D01*
X99357142Y-101285714D01*
X99261904Y-101333333D01*
X99166666Y-101333333D01*
X99071428Y-101285714D01*
X99023809Y-101238095D01*
X98976190Y-101142857D01*
X98928571Y-100952380D01*
X98880952Y-100857142D01*
X98833333Y-100809523D01*
X98738095Y-100761904D01*
X98642857Y-100761904D01*
X98547619Y-100809523D01*
X98500000Y-100857142D01*
X98452380Y-100952380D01*
X98452380Y-101190476D01*
X98500000Y-101333333D01*
X98785714Y-101666666D02*
X99452380Y-101904761D01*
X98785714Y-102142857D02*
X99452380Y-101904761D01*
X99690476Y-101809523D01*
X99738095Y-101761904D01*
X99785714Y-101666666D01*
X99452380Y-102952380D02*
X98452380Y-102952380D01*
X99404761Y-102952380D02*
X99452380Y-102857142D01*
X99452380Y-102666666D01*
X99404761Y-102571428D01*
X99357142Y-102523809D01*
X99261904Y-102476190D01*
X98976190Y-102476190D01*
X98880952Y-102523809D01*
X98833333Y-102571428D01*
X98785714Y-102666666D01*
X98785714Y-102857142D01*
X98833333Y-102952380D01*
X99452380Y-103571428D02*
X99404761Y-103476190D01*
X99357142Y-103428571D01*
X99261904Y-103380952D01*
X98976190Y-103380952D01*
X98880952Y-103428571D01*
X98833333Y-103476190D01*
X98785714Y-103571428D01*
X98785714Y-103714285D01*
X98833333Y-103809523D01*
X98880952Y-103857142D01*
X98976190Y-103904761D01*
X99261904Y-103904761D01*
X99357142Y-103857142D01*
X99404761Y-103809523D01*
X99452380Y-103714285D01*
X99452380Y-103571428D01*
X99452380Y-104333333D02*
X98785714Y-104333333D01*
X98880952Y-104333333D02*
X98833333Y-104380952D01*
X98785714Y-104476190D01*
X98785714Y-104619047D01*
X98833333Y-104714285D01*
X98928571Y-104761904D01*
X99452380Y-104761904D01*
X98928571Y-104761904D02*
X98833333Y-104809523D01*
X98785714Y-104904761D01*
X98785714Y-105047619D01*
X98833333Y-105142857D01*
X98928571Y-105190476D01*
X99452380Y-105190476D01*
X99404761Y-105714285D02*
X99452380Y-105714285D01*
X99547619Y-105666666D01*
X99595238Y-105619047D01*
X98547619Y-106857142D02*
X98500000Y-106904761D01*
X98452380Y-107000000D01*
X98452380Y-107238095D01*
X98500000Y-107333333D01*
X98547619Y-107380952D01*
X98642857Y-107428571D01*
X98738095Y-107428571D01*
X98880952Y-107380952D01*
X99452380Y-106809523D01*
X99452380Y-107428571D01*
X98452380Y-108047619D02*
X98452380Y-108142857D01*
X98500000Y-108238095D01*
X98547619Y-108285714D01*
X98642857Y-108333333D01*
X98833333Y-108380952D01*
X99071428Y-108380952D01*
X99261904Y-108333333D01*
X99357142Y-108285714D01*
X99404761Y-108238095D01*
X99452380Y-108142857D01*
X99452380Y-108047619D01*
X99404761Y-107952380D01*
X99357142Y-107904761D01*
X99261904Y-107857142D01*
X99071428Y-107809523D01*
X98833333Y-107809523D01*
X98642857Y-107857142D01*
X98547619Y-107904761D01*
X98500000Y-107952380D01*
X98452380Y-108047619D01*
X98547619Y-108761904D02*
X98500000Y-108809523D01*
X98452380Y-108904761D01*
X98452380Y-109142857D01*
X98500000Y-109238095D01*
X98547619Y-109285714D01*
X98642857Y-109333333D01*
X98738095Y-109333333D01*
X98880952Y-109285714D01*
X99452380Y-108714285D01*
X99452380Y-109333333D01*
X98547619Y-109714285D02*
X98500000Y-109761904D01*
X98452380Y-109857142D01*
X98452380Y-110095238D01*
X98500000Y-110190476D01*
X98547619Y-110238095D01*
X98642857Y-110285714D01*
X98738095Y-110285714D01*
X98880952Y-110238095D01*
X99452380Y-109666666D01*
X99452380Y-110285714D01*
X93952380Y-116023809D02*
X94952380Y-116357142D01*
X93952380Y-116690476D01*
X93952380Y-117214285D02*
X93952380Y-117309523D01*
X94000000Y-117404761D01*
X94047619Y-117452380D01*
X94142857Y-117500000D01*
X94333333Y-117547619D01*
X94571428Y-117547619D01*
X94761904Y-117500000D01*
X94857142Y-117452380D01*
X94904761Y-117404761D01*
X94952380Y-117309523D01*
X94952380Y-117214285D01*
X94904761Y-117119047D01*
X94857142Y-117071428D01*
X94761904Y-117023809D01*
X94571428Y-116976190D01*
X94333333Y-116976190D01*
X94142857Y-117023809D01*
X94047619Y-117071428D01*
X94000000Y-117119047D01*
X93952380Y-117214285D01*
X93952380Y-118166666D02*
X93952380Y-118261904D01*
X94000000Y-118357142D01*
X94047619Y-118404761D01*
X94142857Y-118452380D01*
X94333333Y-118500000D01*
X94571428Y-118500000D01*
X94761904Y-118452380D01*
X94857142Y-118404761D01*
X94904761Y-118357142D01*
X94952380Y-118261904D01*
X94952380Y-118166666D01*
X94904761Y-118071428D01*
X94857142Y-118023809D01*
X94761904Y-117976190D01*
X94571428Y-117928571D01*
X94333333Y-117928571D01*
X94142857Y-117976190D01*
X94047619Y-118023809D01*
X94000000Y-118071428D01*
X93952380Y-118166666D01*
X94857142Y-118928571D02*
X94904761Y-118976190D01*
X94952380Y-118928571D01*
X94904761Y-118880952D01*
X94857142Y-118928571D01*
X94952380Y-118928571D01*
X94952380Y-119928571D02*
X94952380Y-119357142D01*
X94952380Y-119642857D02*
X93952380Y-119642857D01*
X94095238Y-119547619D01*
X94190476Y-119452380D01*
X94238095Y-119357142D01*
X93952380Y-120547619D02*
X93952380Y-120642857D01*
X94000000Y-120738095D01*
X94047619Y-120785714D01*
X94142857Y-120833333D01*
X94333333Y-120880952D01*
X94571428Y-120880952D01*
X94761904Y-120833333D01*
X94857142Y-120785714D01*
X94904761Y-120738095D01*
X94952380Y-120642857D01*
X94952380Y-120547619D01*
X94904761Y-120452380D01*
X94857142Y-120404761D01*
X94761904Y-120357142D01*
X94571428Y-120309523D01*
X94333333Y-120309523D01*
X94142857Y-120357142D01*
X94047619Y-120404761D01*
X94000000Y-120452380D01*
X93952380Y-120547619D01*
X105473928Y-116127380D02*
X105283452Y-116127380D01*
X105188214Y-116175000D01*
X105092976Y-116270238D01*
X105045357Y-116460714D01*
X105045357Y-116794047D01*
X105092976Y-116984523D01*
X105188214Y-117079761D01*
X105283452Y-117127380D01*
X105473928Y-117127380D01*
X105569166Y-117079761D01*
X105664404Y-116984523D01*
X105712023Y-116794047D01*
X105712023Y-116460714D01*
X105664404Y-116270238D01*
X105569166Y-116175000D01*
X105473928Y-116127380D01*
X104616785Y-116460714D02*
X104616785Y-117460714D01*
X104616785Y-116508333D02*
X104521547Y-116460714D01*
X104331071Y-116460714D01*
X104235833Y-116508333D01*
X104188214Y-116555952D01*
X104140595Y-116651190D01*
X104140595Y-116936904D01*
X104188214Y-117032142D01*
X104235833Y-117079761D01*
X104331071Y-117127380D01*
X104521547Y-117127380D01*
X104616785Y-117079761D01*
X103331071Y-117079761D02*
X103426309Y-117127380D01*
X103616785Y-117127380D01*
X103712023Y-117079761D01*
X103759642Y-116984523D01*
X103759642Y-116603571D01*
X103712023Y-116508333D01*
X103616785Y-116460714D01*
X103426309Y-116460714D01*
X103331071Y-116508333D01*
X103283452Y-116603571D01*
X103283452Y-116698809D01*
X103759642Y-116794047D01*
X102854880Y-116460714D02*
X102854880Y-117127380D01*
X102854880Y-116555952D02*
X102807261Y-116508333D01*
X102712023Y-116460714D01*
X102569166Y-116460714D01*
X102473928Y-116508333D01*
X102426309Y-116603571D01*
X102426309Y-117127380D01*
X101950119Y-117127380D02*
X101950119Y-116127380D01*
X101378690Y-117127380D02*
X101807261Y-116555952D01*
X101378690Y-116127380D02*
X101950119Y-116698809D01*
X100950119Y-117127380D02*
X100950119Y-116127380D01*
X100378690Y-117127380D01*
X100378690Y-116127380D01*
X99997738Y-116127380D02*
X99331071Y-117127380D01*
X99331071Y-116127380D02*
X99997738Y-117127380D01*
X98950119Y-117032142D02*
X98902500Y-117079761D01*
X98950119Y-117127380D01*
X98997738Y-117079761D01*
X98950119Y-117032142D01*
X98950119Y-117127380D01*
X98045357Y-117127380D02*
X98045357Y-116127380D01*
X98045357Y-117079761D02*
X98140595Y-117127380D01*
X98331071Y-117127380D01*
X98426309Y-117079761D01*
X98473928Y-117032142D01*
X98521547Y-116936904D01*
X98521547Y-116651190D01*
X98473928Y-116555952D01*
X98426309Y-116508333D01*
X98331071Y-116460714D01*
X98140595Y-116460714D01*
X98045357Y-116508333D01*
X97188214Y-117079761D02*
X97283452Y-117127380D01*
X97473928Y-117127380D01*
X97569166Y-117079761D01*
X97616785Y-116984523D01*
X97616785Y-116603571D01*
X97569166Y-116508333D01*
X97473928Y-116460714D01*
X97283452Y-116460714D01*
X97188214Y-116508333D01*
X97140595Y-116603571D01*
X97140595Y-116698809D01*
X97616785Y-116794047D01*
X105664404Y-117777380D02*
X105664404Y-118586904D01*
X105616785Y-118682142D01*
X105569166Y-118729761D01*
X105473928Y-118777380D01*
X105283452Y-118777380D01*
X105188214Y-118729761D01*
X105140595Y-118682142D01*
X105092976Y-118586904D01*
X105092976Y-117777380D01*
X104616785Y-118777380D02*
X104616785Y-117777380D01*
X104235833Y-117777380D01*
X104140595Y-117825000D01*
X104092976Y-117872619D01*
X104045357Y-117967857D01*
X104045357Y-118110714D01*
X104092976Y-118205952D01*
X104140595Y-118253571D01*
X104235833Y-118301190D01*
X104616785Y-118301190D01*
X103092976Y-118777380D02*
X103664404Y-118777380D01*
X103378690Y-118777380D02*
X103378690Y-117777380D01*
X103473928Y-117920238D01*
X103569166Y-118015476D01*
X103664404Y-118063095D01*
X102664404Y-118396428D02*
X101902500Y-118396428D01*
X101426309Y-118777380D02*
X101426309Y-117777380D01*
X101045357Y-117777380D01*
X100950119Y-117825000D01*
X100902500Y-117872619D01*
X100854880Y-117967857D01*
X100854880Y-118110714D01*
X100902500Y-118205952D01*
X100950119Y-118253571D01*
X101045357Y-118301190D01*
X101426309Y-118301190D01*
X100426309Y-118777380D02*
X100426309Y-118110714D01*
X100426309Y-118301190D02*
X100378690Y-118205952D01*
X100331071Y-118158333D01*
X100235833Y-118110714D01*
X100140595Y-118110714D01*
X99664404Y-118777380D02*
X99759642Y-118729761D01*
X99807261Y-118682142D01*
X99854880Y-118586904D01*
X99854880Y-118301190D01*
X99807261Y-118205952D01*
X99759642Y-118158333D01*
X99664404Y-118110714D01*
X99521547Y-118110714D01*
X99426309Y-118158333D01*
X99378690Y-118205952D01*
X99331071Y-118301190D01*
X99331071Y-118586904D01*
X99378690Y-118682142D01*
X99426309Y-118729761D01*
X99521547Y-118777380D01*
X99664404Y-118777380D01*
X98473928Y-118110714D02*
X98473928Y-118920238D01*
X98521547Y-119015476D01*
X98569166Y-119063095D01*
X98664404Y-119110714D01*
X98807261Y-119110714D01*
X98902500Y-119063095D01*
X98473928Y-118729761D02*
X98569166Y-118777380D01*
X98759642Y-118777380D01*
X98854880Y-118729761D01*
X98902500Y-118682142D01*
X98950119Y-118586904D01*
X98950119Y-118301190D01*
X98902500Y-118205952D01*
X98854880Y-118158333D01*
X98759642Y-118110714D01*
X98569166Y-118110714D01*
X98473928Y-118158333D01*
X97569166Y-118110714D02*
X97569166Y-118920238D01*
X97616785Y-119015476D01*
X97664404Y-119063095D01*
X97759642Y-119110714D01*
X97902500Y-119110714D01*
X97997738Y-119063095D01*
X97569166Y-118729761D02*
X97664404Y-118777380D01*
X97854880Y-118777380D01*
X97950119Y-118729761D01*
X97997738Y-118682142D01*
X98045357Y-118586904D01*
X98045357Y-118301190D01*
X97997738Y-118205952D01*
X97950119Y-118158333D01*
X97854880Y-118110714D01*
X97664404Y-118110714D01*
X97569166Y-118158333D01*
X96712023Y-118729761D02*
X96807261Y-118777380D01*
X96997738Y-118777380D01*
X97092976Y-118729761D01*
X97140595Y-118634523D01*
X97140595Y-118253571D01*
X97092976Y-118158333D01*
X96997738Y-118110714D01*
X96807261Y-118110714D01*
X96712023Y-118158333D01*
X96664404Y-118253571D01*
X96664404Y-118348809D01*
X97140595Y-118444047D01*
X96235833Y-118777380D02*
X96235833Y-118110714D01*
X96235833Y-118301190D02*
X96188214Y-118205952D01*
X96140595Y-118158333D01*
X96045357Y-118110714D01*
X95950119Y-118110714D01*
D11*
X103757000Y-124200800D02*
X102297000Y-124200800D01*
X103757000Y-127360800D02*
X101597000Y-127360800D01*
X103757000Y-127360800D02*
X103757000Y-126430800D01*
X103757000Y-124200800D02*
X103757000Y-125130800D01*
X91440000Y-112270000D02*
X90110000Y-112270000D01*
X90110000Y-112270000D02*
X90110000Y-113030000D01*
X90110000Y-113665000D02*
X90110000Y-122615000D01*
X91132470Y-122615000D02*
X90110000Y-122615000D01*
X92770000Y-122615000D02*
X91747530Y-122615000D01*
X92770000Y-113665000D02*
X92770000Y-122615000D01*
X90680000Y-113665000D02*
X90110000Y-113665000D01*
X92770000Y-113665000D02*
X92200000Y-113665000D01*
X108170000Y-117610000D02*
X108670000Y-118110000D01*
X108170000Y-118610000D02*
X108170000Y-117610000D01*
X108670000Y-118110000D02*
X108170000Y-118610000D01*
X125610000Y-110700000D02*
X117250000Y-110700000D01*
X125610000Y-123020000D02*
X125610000Y-110700000D01*
X117250000Y-123020000D02*
X125610000Y-123020000D01*
X108890000Y-110700000D02*
X113150000Y-110700000D01*
X108890000Y-123020000D02*
X108890000Y-110700000D01*
X113150000Y-123020000D02*
X108890000Y-123020000D01*
X99716000Y-124910436D02*
X99716000Y-126114564D01*
X97896000Y-124910436D02*
X97896000Y-126114564D01*
X107844000Y-124910436D02*
X107844000Y-126114564D01*
X106024000Y-124910436D02*
X106024000Y-126114564D01*
D10*
X104622504Y-122972580D02*
X104622504Y-123782104D01*
X104574885Y-123877342D01*
X104527266Y-123924961D01*
X104432028Y-123972580D01*
X104241552Y-123972580D01*
X104146314Y-123924961D01*
X104098695Y-123877342D01*
X104051076Y-123782104D01*
X104051076Y-122972580D01*
X103051076Y-123972580D02*
X103622504Y-123972580D01*
X103336790Y-123972580D02*
X103336790Y-122972580D01*
X103432028Y-123115438D01*
X103527266Y-123210676D01*
X103622504Y-123258295D01*
X94541933Y-112837980D02*
X94541933Y-113552266D01*
X94589552Y-113695123D01*
X94684790Y-113790361D01*
X94827647Y-113837980D01*
X94922885Y-113837980D01*
X93541933Y-113837980D02*
X94113361Y-113837980D01*
X93827647Y-113837980D02*
X93827647Y-112837980D01*
X93922885Y-112980838D01*
X94018123Y-113076076D01*
X94113361Y-113123695D01*
X108283333Y-115657380D02*
X108283333Y-116371666D01*
X108330952Y-116514523D01*
X108426190Y-116609761D01*
X108569047Y-116657380D01*
X108664285Y-116657380D01*
X107902380Y-115657380D02*
X107283333Y-115657380D01*
X107616666Y-116038333D01*
X107473809Y-116038333D01*
X107378571Y-116085952D01*
X107330952Y-116133571D01*
X107283333Y-116228809D01*
X107283333Y-116466904D01*
X107330952Y-116562142D01*
X107378571Y-116609761D01*
X107473809Y-116657380D01*
X107759523Y-116657380D01*
X107854761Y-116609761D01*
X107902380Y-116562142D01*
X98337666Y-122785142D02*
X98385285Y-122832761D01*
X98528142Y-122880380D01*
X98623380Y-122880380D01*
X98766238Y-122832761D01*
X98861476Y-122737523D01*
X98909095Y-122642285D01*
X98956714Y-122451809D01*
X98956714Y-122308952D01*
X98909095Y-122118476D01*
X98861476Y-122023238D01*
X98766238Y-121928000D01*
X98623380Y-121880380D01*
X98528142Y-121880380D01*
X98385285Y-121928000D01*
X98337666Y-121975619D01*
X97956714Y-121975619D02*
X97909095Y-121928000D01*
X97813857Y-121880380D01*
X97575761Y-121880380D01*
X97480523Y-121928000D01*
X97432904Y-121975619D01*
X97385285Y-122070857D01*
X97385285Y-122166095D01*
X97432904Y-122308952D01*
X98004333Y-122880380D01*
X97385285Y-122880380D01*
X107862666Y-122785142D02*
X107910285Y-122832761D01*
X108053142Y-122880380D01*
X108148380Y-122880380D01*
X108291238Y-122832761D01*
X108386476Y-122737523D01*
X108434095Y-122642285D01*
X108481714Y-122451809D01*
X108481714Y-122308952D01*
X108434095Y-122118476D01*
X108386476Y-122023238D01*
X108291238Y-121928000D01*
X108148380Y-121880380D01*
X108053142Y-121880380D01*
X107910285Y-121928000D01*
X107862666Y-121975619D01*
X106910285Y-122880380D02*
X107481714Y-122880380D01*
X107196000Y-122880380D02*
X107196000Y-121880380D01*
X107291238Y-122023238D01*
X107386476Y-122118476D01*
X107481714Y-122166095D01*
M02*
