M48
; DRILL file {KiCad (5.1.4)-1} date 06/03/2022 11:46:24
; FORMAT={-:-/ absolute / inch / decimal}
; #@! TF.CreationDate,2022-03-06T11:46:24+01:00
; #@! TF.GenerationSoftware,Kicad,Pcbnew,(5.1.4)-1
; #@! TF.FileFunction,Plated,1,2,PTH
FMAT,2
INCH
T1C0.0256
T2C0.0276
T3C0.0400
%
G90
G05
T1
X3.975Y-4.3
X3.975Y-4.35
X4.025Y-4.3
X4.025Y-4.35
X4.075Y-4.3
X4.075Y-4.35
X4.125Y-4.3
X4.125Y-4.35
X4.175Y-4.3
X4.175Y-4.35
T2
X4.5157Y-4.4545
X4.5157Y-4.6455
X3.6Y-4.45
X3.6Y-4.5
X3.6Y-4.55
X3.6Y-4.6
X3.6Y-4.65
X3.6Y-4.7
X3.6Y-4.75
X3.6Y-4.8
T3
X4.05Y-3.95
X4.05Y-4.05
X4.15Y-3.95
X4.15Y-4.05
X4.25Y-3.95
X4.25Y-4.05
X4.35Y-3.95
X4.35Y-4.05
X4.45Y-3.95
X4.45Y-4.05
T2
G00X4.6134Y-4.4073
M15
G01X4.6291Y-4.4073
M16
G05
G00X4.6134Y-4.6927
M15
G01X4.6291Y-4.6927
M16
G05
T0
M30
