G04 #@! TF.GenerationSoftware,KiCad,Pcbnew,(5.1.4)-1*
G04 #@! TF.CreationDate,2022-03-06T11:46:22+01:00*
G04 #@! TF.ProjectId,UP1-Progger,5550312d-5072-46f6-9767-65722e6b6963,V00.10*
G04 #@! TF.SameCoordinates,Original*
G04 #@! TF.FileFunction,Legend,Top*
G04 #@! TF.FilePolarity,Positive*
%FSLAX46Y46*%
G04 Gerber Fmt 4.6, Leading zero omitted, Abs format (unit mm)*
G04 Created by KiCad (PCBNEW (5.1.4)-1) date 2022-03-06 11:46:23*
%MOMM*%
%LPD*%
G04 APERTURE LIST*
%ADD10C,0.150000*%
%ADD11C,0.120000*%
G04 APERTURE END LIST*
D10*
X107744285Y-108942142D02*
X107696666Y-108989761D01*
X107553809Y-109037380D01*
X107458571Y-109037380D01*
X107315714Y-108989761D01*
X107220476Y-108894523D01*
X107172857Y-108799285D01*
X107125238Y-108608809D01*
X107125238Y-108465952D01*
X107172857Y-108275476D01*
X107220476Y-108180238D01*
X107315714Y-108085000D01*
X107458571Y-108037380D01*
X107553809Y-108037380D01*
X107696666Y-108085000D01*
X107744285Y-108132619D01*
X108315714Y-109037380D02*
X108220476Y-108989761D01*
X108172857Y-108942142D01*
X108125238Y-108846904D01*
X108125238Y-108561190D01*
X108172857Y-108465952D01*
X108220476Y-108418333D01*
X108315714Y-108370714D01*
X108458571Y-108370714D01*
X108553809Y-108418333D01*
X108601428Y-108465952D01*
X108649047Y-108561190D01*
X108649047Y-108846904D01*
X108601428Y-108942142D01*
X108553809Y-108989761D01*
X108458571Y-109037380D01*
X108315714Y-109037380D01*
X109077619Y-109037380D02*
X109077619Y-108370714D01*
X109077619Y-108561190D02*
X109125238Y-108465952D01*
X109172857Y-108418333D01*
X109268095Y-108370714D01*
X109363333Y-108370714D01*
X109553809Y-108370714D02*
X109934761Y-108370714D01*
X109696666Y-108037380D02*
X109696666Y-108894523D01*
X109744285Y-108989761D01*
X109839523Y-109037380D01*
X109934761Y-109037380D01*
X110649047Y-108989761D02*
X110553809Y-109037380D01*
X110363333Y-109037380D01*
X110268095Y-108989761D01*
X110220476Y-108894523D01*
X110220476Y-108513571D01*
X110268095Y-108418333D01*
X110363333Y-108370714D01*
X110553809Y-108370714D01*
X110649047Y-108418333D01*
X110696666Y-108513571D01*
X110696666Y-108608809D01*
X110220476Y-108704047D01*
X111030000Y-109037380D02*
X111553809Y-108370714D01*
X111030000Y-108370714D02*
X111553809Y-109037380D01*
X112696666Y-109037380D02*
X112696666Y-108037380D01*
X112934761Y-108037380D01*
X113077619Y-108085000D01*
X113172857Y-108180238D01*
X113220476Y-108275476D01*
X113268095Y-108465952D01*
X113268095Y-108608809D01*
X113220476Y-108799285D01*
X113172857Y-108894523D01*
X113077619Y-108989761D01*
X112934761Y-109037380D01*
X112696666Y-109037380D01*
X113696666Y-109037380D02*
X113696666Y-108037380D01*
X113696666Y-108418333D02*
X113791904Y-108370714D01*
X113982380Y-108370714D01*
X114077619Y-108418333D01*
X114125238Y-108465952D01*
X114172857Y-108561190D01*
X114172857Y-108846904D01*
X114125238Y-108942142D01*
X114077619Y-108989761D01*
X113982380Y-109037380D01*
X113791904Y-109037380D01*
X113696666Y-108989761D01*
X115030000Y-108370714D02*
X115030000Y-109180238D01*
X114982380Y-109275476D01*
X114934761Y-109323095D01*
X114839523Y-109370714D01*
X114696666Y-109370714D01*
X114601428Y-109323095D01*
X115030000Y-108989761D02*
X114934761Y-109037380D01*
X114744285Y-109037380D01*
X114649047Y-108989761D01*
X114601428Y-108942142D01*
X114553809Y-108846904D01*
X114553809Y-108561190D01*
X114601428Y-108465952D01*
X114649047Y-108418333D01*
X114744285Y-108370714D01*
X114934761Y-108370714D01*
X115030000Y-108418333D01*
X116220476Y-108989761D02*
X116363333Y-109037380D01*
X116601428Y-109037380D01*
X116696666Y-108989761D01*
X116744285Y-108942142D01*
X116791904Y-108846904D01*
X116791904Y-108751666D01*
X116744285Y-108656428D01*
X116696666Y-108608809D01*
X116601428Y-108561190D01*
X116410952Y-108513571D01*
X116315714Y-108465952D01*
X116268095Y-108418333D01*
X116220476Y-108323095D01*
X116220476Y-108227857D01*
X116268095Y-108132619D01*
X116315714Y-108085000D01*
X116410952Y-108037380D01*
X116649047Y-108037380D01*
X116791904Y-108085000D01*
X117125238Y-108037380D02*
X117363333Y-109037380D01*
X117553809Y-108323095D01*
X117744285Y-109037380D01*
X117982380Y-108037380D01*
X118363333Y-109037380D02*
X118363333Y-108037380D01*
X118601428Y-108037380D01*
X118744285Y-108085000D01*
X118839523Y-108180238D01*
X118887142Y-108275476D01*
X118934761Y-108465952D01*
X118934761Y-108608809D01*
X118887142Y-108799285D01*
X118839523Y-108894523D01*
X118744285Y-108989761D01*
X118601428Y-109037380D01*
X118363333Y-109037380D01*
X109942380Y-107283095D02*
X109942380Y-106664047D01*
X110323333Y-106997380D01*
X110323333Y-106854523D01*
X110370952Y-106759285D01*
X110418571Y-106711666D01*
X110513809Y-106664047D01*
X110751904Y-106664047D01*
X110847142Y-106711666D01*
X110894761Y-106759285D01*
X110942380Y-106854523D01*
X110942380Y-107140238D01*
X110894761Y-107235476D01*
X110847142Y-107283095D01*
X109942380Y-106378333D02*
X110942380Y-106045000D01*
X109942380Y-105711666D01*
X109942380Y-105473571D02*
X109942380Y-104854523D01*
X110323333Y-105187857D01*
X110323333Y-105045000D01*
X110370952Y-104949761D01*
X110418571Y-104902142D01*
X110513809Y-104854523D01*
X110751904Y-104854523D01*
X110847142Y-104902142D01*
X110894761Y-104949761D01*
X110942380Y-105045000D01*
X110942380Y-105330714D01*
X110894761Y-105425952D01*
X110847142Y-105473571D01*
X107450000Y-106806904D02*
X107402380Y-106902142D01*
X107402380Y-107045000D01*
X107450000Y-107187857D01*
X107545238Y-107283095D01*
X107640476Y-107330714D01*
X107830952Y-107378333D01*
X107973809Y-107378333D01*
X108164285Y-107330714D01*
X108259523Y-107283095D01*
X108354761Y-107187857D01*
X108402380Y-107045000D01*
X108402380Y-106949761D01*
X108354761Y-106806904D01*
X108307142Y-106759285D01*
X107973809Y-106759285D01*
X107973809Y-106949761D01*
X108402380Y-106330714D02*
X107402380Y-106330714D01*
X108402380Y-105759285D01*
X107402380Y-105759285D01*
X108402380Y-105283095D02*
X107402380Y-105283095D01*
X107402380Y-105045000D01*
X107450000Y-104902142D01*
X107545238Y-104806904D01*
X107640476Y-104759285D01*
X107830952Y-104711666D01*
X107973809Y-104711666D01*
X108164285Y-104759285D01*
X108259523Y-104806904D01*
X108354761Y-104902142D01*
X108402380Y-105045000D01*
X108402380Y-105283095D01*
X103322380Y-106664047D02*
X102846190Y-106997380D01*
X103322380Y-107235476D02*
X102322380Y-107235476D01*
X102322380Y-106854523D01*
X102370000Y-106759285D01*
X102417619Y-106711666D01*
X102512857Y-106664047D01*
X102655714Y-106664047D01*
X102750952Y-106711666D01*
X102798571Y-106759285D01*
X102846190Y-106854523D01*
X102846190Y-107235476D01*
X102798571Y-106235476D02*
X102798571Y-105902142D01*
X103322380Y-105759285D02*
X103322380Y-106235476D01*
X102322380Y-106235476D01*
X102322380Y-105759285D01*
X103274761Y-105378333D02*
X103322380Y-105235476D01*
X103322380Y-104997380D01*
X103274761Y-104902142D01*
X103227142Y-104854523D01*
X103131904Y-104806904D01*
X103036666Y-104806904D01*
X102941428Y-104854523D01*
X102893809Y-104902142D01*
X102846190Y-104997380D01*
X102798571Y-105187857D01*
X102750952Y-105283095D01*
X102703333Y-105330714D01*
X102608095Y-105378333D01*
X102512857Y-105378333D01*
X102417619Y-105330714D01*
X102370000Y-105283095D01*
X102322380Y-105187857D01*
X102322380Y-104949761D01*
X102370000Y-104806904D01*
X109942380Y-98393095D02*
X109942380Y-97774047D01*
X110323333Y-98107380D01*
X110323333Y-97964523D01*
X110370952Y-97869285D01*
X110418571Y-97821666D01*
X110513809Y-97774047D01*
X110751904Y-97774047D01*
X110847142Y-97821666D01*
X110894761Y-97869285D01*
X110942380Y-97964523D01*
X110942380Y-98250238D01*
X110894761Y-98345476D01*
X110847142Y-98393095D01*
X109942380Y-97488333D02*
X110942380Y-97155000D01*
X109942380Y-96821666D01*
X109942380Y-96583571D02*
X109942380Y-95964523D01*
X110323333Y-96297857D01*
X110323333Y-96155000D01*
X110370952Y-96059761D01*
X110418571Y-96012142D01*
X110513809Y-95964523D01*
X110751904Y-95964523D01*
X110847142Y-96012142D01*
X110894761Y-96059761D01*
X110942380Y-96155000D01*
X110942380Y-96440714D01*
X110894761Y-96535952D01*
X110847142Y-96583571D01*
X107450000Y-97916904D02*
X107402380Y-98012142D01*
X107402380Y-98155000D01*
X107450000Y-98297857D01*
X107545238Y-98393095D01*
X107640476Y-98440714D01*
X107830952Y-98488333D01*
X107973809Y-98488333D01*
X108164285Y-98440714D01*
X108259523Y-98393095D01*
X108354761Y-98297857D01*
X108402380Y-98155000D01*
X108402380Y-98059761D01*
X108354761Y-97916904D01*
X108307142Y-97869285D01*
X107973809Y-97869285D01*
X107973809Y-98059761D01*
X108402380Y-97440714D02*
X107402380Y-97440714D01*
X108402380Y-96869285D01*
X107402380Y-96869285D01*
X108402380Y-96393095D02*
X107402380Y-96393095D01*
X107402380Y-96155000D01*
X107450000Y-96012142D01*
X107545238Y-95916904D01*
X107640476Y-95869285D01*
X107830952Y-95821666D01*
X107973809Y-95821666D01*
X108164285Y-95869285D01*
X108259523Y-95916904D01*
X108354761Y-96012142D01*
X108402380Y-96155000D01*
X108402380Y-96393095D01*
X105862380Y-98178809D02*
X104862380Y-98178809D01*
X104862380Y-97940714D01*
X104910000Y-97797857D01*
X105005238Y-97702619D01*
X105100476Y-97655000D01*
X105290952Y-97607380D01*
X105433809Y-97607380D01*
X105624285Y-97655000D01*
X105719523Y-97702619D01*
X105814761Y-97797857D01*
X105862380Y-97940714D01*
X105862380Y-98178809D01*
X105862380Y-97178809D02*
X104862380Y-97178809D01*
X104862380Y-96512142D02*
X104862380Y-96321666D01*
X104910000Y-96226428D01*
X105005238Y-96131190D01*
X105195714Y-96083571D01*
X105529047Y-96083571D01*
X105719523Y-96131190D01*
X105814761Y-96226428D01*
X105862380Y-96321666D01*
X105862380Y-96512142D01*
X105814761Y-96607380D01*
X105719523Y-96702619D01*
X105529047Y-96750238D01*
X105195714Y-96750238D01*
X105005238Y-96702619D01*
X104910000Y-96607380D01*
X104862380Y-96512142D01*
X103227142Y-97750238D02*
X103274761Y-97797857D01*
X103322380Y-97940714D01*
X103322380Y-98035952D01*
X103274761Y-98178809D01*
X103179523Y-98274047D01*
X103084285Y-98321666D01*
X102893809Y-98369285D01*
X102750952Y-98369285D01*
X102560476Y-98321666D01*
X102465238Y-98274047D01*
X102370000Y-98178809D01*
X102322380Y-98035952D01*
X102322380Y-97940714D01*
X102370000Y-97797857D01*
X102417619Y-97750238D01*
X103322380Y-96845476D02*
X103322380Y-97321666D01*
X102322380Y-97321666D01*
X103322380Y-96512142D02*
X102322380Y-96512142D01*
X103322380Y-95940714D02*
X102750952Y-96369285D01*
X102322380Y-95940714D02*
X102893809Y-96512142D01*
X93378928Y-121873971D02*
X93521785Y-121921590D01*
X93569404Y-121969209D01*
X93617023Y-122064447D01*
X93617023Y-122207304D01*
X93569404Y-122302542D01*
X93521785Y-122350161D01*
X93426547Y-122397780D01*
X93045595Y-122397780D01*
X93045595Y-121397780D01*
X93378928Y-121397780D01*
X93474166Y-121445400D01*
X93521785Y-121493019D01*
X93569404Y-121588257D01*
X93569404Y-121683495D01*
X93521785Y-121778733D01*
X93474166Y-121826352D01*
X93378928Y-121873971D01*
X93045595Y-121873971D01*
X94188452Y-122397780D02*
X94093214Y-122350161D01*
X94045595Y-122302542D01*
X93997976Y-122207304D01*
X93997976Y-121921590D01*
X94045595Y-121826352D01*
X94093214Y-121778733D01*
X94188452Y-121731114D01*
X94331309Y-121731114D01*
X94426547Y-121778733D01*
X94474166Y-121826352D01*
X94521785Y-121921590D01*
X94521785Y-122207304D01*
X94474166Y-122302542D01*
X94426547Y-122350161D01*
X94331309Y-122397780D01*
X94188452Y-122397780D01*
X95093214Y-122397780D02*
X94997976Y-122350161D01*
X94950357Y-122302542D01*
X94902738Y-122207304D01*
X94902738Y-121921590D01*
X94950357Y-121826352D01*
X94997976Y-121778733D01*
X95093214Y-121731114D01*
X95236071Y-121731114D01*
X95331309Y-121778733D01*
X95378928Y-121826352D01*
X95426547Y-121921590D01*
X95426547Y-122207304D01*
X95378928Y-122302542D01*
X95331309Y-122350161D01*
X95236071Y-122397780D01*
X95093214Y-122397780D01*
X95712261Y-121731114D02*
X96093214Y-121731114D01*
X95855119Y-121397780D02*
X95855119Y-122254923D01*
X95902738Y-122350161D01*
X95997976Y-122397780D01*
X96093214Y-122397780D01*
X96378928Y-122350161D02*
X96474166Y-122397780D01*
X96664642Y-122397780D01*
X96759880Y-122350161D01*
X96807500Y-122254923D01*
X96807500Y-122207304D01*
X96759880Y-122112066D01*
X96664642Y-122064447D01*
X96521785Y-122064447D01*
X96426547Y-122016828D01*
X96378928Y-121921590D01*
X96378928Y-121873971D01*
X96426547Y-121778733D01*
X96521785Y-121731114D01*
X96664642Y-121731114D01*
X96759880Y-121778733D01*
X97617023Y-122350161D02*
X97521785Y-122397780D01*
X97331309Y-122397780D01*
X97236071Y-122350161D01*
X97188452Y-122254923D01*
X97188452Y-121873971D01*
X97236071Y-121778733D01*
X97331309Y-121731114D01*
X97521785Y-121731114D01*
X97617023Y-121778733D01*
X97664642Y-121873971D01*
X97664642Y-121969209D01*
X97188452Y-122064447D01*
X98236071Y-122397780D02*
X98140833Y-122350161D01*
X98093214Y-122254923D01*
X98093214Y-121397780D01*
X97395357Y-111212380D02*
X98014404Y-111212380D01*
X97681071Y-111593333D01*
X97823928Y-111593333D01*
X97919166Y-111640952D01*
X97966785Y-111688571D01*
X98014404Y-111783809D01*
X98014404Y-112021904D01*
X97966785Y-112117142D01*
X97919166Y-112164761D01*
X97823928Y-112212380D01*
X97538214Y-112212380D01*
X97442976Y-112164761D01*
X97395357Y-112117142D01*
X98300119Y-111212380D02*
X98633452Y-112212380D01*
X98966785Y-111212380D01*
X99204880Y-111212380D02*
X99823928Y-111212380D01*
X99490595Y-111593333D01*
X99633452Y-111593333D01*
X99728690Y-111640952D01*
X99776309Y-111688571D01*
X99823928Y-111783809D01*
X99823928Y-112021904D01*
X99776309Y-112117142D01*
X99728690Y-112164761D01*
X99633452Y-112212380D01*
X99347738Y-112212380D01*
X99252500Y-112164761D01*
X99204880Y-112117142D01*
X107362738Y-81722380D02*
X107696071Y-82722380D01*
X108029404Y-81722380D01*
X108696071Y-82198571D02*
X108838928Y-82246190D01*
X108886547Y-82293809D01*
X108934166Y-82389047D01*
X108934166Y-82531904D01*
X108886547Y-82627142D01*
X108838928Y-82674761D01*
X108743690Y-82722380D01*
X108362738Y-82722380D01*
X108362738Y-81722380D01*
X108696071Y-81722380D01*
X108791309Y-81770000D01*
X108838928Y-81817619D01*
X108886547Y-81912857D01*
X108886547Y-82008095D01*
X108838928Y-82103333D01*
X108791309Y-82150952D01*
X108696071Y-82198571D01*
X108362738Y-82198571D01*
X109362738Y-81722380D02*
X109362738Y-82531904D01*
X109410357Y-82627142D01*
X109457976Y-82674761D01*
X109553214Y-82722380D01*
X109743690Y-82722380D01*
X109838928Y-82674761D01*
X109886547Y-82627142D01*
X109934166Y-82531904D01*
X109934166Y-81722380D01*
X110362738Y-82674761D02*
X110505595Y-82722380D01*
X110743690Y-82722380D01*
X110838928Y-82674761D01*
X110886547Y-82627142D01*
X110934166Y-82531904D01*
X110934166Y-82436666D01*
X110886547Y-82341428D01*
X110838928Y-82293809D01*
X110743690Y-82246190D01*
X110553214Y-82198571D01*
X110457976Y-82150952D01*
X110410357Y-82103333D01*
X110362738Y-82008095D01*
X110362738Y-81912857D01*
X110410357Y-81817619D01*
X110457976Y-81770000D01*
X110553214Y-81722380D01*
X110791309Y-81722380D01*
X110934166Y-81770000D01*
X93617023Y-121102380D02*
X93283690Y-120626190D01*
X93045595Y-121102380D02*
X93045595Y-120102380D01*
X93426547Y-120102380D01*
X93521785Y-120150000D01*
X93569404Y-120197619D01*
X93617023Y-120292857D01*
X93617023Y-120435714D01*
X93569404Y-120530952D01*
X93521785Y-120578571D01*
X93426547Y-120626190D01*
X93045595Y-120626190D01*
X94426547Y-121054761D02*
X94331309Y-121102380D01*
X94140833Y-121102380D01*
X94045595Y-121054761D01*
X93997976Y-120959523D01*
X93997976Y-120578571D01*
X94045595Y-120483333D01*
X94140833Y-120435714D01*
X94331309Y-120435714D01*
X94426547Y-120483333D01*
X94474166Y-120578571D01*
X94474166Y-120673809D01*
X93997976Y-120769047D01*
X94855119Y-121054761D02*
X94950357Y-121102380D01*
X95140833Y-121102380D01*
X95236071Y-121054761D01*
X95283690Y-120959523D01*
X95283690Y-120911904D01*
X95236071Y-120816666D01*
X95140833Y-120769047D01*
X94997976Y-120769047D01*
X94902738Y-120721428D01*
X94855119Y-120626190D01*
X94855119Y-120578571D01*
X94902738Y-120483333D01*
X94997976Y-120435714D01*
X95140833Y-120435714D01*
X95236071Y-120483333D01*
X96093214Y-121054761D02*
X95997976Y-121102380D01*
X95807500Y-121102380D01*
X95712261Y-121054761D01*
X95664642Y-120959523D01*
X95664642Y-120578571D01*
X95712261Y-120483333D01*
X95807500Y-120435714D01*
X95997976Y-120435714D01*
X96093214Y-120483333D01*
X96140833Y-120578571D01*
X96140833Y-120673809D01*
X95664642Y-120769047D01*
X96426547Y-120435714D02*
X96807500Y-120435714D01*
X96569404Y-120102380D02*
X96569404Y-120959523D01*
X96617023Y-121054761D01*
X96712261Y-121102380D01*
X96807500Y-121102380D01*
X92997976Y-119784761D02*
X93140833Y-119832380D01*
X93378928Y-119832380D01*
X93474166Y-119784761D01*
X93521785Y-119737142D01*
X93569404Y-119641904D01*
X93569404Y-119546666D01*
X93521785Y-119451428D01*
X93474166Y-119403809D01*
X93378928Y-119356190D01*
X93188452Y-119308571D01*
X93093214Y-119260952D01*
X93045595Y-119213333D01*
X92997976Y-119118095D01*
X92997976Y-119022857D01*
X93045595Y-118927619D01*
X93093214Y-118880000D01*
X93188452Y-118832380D01*
X93426547Y-118832380D01*
X93569404Y-118880000D01*
X93902738Y-118832380D02*
X94140833Y-119832380D01*
X94331309Y-119118095D01*
X94521785Y-119832380D01*
X94759880Y-118832380D01*
X95140833Y-119832380D02*
X95140833Y-118832380D01*
X95378928Y-118832380D01*
X95521785Y-118880000D01*
X95617023Y-118975238D01*
X95664642Y-119070476D01*
X95712261Y-119260952D01*
X95712261Y-119403809D01*
X95664642Y-119594285D01*
X95617023Y-119689523D01*
X95521785Y-119784761D01*
X95378928Y-119832380D01*
X95140833Y-119832380D01*
X96140833Y-119832380D02*
X96140833Y-118832380D01*
X96807500Y-118832380D02*
X96997976Y-118832380D01*
X97093214Y-118880000D01*
X97188452Y-118975238D01*
X97236071Y-119165714D01*
X97236071Y-119499047D01*
X97188452Y-119689523D01*
X97093214Y-119784761D01*
X96997976Y-119832380D01*
X96807500Y-119832380D01*
X96712261Y-119784761D01*
X96617023Y-119689523D01*
X96569404Y-119499047D01*
X96569404Y-119165714D01*
X96617023Y-118975238D01*
X96712261Y-118880000D01*
X96807500Y-118832380D01*
X92997976Y-118514761D02*
X93140833Y-118562380D01*
X93378928Y-118562380D01*
X93474166Y-118514761D01*
X93521785Y-118467142D01*
X93569404Y-118371904D01*
X93569404Y-118276666D01*
X93521785Y-118181428D01*
X93474166Y-118133809D01*
X93378928Y-118086190D01*
X93188452Y-118038571D01*
X93093214Y-117990952D01*
X93045595Y-117943333D01*
X92997976Y-117848095D01*
X92997976Y-117752857D01*
X93045595Y-117657619D01*
X93093214Y-117610000D01*
X93188452Y-117562380D01*
X93426547Y-117562380D01*
X93569404Y-117610000D01*
X93902738Y-117562380D02*
X94140833Y-118562380D01*
X94331309Y-117848095D01*
X94521785Y-118562380D01*
X94759880Y-117562380D01*
X95712261Y-118467142D02*
X95664642Y-118514761D01*
X95521785Y-118562380D01*
X95426547Y-118562380D01*
X95283690Y-118514761D01*
X95188452Y-118419523D01*
X95140833Y-118324285D01*
X95093214Y-118133809D01*
X95093214Y-117990952D01*
X95140833Y-117800476D01*
X95188452Y-117705238D01*
X95283690Y-117610000D01*
X95426547Y-117562380D01*
X95521785Y-117562380D01*
X95664642Y-117610000D01*
X95712261Y-117657619D01*
X96617023Y-118562380D02*
X96140833Y-118562380D01*
X96140833Y-117562380D01*
X96950357Y-118562380D02*
X96950357Y-117562380D01*
X97521785Y-118562380D02*
X97093214Y-117990952D01*
X97521785Y-117562380D02*
X96950357Y-118133809D01*
X93045595Y-117292380D02*
X93045595Y-116292380D01*
X93283690Y-116292380D01*
X93426547Y-116340000D01*
X93521785Y-116435238D01*
X93569404Y-116530476D01*
X93617023Y-116720952D01*
X93617023Y-116863809D01*
X93569404Y-117054285D01*
X93521785Y-117149523D01*
X93426547Y-117244761D01*
X93283690Y-117292380D01*
X93045595Y-117292380D01*
X94045595Y-116911428D02*
X94807500Y-116911428D01*
X94426547Y-117292380D02*
X94426547Y-116530476D01*
X93045595Y-116022380D02*
X93045595Y-115022380D01*
X93283690Y-115022380D01*
X93426547Y-115070000D01*
X93521785Y-115165238D01*
X93569404Y-115260476D01*
X93617023Y-115450952D01*
X93617023Y-115593809D01*
X93569404Y-115784285D01*
X93521785Y-115879523D01*
X93426547Y-115974761D01*
X93283690Y-116022380D01*
X93045595Y-116022380D01*
X94045595Y-115641428D02*
X94807500Y-115641428D01*
X92950357Y-113752380D02*
X93569404Y-113752380D01*
X93236071Y-114133333D01*
X93378928Y-114133333D01*
X93474166Y-114180952D01*
X93521785Y-114228571D01*
X93569404Y-114323809D01*
X93569404Y-114561904D01*
X93521785Y-114657142D01*
X93474166Y-114704761D01*
X93378928Y-114752380D01*
X93093214Y-114752380D01*
X92997976Y-114704761D01*
X92950357Y-114657142D01*
X93855119Y-113752380D02*
X94188452Y-114752380D01*
X94521785Y-113752380D01*
X94759880Y-113752380D02*
X95378928Y-113752380D01*
X95045595Y-114133333D01*
X95188452Y-114133333D01*
X95283690Y-114180952D01*
X95331309Y-114228571D01*
X95378928Y-114323809D01*
X95378928Y-114561904D01*
X95331309Y-114657142D01*
X95283690Y-114704761D01*
X95188452Y-114752380D01*
X94902738Y-114752380D01*
X94807500Y-114704761D01*
X94759880Y-114657142D01*
X93569404Y-112530000D02*
X93474166Y-112482380D01*
X93331309Y-112482380D01*
X93188452Y-112530000D01*
X93093214Y-112625238D01*
X93045595Y-112720476D01*
X92997976Y-112910952D01*
X92997976Y-113053809D01*
X93045595Y-113244285D01*
X93093214Y-113339523D01*
X93188452Y-113434761D01*
X93331309Y-113482380D01*
X93426547Y-113482380D01*
X93569404Y-113434761D01*
X93617023Y-113387142D01*
X93617023Y-113053809D01*
X93426547Y-113053809D01*
X94045595Y-113482380D02*
X94045595Y-112482380D01*
X94617023Y-113482380D01*
X94617023Y-112482380D01*
X95093214Y-113482380D02*
X95093214Y-112482380D01*
X95331309Y-112482380D01*
X95474166Y-112530000D01*
X95569404Y-112625238D01*
X95617023Y-112720476D01*
X95664642Y-112910952D01*
X95664642Y-113053809D01*
X95617023Y-113244285D01*
X95569404Y-113339523D01*
X95474166Y-113434761D01*
X95331309Y-113482380D01*
X95093214Y-113482380D01*
D11*
X105535000Y-118420000D02*
X104075000Y-118420000D01*
X105535000Y-115260000D02*
X103375000Y-115260000D01*
X105535000Y-115260000D02*
X105535000Y-116190000D01*
X105535000Y-118420000D02*
X105535000Y-117490000D01*
X105705000Y-123125000D02*
X105705000Y-124525000D01*
X101305000Y-123125000D02*
X101305000Y-124525000D01*
X101505000Y-125525000D02*
X105505000Y-125525000D01*
X101505000Y-122125000D02*
X105505000Y-122125000D01*
X115230000Y-123125000D02*
X115230000Y-124525000D01*
X110830000Y-123125000D02*
X110830000Y-124525000D01*
X111030000Y-125525000D02*
X115030000Y-125525000D01*
X111030000Y-122125000D02*
X115030000Y-122125000D01*
X102510000Y-117442064D02*
X102510000Y-116237936D01*
X100690000Y-117442064D02*
X100690000Y-116237936D01*
X108860000Y-117442064D02*
X108860000Y-116237936D01*
X107040000Y-117442064D02*
X107040000Y-116237936D01*
X97270000Y-106525000D02*
X97270000Y-103985000D01*
X97270000Y-106525000D02*
X99810000Y-106525000D01*
X97520000Y-106275000D02*
X97520000Y-96925000D01*
X118380000Y-106275000D02*
X97520000Y-106275000D01*
X118380000Y-96925000D02*
X118380000Y-106275000D01*
X97520000Y-96925000D02*
X118380000Y-96925000D01*
X100205000Y-111620000D02*
X100205000Y-110490000D01*
X100965000Y-111620000D02*
X100205000Y-111620000D01*
X100270000Y-108912470D02*
X100270000Y-108090000D01*
X100270000Y-109730000D02*
X100270000Y-109527530D01*
X100401529Y-109730000D02*
X100270000Y-109730000D01*
X101671529Y-109730000D02*
X101528471Y-109730000D01*
X101725000Y-109926529D02*
X101725000Y-109783471D01*
X101725000Y-111620000D02*
X101725000Y-111053471D01*
X100270000Y-108090000D02*
X106740000Y-108090000D01*
X101725000Y-111620000D02*
X106740000Y-111620000D01*
X106740000Y-110182470D02*
X106740000Y-109527530D01*
X106740000Y-108912470D02*
X106740000Y-108090000D01*
X106740000Y-111620000D02*
X106740000Y-110797530D01*
X114180000Y-111570000D02*
X114180000Y-112070000D01*
X114580000Y-111570000D02*
X114180000Y-111570000D01*
X114180000Y-119570000D02*
X114180000Y-118970000D01*
X114780000Y-119570000D02*
X114180000Y-119570000D01*
X119280000Y-119470000D02*
X118480000Y-119470000D01*
X119280000Y-111670000D02*
X118480000Y-111670000D01*
D10*
X104013095Y-120102380D02*
X104013095Y-120911904D01*
X104060714Y-121007142D01*
X104108333Y-121054761D01*
X104203571Y-121102380D01*
X104394047Y-121102380D01*
X104489285Y-121054761D01*
X104536904Y-121007142D01*
X104584523Y-120911904D01*
X104584523Y-120102380D01*
X105584523Y-121102380D02*
X105013095Y-121102380D01*
X105298809Y-121102380D02*
X105298809Y-120102380D01*
X105203571Y-120245238D01*
X105108333Y-120340476D01*
X105013095Y-120388095D01*
X101290714Y-126928571D02*
X101433571Y-126976190D01*
X101481190Y-127023809D01*
X101528809Y-127119047D01*
X101528809Y-127261904D01*
X101481190Y-127357142D01*
X101433571Y-127404761D01*
X101338333Y-127452380D01*
X100957380Y-127452380D01*
X100957380Y-126452380D01*
X101290714Y-126452380D01*
X101385952Y-126500000D01*
X101433571Y-126547619D01*
X101481190Y-126642857D01*
X101481190Y-126738095D01*
X101433571Y-126833333D01*
X101385952Y-126880952D01*
X101290714Y-126928571D01*
X100957380Y-126928571D01*
X102100238Y-127452380D02*
X102005000Y-127404761D01*
X101957380Y-127357142D01*
X101909761Y-127261904D01*
X101909761Y-126976190D01*
X101957380Y-126880952D01*
X102005000Y-126833333D01*
X102100238Y-126785714D01*
X102243095Y-126785714D01*
X102338333Y-126833333D01*
X102385952Y-126880952D01*
X102433571Y-126976190D01*
X102433571Y-127261904D01*
X102385952Y-127357142D01*
X102338333Y-127404761D01*
X102243095Y-127452380D01*
X102100238Y-127452380D01*
X103005000Y-127452380D02*
X102909761Y-127404761D01*
X102862142Y-127357142D01*
X102814523Y-127261904D01*
X102814523Y-126976190D01*
X102862142Y-126880952D01*
X102909761Y-126833333D01*
X103005000Y-126785714D01*
X103147857Y-126785714D01*
X103243095Y-126833333D01*
X103290714Y-126880952D01*
X103338333Y-126976190D01*
X103338333Y-127261904D01*
X103290714Y-127357142D01*
X103243095Y-127404761D01*
X103147857Y-127452380D01*
X103005000Y-127452380D01*
X103624047Y-126785714D02*
X104005000Y-126785714D01*
X103766904Y-126452380D02*
X103766904Y-127309523D01*
X103814523Y-127404761D01*
X103909761Y-127452380D01*
X104005000Y-127452380D01*
X104290714Y-127404761D02*
X104385952Y-127452380D01*
X104576428Y-127452380D01*
X104671666Y-127404761D01*
X104719285Y-127309523D01*
X104719285Y-127261904D01*
X104671666Y-127166666D01*
X104576428Y-127119047D01*
X104433571Y-127119047D01*
X104338333Y-127071428D01*
X104290714Y-126976190D01*
X104290714Y-126928571D01*
X104338333Y-126833333D01*
X104433571Y-126785714D01*
X104576428Y-126785714D01*
X104671666Y-126833333D01*
X105528809Y-127404761D02*
X105433571Y-127452380D01*
X105243095Y-127452380D01*
X105147857Y-127404761D01*
X105100238Y-127309523D01*
X105100238Y-126928571D01*
X105147857Y-126833333D01*
X105243095Y-126785714D01*
X105433571Y-126785714D01*
X105528809Y-126833333D01*
X105576428Y-126928571D01*
X105576428Y-127023809D01*
X105100238Y-127119047D01*
X106147857Y-127452380D02*
X106052619Y-127404761D01*
X106005000Y-127309523D01*
X106005000Y-126452380D01*
X111696666Y-124229761D02*
X111839523Y-124277380D01*
X112077619Y-124277380D01*
X112172857Y-124229761D01*
X112220476Y-124182142D01*
X112268095Y-124086904D01*
X112268095Y-123991666D01*
X112220476Y-123896428D01*
X112172857Y-123848809D01*
X112077619Y-123801190D01*
X111887142Y-123753571D01*
X111791904Y-123705952D01*
X111744285Y-123658333D01*
X111696666Y-123563095D01*
X111696666Y-123467857D01*
X111744285Y-123372619D01*
X111791904Y-123325000D01*
X111887142Y-123277380D01*
X112125238Y-123277380D01*
X112268095Y-123325000D01*
X112601428Y-123277380D02*
X112839523Y-124277380D01*
X113030000Y-123563095D01*
X113220476Y-124277380D01*
X113458571Y-123277380D01*
X114363333Y-124277380D02*
X113791904Y-124277380D01*
X114077619Y-124277380D02*
X114077619Y-123277380D01*
X113982380Y-123420238D01*
X113887142Y-123515476D01*
X113791904Y-123563095D01*
X111791904Y-127452380D02*
X111458571Y-126976190D01*
X111220476Y-127452380D02*
X111220476Y-126452380D01*
X111601428Y-126452380D01*
X111696666Y-126500000D01*
X111744285Y-126547619D01*
X111791904Y-126642857D01*
X111791904Y-126785714D01*
X111744285Y-126880952D01*
X111696666Y-126928571D01*
X111601428Y-126976190D01*
X111220476Y-126976190D01*
X112601428Y-127404761D02*
X112506190Y-127452380D01*
X112315714Y-127452380D01*
X112220476Y-127404761D01*
X112172857Y-127309523D01*
X112172857Y-126928571D01*
X112220476Y-126833333D01*
X112315714Y-126785714D01*
X112506190Y-126785714D01*
X112601428Y-126833333D01*
X112649047Y-126928571D01*
X112649047Y-127023809D01*
X112172857Y-127119047D01*
X113030000Y-127404761D02*
X113125238Y-127452380D01*
X113315714Y-127452380D01*
X113410952Y-127404761D01*
X113458571Y-127309523D01*
X113458571Y-127261904D01*
X113410952Y-127166666D01*
X113315714Y-127119047D01*
X113172857Y-127119047D01*
X113077619Y-127071428D01*
X113030000Y-126976190D01*
X113030000Y-126928571D01*
X113077619Y-126833333D01*
X113172857Y-126785714D01*
X113315714Y-126785714D01*
X113410952Y-126833333D01*
X114268095Y-127404761D02*
X114172857Y-127452380D01*
X113982380Y-127452380D01*
X113887142Y-127404761D01*
X113839523Y-127309523D01*
X113839523Y-126928571D01*
X113887142Y-126833333D01*
X113982380Y-126785714D01*
X114172857Y-126785714D01*
X114268095Y-126833333D01*
X114315714Y-126928571D01*
X114315714Y-127023809D01*
X113839523Y-127119047D01*
X114601428Y-126785714D02*
X114982380Y-126785714D01*
X114744285Y-126452380D02*
X114744285Y-127309523D01*
X114791904Y-127404761D01*
X114887142Y-127452380D01*
X114982380Y-127452380D01*
X101433333Y-121007142D02*
X101385714Y-121054761D01*
X101242857Y-121102380D01*
X101147619Y-121102380D01*
X101004761Y-121054761D01*
X100909523Y-120959523D01*
X100861904Y-120864285D01*
X100814285Y-120673809D01*
X100814285Y-120530952D01*
X100861904Y-120340476D01*
X100909523Y-120245238D01*
X101004761Y-120150000D01*
X101147619Y-120102380D01*
X101242857Y-120102380D01*
X101385714Y-120150000D01*
X101433333Y-120197619D01*
X101814285Y-120197619D02*
X101861904Y-120150000D01*
X101957142Y-120102380D01*
X102195238Y-120102380D01*
X102290476Y-120150000D01*
X102338095Y-120197619D01*
X102385714Y-120292857D01*
X102385714Y-120388095D01*
X102338095Y-120530952D01*
X101766666Y-121102380D01*
X102385714Y-121102380D01*
X107783333Y-121007142D02*
X107735714Y-121054761D01*
X107592857Y-121102380D01*
X107497619Y-121102380D01*
X107354761Y-121054761D01*
X107259523Y-120959523D01*
X107211904Y-120864285D01*
X107164285Y-120673809D01*
X107164285Y-120530952D01*
X107211904Y-120340476D01*
X107259523Y-120245238D01*
X107354761Y-120150000D01*
X107497619Y-120102380D01*
X107592857Y-120102380D01*
X107735714Y-120150000D01*
X107783333Y-120197619D01*
X108735714Y-121102380D02*
X108164285Y-121102380D01*
X108450000Y-121102380D02*
X108450000Y-120102380D01*
X108354761Y-120245238D01*
X108259523Y-120340476D01*
X108164285Y-120388095D01*
X115022380Y-101933333D02*
X115736666Y-101933333D01*
X115879523Y-101980952D01*
X115974761Y-102076190D01*
X116022380Y-102219047D01*
X116022380Y-102314285D01*
X115022380Y-100980952D02*
X115022380Y-101457142D01*
X115498571Y-101504761D01*
X115450952Y-101457142D01*
X115403333Y-101361904D01*
X115403333Y-101123809D01*
X115450952Y-101028571D01*
X115498571Y-100980952D01*
X115593809Y-100933333D01*
X115831904Y-100933333D01*
X115927142Y-100980952D01*
X115974761Y-101028571D01*
X116022380Y-101123809D01*
X116022380Y-101361904D01*
X115974761Y-101457142D01*
X115927142Y-101504761D01*
X98722380Y-110188333D02*
X99436666Y-110188333D01*
X99579523Y-110235952D01*
X99674761Y-110331190D01*
X99722380Y-110474047D01*
X99722380Y-110569285D01*
X99055714Y-109283571D02*
X99722380Y-109283571D01*
X98674761Y-109521666D02*
X99389047Y-109759761D01*
X99389047Y-109140714D01*
X116800380Y-115903333D02*
X117514666Y-115903333D01*
X117657523Y-115950952D01*
X117752761Y-116046190D01*
X117800380Y-116189047D01*
X117800380Y-116284285D01*
X116895619Y-115474761D02*
X116848000Y-115427142D01*
X116800380Y-115331904D01*
X116800380Y-115093809D01*
X116848000Y-114998571D01*
X116895619Y-114950952D01*
X116990857Y-114903333D01*
X117086095Y-114903333D01*
X117228952Y-114950952D01*
X117800380Y-115522380D01*
X117800380Y-114903333D01*
M02*
