G04 #@! TF.GenerationSoftware,KiCad,Pcbnew,(5.1.4)-1*
G04 #@! TF.CreationDate,2022-06-06T11:17:32+02:00*
G04 #@! TF.ProjectId,UP1-Progger,5550312d-5072-46f6-9767-65722e6b6963,V00.10*
G04 #@! TF.SameCoordinates,Original*
G04 #@! TF.FileFunction,Soldermask,Top*
G04 #@! TF.FilePolarity,Negative*
%FSLAX46Y46*%
G04 Gerber Fmt 4.6, Leading zero omitted, Abs format (unit mm)*
G04 Created by KiCad (PCBNEW (5.1.4)-1) date 2022-06-06 11:17:32*
%MOMM*%
%LPD*%
G04 APERTURE LIST*
%ADD10C,1.300000*%
%ADD11O,1.900000X1.500000*%
%ADD12R,1.600000X0.400000*%
%ADD13C,0.100000*%
%ADD14C,0.950000*%
%ADD15R,0.900000X0.800000*%
%ADD16R,1.600000X1.050000*%
%ADD17O,1.000000X1.000000*%
%ADD18R,1.000000X1.000000*%
%ADD19O,1.727200X1.727200*%
%ADD20R,1.727200X1.727200*%
G04 APERTURE END LIST*
D10*
X114700000Y-117995000D03*
X114700000Y-113145000D03*
D11*
X117380000Y-111945000D03*
X117380000Y-119195000D03*
D12*
X114230000Y-115570000D03*
X114230000Y-116220000D03*
X114230000Y-116870000D03*
X114230000Y-114270000D03*
X114230000Y-114920000D03*
D13*
G36*
X101860779Y-115441144D02*
G01*
X101883834Y-115444563D01*
X101906443Y-115450227D01*
X101928387Y-115458079D01*
X101949457Y-115468044D01*
X101969448Y-115480026D01*
X101988168Y-115493910D01*
X102005438Y-115509562D01*
X102021090Y-115526832D01*
X102034974Y-115545552D01*
X102046956Y-115565543D01*
X102056921Y-115586613D01*
X102064773Y-115608557D01*
X102070437Y-115631166D01*
X102073856Y-115654221D01*
X102075000Y-115677500D01*
X102075000Y-116252500D01*
X102073856Y-116275779D01*
X102070437Y-116298834D01*
X102064773Y-116321443D01*
X102056921Y-116343387D01*
X102046956Y-116364457D01*
X102034974Y-116384448D01*
X102021090Y-116403168D01*
X102005438Y-116420438D01*
X101988168Y-116436090D01*
X101969448Y-116449974D01*
X101949457Y-116461956D01*
X101928387Y-116471921D01*
X101906443Y-116479773D01*
X101883834Y-116485437D01*
X101860779Y-116488856D01*
X101837500Y-116490000D01*
X101362500Y-116490000D01*
X101339221Y-116488856D01*
X101316166Y-116485437D01*
X101293557Y-116479773D01*
X101271613Y-116471921D01*
X101250543Y-116461956D01*
X101230552Y-116449974D01*
X101211832Y-116436090D01*
X101194562Y-116420438D01*
X101178910Y-116403168D01*
X101165026Y-116384448D01*
X101153044Y-116364457D01*
X101143079Y-116343387D01*
X101135227Y-116321443D01*
X101129563Y-116298834D01*
X101126144Y-116275779D01*
X101125000Y-116252500D01*
X101125000Y-115677500D01*
X101126144Y-115654221D01*
X101129563Y-115631166D01*
X101135227Y-115608557D01*
X101143079Y-115586613D01*
X101153044Y-115565543D01*
X101165026Y-115545552D01*
X101178910Y-115526832D01*
X101194562Y-115509562D01*
X101211832Y-115493910D01*
X101230552Y-115480026D01*
X101250543Y-115468044D01*
X101271613Y-115458079D01*
X101293557Y-115450227D01*
X101316166Y-115444563D01*
X101339221Y-115441144D01*
X101362500Y-115440000D01*
X101837500Y-115440000D01*
X101860779Y-115441144D01*
X101860779Y-115441144D01*
G37*
D14*
X101600000Y-115965000D03*
D13*
G36*
X101860779Y-117191144D02*
G01*
X101883834Y-117194563D01*
X101906443Y-117200227D01*
X101928387Y-117208079D01*
X101949457Y-117218044D01*
X101969448Y-117230026D01*
X101988168Y-117243910D01*
X102005438Y-117259562D01*
X102021090Y-117276832D01*
X102034974Y-117295552D01*
X102046956Y-117315543D01*
X102056921Y-117336613D01*
X102064773Y-117358557D01*
X102070437Y-117381166D01*
X102073856Y-117404221D01*
X102075000Y-117427500D01*
X102075000Y-118002500D01*
X102073856Y-118025779D01*
X102070437Y-118048834D01*
X102064773Y-118071443D01*
X102056921Y-118093387D01*
X102046956Y-118114457D01*
X102034974Y-118134448D01*
X102021090Y-118153168D01*
X102005438Y-118170438D01*
X101988168Y-118186090D01*
X101969448Y-118199974D01*
X101949457Y-118211956D01*
X101928387Y-118221921D01*
X101906443Y-118229773D01*
X101883834Y-118235437D01*
X101860779Y-118238856D01*
X101837500Y-118240000D01*
X101362500Y-118240000D01*
X101339221Y-118238856D01*
X101316166Y-118235437D01*
X101293557Y-118229773D01*
X101271613Y-118221921D01*
X101250543Y-118211956D01*
X101230552Y-118199974D01*
X101211832Y-118186090D01*
X101194562Y-118170438D01*
X101178910Y-118153168D01*
X101165026Y-118134448D01*
X101153044Y-118114457D01*
X101143079Y-118093387D01*
X101135227Y-118071443D01*
X101129563Y-118048834D01*
X101126144Y-118025779D01*
X101125000Y-118002500D01*
X101125000Y-117427500D01*
X101126144Y-117404221D01*
X101129563Y-117381166D01*
X101135227Y-117358557D01*
X101143079Y-117336613D01*
X101153044Y-117315543D01*
X101165026Y-117295552D01*
X101178910Y-117276832D01*
X101194562Y-117259562D01*
X101211832Y-117243910D01*
X101230552Y-117230026D01*
X101250543Y-117218044D01*
X101271613Y-117208079D01*
X101293557Y-117200227D01*
X101316166Y-117194563D01*
X101339221Y-117191144D01*
X101362500Y-117190000D01*
X101837500Y-117190000D01*
X101860779Y-117191144D01*
X101860779Y-117191144D01*
G37*
D14*
X101600000Y-117715000D03*
D13*
G36*
X108210779Y-115441144D02*
G01*
X108233834Y-115444563D01*
X108256443Y-115450227D01*
X108278387Y-115458079D01*
X108299457Y-115468044D01*
X108319448Y-115480026D01*
X108338168Y-115493910D01*
X108355438Y-115509562D01*
X108371090Y-115526832D01*
X108384974Y-115545552D01*
X108396956Y-115565543D01*
X108406921Y-115586613D01*
X108414773Y-115608557D01*
X108420437Y-115631166D01*
X108423856Y-115654221D01*
X108425000Y-115677500D01*
X108425000Y-116252500D01*
X108423856Y-116275779D01*
X108420437Y-116298834D01*
X108414773Y-116321443D01*
X108406921Y-116343387D01*
X108396956Y-116364457D01*
X108384974Y-116384448D01*
X108371090Y-116403168D01*
X108355438Y-116420438D01*
X108338168Y-116436090D01*
X108319448Y-116449974D01*
X108299457Y-116461956D01*
X108278387Y-116471921D01*
X108256443Y-116479773D01*
X108233834Y-116485437D01*
X108210779Y-116488856D01*
X108187500Y-116490000D01*
X107712500Y-116490000D01*
X107689221Y-116488856D01*
X107666166Y-116485437D01*
X107643557Y-116479773D01*
X107621613Y-116471921D01*
X107600543Y-116461956D01*
X107580552Y-116449974D01*
X107561832Y-116436090D01*
X107544562Y-116420438D01*
X107528910Y-116403168D01*
X107515026Y-116384448D01*
X107503044Y-116364457D01*
X107493079Y-116343387D01*
X107485227Y-116321443D01*
X107479563Y-116298834D01*
X107476144Y-116275779D01*
X107475000Y-116252500D01*
X107475000Y-115677500D01*
X107476144Y-115654221D01*
X107479563Y-115631166D01*
X107485227Y-115608557D01*
X107493079Y-115586613D01*
X107503044Y-115565543D01*
X107515026Y-115545552D01*
X107528910Y-115526832D01*
X107544562Y-115509562D01*
X107561832Y-115493910D01*
X107580552Y-115480026D01*
X107600543Y-115468044D01*
X107621613Y-115458079D01*
X107643557Y-115450227D01*
X107666166Y-115444563D01*
X107689221Y-115441144D01*
X107712500Y-115440000D01*
X108187500Y-115440000D01*
X108210779Y-115441144D01*
X108210779Y-115441144D01*
G37*
D14*
X107950000Y-115965000D03*
D13*
G36*
X108210779Y-117191144D02*
G01*
X108233834Y-117194563D01*
X108256443Y-117200227D01*
X108278387Y-117208079D01*
X108299457Y-117218044D01*
X108319448Y-117230026D01*
X108338168Y-117243910D01*
X108355438Y-117259562D01*
X108371090Y-117276832D01*
X108384974Y-117295552D01*
X108396956Y-117315543D01*
X108406921Y-117336613D01*
X108414773Y-117358557D01*
X108420437Y-117381166D01*
X108423856Y-117404221D01*
X108425000Y-117427500D01*
X108425000Y-118002500D01*
X108423856Y-118025779D01*
X108420437Y-118048834D01*
X108414773Y-118071443D01*
X108406921Y-118093387D01*
X108396956Y-118114457D01*
X108384974Y-118134448D01*
X108371090Y-118153168D01*
X108355438Y-118170438D01*
X108338168Y-118186090D01*
X108319448Y-118199974D01*
X108299457Y-118211956D01*
X108278387Y-118221921D01*
X108256443Y-118229773D01*
X108233834Y-118235437D01*
X108210779Y-118238856D01*
X108187500Y-118240000D01*
X107712500Y-118240000D01*
X107689221Y-118238856D01*
X107666166Y-118235437D01*
X107643557Y-118229773D01*
X107621613Y-118221921D01*
X107600543Y-118211956D01*
X107580552Y-118199974D01*
X107561832Y-118186090D01*
X107544562Y-118170438D01*
X107528910Y-118153168D01*
X107515026Y-118134448D01*
X107503044Y-118114457D01*
X107493079Y-118093387D01*
X107485227Y-118071443D01*
X107479563Y-118048834D01*
X107476144Y-118025779D01*
X107475000Y-118002500D01*
X107475000Y-117427500D01*
X107476144Y-117404221D01*
X107479563Y-117381166D01*
X107485227Y-117358557D01*
X107493079Y-117336613D01*
X107503044Y-117315543D01*
X107515026Y-117295552D01*
X107528910Y-117276832D01*
X107544562Y-117259562D01*
X107561832Y-117243910D01*
X107580552Y-117230026D01*
X107600543Y-117218044D01*
X107621613Y-117208079D01*
X107643557Y-117200227D01*
X107666166Y-117194563D01*
X107689221Y-117191144D01*
X107712500Y-117190000D01*
X108187500Y-117190000D01*
X108210779Y-117191144D01*
X108210779Y-117191144D01*
G37*
D14*
X107950000Y-117715000D03*
D15*
X105775000Y-116840000D03*
X103775000Y-117790000D03*
X103775000Y-115890000D03*
D16*
X101155000Y-124900000D03*
X101155000Y-122750000D03*
X105855000Y-124900000D03*
X105855000Y-122750000D03*
D17*
X91440000Y-121920000D03*
X91440000Y-120650000D03*
X91440000Y-119380000D03*
X91440000Y-118110000D03*
X91440000Y-116840000D03*
X91440000Y-115570000D03*
X91440000Y-114300000D03*
D18*
X91440000Y-113030000D03*
D16*
X110680000Y-124900000D03*
X110680000Y-122750000D03*
X115380000Y-124900000D03*
X115380000Y-122750000D03*
D19*
X113030000Y-100330000D03*
X113030000Y-102870000D03*
X110490000Y-100330000D03*
X110490000Y-102870000D03*
X107950000Y-100330000D03*
X107950000Y-102870000D03*
X105410000Y-100330000D03*
X105410000Y-102870000D03*
X102870000Y-100330000D03*
D20*
X102870000Y-102870000D03*
D17*
X106045000Y-109220000D03*
X106045000Y-110490000D03*
X104775000Y-109220000D03*
X104775000Y-110490000D03*
X103505000Y-109220000D03*
X103505000Y-110490000D03*
X102235000Y-109220000D03*
X102235000Y-110490000D03*
X100965000Y-109220000D03*
D18*
X100965000Y-110490000D03*
M02*
