G04 #@! TF.GenerationSoftware,KiCad,Pcbnew,(5.1.4)-1*
G04 #@! TF.CreationDate,2022-02-10T12:30:50+01:00*
G04 #@! TF.ProjectId,UP1-Progger,5550312d-5072-46f6-9767-65722e6b6963,V00.10*
G04 #@! TF.SameCoordinates,Original*
G04 #@! TF.FileFunction,Copper,L1,Top*
G04 #@! TF.FilePolarity,Positive*
%FSLAX46Y46*%
G04 Gerber Fmt 4.6, Leading zero omitted, Abs format (unit mm)*
G04 Created by KiCad (PCBNEW (5.1.4)-1) date 2022-02-10 12:30:50*
%MOMM*%
%LPD*%
G04 APERTURE LIST*
%ADD10R,1.600000X1.050000*%
%ADD11O,1.000000X1.000000*%
%ADD12R,1.000000X1.000000*%
%ADD13R,1.050000X1.600000*%
%ADD14C,3.500000*%
%ADD15C,1.700000*%
%ADD16R,1.700000X1.700000*%
%ADD17O,1.700000X1.700000*%
%ADD18O,1.727200X1.727200*%
%ADD19R,1.727200X1.727200*%
%ADD20C,1.300000*%
%ADD21O,1.900000X1.500000*%
%ADD22R,1.600000X0.400000*%
%ADD23C,0.800000*%
%ADD24C,0.250000*%
%ADD25C,0.254000*%
G04 APERTURE END LIST*
D10*
X103721400Y-124731200D03*
X103721400Y-126881200D03*
X99021400Y-124731200D03*
X99021400Y-126881200D03*
D11*
X91440000Y-121920000D03*
X91440000Y-120650000D03*
X91440000Y-119380000D03*
X91440000Y-118110000D03*
X91440000Y-116840000D03*
X91440000Y-115570000D03*
X91440000Y-114300000D03*
D12*
X91440000Y-113030000D03*
D13*
X109415000Y-122110000D03*
X111565000Y-122110000D03*
X109415000Y-126810000D03*
X111565000Y-126810000D03*
D14*
X115200000Y-110840000D03*
X115200000Y-122880000D03*
D15*
X112490000Y-118110000D03*
X112490000Y-115610000D03*
X110490000Y-115610000D03*
D16*
X110490000Y-118110000D03*
D17*
X109855000Y-97790000D03*
X109855000Y-100330000D03*
X109855000Y-102870000D03*
X109855000Y-105410000D03*
D16*
X109855000Y-107950000D03*
D18*
X101600000Y-102235000D03*
X104140000Y-102235000D03*
X101600000Y-104775000D03*
X104140000Y-104775000D03*
X101600000Y-107315000D03*
X104140000Y-107315000D03*
X101600000Y-109855000D03*
X104140000Y-109855000D03*
X101600000Y-112395000D03*
D19*
X104140000Y-112395000D03*
D11*
X105410000Y-120015000D03*
X105410000Y-121285000D03*
X104140000Y-120015000D03*
X104140000Y-121285000D03*
X102870000Y-120015000D03*
X102870000Y-121285000D03*
X101600000Y-120015000D03*
X101600000Y-121285000D03*
X100330000Y-120015000D03*
D12*
X100330000Y-121285000D03*
D20*
X113430000Y-104025000D03*
X113430000Y-99175000D03*
D21*
X116110000Y-97975000D03*
X116110000Y-105225000D03*
D22*
X112960000Y-101600000D03*
X112960000Y-102250000D03*
X112960000Y-102900000D03*
X112960000Y-100300000D03*
X112960000Y-100950000D03*
D23*
X99204780Y-117624860D03*
X98546920Y-120657620D03*
X95885000Y-117475000D03*
X111234220Y-112765840D03*
X111686340Y-110068360D03*
X115676680Y-117949980D03*
X100312220Y-98745040D03*
X105249980Y-98894900D03*
X98955860Y-114185700D03*
X103045260Y-114360960D03*
X101782880Y-123410980D03*
X115570000Y-126365000D03*
X110490000Y-124460000D03*
X106680000Y-112395000D03*
X107315000Y-102235000D03*
X98425000Y-116840000D03*
X97155000Y-113030000D03*
X100677400Y-126881200D03*
D24*
X104140000Y-112395000D02*
X104140000Y-116883180D01*
X104140000Y-116883180D02*
X105432860Y-118176040D01*
X105410000Y-118198900D02*
X105410000Y-120015000D01*
X105432860Y-118176040D02*
X105410000Y-118198900D01*
X99204780Y-117624860D02*
X99204780Y-117624860D01*
X109415000Y-121835000D02*
X109415000Y-122110000D01*
X107595000Y-120015000D02*
X109415000Y-121835000D01*
X105410000Y-120015000D02*
X107595000Y-120015000D01*
X99204780Y-119999760D02*
X99204780Y-117624860D01*
X98546920Y-120657620D02*
X99204780Y-119999760D01*
X100330000Y-119307894D02*
X100330000Y-120015000D01*
X100330000Y-109903686D02*
X100330000Y-119307894D01*
X100378686Y-109855000D02*
X100330000Y-109903686D01*
X101600000Y-109855000D02*
X101600000Y-111076314D01*
X101600000Y-112395000D02*
X101600000Y-120015000D01*
X111125000Y-101600000D02*
X109855000Y-102870000D01*
X112960000Y-101600000D02*
X111125000Y-101600000D01*
X111422180Y-103842820D02*
X109855000Y-105410000D01*
X111422180Y-102737820D02*
X111422180Y-103842820D01*
X112960000Y-102250000D02*
X111910000Y-102250000D01*
X111910000Y-102250000D02*
X111422180Y-102737820D01*
X94687106Y-114300000D02*
X94689646Y-114302540D01*
X93980000Y-114300000D02*
X94687106Y-114300000D01*
X95742448Y-114302540D02*
X95762768Y-114322860D01*
X94689646Y-114302540D02*
X95742448Y-114302540D01*
X95762768Y-114322860D02*
X97444560Y-114322860D01*
X97444560Y-114322860D02*
X99052380Y-112715040D01*
X99052380Y-107322620D02*
X101600000Y-104775000D01*
X99052380Y-112715040D02*
X99052380Y-107322620D01*
X102821314Y-104775000D02*
X104140000Y-104775000D01*
X101600000Y-104775000D02*
X102821314Y-104775000D01*
X99580000Y-121285000D02*
X100330000Y-121285000D01*
X99482379Y-121382621D02*
X99580000Y-121285000D01*
X97747609Y-121382621D02*
X99482379Y-121382621D01*
X97444560Y-121079572D02*
X97747609Y-121382621D01*
X97444560Y-114322860D02*
X97444560Y-121079572D01*
X93980000Y-114300000D02*
X91440000Y-114300000D01*
X109855000Y-97795000D02*
X109855000Y-97790000D01*
X112360000Y-100300000D02*
X109855000Y-97795000D01*
X112960000Y-100300000D02*
X112360000Y-100300000D01*
X117385010Y-113214990D02*
X117385010Y-102576810D01*
X112490000Y-118110000D02*
X117385010Y-113214990D01*
X115108200Y-100300000D02*
X112960000Y-100300000D01*
X117385010Y-102576810D02*
X115108200Y-100300000D01*
X100071400Y-126881200D02*
X100677400Y-126881200D01*
X99021400Y-126881200D02*
X100071400Y-126881200D01*
X103840200Y-127000000D02*
X103721400Y-126881200D01*
X100677400Y-126881200D02*
X103721400Y-126881200D01*
X110955000Y-107950000D02*
X109855000Y-107950000D01*
X111910000Y-106995000D02*
X110955000Y-107950000D01*
X111910000Y-103350000D02*
X111910000Y-106995000D01*
X112360000Y-102900000D02*
X111910000Y-103350000D01*
X112960000Y-102900000D02*
X112360000Y-102900000D01*
X109390000Y-118110000D02*
X110490000Y-118110000D01*
X109314999Y-118034999D02*
X109390000Y-118110000D01*
X109314999Y-109590001D02*
X109314999Y-118034999D01*
X109855000Y-109050000D02*
X109314999Y-109590001D01*
X109855000Y-107950000D02*
X109855000Y-109050000D01*
X99021400Y-123956200D02*
X99021400Y-124731200D01*
X96985200Y-121920000D02*
X99021400Y-123956200D01*
X91440000Y-121920000D02*
X96985200Y-121920000D01*
X100071400Y-124731200D02*
X103721400Y-124731200D01*
X99021400Y-124731200D02*
X100071400Y-124731200D01*
D25*
G36*
X108458175Y-97285901D02*
G01*
X108413524Y-97433110D01*
X108534845Y-97663000D01*
X109728000Y-97663000D01*
X109728000Y-97643000D01*
X109982000Y-97643000D01*
X109982000Y-97663000D01*
X111175155Y-97663000D01*
X111296476Y-97433110D01*
X111251825Y-97285901D01*
X111201383Y-97180000D01*
X114770744Y-97180000D01*
X114752843Y-97201812D01*
X114624236Y-97442419D01*
X114545040Y-97703493D01*
X114518299Y-97975000D01*
X114545040Y-98246507D01*
X114624236Y-98507581D01*
X114752843Y-98748188D01*
X114925919Y-98959081D01*
X115136812Y-99132157D01*
X115377419Y-99260764D01*
X115638493Y-99339960D01*
X115841963Y-99360000D01*
X116378037Y-99360000D01*
X116581507Y-99339960D01*
X116842581Y-99260764D01*
X117083188Y-99132157D01*
X117294081Y-98959081D01*
X117450000Y-98769094D01*
X117450000Y-104430907D01*
X117294081Y-104240919D01*
X117083188Y-104067843D01*
X116842581Y-103939236D01*
X116581507Y-103860040D01*
X116378037Y-103840000D01*
X115841963Y-103840000D01*
X115638493Y-103860040D01*
X115377419Y-103939236D01*
X115136812Y-104067843D01*
X114925919Y-104240919D01*
X114752843Y-104451812D01*
X114624236Y-104692419D01*
X114545040Y-104953493D01*
X114518299Y-105225000D01*
X114545040Y-105496507D01*
X114624236Y-105757581D01*
X114752843Y-105998188D01*
X114925919Y-106209081D01*
X115136812Y-106382157D01*
X115377419Y-106510764D01*
X115638493Y-106589960D01*
X115841963Y-106610000D01*
X116378037Y-106610000D01*
X116581507Y-106589960D01*
X116842581Y-106510764D01*
X117083188Y-106382157D01*
X117294081Y-106209081D01*
X117450000Y-106019093D01*
X117450000Y-110039675D01*
X117313560Y-109710279D01*
X117052550Y-109319651D01*
X116720349Y-108987450D01*
X116329721Y-108726440D01*
X115895679Y-108546654D01*
X115434902Y-108455000D01*
X114965098Y-108455000D01*
X114504321Y-108546654D01*
X114070279Y-108726440D01*
X113679651Y-108987450D01*
X113347450Y-109319651D01*
X113086440Y-109710279D01*
X112906654Y-110144321D01*
X112815000Y-110605098D01*
X112815000Y-111074902D01*
X112906654Y-111535679D01*
X113086440Y-111969721D01*
X113347450Y-112360349D01*
X113679651Y-112692550D01*
X114070279Y-112953560D01*
X114504321Y-113133346D01*
X114965098Y-113225000D01*
X115434902Y-113225000D01*
X115895679Y-113133346D01*
X116329721Y-112953560D01*
X116720349Y-112692550D01*
X117052550Y-112360349D01*
X117313560Y-111969721D01*
X117450000Y-111640324D01*
X117450001Y-122079676D01*
X117313560Y-121750279D01*
X117052550Y-121359651D01*
X116720349Y-121027450D01*
X116329721Y-120766440D01*
X115895679Y-120586654D01*
X115434902Y-120495000D01*
X114965098Y-120495000D01*
X114504321Y-120586654D01*
X114070279Y-120766440D01*
X113679651Y-121027450D01*
X113347450Y-121359651D01*
X113086440Y-121750279D01*
X112906654Y-122184321D01*
X112815000Y-122645098D01*
X112815000Y-123114902D01*
X112906654Y-123575679D01*
X113086440Y-124009721D01*
X113347450Y-124400349D01*
X113679651Y-124732550D01*
X114070279Y-124993560D01*
X114504321Y-125173346D01*
X114965098Y-125265000D01*
X115434902Y-125265000D01*
X115895679Y-125173346D01*
X116329721Y-124993560D01*
X116720349Y-124732550D01*
X117052550Y-124400349D01*
X117313560Y-124009721D01*
X117450001Y-123680323D01*
X117450001Y-127610000D01*
X112728072Y-127610000D01*
X112725000Y-127095750D01*
X112566250Y-126937000D01*
X111692000Y-126937000D01*
X111692000Y-126957000D01*
X111438000Y-126957000D01*
X111438000Y-126937000D01*
X111418000Y-126937000D01*
X111418000Y-126683000D01*
X111438000Y-126683000D01*
X111438000Y-125533750D01*
X111692000Y-125533750D01*
X111692000Y-126683000D01*
X112566250Y-126683000D01*
X112725000Y-126524250D01*
X112728072Y-126010000D01*
X112715812Y-125885518D01*
X112679502Y-125765820D01*
X112620537Y-125655506D01*
X112541185Y-125558815D01*
X112444494Y-125479463D01*
X112334180Y-125420498D01*
X112214482Y-125384188D01*
X112090000Y-125371928D01*
X111850750Y-125375000D01*
X111692000Y-125533750D01*
X111438000Y-125533750D01*
X111279250Y-125375000D01*
X111040000Y-125371928D01*
X110915518Y-125384188D01*
X110795820Y-125420498D01*
X110685506Y-125479463D01*
X110588815Y-125558815D01*
X110509463Y-125655506D01*
X110490000Y-125691918D01*
X110470537Y-125655506D01*
X110391185Y-125558815D01*
X110294494Y-125479463D01*
X110184180Y-125420498D01*
X110064482Y-125384188D01*
X109940000Y-125371928D01*
X108890000Y-125371928D01*
X108765518Y-125384188D01*
X108645820Y-125420498D01*
X108535506Y-125479463D01*
X108438815Y-125558815D01*
X108359463Y-125655506D01*
X108300498Y-125765820D01*
X108264188Y-125885518D01*
X108251928Y-126010000D01*
X108251928Y-127610000D01*
X105123151Y-127610000D01*
X105147212Y-127530682D01*
X105159472Y-127406200D01*
X105156400Y-127166950D01*
X104997650Y-127008200D01*
X103848400Y-127008200D01*
X103848400Y-127028200D01*
X103594400Y-127028200D01*
X103594400Y-127008200D01*
X102445150Y-127008200D01*
X102286400Y-127166950D01*
X102283328Y-127406200D01*
X102295588Y-127530682D01*
X102319649Y-127610000D01*
X100423151Y-127610000D01*
X100447212Y-127530682D01*
X100459472Y-127406200D01*
X100456400Y-127166950D01*
X100297650Y-127008200D01*
X99148400Y-127008200D01*
X99148400Y-127028200D01*
X98894400Y-127028200D01*
X98894400Y-127008200D01*
X98874400Y-127008200D01*
X98874400Y-126754200D01*
X98894400Y-126754200D01*
X98894400Y-126734200D01*
X99148400Y-126734200D01*
X99148400Y-126754200D01*
X100297650Y-126754200D01*
X100456400Y-126595450D01*
X100459472Y-126356200D01*
X100447212Y-126231718D01*
X100410902Y-126112020D01*
X100351937Y-126001706D01*
X100272585Y-125905015D01*
X100175894Y-125825663D01*
X100139482Y-125806200D01*
X100175894Y-125786737D01*
X100272585Y-125707385D01*
X100351937Y-125610694D01*
X100410902Y-125500380D01*
X100413687Y-125491200D01*
X102329113Y-125491200D01*
X102331898Y-125500380D01*
X102390863Y-125610694D01*
X102470215Y-125707385D01*
X102566906Y-125786737D01*
X102603318Y-125806200D01*
X102566906Y-125825663D01*
X102470215Y-125905015D01*
X102390863Y-126001706D01*
X102331898Y-126112020D01*
X102295588Y-126231718D01*
X102283328Y-126356200D01*
X102286400Y-126595450D01*
X102445150Y-126754200D01*
X103594400Y-126754200D01*
X103594400Y-126734200D01*
X103848400Y-126734200D01*
X103848400Y-126754200D01*
X104997650Y-126754200D01*
X105156400Y-126595450D01*
X105159472Y-126356200D01*
X105147212Y-126231718D01*
X105110902Y-126112020D01*
X105051937Y-126001706D01*
X104972585Y-125905015D01*
X104875894Y-125825663D01*
X104839482Y-125806200D01*
X104875894Y-125786737D01*
X104972585Y-125707385D01*
X105051937Y-125610694D01*
X105110902Y-125500380D01*
X105147212Y-125380682D01*
X105159472Y-125256200D01*
X105159472Y-124206200D01*
X105147212Y-124081718D01*
X105110902Y-123962020D01*
X105051937Y-123851706D01*
X104972585Y-123755015D01*
X104875894Y-123675663D01*
X104765580Y-123616698D01*
X104645882Y-123580388D01*
X104521400Y-123568128D01*
X102921400Y-123568128D01*
X102796918Y-123580388D01*
X102677220Y-123616698D01*
X102566906Y-123675663D01*
X102470215Y-123755015D01*
X102390863Y-123851706D01*
X102331898Y-123962020D01*
X102329113Y-123971200D01*
X100413687Y-123971200D01*
X100410902Y-123962020D01*
X100351937Y-123851706D01*
X100272585Y-123755015D01*
X100175894Y-123675663D01*
X100065580Y-123616698D01*
X99945882Y-123580388D01*
X99821400Y-123568128D01*
X99675726Y-123568128D01*
X99656374Y-123531924D01*
X99561401Y-123416199D01*
X99532404Y-123392402D01*
X98282622Y-122142621D01*
X99302029Y-122142621D01*
X99378815Y-122236185D01*
X99475506Y-122315537D01*
X99585820Y-122374502D01*
X99705518Y-122410812D01*
X99830000Y-122423072D01*
X100830000Y-122423072D01*
X100954482Y-122410812D01*
X101074180Y-122374502D01*
X101163180Y-122326930D01*
X101243136Y-122362446D01*
X101298126Y-122379119D01*
X101473000Y-122252954D01*
X101473000Y-121412000D01*
X101727000Y-121412000D01*
X101727000Y-122252954D01*
X101901874Y-122379119D01*
X101956864Y-122362446D01*
X102160206Y-122272123D01*
X102235000Y-122219361D01*
X102309794Y-122272123D01*
X102513136Y-122362446D01*
X102568126Y-122379119D01*
X102743000Y-122252954D01*
X102743000Y-121412000D01*
X101727000Y-121412000D01*
X101473000Y-121412000D01*
X101468072Y-121412000D01*
X101468072Y-121158000D01*
X101473000Y-121158000D01*
X101473000Y-121142983D01*
X101544248Y-121150000D01*
X101655752Y-121150000D01*
X101727000Y-121142983D01*
X101727000Y-121158000D01*
X102743000Y-121158000D01*
X102743000Y-121142983D01*
X102814248Y-121150000D01*
X102925752Y-121150000D01*
X102997000Y-121142983D01*
X102997000Y-121158000D01*
X103012017Y-121158000D01*
X102999509Y-121285000D01*
X103012017Y-121412000D01*
X102997000Y-121412000D01*
X102997000Y-122252954D01*
X103171874Y-122379119D01*
X103226864Y-122362446D01*
X103430206Y-122272123D01*
X103496617Y-122225274D01*
X103506377Y-122233284D01*
X103703553Y-122338676D01*
X103917501Y-122403577D01*
X104084248Y-122420000D01*
X104195752Y-122420000D01*
X104362499Y-122403577D01*
X104576447Y-122338676D01*
X104773623Y-122233284D01*
X104783383Y-122225274D01*
X104849794Y-122272123D01*
X105053136Y-122362446D01*
X105108126Y-122379119D01*
X105283000Y-122252954D01*
X105283000Y-121412000D01*
X105537000Y-121412000D01*
X105537000Y-122252954D01*
X105711874Y-122379119D01*
X105766864Y-122362446D01*
X105970206Y-122272123D01*
X106152020Y-122143865D01*
X106305318Y-121982601D01*
X106424210Y-121794529D01*
X106504126Y-121586876D01*
X106379129Y-121412000D01*
X105537000Y-121412000D01*
X105283000Y-121412000D01*
X105267983Y-121412000D01*
X105280491Y-121285000D01*
X105267983Y-121158000D01*
X105283000Y-121158000D01*
X105283000Y-121142983D01*
X105354248Y-121150000D01*
X105465752Y-121150000D01*
X105537000Y-121142983D01*
X105537000Y-121158000D01*
X106379129Y-121158000D01*
X106504126Y-120983124D01*
X106424210Y-120775471D01*
X106423912Y-120775000D01*
X107280199Y-120775000D01*
X108251928Y-121746730D01*
X108251928Y-122910000D01*
X108264188Y-123034482D01*
X108300498Y-123154180D01*
X108359463Y-123264494D01*
X108438815Y-123361185D01*
X108535506Y-123440537D01*
X108645820Y-123499502D01*
X108765518Y-123535812D01*
X108890000Y-123548072D01*
X109940000Y-123548072D01*
X110064482Y-123535812D01*
X110184180Y-123499502D01*
X110294494Y-123440537D01*
X110391185Y-123361185D01*
X110470537Y-123264494D01*
X110490000Y-123228082D01*
X110509463Y-123264494D01*
X110588815Y-123361185D01*
X110685506Y-123440537D01*
X110795820Y-123499502D01*
X110915518Y-123535812D01*
X111040000Y-123548072D01*
X111279250Y-123545000D01*
X111438000Y-123386250D01*
X111438000Y-122237000D01*
X111692000Y-122237000D01*
X111692000Y-123386250D01*
X111850750Y-123545000D01*
X112090000Y-123548072D01*
X112214482Y-123535812D01*
X112334180Y-123499502D01*
X112444494Y-123440537D01*
X112541185Y-123361185D01*
X112620537Y-123264494D01*
X112679502Y-123154180D01*
X112715812Y-123034482D01*
X112728072Y-122910000D01*
X112725000Y-122395750D01*
X112566250Y-122237000D01*
X111692000Y-122237000D01*
X111438000Y-122237000D01*
X111418000Y-122237000D01*
X111418000Y-121983000D01*
X111438000Y-121983000D01*
X111438000Y-120833750D01*
X111692000Y-120833750D01*
X111692000Y-121983000D01*
X112566250Y-121983000D01*
X112725000Y-121824250D01*
X112728072Y-121310000D01*
X112715812Y-121185518D01*
X112679502Y-121065820D01*
X112620537Y-120955506D01*
X112541185Y-120858815D01*
X112444494Y-120779463D01*
X112334180Y-120720498D01*
X112214482Y-120684188D01*
X112090000Y-120671928D01*
X111850750Y-120675000D01*
X111692000Y-120833750D01*
X111438000Y-120833750D01*
X111279250Y-120675000D01*
X111040000Y-120671928D01*
X110915518Y-120684188D01*
X110795820Y-120720498D01*
X110685506Y-120779463D01*
X110588815Y-120858815D01*
X110509463Y-120955506D01*
X110490000Y-120991918D01*
X110470537Y-120955506D01*
X110391185Y-120858815D01*
X110294494Y-120779463D01*
X110184180Y-120720498D01*
X110064482Y-120684188D01*
X109940000Y-120671928D01*
X109326730Y-120671928D01*
X108158804Y-119504003D01*
X108135001Y-119474999D01*
X108019276Y-119380026D01*
X107887247Y-119309454D01*
X107743986Y-119265997D01*
X107632333Y-119255000D01*
X107632322Y-119255000D01*
X107595000Y-119251324D01*
X107557678Y-119255000D01*
X106254569Y-119255000D01*
X106216449Y-119208551D01*
X106170000Y-119170431D01*
X106170000Y-118364130D01*
X106181862Y-118325025D01*
X106196536Y-118176040D01*
X106195111Y-118161567D01*
X106181862Y-118027053D01*
X106138406Y-117883793D01*
X106067834Y-117751763D01*
X105996659Y-117665037D01*
X105972861Y-117636039D01*
X105943863Y-117612241D01*
X104900000Y-116568379D01*
X104900000Y-113896672D01*
X105003600Y-113896672D01*
X105128082Y-113884412D01*
X105247780Y-113848102D01*
X105358094Y-113789137D01*
X105454785Y-113709785D01*
X105534137Y-113613094D01*
X105593102Y-113502780D01*
X105629412Y-113383082D01*
X105641672Y-113258600D01*
X105641672Y-111531400D01*
X105629412Y-111406918D01*
X105593102Y-111287220D01*
X105534137Y-111176906D01*
X105454785Y-111080215D01*
X105358094Y-111000863D01*
X105247780Y-110941898D01*
X105196735Y-110926414D01*
X105204797Y-110919797D01*
X105392069Y-110691606D01*
X105531225Y-110431264D01*
X105616916Y-110148777D01*
X105645851Y-109855000D01*
X105616916Y-109561223D01*
X105531225Y-109278736D01*
X105392069Y-109018394D01*
X105204797Y-108790203D01*
X104976606Y-108602931D01*
X104932090Y-108579137D01*
X105028488Y-108521817D01*
X105246854Y-108325293D01*
X105422684Y-108089944D01*
X105549222Y-107824814D01*
X105594958Y-107674026D01*
X105473817Y-107442000D01*
X104267000Y-107442000D01*
X104267000Y-107462000D01*
X104013000Y-107462000D01*
X104013000Y-107442000D01*
X101727000Y-107442000D01*
X101727000Y-107462000D01*
X101473000Y-107462000D01*
X101473000Y-107442000D01*
X101453000Y-107442000D01*
X101453000Y-107188000D01*
X101473000Y-107188000D01*
X101473000Y-107168000D01*
X101727000Y-107168000D01*
X101727000Y-107188000D01*
X104013000Y-107188000D01*
X104013000Y-107168000D01*
X104267000Y-107168000D01*
X104267000Y-107188000D01*
X105473817Y-107188000D01*
X105594958Y-106955974D01*
X105549222Y-106805186D01*
X105422684Y-106540056D01*
X105246854Y-106304707D01*
X105028488Y-106108183D01*
X104932090Y-106050863D01*
X104976606Y-106027069D01*
X105204797Y-105839797D01*
X105392069Y-105611606D01*
X105531225Y-105351264D01*
X105616916Y-105068777D01*
X105645851Y-104775000D01*
X105616916Y-104481223D01*
X105531225Y-104198736D01*
X105392069Y-103938394D01*
X105204797Y-103710203D01*
X104976606Y-103522931D01*
X104943060Y-103505000D01*
X104976606Y-103487069D01*
X105204797Y-103299797D01*
X105392069Y-103071606D01*
X105531225Y-102811264D01*
X105616916Y-102528777D01*
X105645851Y-102235000D01*
X105616916Y-101941223D01*
X105531225Y-101658736D01*
X105392069Y-101398394D01*
X105204797Y-101170203D01*
X104976606Y-100982931D01*
X104716264Y-100843775D01*
X104433777Y-100758084D01*
X104213619Y-100736400D01*
X104066381Y-100736400D01*
X103846223Y-100758084D01*
X103563736Y-100843775D01*
X103303394Y-100982931D01*
X103075203Y-101170203D01*
X102887931Y-101398394D01*
X102870000Y-101431940D01*
X102852069Y-101398394D01*
X102664797Y-101170203D01*
X102436606Y-100982931D01*
X102176264Y-100843775D01*
X101893777Y-100758084D01*
X101673619Y-100736400D01*
X101526381Y-100736400D01*
X101306223Y-100758084D01*
X101023736Y-100843775D01*
X100763394Y-100982931D01*
X100535203Y-101170203D01*
X100347931Y-101398394D01*
X100208775Y-101658736D01*
X100123084Y-101941223D01*
X100094149Y-102235000D01*
X100123084Y-102528777D01*
X100208775Y-102811264D01*
X100347931Y-103071606D01*
X100535203Y-103299797D01*
X100763394Y-103487069D01*
X100796940Y-103505000D01*
X100763394Y-103522931D01*
X100535203Y-103710203D01*
X100347931Y-103938394D01*
X100208775Y-104198736D01*
X100123084Y-104481223D01*
X100094149Y-104775000D01*
X100123084Y-105068777D01*
X100148299Y-105151900D01*
X98541378Y-106758821D01*
X98512380Y-106782619D01*
X98488582Y-106811617D01*
X98488581Y-106811618D01*
X98417406Y-106898344D01*
X98346834Y-107030374D01*
X98346240Y-107032333D01*
X98312372Y-107143986D01*
X98303378Y-107173635D01*
X98288704Y-107322620D01*
X98292381Y-107359952D01*
X98292380Y-112400238D01*
X97129759Y-113562860D01*
X95922168Y-113562860D01*
X95891434Y-113553537D01*
X95779781Y-113542540D01*
X95779770Y-113542540D01*
X95742448Y-113538864D01*
X95705126Y-113542540D01*
X94750228Y-113542540D01*
X94724439Y-113540000D01*
X94724428Y-113540000D01*
X94687106Y-113536324D01*
X94649784Y-113540000D01*
X92577087Y-113540000D01*
X92578072Y-113530000D01*
X92575000Y-113315750D01*
X92416252Y-113157002D01*
X92575000Y-113157002D01*
X92575000Y-113055000D01*
X95917419Y-113055000D01*
X95945865Y-113052198D01*
X95953682Y-113052253D01*
X95962853Y-113051354D01*
X96209357Y-113025446D01*
X96267986Y-113013411D01*
X96326716Y-113002208D01*
X96335532Y-112999546D01*
X96335536Y-112999545D01*
X96335539Y-112999544D01*
X96572314Y-112926249D01*
X96627457Y-112903069D01*
X96682920Y-112880661D01*
X96691054Y-112876335D01*
X96691059Y-112876333D01*
X96691064Y-112876330D01*
X96909086Y-112758447D01*
X96958654Y-112725012D01*
X97008735Y-112692241D01*
X97015876Y-112686416D01*
X97206856Y-112528423D01*
X97248995Y-112485988D01*
X97291745Y-112444125D01*
X97297618Y-112437024D01*
X97454273Y-112244947D01*
X97487374Y-112195125D01*
X97521173Y-112145763D01*
X97525556Y-112137657D01*
X97641919Y-111918809D01*
X97664707Y-111863521D01*
X97688279Y-111808525D01*
X97691003Y-111799722D01*
X97762643Y-111562441D01*
X97774264Y-111503754D01*
X97786700Y-111445248D01*
X97787663Y-111436083D01*
X97811850Y-111189405D01*
X97811850Y-111189402D01*
X97815000Y-111157419D01*
X97815000Y-100330000D01*
X108362815Y-100330000D01*
X108391487Y-100621111D01*
X108476401Y-100901034D01*
X108614294Y-101159014D01*
X108799866Y-101385134D01*
X109025986Y-101570706D01*
X109080791Y-101600000D01*
X109025986Y-101629294D01*
X108799866Y-101814866D01*
X108614294Y-102040986D01*
X108476401Y-102298966D01*
X108391487Y-102578889D01*
X108362815Y-102870000D01*
X108391487Y-103161111D01*
X108476401Y-103441034D01*
X108614294Y-103699014D01*
X108799866Y-103925134D01*
X109025986Y-104110706D01*
X109080791Y-104140000D01*
X109025986Y-104169294D01*
X108799866Y-104354866D01*
X108614294Y-104580986D01*
X108476401Y-104838966D01*
X108391487Y-105118889D01*
X108362815Y-105410000D01*
X108391487Y-105701111D01*
X108476401Y-105981034D01*
X108614294Y-106239014D01*
X108799866Y-106465134D01*
X108829687Y-106489607D01*
X108760820Y-106510498D01*
X108650506Y-106569463D01*
X108553815Y-106648815D01*
X108474463Y-106745506D01*
X108415498Y-106855820D01*
X108379188Y-106975518D01*
X108366928Y-107100000D01*
X108366928Y-108800000D01*
X108379188Y-108924482D01*
X108415498Y-109044180D01*
X108474463Y-109154494D01*
X108553815Y-109251185D01*
X108609791Y-109297123D01*
X108609453Y-109297755D01*
X108565996Y-109441016D01*
X108554999Y-109552669D01*
X108554999Y-109552679D01*
X108551323Y-109590001D01*
X108554999Y-109627323D01*
X108555000Y-117997667D01*
X108551323Y-118034999D01*
X108555000Y-118072332D01*
X108565997Y-118183985D01*
X108579179Y-118227441D01*
X108609453Y-118327245D01*
X108680025Y-118459275D01*
X108747970Y-118542065D01*
X108774999Y-118575000D01*
X108803995Y-118598796D01*
X108826199Y-118621001D01*
X108849999Y-118650001D01*
X108965724Y-118744974D01*
X109001928Y-118764326D01*
X109001928Y-118960000D01*
X109014188Y-119084482D01*
X109050498Y-119204180D01*
X109109463Y-119314494D01*
X109188815Y-119411185D01*
X109285506Y-119490537D01*
X109395820Y-119549502D01*
X109515518Y-119585812D01*
X109640000Y-119598072D01*
X111340000Y-119598072D01*
X111464482Y-119585812D01*
X111584180Y-119549502D01*
X111694494Y-119490537D01*
X111782876Y-119418004D01*
X111982883Y-119513371D01*
X112266411Y-119585339D01*
X112558531Y-119600611D01*
X112848019Y-119558599D01*
X113123747Y-119460919D01*
X113261157Y-119387472D01*
X113338792Y-119138397D01*
X112490000Y-118289605D01*
X112475858Y-118303748D01*
X112296253Y-118124143D01*
X112310395Y-118110000D01*
X112669605Y-118110000D01*
X113518397Y-118958792D01*
X113767472Y-118881157D01*
X113893371Y-118617117D01*
X113965339Y-118333589D01*
X113980611Y-118041469D01*
X113938599Y-117751981D01*
X113840919Y-117476253D01*
X113767472Y-117338843D01*
X113518397Y-117261208D01*
X112669605Y-118110000D01*
X112310395Y-118110000D01*
X112296253Y-118095858D01*
X112475858Y-117916253D01*
X112490000Y-117930395D01*
X113338792Y-117081603D01*
X113273590Y-116872416D01*
X113436632Y-116763475D01*
X113643475Y-116556632D01*
X113805990Y-116313411D01*
X113917932Y-116043158D01*
X113975000Y-115756260D01*
X113975000Y-115463740D01*
X113917932Y-115176842D01*
X113805990Y-114906589D01*
X113643475Y-114663368D01*
X113436632Y-114456525D01*
X113193411Y-114294010D01*
X112923158Y-114182068D01*
X112636260Y-114125000D01*
X112343740Y-114125000D01*
X112056842Y-114182068D01*
X111786589Y-114294010D01*
X111543368Y-114456525D01*
X111490000Y-114509893D01*
X111436632Y-114456525D01*
X111193411Y-114294010D01*
X110923158Y-114182068D01*
X110636260Y-114125000D01*
X110343740Y-114125000D01*
X110074999Y-114178456D01*
X110074999Y-109904802D01*
X110366002Y-109613800D01*
X110395001Y-109590001D01*
X110489974Y-109474276D01*
X110509326Y-109438072D01*
X110705000Y-109438072D01*
X110829482Y-109425812D01*
X110949180Y-109389502D01*
X111059494Y-109330537D01*
X111156185Y-109251185D01*
X111235537Y-109154494D01*
X111294502Y-109044180D01*
X111330812Y-108924482D01*
X111343072Y-108800000D01*
X111343072Y-108604326D01*
X111379276Y-108584974D01*
X111495001Y-108490001D01*
X111518804Y-108460998D01*
X112421003Y-107558799D01*
X112450001Y-107535001D01*
X112502029Y-107471605D01*
X112544974Y-107419277D01*
X112615546Y-107287247D01*
X112641709Y-107200997D01*
X112659003Y-107143986D01*
X112670000Y-107032333D01*
X112670000Y-107032323D01*
X112673676Y-106995000D01*
X112670000Y-106957677D01*
X112670000Y-105062641D01*
X112821324Y-105163753D01*
X113055179Y-105260619D01*
X113303439Y-105310000D01*
X113556561Y-105310000D01*
X113804821Y-105260619D01*
X114038676Y-105163753D01*
X114249140Y-105023125D01*
X114428125Y-104844140D01*
X114568753Y-104633676D01*
X114665619Y-104399821D01*
X114715000Y-104151561D01*
X114715000Y-103898439D01*
X114665619Y-103650179D01*
X114568753Y-103416324D01*
X114428125Y-103205860D01*
X114391275Y-103169010D01*
X114398072Y-103100000D01*
X114398072Y-102700000D01*
X114385812Y-102575518D01*
X114385655Y-102575000D01*
X114385812Y-102574482D01*
X114398072Y-102450000D01*
X114398072Y-102050000D01*
X114385812Y-101925518D01*
X114385655Y-101925000D01*
X114385812Y-101924482D01*
X114398072Y-101800000D01*
X114398072Y-101400000D01*
X114385812Y-101275518D01*
X114385655Y-101275000D01*
X114385812Y-101274482D01*
X114398072Y-101150000D01*
X114398072Y-100750000D01*
X114385812Y-100625518D01*
X114385089Y-100623134D01*
X114395000Y-100531750D01*
X114327032Y-100463782D01*
X114290537Y-100395506D01*
X114211185Y-100298815D01*
X114143798Y-100243512D01*
X114168511Y-100227000D01*
X114236250Y-100227000D01*
X114395000Y-100068250D01*
X114390990Y-100031275D01*
X114428125Y-99994140D01*
X114568753Y-99783676D01*
X114665619Y-99549821D01*
X114715000Y-99301561D01*
X114715000Y-99048439D01*
X114665619Y-98800179D01*
X114568753Y-98566324D01*
X114428125Y-98355860D01*
X114249140Y-98176875D01*
X114038676Y-98036247D01*
X113804821Y-97939381D01*
X113556561Y-97890000D01*
X113303439Y-97890000D01*
X113055179Y-97939381D01*
X112821324Y-98036247D01*
X112610860Y-98176875D01*
X112431875Y-98355860D01*
X112291247Y-98566324D01*
X112194381Y-98800179D01*
X112145000Y-99048439D01*
X112145000Y-99301561D01*
X112176920Y-99462039D01*
X112169063Y-99461992D01*
X112044420Y-99472483D01*
X111924219Y-99507089D01*
X111813078Y-99564481D01*
X111715269Y-99642452D01*
X111634551Y-99738006D01*
X111574026Y-99847472D01*
X111536020Y-99966642D01*
X111525000Y-100068250D01*
X111683750Y-100227000D01*
X111796322Y-100227000D01*
X111708815Y-100298815D01*
X111629463Y-100395506D01*
X111592968Y-100463782D01*
X111525000Y-100531750D01*
X111534911Y-100623134D01*
X111534188Y-100625518D01*
X111521928Y-100750000D01*
X111521928Y-100840000D01*
X111252114Y-100840000D01*
X111318513Y-100621111D01*
X111347185Y-100330000D01*
X111318513Y-100038889D01*
X111233599Y-99758966D01*
X111095706Y-99500986D01*
X110910134Y-99274866D01*
X110684014Y-99089294D01*
X110619477Y-99054799D01*
X110736355Y-98985178D01*
X110952588Y-98790269D01*
X111126641Y-98556920D01*
X111251825Y-98294099D01*
X111296476Y-98146890D01*
X111175155Y-97917000D01*
X109982000Y-97917000D01*
X109982000Y-97937000D01*
X109728000Y-97937000D01*
X109728000Y-97917000D01*
X108534845Y-97917000D01*
X108413524Y-98146890D01*
X108458175Y-98294099D01*
X108583359Y-98556920D01*
X108757412Y-98790269D01*
X108973645Y-98985178D01*
X109090523Y-99054799D01*
X109025986Y-99089294D01*
X108799866Y-99274866D01*
X108614294Y-99500986D01*
X108476401Y-99758966D01*
X108391487Y-100038889D01*
X108362815Y-100330000D01*
X97815000Y-100330000D01*
X97815000Y-97180000D01*
X108508617Y-97180000D01*
X108458175Y-97285901D01*
X108458175Y-97285901D01*
G37*
X108458175Y-97285901D02*
X108413524Y-97433110D01*
X108534845Y-97663000D01*
X109728000Y-97663000D01*
X109728000Y-97643000D01*
X109982000Y-97643000D01*
X109982000Y-97663000D01*
X111175155Y-97663000D01*
X111296476Y-97433110D01*
X111251825Y-97285901D01*
X111201383Y-97180000D01*
X114770744Y-97180000D01*
X114752843Y-97201812D01*
X114624236Y-97442419D01*
X114545040Y-97703493D01*
X114518299Y-97975000D01*
X114545040Y-98246507D01*
X114624236Y-98507581D01*
X114752843Y-98748188D01*
X114925919Y-98959081D01*
X115136812Y-99132157D01*
X115377419Y-99260764D01*
X115638493Y-99339960D01*
X115841963Y-99360000D01*
X116378037Y-99360000D01*
X116581507Y-99339960D01*
X116842581Y-99260764D01*
X117083188Y-99132157D01*
X117294081Y-98959081D01*
X117450000Y-98769094D01*
X117450000Y-104430907D01*
X117294081Y-104240919D01*
X117083188Y-104067843D01*
X116842581Y-103939236D01*
X116581507Y-103860040D01*
X116378037Y-103840000D01*
X115841963Y-103840000D01*
X115638493Y-103860040D01*
X115377419Y-103939236D01*
X115136812Y-104067843D01*
X114925919Y-104240919D01*
X114752843Y-104451812D01*
X114624236Y-104692419D01*
X114545040Y-104953493D01*
X114518299Y-105225000D01*
X114545040Y-105496507D01*
X114624236Y-105757581D01*
X114752843Y-105998188D01*
X114925919Y-106209081D01*
X115136812Y-106382157D01*
X115377419Y-106510764D01*
X115638493Y-106589960D01*
X115841963Y-106610000D01*
X116378037Y-106610000D01*
X116581507Y-106589960D01*
X116842581Y-106510764D01*
X117083188Y-106382157D01*
X117294081Y-106209081D01*
X117450000Y-106019093D01*
X117450000Y-110039675D01*
X117313560Y-109710279D01*
X117052550Y-109319651D01*
X116720349Y-108987450D01*
X116329721Y-108726440D01*
X115895679Y-108546654D01*
X115434902Y-108455000D01*
X114965098Y-108455000D01*
X114504321Y-108546654D01*
X114070279Y-108726440D01*
X113679651Y-108987450D01*
X113347450Y-109319651D01*
X113086440Y-109710279D01*
X112906654Y-110144321D01*
X112815000Y-110605098D01*
X112815000Y-111074902D01*
X112906654Y-111535679D01*
X113086440Y-111969721D01*
X113347450Y-112360349D01*
X113679651Y-112692550D01*
X114070279Y-112953560D01*
X114504321Y-113133346D01*
X114965098Y-113225000D01*
X115434902Y-113225000D01*
X115895679Y-113133346D01*
X116329721Y-112953560D01*
X116720349Y-112692550D01*
X117052550Y-112360349D01*
X117313560Y-111969721D01*
X117450000Y-111640324D01*
X117450001Y-122079676D01*
X117313560Y-121750279D01*
X117052550Y-121359651D01*
X116720349Y-121027450D01*
X116329721Y-120766440D01*
X115895679Y-120586654D01*
X115434902Y-120495000D01*
X114965098Y-120495000D01*
X114504321Y-120586654D01*
X114070279Y-120766440D01*
X113679651Y-121027450D01*
X113347450Y-121359651D01*
X113086440Y-121750279D01*
X112906654Y-122184321D01*
X112815000Y-122645098D01*
X112815000Y-123114902D01*
X112906654Y-123575679D01*
X113086440Y-124009721D01*
X113347450Y-124400349D01*
X113679651Y-124732550D01*
X114070279Y-124993560D01*
X114504321Y-125173346D01*
X114965098Y-125265000D01*
X115434902Y-125265000D01*
X115895679Y-125173346D01*
X116329721Y-124993560D01*
X116720349Y-124732550D01*
X117052550Y-124400349D01*
X117313560Y-124009721D01*
X117450001Y-123680323D01*
X117450001Y-127610000D01*
X112728072Y-127610000D01*
X112725000Y-127095750D01*
X112566250Y-126937000D01*
X111692000Y-126937000D01*
X111692000Y-126957000D01*
X111438000Y-126957000D01*
X111438000Y-126937000D01*
X111418000Y-126937000D01*
X111418000Y-126683000D01*
X111438000Y-126683000D01*
X111438000Y-125533750D01*
X111692000Y-125533750D01*
X111692000Y-126683000D01*
X112566250Y-126683000D01*
X112725000Y-126524250D01*
X112728072Y-126010000D01*
X112715812Y-125885518D01*
X112679502Y-125765820D01*
X112620537Y-125655506D01*
X112541185Y-125558815D01*
X112444494Y-125479463D01*
X112334180Y-125420498D01*
X112214482Y-125384188D01*
X112090000Y-125371928D01*
X111850750Y-125375000D01*
X111692000Y-125533750D01*
X111438000Y-125533750D01*
X111279250Y-125375000D01*
X111040000Y-125371928D01*
X110915518Y-125384188D01*
X110795820Y-125420498D01*
X110685506Y-125479463D01*
X110588815Y-125558815D01*
X110509463Y-125655506D01*
X110490000Y-125691918D01*
X110470537Y-125655506D01*
X110391185Y-125558815D01*
X110294494Y-125479463D01*
X110184180Y-125420498D01*
X110064482Y-125384188D01*
X109940000Y-125371928D01*
X108890000Y-125371928D01*
X108765518Y-125384188D01*
X108645820Y-125420498D01*
X108535506Y-125479463D01*
X108438815Y-125558815D01*
X108359463Y-125655506D01*
X108300498Y-125765820D01*
X108264188Y-125885518D01*
X108251928Y-126010000D01*
X108251928Y-127610000D01*
X105123151Y-127610000D01*
X105147212Y-127530682D01*
X105159472Y-127406200D01*
X105156400Y-127166950D01*
X104997650Y-127008200D01*
X103848400Y-127008200D01*
X103848400Y-127028200D01*
X103594400Y-127028200D01*
X103594400Y-127008200D01*
X102445150Y-127008200D01*
X102286400Y-127166950D01*
X102283328Y-127406200D01*
X102295588Y-127530682D01*
X102319649Y-127610000D01*
X100423151Y-127610000D01*
X100447212Y-127530682D01*
X100459472Y-127406200D01*
X100456400Y-127166950D01*
X100297650Y-127008200D01*
X99148400Y-127008200D01*
X99148400Y-127028200D01*
X98894400Y-127028200D01*
X98894400Y-127008200D01*
X98874400Y-127008200D01*
X98874400Y-126754200D01*
X98894400Y-126754200D01*
X98894400Y-126734200D01*
X99148400Y-126734200D01*
X99148400Y-126754200D01*
X100297650Y-126754200D01*
X100456400Y-126595450D01*
X100459472Y-126356200D01*
X100447212Y-126231718D01*
X100410902Y-126112020D01*
X100351937Y-126001706D01*
X100272585Y-125905015D01*
X100175894Y-125825663D01*
X100139482Y-125806200D01*
X100175894Y-125786737D01*
X100272585Y-125707385D01*
X100351937Y-125610694D01*
X100410902Y-125500380D01*
X100413687Y-125491200D01*
X102329113Y-125491200D01*
X102331898Y-125500380D01*
X102390863Y-125610694D01*
X102470215Y-125707385D01*
X102566906Y-125786737D01*
X102603318Y-125806200D01*
X102566906Y-125825663D01*
X102470215Y-125905015D01*
X102390863Y-126001706D01*
X102331898Y-126112020D01*
X102295588Y-126231718D01*
X102283328Y-126356200D01*
X102286400Y-126595450D01*
X102445150Y-126754200D01*
X103594400Y-126754200D01*
X103594400Y-126734200D01*
X103848400Y-126734200D01*
X103848400Y-126754200D01*
X104997650Y-126754200D01*
X105156400Y-126595450D01*
X105159472Y-126356200D01*
X105147212Y-126231718D01*
X105110902Y-126112020D01*
X105051937Y-126001706D01*
X104972585Y-125905015D01*
X104875894Y-125825663D01*
X104839482Y-125806200D01*
X104875894Y-125786737D01*
X104972585Y-125707385D01*
X105051937Y-125610694D01*
X105110902Y-125500380D01*
X105147212Y-125380682D01*
X105159472Y-125256200D01*
X105159472Y-124206200D01*
X105147212Y-124081718D01*
X105110902Y-123962020D01*
X105051937Y-123851706D01*
X104972585Y-123755015D01*
X104875894Y-123675663D01*
X104765580Y-123616698D01*
X104645882Y-123580388D01*
X104521400Y-123568128D01*
X102921400Y-123568128D01*
X102796918Y-123580388D01*
X102677220Y-123616698D01*
X102566906Y-123675663D01*
X102470215Y-123755015D01*
X102390863Y-123851706D01*
X102331898Y-123962020D01*
X102329113Y-123971200D01*
X100413687Y-123971200D01*
X100410902Y-123962020D01*
X100351937Y-123851706D01*
X100272585Y-123755015D01*
X100175894Y-123675663D01*
X100065580Y-123616698D01*
X99945882Y-123580388D01*
X99821400Y-123568128D01*
X99675726Y-123568128D01*
X99656374Y-123531924D01*
X99561401Y-123416199D01*
X99532404Y-123392402D01*
X98282622Y-122142621D01*
X99302029Y-122142621D01*
X99378815Y-122236185D01*
X99475506Y-122315537D01*
X99585820Y-122374502D01*
X99705518Y-122410812D01*
X99830000Y-122423072D01*
X100830000Y-122423072D01*
X100954482Y-122410812D01*
X101074180Y-122374502D01*
X101163180Y-122326930D01*
X101243136Y-122362446D01*
X101298126Y-122379119D01*
X101473000Y-122252954D01*
X101473000Y-121412000D01*
X101727000Y-121412000D01*
X101727000Y-122252954D01*
X101901874Y-122379119D01*
X101956864Y-122362446D01*
X102160206Y-122272123D01*
X102235000Y-122219361D01*
X102309794Y-122272123D01*
X102513136Y-122362446D01*
X102568126Y-122379119D01*
X102743000Y-122252954D01*
X102743000Y-121412000D01*
X101727000Y-121412000D01*
X101473000Y-121412000D01*
X101468072Y-121412000D01*
X101468072Y-121158000D01*
X101473000Y-121158000D01*
X101473000Y-121142983D01*
X101544248Y-121150000D01*
X101655752Y-121150000D01*
X101727000Y-121142983D01*
X101727000Y-121158000D01*
X102743000Y-121158000D01*
X102743000Y-121142983D01*
X102814248Y-121150000D01*
X102925752Y-121150000D01*
X102997000Y-121142983D01*
X102997000Y-121158000D01*
X103012017Y-121158000D01*
X102999509Y-121285000D01*
X103012017Y-121412000D01*
X102997000Y-121412000D01*
X102997000Y-122252954D01*
X103171874Y-122379119D01*
X103226864Y-122362446D01*
X103430206Y-122272123D01*
X103496617Y-122225274D01*
X103506377Y-122233284D01*
X103703553Y-122338676D01*
X103917501Y-122403577D01*
X104084248Y-122420000D01*
X104195752Y-122420000D01*
X104362499Y-122403577D01*
X104576447Y-122338676D01*
X104773623Y-122233284D01*
X104783383Y-122225274D01*
X104849794Y-122272123D01*
X105053136Y-122362446D01*
X105108126Y-122379119D01*
X105283000Y-122252954D01*
X105283000Y-121412000D01*
X105537000Y-121412000D01*
X105537000Y-122252954D01*
X105711874Y-122379119D01*
X105766864Y-122362446D01*
X105970206Y-122272123D01*
X106152020Y-122143865D01*
X106305318Y-121982601D01*
X106424210Y-121794529D01*
X106504126Y-121586876D01*
X106379129Y-121412000D01*
X105537000Y-121412000D01*
X105283000Y-121412000D01*
X105267983Y-121412000D01*
X105280491Y-121285000D01*
X105267983Y-121158000D01*
X105283000Y-121158000D01*
X105283000Y-121142983D01*
X105354248Y-121150000D01*
X105465752Y-121150000D01*
X105537000Y-121142983D01*
X105537000Y-121158000D01*
X106379129Y-121158000D01*
X106504126Y-120983124D01*
X106424210Y-120775471D01*
X106423912Y-120775000D01*
X107280199Y-120775000D01*
X108251928Y-121746730D01*
X108251928Y-122910000D01*
X108264188Y-123034482D01*
X108300498Y-123154180D01*
X108359463Y-123264494D01*
X108438815Y-123361185D01*
X108535506Y-123440537D01*
X108645820Y-123499502D01*
X108765518Y-123535812D01*
X108890000Y-123548072D01*
X109940000Y-123548072D01*
X110064482Y-123535812D01*
X110184180Y-123499502D01*
X110294494Y-123440537D01*
X110391185Y-123361185D01*
X110470537Y-123264494D01*
X110490000Y-123228082D01*
X110509463Y-123264494D01*
X110588815Y-123361185D01*
X110685506Y-123440537D01*
X110795820Y-123499502D01*
X110915518Y-123535812D01*
X111040000Y-123548072D01*
X111279250Y-123545000D01*
X111438000Y-123386250D01*
X111438000Y-122237000D01*
X111692000Y-122237000D01*
X111692000Y-123386250D01*
X111850750Y-123545000D01*
X112090000Y-123548072D01*
X112214482Y-123535812D01*
X112334180Y-123499502D01*
X112444494Y-123440537D01*
X112541185Y-123361185D01*
X112620537Y-123264494D01*
X112679502Y-123154180D01*
X112715812Y-123034482D01*
X112728072Y-122910000D01*
X112725000Y-122395750D01*
X112566250Y-122237000D01*
X111692000Y-122237000D01*
X111438000Y-122237000D01*
X111418000Y-122237000D01*
X111418000Y-121983000D01*
X111438000Y-121983000D01*
X111438000Y-120833750D01*
X111692000Y-120833750D01*
X111692000Y-121983000D01*
X112566250Y-121983000D01*
X112725000Y-121824250D01*
X112728072Y-121310000D01*
X112715812Y-121185518D01*
X112679502Y-121065820D01*
X112620537Y-120955506D01*
X112541185Y-120858815D01*
X112444494Y-120779463D01*
X112334180Y-120720498D01*
X112214482Y-120684188D01*
X112090000Y-120671928D01*
X111850750Y-120675000D01*
X111692000Y-120833750D01*
X111438000Y-120833750D01*
X111279250Y-120675000D01*
X111040000Y-120671928D01*
X110915518Y-120684188D01*
X110795820Y-120720498D01*
X110685506Y-120779463D01*
X110588815Y-120858815D01*
X110509463Y-120955506D01*
X110490000Y-120991918D01*
X110470537Y-120955506D01*
X110391185Y-120858815D01*
X110294494Y-120779463D01*
X110184180Y-120720498D01*
X110064482Y-120684188D01*
X109940000Y-120671928D01*
X109326730Y-120671928D01*
X108158804Y-119504003D01*
X108135001Y-119474999D01*
X108019276Y-119380026D01*
X107887247Y-119309454D01*
X107743986Y-119265997D01*
X107632333Y-119255000D01*
X107632322Y-119255000D01*
X107595000Y-119251324D01*
X107557678Y-119255000D01*
X106254569Y-119255000D01*
X106216449Y-119208551D01*
X106170000Y-119170431D01*
X106170000Y-118364130D01*
X106181862Y-118325025D01*
X106196536Y-118176040D01*
X106195111Y-118161567D01*
X106181862Y-118027053D01*
X106138406Y-117883793D01*
X106067834Y-117751763D01*
X105996659Y-117665037D01*
X105972861Y-117636039D01*
X105943863Y-117612241D01*
X104900000Y-116568379D01*
X104900000Y-113896672D01*
X105003600Y-113896672D01*
X105128082Y-113884412D01*
X105247780Y-113848102D01*
X105358094Y-113789137D01*
X105454785Y-113709785D01*
X105534137Y-113613094D01*
X105593102Y-113502780D01*
X105629412Y-113383082D01*
X105641672Y-113258600D01*
X105641672Y-111531400D01*
X105629412Y-111406918D01*
X105593102Y-111287220D01*
X105534137Y-111176906D01*
X105454785Y-111080215D01*
X105358094Y-111000863D01*
X105247780Y-110941898D01*
X105196735Y-110926414D01*
X105204797Y-110919797D01*
X105392069Y-110691606D01*
X105531225Y-110431264D01*
X105616916Y-110148777D01*
X105645851Y-109855000D01*
X105616916Y-109561223D01*
X105531225Y-109278736D01*
X105392069Y-109018394D01*
X105204797Y-108790203D01*
X104976606Y-108602931D01*
X104932090Y-108579137D01*
X105028488Y-108521817D01*
X105246854Y-108325293D01*
X105422684Y-108089944D01*
X105549222Y-107824814D01*
X105594958Y-107674026D01*
X105473817Y-107442000D01*
X104267000Y-107442000D01*
X104267000Y-107462000D01*
X104013000Y-107462000D01*
X104013000Y-107442000D01*
X101727000Y-107442000D01*
X101727000Y-107462000D01*
X101473000Y-107462000D01*
X101473000Y-107442000D01*
X101453000Y-107442000D01*
X101453000Y-107188000D01*
X101473000Y-107188000D01*
X101473000Y-107168000D01*
X101727000Y-107168000D01*
X101727000Y-107188000D01*
X104013000Y-107188000D01*
X104013000Y-107168000D01*
X104267000Y-107168000D01*
X104267000Y-107188000D01*
X105473817Y-107188000D01*
X105594958Y-106955974D01*
X105549222Y-106805186D01*
X105422684Y-106540056D01*
X105246854Y-106304707D01*
X105028488Y-106108183D01*
X104932090Y-106050863D01*
X104976606Y-106027069D01*
X105204797Y-105839797D01*
X105392069Y-105611606D01*
X105531225Y-105351264D01*
X105616916Y-105068777D01*
X105645851Y-104775000D01*
X105616916Y-104481223D01*
X105531225Y-104198736D01*
X105392069Y-103938394D01*
X105204797Y-103710203D01*
X104976606Y-103522931D01*
X104943060Y-103505000D01*
X104976606Y-103487069D01*
X105204797Y-103299797D01*
X105392069Y-103071606D01*
X105531225Y-102811264D01*
X105616916Y-102528777D01*
X105645851Y-102235000D01*
X105616916Y-101941223D01*
X105531225Y-101658736D01*
X105392069Y-101398394D01*
X105204797Y-101170203D01*
X104976606Y-100982931D01*
X104716264Y-100843775D01*
X104433777Y-100758084D01*
X104213619Y-100736400D01*
X104066381Y-100736400D01*
X103846223Y-100758084D01*
X103563736Y-100843775D01*
X103303394Y-100982931D01*
X103075203Y-101170203D01*
X102887931Y-101398394D01*
X102870000Y-101431940D01*
X102852069Y-101398394D01*
X102664797Y-101170203D01*
X102436606Y-100982931D01*
X102176264Y-100843775D01*
X101893777Y-100758084D01*
X101673619Y-100736400D01*
X101526381Y-100736400D01*
X101306223Y-100758084D01*
X101023736Y-100843775D01*
X100763394Y-100982931D01*
X100535203Y-101170203D01*
X100347931Y-101398394D01*
X100208775Y-101658736D01*
X100123084Y-101941223D01*
X100094149Y-102235000D01*
X100123084Y-102528777D01*
X100208775Y-102811264D01*
X100347931Y-103071606D01*
X100535203Y-103299797D01*
X100763394Y-103487069D01*
X100796940Y-103505000D01*
X100763394Y-103522931D01*
X100535203Y-103710203D01*
X100347931Y-103938394D01*
X100208775Y-104198736D01*
X100123084Y-104481223D01*
X100094149Y-104775000D01*
X100123084Y-105068777D01*
X100148299Y-105151900D01*
X98541378Y-106758821D01*
X98512380Y-106782619D01*
X98488582Y-106811617D01*
X98488581Y-106811618D01*
X98417406Y-106898344D01*
X98346834Y-107030374D01*
X98346240Y-107032333D01*
X98312372Y-107143986D01*
X98303378Y-107173635D01*
X98288704Y-107322620D01*
X98292381Y-107359952D01*
X98292380Y-112400238D01*
X97129759Y-113562860D01*
X95922168Y-113562860D01*
X95891434Y-113553537D01*
X95779781Y-113542540D01*
X95779770Y-113542540D01*
X95742448Y-113538864D01*
X95705126Y-113542540D01*
X94750228Y-113542540D01*
X94724439Y-113540000D01*
X94724428Y-113540000D01*
X94687106Y-113536324D01*
X94649784Y-113540000D01*
X92577087Y-113540000D01*
X92578072Y-113530000D01*
X92575000Y-113315750D01*
X92416252Y-113157002D01*
X92575000Y-113157002D01*
X92575000Y-113055000D01*
X95917419Y-113055000D01*
X95945865Y-113052198D01*
X95953682Y-113052253D01*
X95962853Y-113051354D01*
X96209357Y-113025446D01*
X96267986Y-113013411D01*
X96326716Y-113002208D01*
X96335532Y-112999546D01*
X96335536Y-112999545D01*
X96335539Y-112999544D01*
X96572314Y-112926249D01*
X96627457Y-112903069D01*
X96682920Y-112880661D01*
X96691054Y-112876335D01*
X96691059Y-112876333D01*
X96691064Y-112876330D01*
X96909086Y-112758447D01*
X96958654Y-112725012D01*
X97008735Y-112692241D01*
X97015876Y-112686416D01*
X97206856Y-112528423D01*
X97248995Y-112485988D01*
X97291745Y-112444125D01*
X97297618Y-112437024D01*
X97454273Y-112244947D01*
X97487374Y-112195125D01*
X97521173Y-112145763D01*
X97525556Y-112137657D01*
X97641919Y-111918809D01*
X97664707Y-111863521D01*
X97688279Y-111808525D01*
X97691003Y-111799722D01*
X97762643Y-111562441D01*
X97774264Y-111503754D01*
X97786700Y-111445248D01*
X97787663Y-111436083D01*
X97811850Y-111189405D01*
X97811850Y-111189402D01*
X97815000Y-111157419D01*
X97815000Y-100330000D01*
X108362815Y-100330000D01*
X108391487Y-100621111D01*
X108476401Y-100901034D01*
X108614294Y-101159014D01*
X108799866Y-101385134D01*
X109025986Y-101570706D01*
X109080791Y-101600000D01*
X109025986Y-101629294D01*
X108799866Y-101814866D01*
X108614294Y-102040986D01*
X108476401Y-102298966D01*
X108391487Y-102578889D01*
X108362815Y-102870000D01*
X108391487Y-103161111D01*
X108476401Y-103441034D01*
X108614294Y-103699014D01*
X108799866Y-103925134D01*
X109025986Y-104110706D01*
X109080791Y-104140000D01*
X109025986Y-104169294D01*
X108799866Y-104354866D01*
X108614294Y-104580986D01*
X108476401Y-104838966D01*
X108391487Y-105118889D01*
X108362815Y-105410000D01*
X108391487Y-105701111D01*
X108476401Y-105981034D01*
X108614294Y-106239014D01*
X108799866Y-106465134D01*
X108829687Y-106489607D01*
X108760820Y-106510498D01*
X108650506Y-106569463D01*
X108553815Y-106648815D01*
X108474463Y-106745506D01*
X108415498Y-106855820D01*
X108379188Y-106975518D01*
X108366928Y-107100000D01*
X108366928Y-108800000D01*
X108379188Y-108924482D01*
X108415498Y-109044180D01*
X108474463Y-109154494D01*
X108553815Y-109251185D01*
X108609791Y-109297123D01*
X108609453Y-109297755D01*
X108565996Y-109441016D01*
X108554999Y-109552669D01*
X108554999Y-109552679D01*
X108551323Y-109590001D01*
X108554999Y-109627323D01*
X108555000Y-117997667D01*
X108551323Y-118034999D01*
X108555000Y-118072332D01*
X108565997Y-118183985D01*
X108579179Y-118227441D01*
X108609453Y-118327245D01*
X108680025Y-118459275D01*
X108747970Y-118542065D01*
X108774999Y-118575000D01*
X108803995Y-118598796D01*
X108826199Y-118621001D01*
X108849999Y-118650001D01*
X108965724Y-118744974D01*
X109001928Y-118764326D01*
X109001928Y-118960000D01*
X109014188Y-119084482D01*
X109050498Y-119204180D01*
X109109463Y-119314494D01*
X109188815Y-119411185D01*
X109285506Y-119490537D01*
X109395820Y-119549502D01*
X109515518Y-119585812D01*
X109640000Y-119598072D01*
X111340000Y-119598072D01*
X111464482Y-119585812D01*
X111584180Y-119549502D01*
X111694494Y-119490537D01*
X111782876Y-119418004D01*
X111982883Y-119513371D01*
X112266411Y-119585339D01*
X112558531Y-119600611D01*
X112848019Y-119558599D01*
X113123747Y-119460919D01*
X113261157Y-119387472D01*
X113338792Y-119138397D01*
X112490000Y-118289605D01*
X112475858Y-118303748D01*
X112296253Y-118124143D01*
X112310395Y-118110000D01*
X112669605Y-118110000D01*
X113518397Y-118958792D01*
X113767472Y-118881157D01*
X113893371Y-118617117D01*
X113965339Y-118333589D01*
X113980611Y-118041469D01*
X113938599Y-117751981D01*
X113840919Y-117476253D01*
X113767472Y-117338843D01*
X113518397Y-117261208D01*
X112669605Y-118110000D01*
X112310395Y-118110000D01*
X112296253Y-118095858D01*
X112475858Y-117916253D01*
X112490000Y-117930395D01*
X113338792Y-117081603D01*
X113273590Y-116872416D01*
X113436632Y-116763475D01*
X113643475Y-116556632D01*
X113805990Y-116313411D01*
X113917932Y-116043158D01*
X113975000Y-115756260D01*
X113975000Y-115463740D01*
X113917932Y-115176842D01*
X113805990Y-114906589D01*
X113643475Y-114663368D01*
X113436632Y-114456525D01*
X113193411Y-114294010D01*
X112923158Y-114182068D01*
X112636260Y-114125000D01*
X112343740Y-114125000D01*
X112056842Y-114182068D01*
X111786589Y-114294010D01*
X111543368Y-114456525D01*
X111490000Y-114509893D01*
X111436632Y-114456525D01*
X111193411Y-114294010D01*
X110923158Y-114182068D01*
X110636260Y-114125000D01*
X110343740Y-114125000D01*
X110074999Y-114178456D01*
X110074999Y-109904802D01*
X110366002Y-109613800D01*
X110395001Y-109590001D01*
X110489974Y-109474276D01*
X110509326Y-109438072D01*
X110705000Y-109438072D01*
X110829482Y-109425812D01*
X110949180Y-109389502D01*
X111059494Y-109330537D01*
X111156185Y-109251185D01*
X111235537Y-109154494D01*
X111294502Y-109044180D01*
X111330812Y-108924482D01*
X111343072Y-108800000D01*
X111343072Y-108604326D01*
X111379276Y-108584974D01*
X111495001Y-108490001D01*
X111518804Y-108460998D01*
X112421003Y-107558799D01*
X112450001Y-107535001D01*
X112502029Y-107471605D01*
X112544974Y-107419277D01*
X112615546Y-107287247D01*
X112641709Y-107200997D01*
X112659003Y-107143986D01*
X112670000Y-107032333D01*
X112670000Y-107032323D01*
X112673676Y-106995000D01*
X112670000Y-106957677D01*
X112670000Y-105062641D01*
X112821324Y-105163753D01*
X113055179Y-105260619D01*
X113303439Y-105310000D01*
X113556561Y-105310000D01*
X113804821Y-105260619D01*
X114038676Y-105163753D01*
X114249140Y-105023125D01*
X114428125Y-104844140D01*
X114568753Y-104633676D01*
X114665619Y-104399821D01*
X114715000Y-104151561D01*
X114715000Y-103898439D01*
X114665619Y-103650179D01*
X114568753Y-103416324D01*
X114428125Y-103205860D01*
X114391275Y-103169010D01*
X114398072Y-103100000D01*
X114398072Y-102700000D01*
X114385812Y-102575518D01*
X114385655Y-102575000D01*
X114385812Y-102574482D01*
X114398072Y-102450000D01*
X114398072Y-102050000D01*
X114385812Y-101925518D01*
X114385655Y-101925000D01*
X114385812Y-101924482D01*
X114398072Y-101800000D01*
X114398072Y-101400000D01*
X114385812Y-101275518D01*
X114385655Y-101275000D01*
X114385812Y-101274482D01*
X114398072Y-101150000D01*
X114398072Y-100750000D01*
X114385812Y-100625518D01*
X114385089Y-100623134D01*
X114395000Y-100531750D01*
X114327032Y-100463782D01*
X114290537Y-100395506D01*
X114211185Y-100298815D01*
X114143798Y-100243512D01*
X114168511Y-100227000D01*
X114236250Y-100227000D01*
X114395000Y-100068250D01*
X114390990Y-100031275D01*
X114428125Y-99994140D01*
X114568753Y-99783676D01*
X114665619Y-99549821D01*
X114715000Y-99301561D01*
X114715000Y-99048439D01*
X114665619Y-98800179D01*
X114568753Y-98566324D01*
X114428125Y-98355860D01*
X114249140Y-98176875D01*
X114038676Y-98036247D01*
X113804821Y-97939381D01*
X113556561Y-97890000D01*
X113303439Y-97890000D01*
X113055179Y-97939381D01*
X112821324Y-98036247D01*
X112610860Y-98176875D01*
X112431875Y-98355860D01*
X112291247Y-98566324D01*
X112194381Y-98800179D01*
X112145000Y-99048439D01*
X112145000Y-99301561D01*
X112176920Y-99462039D01*
X112169063Y-99461992D01*
X112044420Y-99472483D01*
X111924219Y-99507089D01*
X111813078Y-99564481D01*
X111715269Y-99642452D01*
X111634551Y-99738006D01*
X111574026Y-99847472D01*
X111536020Y-99966642D01*
X111525000Y-100068250D01*
X111683750Y-100227000D01*
X111796322Y-100227000D01*
X111708815Y-100298815D01*
X111629463Y-100395506D01*
X111592968Y-100463782D01*
X111525000Y-100531750D01*
X111534911Y-100623134D01*
X111534188Y-100625518D01*
X111521928Y-100750000D01*
X111521928Y-100840000D01*
X111252114Y-100840000D01*
X111318513Y-100621111D01*
X111347185Y-100330000D01*
X111318513Y-100038889D01*
X111233599Y-99758966D01*
X111095706Y-99500986D01*
X110910134Y-99274866D01*
X110684014Y-99089294D01*
X110619477Y-99054799D01*
X110736355Y-98985178D01*
X110952588Y-98790269D01*
X111126641Y-98556920D01*
X111251825Y-98294099D01*
X111296476Y-98146890D01*
X111175155Y-97917000D01*
X109982000Y-97917000D01*
X109982000Y-97937000D01*
X109728000Y-97937000D01*
X109728000Y-97917000D01*
X108534845Y-97917000D01*
X108413524Y-98146890D01*
X108458175Y-98294099D01*
X108583359Y-98556920D01*
X108757412Y-98790269D01*
X108973645Y-98985178D01*
X109090523Y-99054799D01*
X109025986Y-99089294D01*
X108799866Y-99274866D01*
X108614294Y-99500986D01*
X108476401Y-99758966D01*
X108391487Y-100038889D01*
X108362815Y-100330000D01*
X97815000Y-100330000D01*
X97815000Y-97180000D01*
X108508617Y-97180000D01*
X108458175Y-97285901D01*
G36*
X94652313Y-115062540D02*
G01*
X94652323Y-115062540D01*
X94689645Y-115066216D01*
X94726968Y-115062540D01*
X95583048Y-115062540D01*
X95613782Y-115071863D01*
X95725435Y-115082860D01*
X95725446Y-115082860D01*
X95762768Y-115086536D01*
X95800091Y-115082860D01*
X96684560Y-115082860D01*
X96684561Y-121042240D01*
X96680884Y-121079572D01*
X96684561Y-121116905D01*
X96688806Y-121160000D01*
X92454361Y-121160000D01*
X92493676Y-121086447D01*
X92558577Y-120872499D01*
X92580491Y-120650000D01*
X92558577Y-120427501D01*
X92493676Y-120213553D01*
X92388284Y-120016377D01*
X92387154Y-120015000D01*
X92388284Y-120013623D01*
X92493676Y-119816447D01*
X92558577Y-119602499D01*
X92580491Y-119380000D01*
X92558577Y-119157501D01*
X92493676Y-118943553D01*
X92388284Y-118746377D01*
X92387154Y-118745000D01*
X92388284Y-118743623D01*
X92493676Y-118546447D01*
X92558577Y-118332499D01*
X92580491Y-118110000D01*
X92558577Y-117887501D01*
X92493676Y-117673553D01*
X92388284Y-117476377D01*
X92387154Y-117475000D01*
X92388284Y-117473623D01*
X92493676Y-117276447D01*
X92558577Y-117062499D01*
X92580491Y-116840000D01*
X92558577Y-116617501D01*
X92493676Y-116403553D01*
X92388284Y-116206377D01*
X92387154Y-116205000D01*
X92388284Y-116203623D01*
X92493676Y-116006447D01*
X92558577Y-115792499D01*
X92580491Y-115570000D01*
X92558577Y-115347501D01*
X92493676Y-115133553D01*
X92454361Y-115060000D01*
X94626524Y-115060000D01*
X94652313Y-115062540D01*
X94652313Y-115062540D01*
G37*
X94652313Y-115062540D02*
X94652323Y-115062540D01*
X94689645Y-115066216D01*
X94726968Y-115062540D01*
X95583048Y-115062540D01*
X95613782Y-115071863D01*
X95725435Y-115082860D01*
X95725446Y-115082860D01*
X95762768Y-115086536D01*
X95800091Y-115082860D01*
X96684560Y-115082860D01*
X96684561Y-121042240D01*
X96680884Y-121079572D01*
X96684561Y-121116905D01*
X96688806Y-121160000D01*
X92454361Y-121160000D01*
X92493676Y-121086447D01*
X92558577Y-120872499D01*
X92580491Y-120650000D01*
X92558577Y-120427501D01*
X92493676Y-120213553D01*
X92388284Y-120016377D01*
X92387154Y-120015000D01*
X92388284Y-120013623D01*
X92493676Y-119816447D01*
X92558577Y-119602499D01*
X92580491Y-119380000D01*
X92558577Y-119157501D01*
X92493676Y-118943553D01*
X92388284Y-118746377D01*
X92387154Y-118745000D01*
X92388284Y-118743623D01*
X92493676Y-118546447D01*
X92558577Y-118332499D01*
X92580491Y-118110000D01*
X92558577Y-117887501D01*
X92493676Y-117673553D01*
X92388284Y-117476377D01*
X92387154Y-117475000D01*
X92388284Y-117473623D01*
X92493676Y-117276447D01*
X92558577Y-117062499D01*
X92580491Y-116840000D01*
X92558577Y-116617501D01*
X92493676Y-116403553D01*
X92388284Y-116206377D01*
X92387154Y-116205000D01*
X92388284Y-116203623D01*
X92493676Y-116006447D01*
X92558577Y-115792499D01*
X92580491Y-115570000D01*
X92558577Y-115347501D01*
X92493676Y-115133553D01*
X92454361Y-115060000D01*
X94626524Y-115060000D01*
X94652313Y-115062540D01*
G36*
X102686898Y-113502780D02*
G01*
X102745863Y-113613094D01*
X102825215Y-113709785D01*
X102921906Y-113789137D01*
X103032220Y-113848102D01*
X103151918Y-113884412D01*
X103276400Y-113896672D01*
X103380000Y-113896672D01*
X103380001Y-116845848D01*
X103376324Y-116883180D01*
X103390998Y-117032165D01*
X103434454Y-117175426D01*
X103505026Y-117307456D01*
X103576201Y-117394182D01*
X103600000Y-117423181D01*
X103628998Y-117446979D01*
X104650000Y-118467982D01*
X104650000Y-119000639D01*
X104576447Y-118961324D01*
X104362499Y-118896423D01*
X104195752Y-118880000D01*
X104084248Y-118880000D01*
X103917501Y-118896423D01*
X103703553Y-118961324D01*
X103506377Y-119066716D01*
X103505000Y-119067846D01*
X103503623Y-119066716D01*
X103306447Y-118961324D01*
X103092499Y-118896423D01*
X102925752Y-118880000D01*
X102814248Y-118880000D01*
X102647501Y-118896423D01*
X102433553Y-118961324D01*
X102360000Y-119000639D01*
X102360000Y-113688016D01*
X102436606Y-113647069D01*
X102664797Y-113459797D01*
X102671414Y-113451735D01*
X102686898Y-113502780D01*
X102686898Y-113502780D01*
G37*
X102686898Y-113502780D02*
X102745863Y-113613094D01*
X102825215Y-113709785D01*
X102921906Y-113789137D01*
X103032220Y-113848102D01*
X103151918Y-113884412D01*
X103276400Y-113896672D01*
X103380000Y-113896672D01*
X103380001Y-116845848D01*
X103376324Y-116883180D01*
X103390998Y-117032165D01*
X103434454Y-117175426D01*
X103505026Y-117307456D01*
X103576201Y-117394182D01*
X103600000Y-117423181D01*
X103628998Y-117446979D01*
X104650000Y-118467982D01*
X104650000Y-119000639D01*
X104576447Y-118961324D01*
X104362499Y-118896423D01*
X104195752Y-118880000D01*
X104084248Y-118880000D01*
X103917501Y-118896423D01*
X103703553Y-118961324D01*
X103506377Y-119066716D01*
X103505000Y-119067846D01*
X103503623Y-119066716D01*
X103306447Y-118961324D01*
X103092499Y-118896423D01*
X102925752Y-118880000D01*
X102814248Y-118880000D01*
X102647501Y-118896423D01*
X102433553Y-118961324D01*
X102360000Y-119000639D01*
X102360000Y-113688016D01*
X102436606Y-113647069D01*
X102664797Y-113459797D01*
X102671414Y-113451735D01*
X102686898Y-113502780D01*
G36*
X99570001Y-116655863D02*
G01*
X99506678Y-116629634D01*
X99306719Y-116589860D01*
X99102841Y-116589860D01*
X98902882Y-116629634D01*
X98714524Y-116707655D01*
X98545006Y-116820923D01*
X98400843Y-116965086D01*
X98287575Y-117134604D01*
X98209554Y-117322962D01*
X98204560Y-117348069D01*
X98204560Y-114637661D01*
X99563384Y-113278838D01*
X99570000Y-113273408D01*
X99570001Y-116655863D01*
X99570001Y-116655863D01*
G37*
X99570001Y-116655863D02*
X99506678Y-116629634D01*
X99306719Y-116589860D01*
X99102841Y-116589860D01*
X98902882Y-116629634D01*
X98714524Y-116707655D01*
X98545006Y-116820923D01*
X98400843Y-116965086D01*
X98287575Y-117134604D01*
X98209554Y-117322962D01*
X98204560Y-117348069D01*
X98204560Y-114637661D01*
X99563384Y-113278838D01*
X99570000Y-113273408D01*
X99570001Y-116655863D01*
G36*
X91587000Y-113157000D02*
G01*
X91567000Y-113157000D01*
X91567000Y-113172017D01*
X91495752Y-113165000D01*
X91384248Y-113165000D01*
X91313000Y-113172017D01*
X91313000Y-113157000D01*
X91293000Y-113157000D01*
X91293000Y-113055000D01*
X91587000Y-113055000D01*
X91587000Y-113157000D01*
X91587000Y-113157000D01*
G37*
X91587000Y-113157000D02*
X91567000Y-113157000D01*
X91567000Y-113172017D01*
X91495752Y-113165000D01*
X91384248Y-113165000D01*
X91313000Y-113172017D01*
X91313000Y-113157000D01*
X91293000Y-113157000D01*
X91293000Y-113055000D01*
X91587000Y-113055000D01*
X91587000Y-113157000D01*
M02*
