G04 #@! TF.GenerationSoftware,KiCad,Pcbnew,(5.1.4)-1*
G04 #@! TF.CreationDate,2022-06-06T11:17:32+02:00*
G04 #@! TF.ProjectId,UP1-Progger,5550312d-5072-46f6-9767-65722e6b6963,V00.10*
G04 #@! TF.SameCoordinates,Original*
G04 #@! TF.FileFunction,Legend,Bot*
G04 #@! TF.FilePolarity,Positive*
%FSLAX46Y46*%
G04 Gerber Fmt 4.6, Leading zero omitted, Abs format (unit mm)*
G04 Created by KiCad (PCBNEW (5.1.4)-1) date 2022-06-06 11:17:32*
%MOMM*%
%LPD*%
G04 APERTURE LIST*
%ADD10C,0.150000*%
%ADD11C,0.010000*%
%ADD12C,0.120000*%
G04 APERTURE END LIST*
D10*
X117545714Y-126769761D02*
X117402857Y-126817380D01*
X117164761Y-126817380D01*
X117069523Y-126769761D01*
X117021904Y-126722142D01*
X116974285Y-126626904D01*
X116974285Y-126531666D01*
X117021904Y-126436428D01*
X117069523Y-126388809D01*
X117164761Y-126341190D01*
X117355238Y-126293571D01*
X117450476Y-126245952D01*
X117498095Y-126198333D01*
X117545714Y-126103095D01*
X117545714Y-126007857D01*
X117498095Y-125912619D01*
X117450476Y-125865000D01*
X117355238Y-125817380D01*
X117117142Y-125817380D01*
X116974285Y-125865000D01*
X116545714Y-126817380D02*
X116545714Y-126150714D01*
X116545714Y-125817380D02*
X116593333Y-125865000D01*
X116545714Y-125912619D01*
X116498095Y-125865000D01*
X116545714Y-125817380D01*
X116545714Y-125912619D01*
X116069523Y-126817380D02*
X116069523Y-126150714D01*
X116069523Y-126341190D02*
X116021904Y-126245952D01*
X115974285Y-126198333D01*
X115879047Y-126150714D01*
X115783809Y-126150714D01*
X115498095Y-126769761D02*
X115355238Y-126817380D01*
X115117142Y-126817380D01*
X115021904Y-126769761D01*
X114974285Y-126722142D01*
X114926666Y-126626904D01*
X114926666Y-126531666D01*
X114974285Y-126436428D01*
X115021904Y-126388809D01*
X115117142Y-126341190D01*
X115307619Y-126293571D01*
X115402857Y-126245952D01*
X115450476Y-126198333D01*
X115498095Y-126103095D01*
X115498095Y-126007857D01*
X115450476Y-125912619D01*
X115402857Y-125865000D01*
X115307619Y-125817380D01*
X115069523Y-125817380D01*
X114926666Y-125865000D01*
X114593333Y-126150714D02*
X114355238Y-126817380D01*
X114117142Y-126150714D02*
X114355238Y-126817380D01*
X114450476Y-127055476D01*
X114498095Y-127103095D01*
X114593333Y-127150714D01*
X113307619Y-126817380D02*
X113307619Y-125817380D01*
X113307619Y-126769761D02*
X113402857Y-126817380D01*
X113593333Y-126817380D01*
X113688571Y-126769761D01*
X113736190Y-126722142D01*
X113783809Y-126626904D01*
X113783809Y-126341190D01*
X113736190Y-126245952D01*
X113688571Y-126198333D01*
X113593333Y-126150714D01*
X113402857Y-126150714D01*
X113307619Y-126198333D01*
X112688571Y-126817380D02*
X112783809Y-126769761D01*
X112831428Y-126722142D01*
X112879047Y-126626904D01*
X112879047Y-126341190D01*
X112831428Y-126245952D01*
X112783809Y-126198333D01*
X112688571Y-126150714D01*
X112545714Y-126150714D01*
X112450476Y-126198333D01*
X112402857Y-126245952D01*
X112355238Y-126341190D01*
X112355238Y-126626904D01*
X112402857Y-126722142D01*
X112450476Y-126769761D01*
X112545714Y-126817380D01*
X112688571Y-126817380D01*
X111926666Y-126817380D02*
X111926666Y-126150714D01*
X111926666Y-126245952D02*
X111879047Y-126198333D01*
X111783809Y-126150714D01*
X111640952Y-126150714D01*
X111545714Y-126198333D01*
X111498095Y-126293571D01*
X111498095Y-126817380D01*
X111498095Y-126293571D02*
X111450476Y-126198333D01*
X111355238Y-126150714D01*
X111212380Y-126150714D01*
X111117142Y-126198333D01*
X111069523Y-126293571D01*
X111069523Y-126817380D01*
X110545714Y-126769761D02*
X110545714Y-126817380D01*
X110593333Y-126912619D01*
X110640952Y-126960238D01*
X109402857Y-125912619D02*
X109355238Y-125865000D01*
X109260000Y-125817380D01*
X109021904Y-125817380D01*
X108926666Y-125865000D01*
X108879047Y-125912619D01*
X108831428Y-126007857D01*
X108831428Y-126103095D01*
X108879047Y-126245952D01*
X109450476Y-126817380D01*
X108831428Y-126817380D01*
X108212380Y-125817380D02*
X108117142Y-125817380D01*
X108021904Y-125865000D01*
X107974285Y-125912619D01*
X107926666Y-126007857D01*
X107879047Y-126198333D01*
X107879047Y-126436428D01*
X107926666Y-126626904D01*
X107974285Y-126722142D01*
X108021904Y-126769761D01*
X108117142Y-126817380D01*
X108212380Y-126817380D01*
X108307619Y-126769761D01*
X108355238Y-126722142D01*
X108402857Y-126626904D01*
X108450476Y-126436428D01*
X108450476Y-126198333D01*
X108402857Y-126007857D01*
X108355238Y-125912619D01*
X108307619Y-125865000D01*
X108212380Y-125817380D01*
X107498095Y-125912619D02*
X107450476Y-125865000D01*
X107355238Y-125817380D01*
X107117142Y-125817380D01*
X107021904Y-125865000D01*
X106974285Y-125912619D01*
X106926666Y-126007857D01*
X106926666Y-126103095D01*
X106974285Y-126245952D01*
X107545714Y-126817380D01*
X106926666Y-126817380D01*
X106545714Y-125912619D02*
X106498095Y-125865000D01*
X106402857Y-125817380D01*
X106164761Y-125817380D01*
X106069523Y-125865000D01*
X106021904Y-125912619D01*
X105974285Y-126007857D01*
X105974285Y-126103095D01*
X106021904Y-126245952D01*
X106593333Y-126817380D01*
X105974285Y-126817380D01*
X106616190Y-122642380D02*
X106282857Y-123642380D01*
X105949523Y-122642380D01*
X105425714Y-122642380D02*
X105330476Y-122642380D01*
X105235238Y-122690000D01*
X105187619Y-122737619D01*
X105140000Y-122832857D01*
X105092380Y-123023333D01*
X105092380Y-123261428D01*
X105140000Y-123451904D01*
X105187619Y-123547142D01*
X105235238Y-123594761D01*
X105330476Y-123642380D01*
X105425714Y-123642380D01*
X105520952Y-123594761D01*
X105568571Y-123547142D01*
X105616190Y-123451904D01*
X105663809Y-123261428D01*
X105663809Y-123023333D01*
X105616190Y-122832857D01*
X105568571Y-122737619D01*
X105520952Y-122690000D01*
X105425714Y-122642380D01*
X104473333Y-122642380D02*
X104378095Y-122642380D01*
X104282857Y-122690000D01*
X104235238Y-122737619D01*
X104187619Y-122832857D01*
X104140000Y-123023333D01*
X104140000Y-123261428D01*
X104187619Y-123451904D01*
X104235238Y-123547142D01*
X104282857Y-123594761D01*
X104378095Y-123642380D01*
X104473333Y-123642380D01*
X104568571Y-123594761D01*
X104616190Y-123547142D01*
X104663809Y-123451904D01*
X104711428Y-123261428D01*
X104711428Y-123023333D01*
X104663809Y-122832857D01*
X104616190Y-122737619D01*
X104568571Y-122690000D01*
X104473333Y-122642380D01*
X103711428Y-123547142D02*
X103663809Y-123594761D01*
X103711428Y-123642380D01*
X103759047Y-123594761D01*
X103711428Y-123547142D01*
X103711428Y-123642380D01*
X103282857Y-122737619D02*
X103235238Y-122690000D01*
X103140000Y-122642380D01*
X102901904Y-122642380D01*
X102806666Y-122690000D01*
X102759047Y-122737619D01*
X102711428Y-122832857D01*
X102711428Y-122928095D01*
X102759047Y-123070952D01*
X103330476Y-123642380D01*
X102711428Y-123642380D01*
X102092380Y-122642380D02*
X101997142Y-122642380D01*
X101901904Y-122690000D01*
X101854285Y-122737619D01*
X101806666Y-122832857D01*
X101759047Y-123023333D01*
X101759047Y-123261428D01*
X101806666Y-123451904D01*
X101854285Y-123547142D01*
X101901904Y-123594761D01*
X101997142Y-123642380D01*
X102092380Y-123642380D01*
X102187619Y-123594761D01*
X102235238Y-123547142D01*
X102282857Y-123451904D01*
X102330476Y-123261428D01*
X102330476Y-123023333D01*
X102282857Y-122832857D01*
X102235238Y-122737619D01*
X102187619Y-122690000D01*
X102092380Y-122642380D01*
X117774404Y-122642380D02*
X117774404Y-123451904D01*
X117726785Y-123547142D01*
X117679166Y-123594761D01*
X117583928Y-123642380D01*
X117393452Y-123642380D01*
X117298214Y-123594761D01*
X117250595Y-123547142D01*
X117202976Y-123451904D01*
X117202976Y-122642380D01*
X116726785Y-123642380D02*
X116726785Y-122642380D01*
X116345833Y-122642380D01*
X116250595Y-122690000D01*
X116202976Y-122737619D01*
X116155357Y-122832857D01*
X116155357Y-122975714D01*
X116202976Y-123070952D01*
X116250595Y-123118571D01*
X116345833Y-123166190D01*
X116726785Y-123166190D01*
X115202976Y-123642380D02*
X115774404Y-123642380D01*
X115488690Y-123642380D02*
X115488690Y-122642380D01*
X115583928Y-122785238D01*
X115679166Y-122880476D01*
X115774404Y-122928095D01*
X114774404Y-123261428D02*
X114012500Y-123261428D01*
X113536309Y-123642380D02*
X113536309Y-122642380D01*
X113155357Y-122642380D01*
X113060119Y-122690000D01*
X113012500Y-122737619D01*
X112964880Y-122832857D01*
X112964880Y-122975714D01*
X113012500Y-123070952D01*
X113060119Y-123118571D01*
X113155357Y-123166190D01*
X113536309Y-123166190D01*
X112536309Y-123642380D02*
X112536309Y-122975714D01*
X112536309Y-123166190D02*
X112488690Y-123070952D01*
X112441071Y-123023333D01*
X112345833Y-122975714D01*
X112250595Y-122975714D01*
X111774404Y-123642380D02*
X111869642Y-123594761D01*
X111917261Y-123547142D01*
X111964880Y-123451904D01*
X111964880Y-123166190D01*
X111917261Y-123070952D01*
X111869642Y-123023333D01*
X111774404Y-122975714D01*
X111631547Y-122975714D01*
X111536309Y-123023333D01*
X111488690Y-123070952D01*
X111441071Y-123166190D01*
X111441071Y-123451904D01*
X111488690Y-123547142D01*
X111536309Y-123594761D01*
X111631547Y-123642380D01*
X111774404Y-123642380D01*
X110583928Y-122975714D02*
X110583928Y-123785238D01*
X110631547Y-123880476D01*
X110679166Y-123928095D01*
X110774404Y-123975714D01*
X110917261Y-123975714D01*
X111012500Y-123928095D01*
X110583928Y-123594761D02*
X110679166Y-123642380D01*
X110869642Y-123642380D01*
X110964880Y-123594761D01*
X111012500Y-123547142D01*
X111060119Y-123451904D01*
X111060119Y-123166190D01*
X111012500Y-123070952D01*
X110964880Y-123023333D01*
X110869642Y-122975714D01*
X110679166Y-122975714D01*
X110583928Y-123023333D01*
X109679166Y-122975714D02*
X109679166Y-123785238D01*
X109726785Y-123880476D01*
X109774404Y-123928095D01*
X109869642Y-123975714D01*
X110012500Y-123975714D01*
X110107738Y-123928095D01*
X109679166Y-123594761D02*
X109774404Y-123642380D01*
X109964880Y-123642380D01*
X110060119Y-123594761D01*
X110107738Y-123547142D01*
X110155357Y-123451904D01*
X110155357Y-123166190D01*
X110107738Y-123070952D01*
X110060119Y-123023333D01*
X109964880Y-122975714D01*
X109774404Y-122975714D01*
X109679166Y-123023333D01*
X108822023Y-123594761D02*
X108917261Y-123642380D01*
X109107738Y-123642380D01*
X109202976Y-123594761D01*
X109250595Y-123499523D01*
X109250595Y-123118571D01*
X109202976Y-123023333D01*
X109107738Y-122975714D01*
X108917261Y-122975714D01*
X108822023Y-123023333D01*
X108774404Y-123118571D01*
X108774404Y-123213809D01*
X109250595Y-123309047D01*
X108345833Y-123642380D02*
X108345833Y-122975714D01*
X108345833Y-123166190D02*
X108298214Y-123070952D01*
X108250595Y-123023333D01*
X108155357Y-122975714D01*
X108060119Y-122975714D01*
D11*
G36*
X101769536Y-112973540D02*
G01*
X101579110Y-113017353D01*
X101422800Y-113114623D01*
X101300013Y-113265760D01*
X101270528Y-113319851D01*
X101241382Y-113380694D01*
X101219973Y-113436416D01*
X101205110Y-113497958D01*
X101195600Y-113576260D01*
X101190250Y-113682263D01*
X101187869Y-113826907D01*
X101187264Y-114021135D01*
X101187250Y-114083983D01*
X101187250Y-114681000D01*
X101441250Y-114681000D01*
X101441428Y-114149187D01*
X101443414Y-113910166D01*
X101450267Y-113725305D01*
X101463594Y-113585346D01*
X101485004Y-113481035D01*
X101516105Y-113403113D01*
X101558504Y-113342325D01*
X101586635Y-113313392D01*
X101685395Y-113257368D01*
X101812648Y-113232917D01*
X101943437Y-113240726D01*
X102052803Y-113281483D01*
X102077299Y-113299875D01*
X102130705Y-113354865D01*
X102170748Y-113418003D01*
X102199269Y-113498904D01*
X102218106Y-113607188D01*
X102229100Y-113752473D01*
X102234091Y-113944377D01*
X102235000Y-114124355D01*
X102235000Y-114681000D01*
X102489000Y-114681000D01*
X102489000Y-112998250D01*
X102362000Y-112998250D01*
X102275258Y-113005432D01*
X102238496Y-113030205D01*
X102235000Y-113048520D01*
X102223250Y-113085769D01*
X102211188Y-113086534D01*
X102062390Y-113017132D01*
X101941599Y-112980421D01*
X101826291Y-112970638D01*
X101769536Y-112973540D01*
X101769536Y-112973540D01*
G37*
X101769536Y-112973540D02*
X101579110Y-113017353D01*
X101422800Y-113114623D01*
X101300013Y-113265760D01*
X101270528Y-113319851D01*
X101241382Y-113380694D01*
X101219973Y-113436416D01*
X101205110Y-113497958D01*
X101195600Y-113576260D01*
X101190250Y-113682263D01*
X101187869Y-113826907D01*
X101187264Y-114021135D01*
X101187250Y-114083983D01*
X101187250Y-114681000D01*
X101441250Y-114681000D01*
X101441428Y-114149187D01*
X101443414Y-113910166D01*
X101450267Y-113725305D01*
X101463594Y-113585346D01*
X101485004Y-113481035D01*
X101516105Y-113403113D01*
X101558504Y-113342325D01*
X101586635Y-113313392D01*
X101685395Y-113257368D01*
X101812648Y-113232917D01*
X101943437Y-113240726D01*
X102052803Y-113281483D01*
X102077299Y-113299875D01*
X102130705Y-113354865D01*
X102170748Y-113418003D01*
X102199269Y-113498904D01*
X102218106Y-113607188D01*
X102229100Y-113752473D01*
X102234091Y-113944377D01*
X102235000Y-114124355D01*
X102235000Y-114681000D01*
X102489000Y-114681000D01*
X102489000Y-112998250D01*
X102362000Y-112998250D01*
X102275258Y-113005432D01*
X102238496Y-113030205D01*
X102235000Y-113048520D01*
X102223250Y-113085769D01*
X102211188Y-113086534D01*
X102062390Y-113017132D01*
X101941599Y-112980421D01*
X101826291Y-112970638D01*
X101769536Y-112973540D01*
G36*
X103614061Y-112998383D02*
G01*
X103424168Y-113076596D01*
X103257212Y-113193497D01*
X103122569Y-113343876D01*
X103029616Y-113522518D01*
X102987729Y-113724212D01*
X102987009Y-113737721D01*
X102981125Y-113871375D01*
X103723163Y-113879907D01*
X104465200Y-113888439D01*
X104444707Y-113990903D01*
X104398074Y-114107120D01*
X104312326Y-114228828D01*
X104205174Y-114333181D01*
X104149752Y-114371334D01*
X104056955Y-114410947D01*
X103942339Y-114441333D01*
X103910397Y-114446629D01*
X103756921Y-114441778D01*
X103598974Y-114394058D01*
X103457700Y-114313010D01*
X103354242Y-114208176D01*
X103343067Y-114190609D01*
X103293355Y-114118560D01*
X103240112Y-114086062D01*
X103155626Y-114077835D01*
X103138391Y-114077750D01*
X103000304Y-114077750D01*
X103036273Y-114180937D01*
X103097205Y-114290982D01*
X103198856Y-114410698D01*
X103323913Y-114523979D01*
X103455065Y-114614714D01*
X103550613Y-114659527D01*
X103755912Y-114704060D01*
X103961700Y-114703184D01*
X104111988Y-114668916D01*
X104335093Y-114560825D01*
X104507613Y-114414966D01*
X104628272Y-114233118D01*
X104695797Y-114017058D01*
X104710803Y-113832707D01*
X104686449Y-113633250D01*
X104427381Y-113633250D01*
X103855066Y-113633250D01*
X103672366Y-113631828D01*
X103513788Y-113627877D01*
X103389342Y-113621872D01*
X103309040Y-113614284D01*
X103282750Y-113606195D01*
X103306862Y-113540542D01*
X103369009Y-113457250D01*
X103453911Y-113373169D01*
X103546289Y-113305152D01*
X103565557Y-113294302D01*
X103741843Y-113234476D01*
X103923206Y-113230945D01*
X104096487Y-113279653D01*
X104248526Y-113376543D01*
X104366167Y-113517561D01*
X104381958Y-113545937D01*
X104427381Y-113633250D01*
X104686449Y-113633250D01*
X104681635Y-113593827D01*
X104597155Y-113384945D01*
X104459441Y-113209436D01*
X104270572Y-113070676D01*
X104227602Y-113048010D01*
X104025154Y-112978878D01*
X103817515Y-112964073D01*
X103614061Y-112998383D01*
X103614061Y-112998383D01*
G37*
X103614061Y-112998383D02*
X103424168Y-113076596D01*
X103257212Y-113193497D01*
X103122569Y-113343876D01*
X103029616Y-113522518D01*
X102987729Y-113724212D01*
X102987009Y-113737721D01*
X102981125Y-113871375D01*
X103723163Y-113879907D01*
X104465200Y-113888439D01*
X104444707Y-113990903D01*
X104398074Y-114107120D01*
X104312326Y-114228828D01*
X104205174Y-114333181D01*
X104149752Y-114371334D01*
X104056955Y-114410947D01*
X103942339Y-114441333D01*
X103910397Y-114446629D01*
X103756921Y-114441778D01*
X103598974Y-114394058D01*
X103457700Y-114313010D01*
X103354242Y-114208176D01*
X103343067Y-114190609D01*
X103293355Y-114118560D01*
X103240112Y-114086062D01*
X103155626Y-114077835D01*
X103138391Y-114077750D01*
X103000304Y-114077750D01*
X103036273Y-114180937D01*
X103097205Y-114290982D01*
X103198856Y-114410698D01*
X103323913Y-114523979D01*
X103455065Y-114614714D01*
X103550613Y-114659527D01*
X103755912Y-114704060D01*
X103961700Y-114703184D01*
X104111988Y-114668916D01*
X104335093Y-114560825D01*
X104507613Y-114414966D01*
X104628272Y-114233118D01*
X104695797Y-114017058D01*
X104710803Y-113832707D01*
X104686449Y-113633250D01*
X104427381Y-113633250D01*
X103855066Y-113633250D01*
X103672366Y-113631828D01*
X103513788Y-113627877D01*
X103389342Y-113621872D01*
X103309040Y-113614284D01*
X103282750Y-113606195D01*
X103306862Y-113540542D01*
X103369009Y-113457250D01*
X103453911Y-113373169D01*
X103546289Y-113305152D01*
X103565557Y-113294302D01*
X103741843Y-113234476D01*
X103923206Y-113230945D01*
X104096487Y-113279653D01*
X104248526Y-113376543D01*
X104366167Y-113517561D01*
X104381958Y-113545937D01*
X104427381Y-113633250D01*
X104686449Y-113633250D01*
X104681635Y-113593827D01*
X104597155Y-113384945D01*
X104459441Y-113209436D01*
X104270572Y-113070676D01*
X104227602Y-113048010D01*
X104025154Y-112978878D01*
X103817515Y-112964073D01*
X103614061Y-112998383D01*
G36*
X108526791Y-112125224D02*
G01*
X108291603Y-112176585D01*
X108068189Y-112273230D01*
X107863602Y-112416260D01*
X107684896Y-112606775D01*
X107545897Y-112831989D01*
X107492217Y-112943722D01*
X107457566Y-113030973D01*
X107437788Y-113113841D01*
X107428726Y-113212422D01*
X107426222Y-113346814D01*
X107426125Y-113410999D01*
X107427234Y-113564135D01*
X107433332Y-113673874D01*
X107448576Y-113760312D01*
X107477124Y-113843547D01*
X107523133Y-113943677D01*
X107545897Y-113990010D01*
X107697459Y-114228769D01*
X107890575Y-114424001D01*
X108117330Y-114571989D01*
X108369807Y-114669016D01*
X108640088Y-114711364D01*
X108920259Y-114695316D01*
X109009887Y-114677434D01*
X109257827Y-114588292D01*
X109480019Y-114448330D01*
X109670535Y-114266447D01*
X109823445Y-114051545D01*
X109932821Y-113812524D01*
X109992733Y-113558283D01*
X109996590Y-113335919D01*
X109727168Y-113335919D01*
X109717267Y-113569464D01*
X109663442Y-113771666D01*
X109553445Y-113981537D01*
X109396986Y-114161727D01*
X109205626Y-114302899D01*
X108990929Y-114395714D01*
X108855193Y-114424375D01*
X108682594Y-114431215D01*
X108500695Y-114413578D01*
X108336640Y-114375165D01*
X108256078Y-114342684D01*
X108051980Y-114206842D01*
X107886843Y-114031481D01*
X107765404Y-113826900D01*
X107692401Y-113603398D01*
X107672573Y-113371276D01*
X107707731Y-113150684D01*
X107800050Y-112929553D01*
X107936318Y-112733626D01*
X108106212Y-112573690D01*
X108299405Y-112460530D01*
X108402827Y-112424507D01*
X108650083Y-112386896D01*
X108885723Y-112405118D01*
X109103881Y-112472903D01*
X109298693Y-112583985D01*
X109464293Y-112732096D01*
X109594816Y-112910967D01*
X109684396Y-113114331D01*
X109727168Y-113335919D01*
X109996590Y-113335919D01*
X109997253Y-113297724D01*
X109985700Y-113212562D01*
X109910256Y-112941254D01*
X109790156Y-112706428D01*
X109632454Y-112509185D01*
X109444204Y-112350626D01*
X109232458Y-112231850D01*
X109004272Y-112153957D01*
X108766698Y-112118049D01*
X108526791Y-112125224D01*
X108526791Y-112125224D01*
G37*
X108526791Y-112125224D02*
X108291603Y-112176585D01*
X108068189Y-112273230D01*
X107863602Y-112416260D01*
X107684896Y-112606775D01*
X107545897Y-112831989D01*
X107492217Y-112943722D01*
X107457566Y-113030973D01*
X107437788Y-113113841D01*
X107428726Y-113212422D01*
X107426222Y-113346814D01*
X107426125Y-113410999D01*
X107427234Y-113564135D01*
X107433332Y-113673874D01*
X107448576Y-113760312D01*
X107477124Y-113843547D01*
X107523133Y-113943677D01*
X107545897Y-113990010D01*
X107697459Y-114228769D01*
X107890575Y-114424001D01*
X108117330Y-114571989D01*
X108369807Y-114669016D01*
X108640088Y-114711364D01*
X108920259Y-114695316D01*
X109009887Y-114677434D01*
X109257827Y-114588292D01*
X109480019Y-114448330D01*
X109670535Y-114266447D01*
X109823445Y-114051545D01*
X109932821Y-113812524D01*
X109992733Y-113558283D01*
X109996590Y-113335919D01*
X109727168Y-113335919D01*
X109717267Y-113569464D01*
X109663442Y-113771666D01*
X109553445Y-113981537D01*
X109396986Y-114161727D01*
X109205626Y-114302899D01*
X108990929Y-114395714D01*
X108855193Y-114424375D01*
X108682594Y-114431215D01*
X108500695Y-114413578D01*
X108336640Y-114375165D01*
X108256078Y-114342684D01*
X108051980Y-114206842D01*
X107886843Y-114031481D01*
X107765404Y-113826900D01*
X107692401Y-113603398D01*
X107672573Y-113371276D01*
X107707731Y-113150684D01*
X107800050Y-112929553D01*
X107936318Y-112733626D01*
X108106212Y-112573690D01*
X108299405Y-112460530D01*
X108402827Y-112424507D01*
X108650083Y-112386896D01*
X108885723Y-112405118D01*
X109103881Y-112472903D01*
X109298693Y-112583985D01*
X109464293Y-112732096D01*
X109594816Y-112910967D01*
X109684396Y-113114331D01*
X109727168Y-113335919D01*
X109996590Y-113335919D01*
X109997253Y-113297724D01*
X109985700Y-113212562D01*
X109910256Y-112941254D01*
X109790156Y-112706428D01*
X109632454Y-112509185D01*
X109444204Y-112350626D01*
X109232458Y-112231850D01*
X109004272Y-112153957D01*
X108766698Y-112118049D01*
X108526791Y-112125224D01*
G36*
X98555248Y-112000051D02*
G01*
X98509752Y-112058858D01*
X98490152Y-112166776D01*
X98488500Y-112226725D01*
X98486254Y-112324447D01*
X98474543Y-112374511D01*
X98445909Y-112392727D01*
X98409125Y-112395000D01*
X98360406Y-112389191D01*
X98337152Y-112360493D01*
X98330105Y-112291999D01*
X98329750Y-112250037D01*
X98316143Y-112107118D01*
X98276265Y-112016933D01*
X98211536Y-111982510D01*
X98204230Y-111982250D01*
X98119406Y-111990718D01*
X98070663Y-112024740D01*
X98048661Y-112097237D01*
X98044000Y-112203928D01*
X98042339Y-112307198D01*
X98031694Y-112363964D01*
X98003576Y-112391219D01*
X97949492Y-112405957D01*
X97942339Y-112407394D01*
X97810857Y-112463620D01*
X97717105Y-112566053D01*
X97674218Y-112686848D01*
X97654885Y-112807750D01*
X97490668Y-112807750D01*
X97361553Y-112818551D01*
X97284799Y-112854082D01*
X97252510Y-112919036D01*
X97250250Y-112950625D01*
X97268052Y-113026752D01*
X97326859Y-113072248D01*
X97434777Y-113091848D01*
X97494725Y-113093500D01*
X97592448Y-113095746D01*
X97642512Y-113107457D01*
X97660728Y-113136091D01*
X97663000Y-113172875D01*
X97657192Y-113221594D01*
X97628494Y-113244848D01*
X97560000Y-113251895D01*
X97518038Y-113252250D01*
X97373419Y-113266000D01*
X97284776Y-113307720D01*
X97250737Y-113378117D01*
X97250250Y-113389892D01*
X97266965Y-113468316D01*
X97322916Y-113515215D01*
X97426810Y-113535863D01*
X97494725Y-113538000D01*
X97592448Y-113540246D01*
X97642512Y-113551957D01*
X97660728Y-113580591D01*
X97663000Y-113617375D01*
X97658238Y-113663470D01*
X97633410Y-113687085D01*
X97572706Y-113695678D01*
X97494725Y-113696750D01*
X97364463Y-113707153D01*
X97286614Y-113741521D01*
X97253076Y-113804589D01*
X97250250Y-113839624D01*
X97268052Y-113915752D01*
X97326859Y-113961248D01*
X97434777Y-113980848D01*
X97494725Y-113982500D01*
X97592573Y-113984892D01*
X97642709Y-113996775D01*
X97660875Y-114025205D01*
X97663000Y-114057943D01*
X97656993Y-114101547D01*
X97628820Y-114126496D01*
X97563252Y-114140524D01*
X97485453Y-114148110D01*
X97361141Y-114167076D01*
X97288317Y-114204056D01*
X97255704Y-114267437D01*
X97250737Y-114322695D01*
X97277968Y-114396686D01*
X97361164Y-114441928D01*
X97500749Y-114458638D01*
X97515899Y-114458750D01*
X97607959Y-114463858D01*
X97656312Y-114484789D01*
X97680313Y-114529948D01*
X97680385Y-114530187D01*
X97745862Y-114647224D01*
X97851738Y-114732629D01*
X97937953Y-114763422D01*
X97997841Y-114777396D01*
X98029456Y-114801799D01*
X98041831Y-114853711D01*
X98043997Y-114950211D01*
X98044000Y-114963933D01*
X98054015Y-115099895D01*
X98086445Y-115182228D01*
X98144868Y-115217942D01*
X98175083Y-115220750D01*
X98257903Y-115193172D01*
X98309350Y-115110423D01*
X98329439Y-114972477D01*
X98329750Y-114948607D01*
X98331875Y-114849408D01*
X98343048Y-114798049D01*
X98370470Y-114778893D01*
X98409125Y-114776250D01*
X98453685Y-114780471D01*
X98477412Y-114803239D01*
X98486840Y-114859707D01*
X98488500Y-114960400D01*
X98498210Y-115097295D01*
X98529756Y-115180559D01*
X98586764Y-115217392D01*
X98619583Y-115220750D01*
X98702403Y-115193172D01*
X98753850Y-115110423D01*
X98773939Y-114972477D01*
X98774250Y-114948607D01*
X98776375Y-114849408D01*
X98787548Y-114798049D01*
X98814970Y-114778893D01*
X98853625Y-114776250D01*
X98897557Y-114780264D01*
X98921309Y-114802230D01*
X98931063Y-114857033D01*
X98932998Y-114959559D01*
X98933000Y-114967430D01*
X98935530Y-115075615D01*
X98947443Y-115138470D01*
X98975222Y-115174098D01*
X99014841Y-115195900D01*
X99100193Y-115218702D01*
X99158925Y-115193114D01*
X99194886Y-115114756D01*
X99211927Y-114979253D01*
X99212328Y-114971386D01*
X99219369Y-114864083D01*
X99231636Y-114805583D01*
X99255702Y-114781200D01*
X99298135Y-114776251D01*
X99299641Y-114776250D01*
X99344733Y-114781168D01*
X99367922Y-114806408D01*
X99376423Y-114867694D01*
X99377500Y-114945954D01*
X99385704Y-115066682D01*
X99413187Y-115142196D01*
X99435563Y-115168204D01*
X99519622Y-115215907D01*
X99595834Y-115200749D01*
X99645575Y-115150185D01*
X99676490Y-115074055D01*
X99693672Y-114968968D01*
X99695000Y-114932961D01*
X99698143Y-114842488D01*
X99717229Y-114793949D01*
X99766751Y-114765793D01*
X99818496Y-114749301D01*
X99926582Y-114694832D01*
X100007051Y-114612867D01*
X100043572Y-114520896D01*
X100044250Y-114507492D01*
X100060186Y-114477040D01*
X100116265Y-114462099D01*
X100203000Y-114458750D01*
X100326691Y-114442555D01*
X100424033Y-114399374D01*
X100480440Y-114337312D01*
X100488750Y-114300000D01*
X100459575Y-114231061D01*
X100381556Y-114177059D01*
X100268956Y-114145856D01*
X100200792Y-114141250D01*
X100106186Y-114138819D01*
X100060091Y-114126811D01*
X100047567Y-114098147D01*
X100049980Y-114069812D01*
X100063014Y-114028707D01*
X100097838Y-114005527D01*
X100170311Y-113993600D01*
X100242415Y-113988861D01*
X100354720Y-113978071D01*
X100420641Y-113956600D01*
X100457104Y-113918699D01*
X100458984Y-113915294D01*
X100475349Y-113849526D01*
X100444560Y-113776933D01*
X100442650Y-113773995D01*
X100403609Y-113728386D01*
X100350226Y-113705130D01*
X100261883Y-113697204D01*
X100215935Y-113696750D01*
X100115739Y-113694737D01*
X100064570Y-113684556D01*
X100047985Y-113659987D01*
X100049980Y-113625312D01*
X100063014Y-113584207D01*
X100097838Y-113561027D01*
X100170311Y-113549100D01*
X100242415Y-113544361D01*
X100354720Y-113533571D01*
X100420641Y-113512100D01*
X100457104Y-113474199D01*
X100458984Y-113470794D01*
X100475349Y-113405026D01*
X100444560Y-113332433D01*
X100442650Y-113329495D01*
X100403235Y-113283613D01*
X100349210Y-113260377D01*
X100259763Y-113252629D01*
X100218144Y-113252250D01*
X100118394Y-113250169D01*
X100066550Y-113239189D01*
X100047040Y-113212202D01*
X100044250Y-113172875D01*
X100049106Y-113126597D01*
X100074257Y-113102923D01*
X100135582Y-113094246D01*
X100210938Y-113093013D01*
X100353131Y-113080767D01*
X100439075Y-113043208D01*
X100471868Y-112977610D01*
X100454611Y-112881244D01*
X100453852Y-112879187D01*
X100431634Y-112839037D01*
X100391807Y-112817475D01*
X100317409Y-112808944D01*
X100235774Y-112807750D01*
X100044250Y-112807750D01*
X100044250Y-112701261D01*
X100015214Y-112584826D01*
X99938806Y-112484018D01*
X99831082Y-112417550D01*
X99791208Y-112406304D01*
X99733195Y-112389995D01*
X99704907Y-112359010D01*
X99695737Y-112294415D01*
X99695000Y-112234549D01*
X99677984Y-112099178D01*
X99626115Y-112015909D01*
X99538160Y-111982971D01*
X99519225Y-111982250D01*
X99443433Y-112007309D01*
X99396854Y-112084298D01*
X99378054Y-112215927D01*
X99377500Y-112250037D01*
X99373469Y-112340117D01*
X99356677Y-112383043D01*
X99320078Y-112394900D01*
X99314000Y-112395000D01*
X99275699Y-112386515D01*
X99256728Y-112350605D01*
X99250725Y-112271587D01*
X99250500Y-112238517D01*
X99234173Y-112101995D01*
X99184052Y-112017780D01*
X99098429Y-111983380D01*
X99074725Y-111982250D01*
X98998933Y-112007309D01*
X98952354Y-112084298D01*
X98933554Y-112215927D01*
X98933000Y-112250037D01*
X98929820Y-112339014D01*
X98914106Y-112381483D01*
X98876602Y-112394352D01*
X98853625Y-112395000D01*
X98807530Y-112390237D01*
X98783915Y-112365409D01*
X98775322Y-112304705D01*
X98774250Y-112226725D01*
X98763847Y-112096462D01*
X98729479Y-112018613D01*
X98666411Y-111985075D01*
X98631375Y-111982249D01*
X98555248Y-112000051D01*
X98555248Y-112000051D01*
G37*
X98555248Y-112000051D02*
X98509752Y-112058858D01*
X98490152Y-112166776D01*
X98488500Y-112226725D01*
X98486254Y-112324447D01*
X98474543Y-112374511D01*
X98445909Y-112392727D01*
X98409125Y-112395000D01*
X98360406Y-112389191D01*
X98337152Y-112360493D01*
X98330105Y-112291999D01*
X98329750Y-112250037D01*
X98316143Y-112107118D01*
X98276265Y-112016933D01*
X98211536Y-111982510D01*
X98204230Y-111982250D01*
X98119406Y-111990718D01*
X98070663Y-112024740D01*
X98048661Y-112097237D01*
X98044000Y-112203928D01*
X98042339Y-112307198D01*
X98031694Y-112363964D01*
X98003576Y-112391219D01*
X97949492Y-112405957D01*
X97942339Y-112407394D01*
X97810857Y-112463620D01*
X97717105Y-112566053D01*
X97674218Y-112686848D01*
X97654885Y-112807750D01*
X97490668Y-112807750D01*
X97361553Y-112818551D01*
X97284799Y-112854082D01*
X97252510Y-112919036D01*
X97250250Y-112950625D01*
X97268052Y-113026752D01*
X97326859Y-113072248D01*
X97434777Y-113091848D01*
X97494725Y-113093500D01*
X97592448Y-113095746D01*
X97642512Y-113107457D01*
X97660728Y-113136091D01*
X97663000Y-113172875D01*
X97657192Y-113221594D01*
X97628494Y-113244848D01*
X97560000Y-113251895D01*
X97518038Y-113252250D01*
X97373419Y-113266000D01*
X97284776Y-113307720D01*
X97250737Y-113378117D01*
X97250250Y-113389892D01*
X97266965Y-113468316D01*
X97322916Y-113515215D01*
X97426810Y-113535863D01*
X97494725Y-113538000D01*
X97592448Y-113540246D01*
X97642512Y-113551957D01*
X97660728Y-113580591D01*
X97663000Y-113617375D01*
X97658238Y-113663470D01*
X97633410Y-113687085D01*
X97572706Y-113695678D01*
X97494725Y-113696750D01*
X97364463Y-113707153D01*
X97286614Y-113741521D01*
X97253076Y-113804589D01*
X97250250Y-113839624D01*
X97268052Y-113915752D01*
X97326859Y-113961248D01*
X97434777Y-113980848D01*
X97494725Y-113982500D01*
X97592573Y-113984892D01*
X97642709Y-113996775D01*
X97660875Y-114025205D01*
X97663000Y-114057943D01*
X97656993Y-114101547D01*
X97628820Y-114126496D01*
X97563252Y-114140524D01*
X97485453Y-114148110D01*
X97361141Y-114167076D01*
X97288317Y-114204056D01*
X97255704Y-114267437D01*
X97250737Y-114322695D01*
X97277968Y-114396686D01*
X97361164Y-114441928D01*
X97500749Y-114458638D01*
X97515899Y-114458750D01*
X97607959Y-114463858D01*
X97656312Y-114484789D01*
X97680313Y-114529948D01*
X97680385Y-114530187D01*
X97745862Y-114647224D01*
X97851738Y-114732629D01*
X97937953Y-114763422D01*
X97997841Y-114777396D01*
X98029456Y-114801799D01*
X98041831Y-114853711D01*
X98043997Y-114950211D01*
X98044000Y-114963933D01*
X98054015Y-115099895D01*
X98086445Y-115182228D01*
X98144868Y-115217942D01*
X98175083Y-115220750D01*
X98257903Y-115193172D01*
X98309350Y-115110423D01*
X98329439Y-114972477D01*
X98329750Y-114948607D01*
X98331875Y-114849408D01*
X98343048Y-114798049D01*
X98370470Y-114778893D01*
X98409125Y-114776250D01*
X98453685Y-114780471D01*
X98477412Y-114803239D01*
X98486840Y-114859707D01*
X98488500Y-114960400D01*
X98498210Y-115097295D01*
X98529756Y-115180559D01*
X98586764Y-115217392D01*
X98619583Y-115220750D01*
X98702403Y-115193172D01*
X98753850Y-115110423D01*
X98773939Y-114972477D01*
X98774250Y-114948607D01*
X98776375Y-114849408D01*
X98787548Y-114798049D01*
X98814970Y-114778893D01*
X98853625Y-114776250D01*
X98897557Y-114780264D01*
X98921309Y-114802230D01*
X98931063Y-114857033D01*
X98932998Y-114959559D01*
X98933000Y-114967430D01*
X98935530Y-115075615D01*
X98947443Y-115138470D01*
X98975222Y-115174098D01*
X99014841Y-115195900D01*
X99100193Y-115218702D01*
X99158925Y-115193114D01*
X99194886Y-115114756D01*
X99211927Y-114979253D01*
X99212328Y-114971386D01*
X99219369Y-114864083D01*
X99231636Y-114805583D01*
X99255702Y-114781200D01*
X99298135Y-114776251D01*
X99299641Y-114776250D01*
X99344733Y-114781168D01*
X99367922Y-114806408D01*
X99376423Y-114867694D01*
X99377500Y-114945954D01*
X99385704Y-115066682D01*
X99413187Y-115142196D01*
X99435563Y-115168204D01*
X99519622Y-115215907D01*
X99595834Y-115200749D01*
X99645575Y-115150185D01*
X99676490Y-115074055D01*
X99693672Y-114968968D01*
X99695000Y-114932961D01*
X99698143Y-114842488D01*
X99717229Y-114793949D01*
X99766751Y-114765793D01*
X99818496Y-114749301D01*
X99926582Y-114694832D01*
X100007051Y-114612867D01*
X100043572Y-114520896D01*
X100044250Y-114507492D01*
X100060186Y-114477040D01*
X100116265Y-114462099D01*
X100203000Y-114458750D01*
X100326691Y-114442555D01*
X100424033Y-114399374D01*
X100480440Y-114337312D01*
X100488750Y-114300000D01*
X100459575Y-114231061D01*
X100381556Y-114177059D01*
X100268956Y-114145856D01*
X100200792Y-114141250D01*
X100106186Y-114138819D01*
X100060091Y-114126811D01*
X100047567Y-114098147D01*
X100049980Y-114069812D01*
X100063014Y-114028707D01*
X100097838Y-114005527D01*
X100170311Y-113993600D01*
X100242415Y-113988861D01*
X100354720Y-113978071D01*
X100420641Y-113956600D01*
X100457104Y-113918699D01*
X100458984Y-113915294D01*
X100475349Y-113849526D01*
X100444560Y-113776933D01*
X100442650Y-113773995D01*
X100403609Y-113728386D01*
X100350226Y-113705130D01*
X100261883Y-113697204D01*
X100215935Y-113696750D01*
X100115739Y-113694737D01*
X100064570Y-113684556D01*
X100047985Y-113659987D01*
X100049980Y-113625312D01*
X100063014Y-113584207D01*
X100097838Y-113561027D01*
X100170311Y-113549100D01*
X100242415Y-113544361D01*
X100354720Y-113533571D01*
X100420641Y-113512100D01*
X100457104Y-113474199D01*
X100458984Y-113470794D01*
X100475349Y-113405026D01*
X100444560Y-113332433D01*
X100442650Y-113329495D01*
X100403235Y-113283613D01*
X100349210Y-113260377D01*
X100259763Y-113252629D01*
X100218144Y-113252250D01*
X100118394Y-113250169D01*
X100066550Y-113239189D01*
X100047040Y-113212202D01*
X100044250Y-113172875D01*
X100049106Y-113126597D01*
X100074257Y-113102923D01*
X100135582Y-113094246D01*
X100210938Y-113093013D01*
X100353131Y-113080767D01*
X100439075Y-113043208D01*
X100471868Y-112977610D01*
X100454611Y-112881244D01*
X100453852Y-112879187D01*
X100431634Y-112839037D01*
X100391807Y-112817475D01*
X100317409Y-112808944D01*
X100235774Y-112807750D01*
X100044250Y-112807750D01*
X100044250Y-112701261D01*
X100015214Y-112584826D01*
X99938806Y-112484018D01*
X99831082Y-112417550D01*
X99791208Y-112406304D01*
X99733195Y-112389995D01*
X99704907Y-112359010D01*
X99695737Y-112294415D01*
X99695000Y-112234549D01*
X99677984Y-112099178D01*
X99626115Y-112015909D01*
X99538160Y-111982971D01*
X99519225Y-111982250D01*
X99443433Y-112007309D01*
X99396854Y-112084298D01*
X99378054Y-112215927D01*
X99377500Y-112250037D01*
X99373469Y-112340117D01*
X99356677Y-112383043D01*
X99320078Y-112394900D01*
X99314000Y-112395000D01*
X99275699Y-112386515D01*
X99256728Y-112350605D01*
X99250725Y-112271587D01*
X99250500Y-112238517D01*
X99234173Y-112101995D01*
X99184052Y-112017780D01*
X99098429Y-111983380D01*
X99074725Y-111982250D01*
X98998933Y-112007309D01*
X98952354Y-112084298D01*
X98933554Y-112215927D01*
X98933000Y-112250037D01*
X98929820Y-112339014D01*
X98914106Y-112381483D01*
X98876602Y-112394352D01*
X98853625Y-112395000D01*
X98807530Y-112390237D01*
X98783915Y-112365409D01*
X98775322Y-112304705D01*
X98774250Y-112226725D01*
X98763847Y-112096462D01*
X98729479Y-112018613D01*
X98666411Y-111985075D01*
X98631375Y-111982249D01*
X98555248Y-112000051D01*
G36*
X105703621Y-113010144D02*
G01*
X105509309Y-113106878D01*
X105341463Y-113251271D01*
X105209548Y-113439621D01*
X105179901Y-113500726D01*
X105139775Y-113647704D01*
X105127609Y-113825735D01*
X105142582Y-114009269D01*
X105183873Y-114172756D01*
X105202942Y-114217558D01*
X105327479Y-114406601D01*
X105490456Y-114552064D01*
X105681608Y-114651107D01*
X105890668Y-114700891D01*
X106107370Y-114698577D01*
X106321448Y-114641327D01*
X106465007Y-114566555D01*
X106540168Y-114520458D01*
X106590811Y-114493442D01*
X106599945Y-114490500D01*
X106605100Y-114520624D01*
X106609601Y-114604495D01*
X106613179Y-114732362D01*
X106615567Y-114894474D01*
X106616497Y-115081078D01*
X106616500Y-115093750D01*
X106616500Y-115697000D01*
X106870500Y-115697000D01*
X106870500Y-113874427D01*
X106601878Y-113874427D01*
X106562985Y-114049641D01*
X106473500Y-114206283D01*
X106339841Y-114333527D01*
X106168424Y-114420545D01*
X106147742Y-114427136D01*
X106024310Y-114452782D01*
X105905827Y-114446509D01*
X105813945Y-114425090D01*
X105654520Y-114350979D01*
X105527645Y-114233806D01*
X105437563Y-114086117D01*
X105388518Y-113920457D01*
X105384756Y-113749372D01*
X105430520Y-113585408D01*
X105494613Y-113481187D01*
X105638421Y-113343697D01*
X105800988Y-113259427D01*
X105972108Y-113226407D01*
X106141577Y-113242667D01*
X106299190Y-113306237D01*
X106434742Y-113415145D01*
X106538028Y-113567422D01*
X106583763Y-113691469D01*
X106601878Y-113874427D01*
X106870500Y-113874427D01*
X106870500Y-112998250D01*
X106743500Y-112998250D01*
X106662067Y-113002011D01*
X106625867Y-113022394D01*
X106616701Y-113073046D01*
X106616500Y-113093500D01*
X106604465Y-113165992D01*
X106574420Y-113188501D01*
X106535457Y-113154298D01*
X106535109Y-113153736D01*
X106496008Y-113121780D01*
X106418165Y-113076477D01*
X106350672Y-113042922D01*
X106133770Y-112974464D01*
X105914930Y-112964772D01*
X105703621Y-113010144D01*
X105703621Y-113010144D01*
G37*
X105703621Y-113010144D02*
X105509309Y-113106878D01*
X105341463Y-113251271D01*
X105209548Y-113439621D01*
X105179901Y-113500726D01*
X105139775Y-113647704D01*
X105127609Y-113825735D01*
X105142582Y-114009269D01*
X105183873Y-114172756D01*
X105202942Y-114217558D01*
X105327479Y-114406601D01*
X105490456Y-114552064D01*
X105681608Y-114651107D01*
X105890668Y-114700891D01*
X106107370Y-114698577D01*
X106321448Y-114641327D01*
X106465007Y-114566555D01*
X106540168Y-114520458D01*
X106590811Y-114493442D01*
X106599945Y-114490500D01*
X106605100Y-114520624D01*
X106609601Y-114604495D01*
X106613179Y-114732362D01*
X106615567Y-114894474D01*
X106616497Y-115081078D01*
X106616500Y-115093750D01*
X106616500Y-115697000D01*
X106870500Y-115697000D01*
X106870500Y-113874427D01*
X106601878Y-113874427D01*
X106562985Y-114049641D01*
X106473500Y-114206283D01*
X106339841Y-114333527D01*
X106168424Y-114420545D01*
X106147742Y-114427136D01*
X106024310Y-114452782D01*
X105905827Y-114446509D01*
X105813945Y-114425090D01*
X105654520Y-114350979D01*
X105527645Y-114233806D01*
X105437563Y-114086117D01*
X105388518Y-113920457D01*
X105384756Y-113749372D01*
X105430520Y-113585408D01*
X105494613Y-113481187D01*
X105638421Y-113343697D01*
X105800988Y-113259427D01*
X105972108Y-113226407D01*
X106141577Y-113242667D01*
X106299190Y-113306237D01*
X106434742Y-113415145D01*
X106538028Y-113567422D01*
X106583763Y-113691469D01*
X106601878Y-113874427D01*
X106870500Y-113874427D01*
X106870500Y-112998250D01*
X106743500Y-112998250D01*
X106662067Y-113002011D01*
X106625867Y-113022394D01*
X106616701Y-113073046D01*
X106616500Y-113093500D01*
X106604465Y-113165992D01*
X106574420Y-113188501D01*
X106535457Y-113154298D01*
X106535109Y-113153736D01*
X106496008Y-113121780D01*
X106418165Y-113076477D01*
X106350672Y-113042922D01*
X106133770Y-112974464D01*
X105914930Y-112964772D01*
X105703621Y-113010144D01*
G36*
X98821291Y-115337922D02*
G01*
X98801236Y-115364659D01*
X98789648Y-115424979D01*
X98782714Y-115531774D01*
X98780852Y-115577937D01*
X98771579Y-115824000D01*
X97795015Y-115824000D01*
X97495250Y-115824745D01*
X97254474Y-115827094D01*
X97068190Y-115831215D01*
X96931903Y-115837277D01*
X96841117Y-115845449D01*
X96791336Y-115855900D01*
X96780351Y-115862099D01*
X96746303Y-115934632D01*
X96751372Y-116020685D01*
X96780351Y-116071650D01*
X96799100Y-116076544D01*
X96846576Y-116081038D01*
X96924914Y-116085144D01*
X97036253Y-116088878D01*
X97182728Y-116092252D01*
X97366479Y-116095280D01*
X97589640Y-116097977D01*
X97854351Y-116100356D01*
X98162748Y-116102431D01*
X98516969Y-116104215D01*
X98919150Y-116105724D01*
X99371429Y-116106969D01*
X99875943Y-116107966D01*
X100434829Y-116108728D01*
X101050225Y-116109269D01*
X101724267Y-116109603D01*
X102459094Y-116109743D01*
X102668739Y-116109750D01*
X108519028Y-116109750D01*
X108528202Y-116387562D01*
X108533755Y-116521259D01*
X108541977Y-116604242D01*
X108556391Y-116649292D01*
X108580522Y-116669189D01*
X108607547Y-116675354D01*
X108641167Y-116676644D01*
X108662470Y-116660976D01*
X108674938Y-116616510D01*
X108682056Y-116531405D01*
X108686922Y-116405479D01*
X108696125Y-116125625D01*
X109233578Y-116116894D01*
X109444877Y-116111410D01*
X109614864Y-116102759D01*
X109736855Y-116091443D01*
X109804166Y-116077964D01*
X109813016Y-116073319D01*
X109849161Y-116007888D01*
X109848900Y-115924387D01*
X109816901Y-115862100D01*
X109797888Y-115857021D01*
X109749972Y-115852375D01*
X109670937Y-115848145D01*
X109558564Y-115844317D01*
X109410638Y-115840874D01*
X109224940Y-115837801D01*
X108999256Y-115835083D01*
X108731367Y-115832705D01*
X108419057Y-115830650D01*
X108060110Y-115828904D01*
X107652308Y-115827451D01*
X107193434Y-115826274D01*
X106681271Y-115825360D01*
X106113604Y-115824693D01*
X105488215Y-115824256D01*
X104802887Y-115824035D01*
X104357236Y-115824000D01*
X98935672Y-115824000D01*
X98926399Y-115577937D01*
X98920149Y-115453522D01*
X98910468Y-115379714D01*
X98893541Y-115343619D01*
X98865556Y-115332346D01*
X98853625Y-115331875D01*
X98821291Y-115337922D01*
X98821291Y-115337922D01*
G37*
X98821291Y-115337922D02*
X98801236Y-115364659D01*
X98789648Y-115424979D01*
X98782714Y-115531774D01*
X98780852Y-115577937D01*
X98771579Y-115824000D01*
X97795015Y-115824000D01*
X97495250Y-115824745D01*
X97254474Y-115827094D01*
X97068190Y-115831215D01*
X96931903Y-115837277D01*
X96841117Y-115845449D01*
X96791336Y-115855900D01*
X96780351Y-115862099D01*
X96746303Y-115934632D01*
X96751372Y-116020685D01*
X96780351Y-116071650D01*
X96799100Y-116076544D01*
X96846576Y-116081038D01*
X96924914Y-116085144D01*
X97036253Y-116088878D01*
X97182728Y-116092252D01*
X97366479Y-116095280D01*
X97589640Y-116097977D01*
X97854351Y-116100356D01*
X98162748Y-116102431D01*
X98516969Y-116104215D01*
X98919150Y-116105724D01*
X99371429Y-116106969D01*
X99875943Y-116107966D01*
X100434829Y-116108728D01*
X101050225Y-116109269D01*
X101724267Y-116109603D01*
X102459094Y-116109743D01*
X102668739Y-116109750D01*
X108519028Y-116109750D01*
X108528202Y-116387562D01*
X108533755Y-116521259D01*
X108541977Y-116604242D01*
X108556391Y-116649292D01*
X108580522Y-116669189D01*
X108607547Y-116675354D01*
X108641167Y-116676644D01*
X108662470Y-116660976D01*
X108674938Y-116616510D01*
X108682056Y-116531405D01*
X108686922Y-116405479D01*
X108696125Y-116125625D01*
X109233578Y-116116894D01*
X109444877Y-116111410D01*
X109614864Y-116102759D01*
X109736855Y-116091443D01*
X109804166Y-116077964D01*
X109813016Y-116073319D01*
X109849161Y-116007888D01*
X109848900Y-115924387D01*
X109816901Y-115862100D01*
X109797888Y-115857021D01*
X109749972Y-115852375D01*
X109670937Y-115848145D01*
X109558564Y-115844317D01*
X109410638Y-115840874D01*
X109224940Y-115837801D01*
X108999256Y-115835083D01*
X108731367Y-115832705D01*
X108419057Y-115830650D01*
X108060110Y-115828904D01*
X107652308Y-115827451D01*
X107193434Y-115826274D01*
X106681271Y-115825360D01*
X106113604Y-115824693D01*
X105488215Y-115824256D01*
X104802887Y-115824035D01*
X104357236Y-115824000D01*
X98935672Y-115824000D01*
X98926399Y-115577937D01*
X98920149Y-115453522D01*
X98910468Y-115379714D01*
X98893541Y-115343619D01*
X98865556Y-115332346D01*
X98853625Y-115331875D01*
X98821291Y-115337922D01*
G36*
X107849835Y-116880245D02*
G01*
X107805686Y-116913895D01*
X107778887Y-116984944D01*
X107761763Y-117105638D01*
X107759835Y-117125750D01*
X107747860Y-117226413D01*
X107729926Y-117280089D01*
X107696914Y-117303211D01*
X107657453Y-117310311D01*
X107566373Y-117348393D01*
X107483171Y-117427927D01*
X107425711Y-117527659D01*
X107410250Y-117604436D01*
X107406967Y-117658062D01*
X107386552Y-117685629D01*
X107333159Y-117695802D01*
X107240546Y-117697250D01*
X107097178Y-117714173D01*
X107006564Y-117765450D01*
X106967574Y-117851835D01*
X106965750Y-117881195D01*
X106991666Y-117951636D01*
X107070999Y-117995524D01*
X107206128Y-118013978D01*
X107249413Y-118014750D01*
X107344406Y-118017246D01*
X107392084Y-118030046D01*
X107408590Y-118061116D01*
X107410250Y-118094125D01*
X107405638Y-118139808D01*
X107381376Y-118163460D01*
X107321832Y-118172282D01*
X107237893Y-118173500D01*
X107093353Y-118188740D01*
X107003399Y-118234949D01*
X106966783Y-118312855D01*
X106965750Y-118332250D01*
X106991878Y-118416565D01*
X107071092Y-118469038D01*
X107204645Y-118490397D01*
X107237893Y-118491000D01*
X107338009Y-118493829D01*
X107389864Y-118506033D01*
X107408587Y-118533185D01*
X107410250Y-118554500D01*
X107400222Y-118595128D01*
X107359205Y-118613863D01*
X107275313Y-118618468D01*
X107132615Y-118635229D01*
X107029635Y-118681262D01*
X106975754Y-118751848D01*
X106971251Y-118771354D01*
X106976261Y-118853212D01*
X107023948Y-118904839D01*
X107120979Y-118930571D01*
X107223638Y-118935500D01*
X107327872Y-118937263D01*
X107383680Y-118946825D01*
X107406120Y-118970590D01*
X107410250Y-119014875D01*
X107405638Y-119060558D01*
X107381376Y-119084210D01*
X107321832Y-119093032D01*
X107237893Y-119094250D01*
X107093353Y-119109490D01*
X107003399Y-119155699D01*
X106966783Y-119233605D01*
X106965750Y-119253000D01*
X106991878Y-119337315D01*
X107071092Y-119389788D01*
X107204645Y-119411147D01*
X107237893Y-119411750D01*
X107337768Y-119414443D01*
X107389501Y-119426416D01*
X107408360Y-119453510D01*
X107410250Y-119477692D01*
X107436495Y-119553746D01*
X107501734Y-119633641D01*
X107585729Y-119698337D01*
X107668240Y-119728797D01*
X107677683Y-119729250D01*
X107723075Y-119733008D01*
X107747541Y-119754254D01*
X107757533Y-119807947D01*
X107759497Y-119909043D01*
X107759500Y-119919018D01*
X107762712Y-120029086D01*
X107776647Y-120095452D01*
X107807759Y-120137770D01*
X107838875Y-120160794D01*
X107901017Y-120194388D01*
X107949877Y-120188954D01*
X107997625Y-120160794D01*
X108042784Y-120123528D01*
X108066724Y-120074525D01*
X108075898Y-119994132D01*
X108077000Y-119919018D01*
X108078696Y-119813692D01*
X108087950Y-119756915D01*
X108111009Y-119733748D01*
X108154121Y-119729252D01*
X108156375Y-119729250D01*
X108198990Y-119732852D01*
X108222756Y-119753208D01*
X108233162Y-119804642D01*
X108235702Y-119901476D01*
X108235750Y-119936305D01*
X108238034Y-120049989D01*
X108248399Y-120117113D01*
X108272113Y-120154558D01*
X108311109Y-120177697D01*
X108397737Y-120195107D01*
X108453984Y-120175899D01*
X108491343Y-120147228D01*
X108511863Y-120100620D01*
X108520278Y-120019157D01*
X108521500Y-119934507D01*
X108522910Y-119823940D01*
X108530848Y-119762482D01*
X108550876Y-119735748D01*
X108588556Y-119729355D01*
X108600875Y-119729250D01*
X108646335Y-119733782D01*
X108670006Y-119757741D01*
X108678950Y-119816663D01*
X108680250Y-119903875D01*
X108687567Y-120024114D01*
X108713108Y-120102359D01*
X108743750Y-120142000D01*
X108827961Y-120199996D01*
X108899903Y-120198948D01*
X108955074Y-120142836D01*
X108988972Y-120035639D01*
X108997750Y-119917482D01*
X108999479Y-119812686D01*
X109008881Y-119756380D01*
X109032279Y-119733567D01*
X109075998Y-119729250D01*
X109077125Y-119729250D01*
X109122585Y-119733782D01*
X109146256Y-119757741D01*
X109155200Y-119816663D01*
X109156500Y-119903875D01*
X109171908Y-120039058D01*
X109213249Y-120137941D01*
X109273196Y-120193789D01*
X109344427Y-120199870D01*
X109419614Y-120149450D01*
X109421455Y-120147437D01*
X109458937Y-120069186D01*
X109473654Y-119939007D01*
X109474000Y-119909312D01*
X109476679Y-119806324D01*
X109488104Y-119751961D01*
X109513363Y-119731452D01*
X109536007Y-119729250D01*
X109661585Y-119699418D01*
X109763932Y-119615686D01*
X109813425Y-119533681D01*
X109848851Y-119461782D01*
X109886827Y-119425737D01*
X109949247Y-119413184D01*
X110029386Y-119411750D01*
X110155200Y-119401726D01*
X110229908Y-119367136D01*
X110263363Y-119301203D01*
X110267750Y-119247767D01*
X110247133Y-119167712D01*
X110181352Y-119118318D01*
X110064520Y-119096211D01*
X109999963Y-119094250D01*
X109910986Y-119091069D01*
X109868517Y-119075355D01*
X109855648Y-119037851D01*
X109855000Y-119014875D01*
X109860262Y-118967477D01*
X109886952Y-118944014D01*
X109951433Y-118936170D01*
X110011154Y-118935500D01*
X110139506Y-118930916D01*
X110216898Y-118912517D01*
X110255499Y-118873326D01*
X110267478Y-118806370D01*
X110267750Y-118788442D01*
X110249464Y-118703144D01*
X110189879Y-118649288D01*
X110081909Y-118622677D01*
X109979934Y-118618000D01*
X109897674Y-118612485D01*
X109861689Y-118590284D01*
X109855000Y-118554500D01*
X109862871Y-118517268D01*
X109896660Y-118498189D01*
X109971635Y-118491501D01*
X110023275Y-118491000D01*
X110151407Y-118481336D01*
X110228069Y-118448171D01*
X110262907Y-118385240D01*
X110267750Y-118332250D01*
X110252869Y-118249047D01*
X110201795Y-118199267D01*
X110104881Y-118176645D01*
X110023275Y-118173500D01*
X109925553Y-118171253D01*
X109875489Y-118159542D01*
X109857273Y-118130908D01*
X109855000Y-118094125D01*
X109859763Y-118048029D01*
X109884591Y-118024414D01*
X109945295Y-118015821D01*
X110023275Y-118014750D01*
X110150883Y-118005275D01*
X110227232Y-117972379D01*
X110262323Y-117909352D01*
X110267750Y-117850767D01*
X110247133Y-117770712D01*
X110181352Y-117721318D01*
X110064520Y-117699211D01*
X109999963Y-117697250D01*
X109910596Y-117693701D01*
X109867926Y-117677590D01*
X109855301Y-117640715D01*
X109854882Y-117625812D01*
X109825515Y-117505778D01*
X109747919Y-117400430D01*
X109637247Y-117328329D01*
X109602449Y-117316639D01*
X109474000Y-117282052D01*
X109474000Y-117115001D01*
X109464420Y-116987750D01*
X109431194Y-116911729D01*
X109367599Y-116876962D01*
X109310018Y-116871750D01*
X109229963Y-116892367D01*
X109180569Y-116958148D01*
X109158462Y-117074980D01*
X109156500Y-117139537D01*
X109152148Y-117230214D01*
X109134817Y-117273332D01*
X109098097Y-117284495D01*
X109096932Y-117284500D01*
X109061330Y-117273913D01*
X109039746Y-117232718D01*
X109026258Y-117146762D01*
X109022640Y-117106952D01*
X109003429Y-116982123D01*
X108966119Y-116909008D01*
X108902802Y-116876644D01*
X108853288Y-116872236D01*
X108777931Y-116889917D01*
X108732838Y-116949501D01*
X108713518Y-117058742D01*
X108712000Y-117116225D01*
X108709754Y-117213947D01*
X108698043Y-117264011D01*
X108669409Y-117282227D01*
X108632625Y-117284500D01*
X108583906Y-117278691D01*
X108560652Y-117249993D01*
X108553605Y-117181499D01*
X108553250Y-117139537D01*
X108541431Y-116999893D01*
X108503720Y-116913734D01*
X108436743Y-116875171D01*
X108399733Y-116871750D01*
X108314140Y-116885875D01*
X108262929Y-116934918D01*
X108239391Y-117028882D01*
X108235750Y-117116225D01*
X108233504Y-117213947D01*
X108221793Y-117264011D01*
X108193159Y-117282227D01*
X108156375Y-117284500D01*
X108107656Y-117278691D01*
X108084402Y-117249993D01*
X108077355Y-117181499D01*
X108077001Y-117139537D01*
X108065614Y-117000923D01*
X108028812Y-116915354D01*
X107962627Y-116876108D01*
X107919007Y-116871750D01*
X107849835Y-116880245D01*
X107849835Y-116880245D01*
G37*
X107849835Y-116880245D02*
X107805686Y-116913895D01*
X107778887Y-116984944D01*
X107761763Y-117105638D01*
X107759835Y-117125750D01*
X107747860Y-117226413D01*
X107729926Y-117280089D01*
X107696914Y-117303211D01*
X107657453Y-117310311D01*
X107566373Y-117348393D01*
X107483171Y-117427927D01*
X107425711Y-117527659D01*
X107410250Y-117604436D01*
X107406967Y-117658062D01*
X107386552Y-117685629D01*
X107333159Y-117695802D01*
X107240546Y-117697250D01*
X107097178Y-117714173D01*
X107006564Y-117765450D01*
X106967574Y-117851835D01*
X106965750Y-117881195D01*
X106991666Y-117951636D01*
X107070999Y-117995524D01*
X107206128Y-118013978D01*
X107249413Y-118014750D01*
X107344406Y-118017246D01*
X107392084Y-118030046D01*
X107408590Y-118061116D01*
X107410250Y-118094125D01*
X107405638Y-118139808D01*
X107381376Y-118163460D01*
X107321832Y-118172282D01*
X107237893Y-118173500D01*
X107093353Y-118188740D01*
X107003399Y-118234949D01*
X106966783Y-118312855D01*
X106965750Y-118332250D01*
X106991878Y-118416565D01*
X107071092Y-118469038D01*
X107204645Y-118490397D01*
X107237893Y-118491000D01*
X107338009Y-118493829D01*
X107389864Y-118506033D01*
X107408587Y-118533185D01*
X107410250Y-118554500D01*
X107400222Y-118595128D01*
X107359205Y-118613863D01*
X107275313Y-118618468D01*
X107132615Y-118635229D01*
X107029635Y-118681262D01*
X106975754Y-118751848D01*
X106971251Y-118771354D01*
X106976261Y-118853212D01*
X107023948Y-118904839D01*
X107120979Y-118930571D01*
X107223638Y-118935500D01*
X107327872Y-118937263D01*
X107383680Y-118946825D01*
X107406120Y-118970590D01*
X107410250Y-119014875D01*
X107405638Y-119060558D01*
X107381376Y-119084210D01*
X107321832Y-119093032D01*
X107237893Y-119094250D01*
X107093353Y-119109490D01*
X107003399Y-119155699D01*
X106966783Y-119233605D01*
X106965750Y-119253000D01*
X106991878Y-119337315D01*
X107071092Y-119389788D01*
X107204645Y-119411147D01*
X107237893Y-119411750D01*
X107337768Y-119414443D01*
X107389501Y-119426416D01*
X107408360Y-119453510D01*
X107410250Y-119477692D01*
X107436495Y-119553746D01*
X107501734Y-119633641D01*
X107585729Y-119698337D01*
X107668240Y-119728797D01*
X107677683Y-119729250D01*
X107723075Y-119733008D01*
X107747541Y-119754254D01*
X107757533Y-119807947D01*
X107759497Y-119909043D01*
X107759500Y-119919018D01*
X107762712Y-120029086D01*
X107776647Y-120095452D01*
X107807759Y-120137770D01*
X107838875Y-120160794D01*
X107901017Y-120194388D01*
X107949877Y-120188954D01*
X107997625Y-120160794D01*
X108042784Y-120123528D01*
X108066724Y-120074525D01*
X108075898Y-119994132D01*
X108077000Y-119919018D01*
X108078696Y-119813692D01*
X108087950Y-119756915D01*
X108111009Y-119733748D01*
X108154121Y-119729252D01*
X108156375Y-119729250D01*
X108198990Y-119732852D01*
X108222756Y-119753208D01*
X108233162Y-119804642D01*
X108235702Y-119901476D01*
X108235750Y-119936305D01*
X108238034Y-120049989D01*
X108248399Y-120117113D01*
X108272113Y-120154558D01*
X108311109Y-120177697D01*
X108397737Y-120195107D01*
X108453984Y-120175899D01*
X108491343Y-120147228D01*
X108511863Y-120100620D01*
X108520278Y-120019157D01*
X108521500Y-119934507D01*
X108522910Y-119823940D01*
X108530848Y-119762482D01*
X108550876Y-119735748D01*
X108588556Y-119729355D01*
X108600875Y-119729250D01*
X108646335Y-119733782D01*
X108670006Y-119757741D01*
X108678950Y-119816663D01*
X108680250Y-119903875D01*
X108687567Y-120024114D01*
X108713108Y-120102359D01*
X108743750Y-120142000D01*
X108827961Y-120199996D01*
X108899903Y-120198948D01*
X108955074Y-120142836D01*
X108988972Y-120035639D01*
X108997750Y-119917482D01*
X108999479Y-119812686D01*
X109008881Y-119756380D01*
X109032279Y-119733567D01*
X109075998Y-119729250D01*
X109077125Y-119729250D01*
X109122585Y-119733782D01*
X109146256Y-119757741D01*
X109155200Y-119816663D01*
X109156500Y-119903875D01*
X109171908Y-120039058D01*
X109213249Y-120137941D01*
X109273196Y-120193789D01*
X109344427Y-120199870D01*
X109419614Y-120149450D01*
X109421455Y-120147437D01*
X109458937Y-120069186D01*
X109473654Y-119939007D01*
X109474000Y-119909312D01*
X109476679Y-119806324D01*
X109488104Y-119751961D01*
X109513363Y-119731452D01*
X109536007Y-119729250D01*
X109661585Y-119699418D01*
X109763932Y-119615686D01*
X109813425Y-119533681D01*
X109848851Y-119461782D01*
X109886827Y-119425737D01*
X109949247Y-119413184D01*
X110029386Y-119411750D01*
X110155200Y-119401726D01*
X110229908Y-119367136D01*
X110263363Y-119301203D01*
X110267750Y-119247767D01*
X110247133Y-119167712D01*
X110181352Y-119118318D01*
X110064520Y-119096211D01*
X109999963Y-119094250D01*
X109910986Y-119091069D01*
X109868517Y-119075355D01*
X109855648Y-119037851D01*
X109855000Y-119014875D01*
X109860262Y-118967477D01*
X109886952Y-118944014D01*
X109951433Y-118936170D01*
X110011154Y-118935500D01*
X110139506Y-118930916D01*
X110216898Y-118912517D01*
X110255499Y-118873326D01*
X110267478Y-118806370D01*
X110267750Y-118788442D01*
X110249464Y-118703144D01*
X110189879Y-118649288D01*
X110081909Y-118622677D01*
X109979934Y-118618000D01*
X109897674Y-118612485D01*
X109861689Y-118590284D01*
X109855000Y-118554500D01*
X109862871Y-118517268D01*
X109896660Y-118498189D01*
X109971635Y-118491501D01*
X110023275Y-118491000D01*
X110151407Y-118481336D01*
X110228069Y-118448171D01*
X110262907Y-118385240D01*
X110267750Y-118332250D01*
X110252869Y-118249047D01*
X110201795Y-118199267D01*
X110104881Y-118176645D01*
X110023275Y-118173500D01*
X109925553Y-118171253D01*
X109875489Y-118159542D01*
X109857273Y-118130908D01*
X109855000Y-118094125D01*
X109859763Y-118048029D01*
X109884591Y-118024414D01*
X109945295Y-118015821D01*
X110023275Y-118014750D01*
X110150883Y-118005275D01*
X110227232Y-117972379D01*
X110262323Y-117909352D01*
X110267750Y-117850767D01*
X110247133Y-117770712D01*
X110181352Y-117721318D01*
X110064520Y-117699211D01*
X109999963Y-117697250D01*
X109910596Y-117693701D01*
X109867926Y-117677590D01*
X109855301Y-117640715D01*
X109854882Y-117625812D01*
X109825515Y-117505778D01*
X109747919Y-117400430D01*
X109637247Y-117328329D01*
X109602449Y-117316639D01*
X109474000Y-117282052D01*
X109474000Y-117115001D01*
X109464420Y-116987750D01*
X109431194Y-116911729D01*
X109367599Y-116876962D01*
X109310018Y-116871750D01*
X109229963Y-116892367D01*
X109180569Y-116958148D01*
X109158462Y-117074980D01*
X109156500Y-117139537D01*
X109152148Y-117230214D01*
X109134817Y-117273332D01*
X109098097Y-117284495D01*
X109096932Y-117284500D01*
X109061330Y-117273913D01*
X109039746Y-117232718D01*
X109026258Y-117146762D01*
X109022640Y-117106952D01*
X109003429Y-116982123D01*
X108966119Y-116909008D01*
X108902802Y-116876644D01*
X108853288Y-116872236D01*
X108777931Y-116889917D01*
X108732838Y-116949501D01*
X108713518Y-117058742D01*
X108712000Y-117116225D01*
X108709754Y-117213947D01*
X108698043Y-117264011D01*
X108669409Y-117282227D01*
X108632625Y-117284500D01*
X108583906Y-117278691D01*
X108560652Y-117249993D01*
X108553605Y-117181499D01*
X108553250Y-117139537D01*
X108541431Y-116999893D01*
X108503720Y-116913734D01*
X108436743Y-116875171D01*
X108399733Y-116871750D01*
X108314140Y-116885875D01*
X108262929Y-116934918D01*
X108239391Y-117028882D01*
X108235750Y-117116225D01*
X108233504Y-117213947D01*
X108221793Y-117264011D01*
X108193159Y-117282227D01*
X108156375Y-117284500D01*
X108107656Y-117278691D01*
X108084402Y-117249993D01*
X108077355Y-117181499D01*
X108077001Y-117139537D01*
X108065614Y-117000923D01*
X108028812Y-116915354D01*
X107962627Y-116876108D01*
X107919007Y-116871750D01*
X107849835Y-116880245D01*
G36*
X99436080Y-116840107D02*
G01*
X99012375Y-116840214D01*
X98675127Y-117460964D01*
X98337878Y-118081713D01*
X98006120Y-117468794D01*
X97674361Y-116855875D01*
X97255931Y-116847015D01*
X97101292Y-116845141D01*
X96972457Y-116846245D01*
X96881128Y-116850026D01*
X96839003Y-116856182D01*
X96837500Y-116857817D01*
X96853006Y-116889007D01*
X96896958Y-116968180D01*
X96965511Y-117088645D01*
X97054821Y-117243709D01*
X97161041Y-117426681D01*
X97280326Y-117630869D01*
X97347706Y-117745704D01*
X97491671Y-117991621D01*
X97605699Y-118188951D01*
X97692722Y-118343437D01*
X97755677Y-118460821D01*
X97797496Y-118546846D01*
X97821114Y-118607253D01*
X97829465Y-118647787D01*
X97825484Y-118674189D01*
X97823851Y-118677575D01*
X97799519Y-118720188D01*
X97747089Y-118810086D01*
X97670868Y-118939948D01*
X97575165Y-119102451D01*
X97464289Y-119290272D01*
X97342547Y-119496089D01*
X97297770Y-119571694D01*
X97175152Y-119779063D01*
X97063690Y-119968345D01*
X96967328Y-120132778D01*
X96890010Y-120265602D01*
X96835680Y-120360058D01*
X96808284Y-120409384D01*
X96805750Y-120414959D01*
X96835555Y-120419671D01*
X96917192Y-120423601D01*
X97038993Y-120426395D01*
X97189292Y-120427698D01*
X97227183Y-120427750D01*
X97648616Y-120427750D01*
X97965371Y-119851557D01*
X98062374Y-119675769D01*
X98150490Y-119517341D01*
X98224630Y-119385320D01*
X98279706Y-119288755D01*
X98310631Y-119236692D01*
X98313889Y-119231831D01*
X98332706Y-119231101D01*
X98366434Y-119265640D01*
X98417955Y-119339879D01*
X98490148Y-119458249D01*
X98585895Y-119625182D01*
X98683270Y-119800086D01*
X99020889Y-120411875D01*
X99457451Y-120420736D01*
X99894014Y-120429597D01*
X99847284Y-120357236D01*
X99792544Y-120269808D01*
X99716943Y-120145288D01*
X99625149Y-119991710D01*
X99521829Y-119817107D01*
X99411652Y-119629512D01*
X99299284Y-119436959D01*
X99189394Y-119247482D01*
X99086649Y-119069113D01*
X98995717Y-118909886D01*
X98921266Y-118777835D01*
X98867962Y-118680992D01*
X98840475Y-118627392D01*
X98837750Y-118619750D01*
X98853279Y-118583210D01*
X98897028Y-118499720D01*
X98964739Y-118376896D01*
X99052158Y-118222356D01*
X99155027Y-118043715D01*
X99261340Y-117861759D01*
X99380248Y-117659524D01*
X99493178Y-117467301D01*
X99594690Y-117294363D01*
X99679339Y-117149987D01*
X99741685Y-117043449D01*
X99772357Y-116990812D01*
X99859784Y-116840000D01*
X99436080Y-116840107D01*
X99436080Y-116840107D01*
G37*
X99436080Y-116840107D02*
X99012375Y-116840214D01*
X98675127Y-117460964D01*
X98337878Y-118081713D01*
X98006120Y-117468794D01*
X97674361Y-116855875D01*
X97255931Y-116847015D01*
X97101292Y-116845141D01*
X96972457Y-116846245D01*
X96881128Y-116850026D01*
X96839003Y-116856182D01*
X96837500Y-116857817D01*
X96853006Y-116889007D01*
X96896958Y-116968180D01*
X96965511Y-117088645D01*
X97054821Y-117243709D01*
X97161041Y-117426681D01*
X97280326Y-117630869D01*
X97347706Y-117745704D01*
X97491671Y-117991621D01*
X97605699Y-118188951D01*
X97692722Y-118343437D01*
X97755677Y-118460821D01*
X97797496Y-118546846D01*
X97821114Y-118607253D01*
X97829465Y-118647787D01*
X97825484Y-118674189D01*
X97823851Y-118677575D01*
X97799519Y-118720188D01*
X97747089Y-118810086D01*
X97670868Y-118939948D01*
X97575165Y-119102451D01*
X97464289Y-119290272D01*
X97342547Y-119496089D01*
X97297770Y-119571694D01*
X97175152Y-119779063D01*
X97063690Y-119968345D01*
X96967328Y-120132778D01*
X96890010Y-120265602D01*
X96835680Y-120360058D01*
X96808284Y-120409384D01*
X96805750Y-120414959D01*
X96835555Y-120419671D01*
X96917192Y-120423601D01*
X97038993Y-120426395D01*
X97189292Y-120427698D01*
X97227183Y-120427750D01*
X97648616Y-120427750D01*
X97965371Y-119851557D01*
X98062374Y-119675769D01*
X98150490Y-119517341D01*
X98224630Y-119385320D01*
X98279706Y-119288755D01*
X98310631Y-119236692D01*
X98313889Y-119231831D01*
X98332706Y-119231101D01*
X98366434Y-119265640D01*
X98417955Y-119339879D01*
X98490148Y-119458249D01*
X98585895Y-119625182D01*
X98683270Y-119800086D01*
X99020889Y-120411875D01*
X99457451Y-120420736D01*
X99894014Y-120429597D01*
X99847284Y-120357236D01*
X99792544Y-120269808D01*
X99716943Y-120145288D01*
X99625149Y-119991710D01*
X99521829Y-119817107D01*
X99411652Y-119629512D01*
X99299284Y-119436959D01*
X99189394Y-119247482D01*
X99086649Y-119069113D01*
X98995717Y-118909886D01*
X98921266Y-118777835D01*
X98867962Y-118680992D01*
X98840475Y-118627392D01*
X98837750Y-118619750D01*
X98853279Y-118583210D01*
X98897028Y-118499720D01*
X98964739Y-118376896D01*
X99052158Y-118222356D01*
X99155027Y-118043715D01*
X99261340Y-117861759D01*
X99380248Y-117659524D01*
X99493178Y-117467301D01*
X99594690Y-117294363D01*
X99679339Y-117149987D01*
X99741685Y-117043449D01*
X99772357Y-116990812D01*
X99859784Y-116840000D01*
X99436080Y-116840107D01*
G36*
X101726610Y-118013301D02*
G01*
X101012625Y-119186603D01*
X101004302Y-118013301D01*
X100995978Y-116840000D01*
X100266500Y-116840000D01*
X100266500Y-120429765D01*
X100638391Y-120420820D01*
X101010281Y-120411875D01*
X102409625Y-118117711D01*
X102417954Y-119272730D01*
X102426283Y-120427750D01*
X103187500Y-120427750D01*
X103187500Y-116840000D01*
X102440595Y-116840000D01*
X101726610Y-118013301D01*
X101726610Y-118013301D01*
G37*
X101726610Y-118013301D02*
X101012625Y-119186603D01*
X101004302Y-118013301D01*
X100995978Y-116840000D01*
X100266500Y-116840000D01*
X100266500Y-120429765D01*
X100638391Y-120420820D01*
X101010281Y-120411875D01*
X102409625Y-118117711D01*
X102417954Y-119272730D01*
X102426283Y-120427750D01*
X103187500Y-120427750D01*
X103187500Y-116840000D01*
X102440595Y-116840000D01*
X101726610Y-118013301D01*
G36*
X105616375Y-118441840D02*
G01*
X105490555Y-118267982D01*
X105399002Y-118143512D01*
X105287885Y-117995661D01*
X105163093Y-117831942D01*
X105030518Y-117659866D01*
X104896052Y-117486948D01*
X104765585Y-117320699D01*
X104645009Y-117168632D01*
X104540216Y-117038259D01*
X104457096Y-116937094D01*
X104401540Y-116872648D01*
X104380464Y-116852378D01*
X104336242Y-116847704D01*
X104241606Y-116845036D01*
X104109612Y-116844526D01*
X103953319Y-116846331D01*
X103920820Y-116846971D01*
X103498468Y-116855875D01*
X104108679Y-117617875D01*
X104260917Y-117808620D01*
X104400294Y-117984475D01*
X104521824Y-118139054D01*
X104620526Y-118265973D01*
X104691416Y-118358846D01*
X104729509Y-118411290D01*
X104734501Y-118419651D01*
X104721167Y-118454386D01*
X104676348Y-118535761D01*
X104603842Y-118657618D01*
X104507450Y-118813803D01*
X104390970Y-118998159D01*
X104258202Y-119204532D01*
X104112946Y-119426766D01*
X104111681Y-119428686D01*
X103966086Y-119650121D01*
X103832153Y-119854577D01*
X103713763Y-120036072D01*
X103614797Y-120188623D01*
X103539136Y-120306247D01*
X103490662Y-120382961D01*
X103473255Y-120412782D01*
X103473250Y-120412848D01*
X103503073Y-120418291D01*
X103584834Y-120422843D01*
X103706973Y-120426103D01*
X103857932Y-120427669D01*
X103902528Y-120427750D01*
X104331805Y-120427750D01*
X104551046Y-120086437D01*
X104657919Y-119920087D01*
X104782938Y-119725537D01*
X104909902Y-119527997D01*
X105013990Y-119366083D01*
X105257694Y-118987041D01*
X105629488Y-119395875D01*
X105630869Y-119911812D01*
X105632250Y-120427750D01*
X106362500Y-120427750D01*
X106362500Y-116840000D01*
X105633341Y-116840000D01*
X105616375Y-118441840D01*
X105616375Y-118441840D01*
G37*
X105616375Y-118441840D02*
X105490555Y-118267982D01*
X105399002Y-118143512D01*
X105287885Y-117995661D01*
X105163093Y-117831942D01*
X105030518Y-117659866D01*
X104896052Y-117486948D01*
X104765585Y-117320699D01*
X104645009Y-117168632D01*
X104540216Y-117038259D01*
X104457096Y-116937094D01*
X104401540Y-116872648D01*
X104380464Y-116852378D01*
X104336242Y-116847704D01*
X104241606Y-116845036D01*
X104109612Y-116844526D01*
X103953319Y-116846331D01*
X103920820Y-116846971D01*
X103498468Y-116855875D01*
X104108679Y-117617875D01*
X104260917Y-117808620D01*
X104400294Y-117984475D01*
X104521824Y-118139054D01*
X104620526Y-118265973D01*
X104691416Y-118358846D01*
X104729509Y-118411290D01*
X104734501Y-118419651D01*
X104721167Y-118454386D01*
X104676348Y-118535761D01*
X104603842Y-118657618D01*
X104507450Y-118813803D01*
X104390970Y-118998159D01*
X104258202Y-119204532D01*
X104112946Y-119426766D01*
X104111681Y-119428686D01*
X103966086Y-119650121D01*
X103832153Y-119854577D01*
X103713763Y-120036072D01*
X103614797Y-120188623D01*
X103539136Y-120306247D01*
X103490662Y-120382961D01*
X103473255Y-120412782D01*
X103473250Y-120412848D01*
X103503073Y-120418291D01*
X103584834Y-120422843D01*
X103706973Y-120426103D01*
X103857932Y-120427669D01*
X103902528Y-120427750D01*
X104331805Y-120427750D01*
X104551046Y-120086437D01*
X104657919Y-119920087D01*
X104782938Y-119725537D01*
X104909902Y-119527997D01*
X105013990Y-119366083D01*
X105257694Y-118987041D01*
X105629488Y-119395875D01*
X105630869Y-119911812D01*
X105632250Y-120427750D01*
X106362500Y-120427750D01*
X106362500Y-116840000D01*
X105633341Y-116840000D01*
X105616375Y-118441840D01*
D12*
X91440000Y-112270000D02*
X90110000Y-112270000D01*
X90110000Y-112270000D02*
X90110000Y-113030000D01*
X90110000Y-113665000D02*
X90110000Y-122615000D01*
X91132470Y-122615000D02*
X90110000Y-122615000D01*
X92770000Y-122615000D02*
X91747530Y-122615000D01*
X92770000Y-113665000D02*
X92770000Y-122615000D01*
X90680000Y-113665000D02*
X90110000Y-113665000D01*
X92770000Y-113665000D02*
X92200000Y-113665000D01*
D10*
X94541933Y-112837980D02*
X94541933Y-113552266D01*
X94589552Y-113695123D01*
X94684790Y-113790361D01*
X94827647Y-113837980D01*
X94922885Y-113837980D01*
X93541933Y-113837980D02*
X94113361Y-113837980D01*
X93827647Y-113837980D02*
X93827647Y-112837980D01*
X93922885Y-112980838D01*
X94018123Y-113076076D01*
X94113361Y-113123695D01*
M02*
