M48
; DRILL file {KiCad (5.1.4)-1} date 10/02/2022 12:30:52
; FORMAT={-:-/ absolute / inch / decimal}
; #@! TF.CreationDate,2022-02-10T12:30:52+01:00
; #@! TF.GenerationSoftware,Kicad,Pcbnew,(5.1.4)-1
; #@! TF.FileFunction,Plated,1,2,PTH
FMAT,2
INCH
T1C0.0157
T2C0.0256
T3C0.0276
T4C0.0362
T5C0.0394
T6C0.0400
T7C0.0917
%
G90
G05
T1
X3.775Y-4.625
X3.825Y-4.45
X3.875Y-4.6
X3.8798Y-4.7503
X3.8959Y-4.4955
X3.9057Y-4.6309
X3.9493Y-3.8876
X3.9637Y-4.9953
X4.0072Y-4.8587
X4.0569Y-4.5024
X4.1437Y-3.8935
X4.2Y-4.425
X4.225Y-4.025
X4.35Y-4.9
X4.3793Y-4.4396
X4.3971Y-4.3334
X4.55Y-4.975
X4.5542Y-4.6437
T2
X3.95Y-4.725
X3.95Y-4.775
X4.0Y-4.725
X4.0Y-4.775
X4.05Y-4.725
X4.05Y-4.775
X4.1Y-4.725
X4.1Y-4.775
X4.15Y-4.725
X4.15Y-4.775
T3
X3.6Y-4.45
X3.6Y-4.5
X3.6Y-4.55
X3.6Y-4.6
X3.6Y-4.65
X3.6Y-4.7
X3.6Y-4.75
X3.6Y-4.8
X4.4657Y-3.9045
X4.4657Y-4.0955
T4
X4.35Y-4.5516
X4.35Y-4.65
X4.4287Y-4.5516
X4.4287Y-4.65
T5
X4.325Y-3.85
X4.325Y-3.95
X4.325Y-4.05
X4.325Y-4.15
X4.325Y-4.25
T6
X4.0Y-4.025
X4.0Y-4.125
X4.0Y-4.225
X4.0Y-4.325
X4.0Y-4.425
X4.1Y-4.025
X4.1Y-4.125
X4.1Y-4.225
X4.1Y-4.325
X4.1Y-4.425
T7
X4.5354Y-4.3638
X4.5354Y-4.8378
T3
G00X4.5634Y-3.8573
M15
G01X4.5791Y-3.8573
M16
G05
G00X4.5634Y-4.1427
M15
G01X4.5791Y-4.1427
M16
G05
T0
M30
